<svg width="36" height="36" viewBox="0 0 36 36" fill="none" xmlns="http://www.w3.org/2000/svg">
<circle cx="18.5" cy="18.5" r="16.5" fill="white"/>
<path d="M5.78544 17.8741C5.74876 23.0247 9.29565 27.9985 14.163 29.6258C19.0303 31.253 24.8403 29.4085 27.892 25.2667C30.9401 21.1249 30.9914 15.0061 28.0131 10.8165C23.0577 3.84352 12.4501 4.23009 7.83214 11.2914C6.55937 13.239 5.80011 15.5363 5.78544 17.8741Z" stroke="#0C0016" stroke-width="2.2" stroke-linecap="round" stroke-linejoin="round"/>
<path d="M7.81295 5.61386C3.27484 9.2753 1.0021 15.5107 2.13294 21.2116C3.26379 26.9124 7.74296 31.8261 13.3419 33.503C18.9409 35.1799 25.4055 33.5433 29.5163 29.4095C33.6271 25.2758 35.1963 18.8316 33.4466 13.2882C32.1279 9.10321 29.019 5.52599 25.0777 3.55247C18.5946 0.301121 10.0415 1.81329 5.07977 7.0821" stroke="black" stroke-width="2.2" stroke-linecap="round" stroke-linejoin="round"/>
<path d="M11.3027 15.5977L15.1978 12.0898C15.2127 15.7671 15.2277 19.4444 15.2427 23.1217" stroke="#0C0016" stroke-width="2.2" stroke-linecap="round" stroke-linejoin="round"/>
<path d="M23.9849 13.5039C23.808 12.8289 23.2093 12.2737 22.5015 12.1285C21.7936 11.9833 21.0142 12.2555 20.5662 12.8035C19.8244 13.7144 20.1144 15.079 20.7883 16.0371C21.4623 16.9952 22.445 17.7065 23.2018 18.6029C23.9849 19.5356 24.5158 20.7514 24.2749 21.9272C24.0339 23.1031 22.814 24.1192 21.5978 23.8725C20.4269 23.6366 19.7416 22.4099 19.6287 21.2631C19.4705 19.6808 20.1294 18.0404 21.3531 16.9734C21.8275 16.5597 22.3772 16.2294 22.8554 15.8157C23.3336 15.402 23.7402 14.8685 23.8117 14.2552C23.8833 13.6419 23.5105 12.9559 22.8855 12.8144" stroke="#0C0016" stroke-width="2.2" stroke-linecap="round" stroke-linejoin="round"/>
</svg>
