<svg width="36" height="36" viewBox="0 0 36 36" fill="none" xmlns="http://www.w3.org/2000/svg">
<path d="M26.8037 8.88928C27.9639 7.60829 29.2659 6.52555 30.6552 5.70097L26.8037 8.88928Z" fill="white"/>
<path d="M26.8037 8.88928C27.9639 7.60829 29.2659 6.52555 30.6552 5.70097" stroke="#0C0016" stroke-width="2.3" stroke-linecap="round" stroke-linejoin="round"/>
<path d="M26.5 13.959L30.7209 13.6868L26.5 13.959Z" fill="white"/>
<path d="M26.5 13.959L30.7209 13.6868" stroke="black" stroke-width="2.3" stroke-linecap="round" stroke-linejoin="round"/>
<path d="M25.6738 17.874L27.8898 21.492L25.6738 17.874Z" fill="white"/>
<path d="M25.6738 17.874L27.8898 21.492" stroke="#0C0016" stroke-width="2.3" stroke-linecap="round" stroke-linejoin="round"/>
<path d="M9.6131 9.94285C8.59319 8.5411 7.35143 7.3683 5.98633 6.50098L9.6131 9.94285Z" fill="white"/>
<path d="M9.6131 9.94285C8.59319 8.5411 7.35143 7.3683 5.98633 6.50098" stroke="#0C0016" stroke-width="2.3" stroke-linecap="round" stroke-linejoin="round"/>
<path d="M10.0227 14.5616L6.39138 14.8699L10.0227 14.5616Z" fill="white"/>
<path d="M10.0227 14.5616L6.39138 14.8699" stroke="black" stroke-width="2.3" stroke-linecap="round" stroke-linejoin="round"/>
<path d="M11.1175 18.8153C9.91466 19.697 8.71117 20.5746 7.50834 21.4562L11.1175 18.8153Z" fill="white"/>
<path d="M11.1175 18.8153C9.91466 19.697 8.71117 20.5746 7.50834 21.4562" stroke="black" stroke-width="2.3" stroke-linecap="round" stroke-linejoin="round"/>
<path d="M18.8505 23.4123C20 17 21 12.5 24 4L14 5C14.5 13.5 15.5 16 17 23.4123C17.5 24 18.778 23.8172 18.8505 23.4123Z" fill="white" stroke="black" stroke-width="2.3" stroke-linecap="round" stroke-linejoin="round"/>
<path d="M18.1513 28.7031C17.6849 28.2525 16.9831 28.2996 16.5251 28.7366C16.067 29.1735 15.8498 29.9375 15.895 30.6662C15.9871 32.0214 17.045 33.1919 18.1297 33.1355C19.2145 33.079 20.1507 31.8114 20.1084 30.4462C20.0662 29.0809 19.05 27.8614 17.9629 27.8629" fill="white"/>
<path d="M18.1513 28.7031C17.6849 28.2525 16.9831 28.2996 16.5251 28.7366C16.067 29.1735 15.8498 29.9375 15.895 30.6662C15.9871 32.0214 17.045 33.1919 18.1297 33.1355C19.2145 33.079 20.1507 31.8114 20.1084 30.4462C20.0662 29.0809 19.05 27.8614 17.9629 27.8629" stroke="black" stroke-width="2.3" stroke-linecap="round" stroke-linejoin="round"/>
</svg>
