<svg width="16" height="16" viewBox="0 0 16 16" fill="none" xmlns="http://www.w3.org/2000/svg">
<g clip-path="url(#clip0_21729_241142)">
<path d="M1.33579 7.87434C1.3578 7.00907 1.54855 6.14381 1.93005 5.35186C2.4216 4.33261 3.1626 3.43801 4.04299 2.73406C4.50519 2.36742 5.00408 2.03744 5.54699 1.81013C6.19994 1.53148 6.90425 1.39949 7.60856 1.3335C11.1154 1.3335 14.0061 3.21802 14.5343 6.2098C15.0405 9.06959 14.1088 11.9807 11.6217 13.5939C11.5043 13.6746 11.3796 13.7479 11.2548 13.8139C9.56743 14.7672 7.76997 14.8845 5.93582 14.3492C5.38558 14.1879 4.84267 14.0486 4.34379 13.7552C3.99897 13.5573 3.69083 13.3006 3.4047 13.022C2.05477 11.6947 1.29177 9.77354 1.33579 7.87434Z" stroke="#BF0000" stroke-width="2" stroke-miterlimit="10" stroke-linecap="round"/>
<path d="M5.33398 5.3335C5.78356 5.78674 6.46716 6.2586 6.91674 6.71184C8.24699 8.04052 9.34322 9.33815 10.6673 10.6668" stroke="#BF0000" stroke-width="2" stroke-linecap="round" stroke-linejoin="round"/>
<path d="M5.11133 10.8891L6.71101 9.41898L9.58572 6.74795L11.1113 5.3335" stroke="#BF0000" stroke-width="2" stroke-linecap="round" stroke-linejoin="round"/>
</g>
<defs>
<clipPath id="clip0_21729_241142">
<rect width="16" height="16" fill="white"/>
</clipPath>
</defs>
</svg>
