<svg width="24" height="24" viewBox="0 0 24 24" fill="none" xmlns="http://www.w3.org/2000/svg">
<path d="M9.32 15.14H3.96C2.88 15.14 2 14.26 2 13.18V3.96C2 2.88 2.88 2 3.96 2H13.18C14.26 2 15.14 2.88 15.14 3.96V8.9H9.35L9.32 15.13V15.14Z" fill="#ABA8FC"/>
<path d="M5.5 15C4.81834 15 3.41895 15.1285 2.89121 14.7086C2.19856 14.1486 2.14359 13.1579 2.13259 12.2857C2.1216 9.81968 2.1106 7.34293 2.09961 4.87695C2.09961 4.13393 2.1216 3.30475 2.63834 2.75556C3.21005 2.15253 4.14459 2.10945 4.99116 2.09869C7.40995 2.09869 9.82874 2.08792 12.2475 2.07715C13.0171 2.07715 13.8197 2.07715 14.4904 2.45405C15.0401 2.76633 14.989 4.12163 15 5.5" stroke="#0C0016" stroke-width="2" stroke-linecap="round" stroke-linejoin="round"/>
<path d="M9.66319 9.37803C10.3888 8.57039 11.7302 8.72115 12.8186 8.74269C14.9296 8.77499 17.0405 8.79653 19.1515 8.82883C19.8331 8.82883 20.5807 8.87191 21.1085 9.29188C21.8011 9.85184 21.8561 10.8425 21.8671 11.7148C21.8781 14.1808 21.8891 16.6575 21.9001 19.1235C21.9001 19.8665 21.8781 20.6957 21.3613 21.2449C20.7896 21.8479 19.8551 21.891 19.0085 21.9018C16.5897 21.9018 14.1709 21.9125 11.7522 21.9233C10.9825 21.9233 10.1799 21.9233 9.50927 21.5464C8.95955 21.2341 9.15745 19.6727 9.14645 18.2943C9.13546 16.5606 9.08049 15.5699 8.99253 13.0393C8.94855 11.7148 8.50877 10.6487 9.6522 9.37803H9.66319Z" fill="#ABA8FC" stroke="#0C0016" stroke-width="2" stroke-linecap="round" stroke-linejoin="round"/>
</svg>
