<svg width="24" height="24" viewBox="0 0 24 24" fill="none" xmlns="http://www.w3.org/2000/svg">
<path d="M13.5 16.1479C13.5 12.8817 15 10 18.9818 9.22892L20 9V7.8368C20 6.26506 18.7663 5 17.2502 5L11.5 5.5L4.75723 5C3.23369 5 2 6.27273 2 7.8368V16.1555C2 17.7273 3.23369 19 4.75723 19H13.9579C13.5 18 13.5 17.1829 13.5 16.1479Z" fill="white"/>
<path d="M20 8.31082V7.54632C20 6.14047 18.8183 5 17.3617 5L11.5 5.5L4.63832 5C3.18167 5 2 6.14047 2 7.54632V16.4537C2 17.8595 3.18167 19 4.63832 19H13.0991" stroke="#0C0016" stroke-width="2" stroke-linecap="round" stroke-linejoin="round"/>
<path d="M3 6.53846L10.5 13L18 6" stroke="black" stroke-width="2" stroke-linecap="round" stroke-linejoin="round"/>
<path d="M21.08 14.7451C20.4152 13.3351 18.0666 13.545 17.9485 15.1624C17.9028 15.8078 18.0882 16.5024 18.5821 16.8704C19.0759 17.2385 19.7142 17.3474 20.3068 17.2333C20.591 17.1789 20.8897 17.0545 21.0318 16.7849C21.1234 16.6113 21.133 16.4065 21.1426 16.2095C21.1691 15.5408 21.1764 14.8721 21.1619 14.206C21.1667 15.0457 21.0053 16.0255 21.4726 16.7616C21.5545 16.8886 21.6509 17.0156 21.7834 17.0752C22.1423 17.2385 22.5109 16.8549 22.6747 16.4739C23.2142 15.2246 23.1082 13.4388 22.164 12.5057C21.4437 11.7955 20.379 11.5026 19.4059 11.5C18.5315 11.5 17.3415 11.9588 16.7827 12.6845C15.9372 13.7731 15.8288 15.673 16.2094 16.9845C16.826 19.1125 19.5022 20.1674 22.1881 19.0451" stroke="#0C0016" stroke-width="1.3" stroke-linecap="round" stroke-linejoin="round"/>
</svg>
