<svg width="40" height="36" viewBox="0 0 40 36" fill="none" xmlns="http://www.w3.org/2000/svg">
<g clip-path="url(#clip0_20852_202818)">
<path d="M20.1004 27.7499C17.4704 26.2699 14.8704 24.1699 12.9704 21.8199C11.7604 20.3199 10.7104 18.6199 10.3304 16.7299C9.94035 14.8399 10.2304 12.8699 10.8204 11.0299C11.0004 10.4799 11.2004 9.9199 11.5604 9.4599C12.0804 8.7799 12.9004 8.3499 13.7504 8.2099C14.6004 8.0699 15.4804 8.2099 16.2904 8.4799C17.8504 9.0199 19.2204 10.1199 20.0704 11.5399C21.3704 10.3999 22.8404 9.4499 24.4204 8.7399C27.4404 7.3899 30.0104 10.5299 30.1504 13.2999C30.2804 15.9099 28.7904 18.2799 27.3604 20.4699C26.9104 21.1499 26.4604 21.8399 25.9304 22.4699C25.2104 23.3299 24.3504 24.0699 23.5004 24.8099L20.1004 27.7599V27.7499Z" stroke="#0C0016" stroke-width="2.3" stroke-linecap="round" stroke-linejoin="round"/>
<path d="M14.8702 12.45C14.4102 12.79 14.1902 13.29 14.0502 13.83C13.9102 14.4 13.9002 15 14.0102 15.57C14.1902 16.5 14.6602 17.35 15.2502 18.08" stroke="#0C0016" stroke-width="2.3" stroke-miterlimit="10" stroke-linecap="round"/>
</g>
<defs>
<clipPath id="clip0_20852_202818">
<rect width="22.3" height="21.9" fill="white" transform="translate(9 7)"/>
</clipPath>
</defs>
</svg>
