<svg width="40" height="36" viewBox="0 0 40 36" fill="none" xmlns="http://www.w3.org/2000/svg">
<path d="M6.3199 20.8096C4.7499 17.9796 5.4999 15.9396 6.4199 14.1396" stroke="#0C0016" stroke-width="2.3" stroke-miterlimit="10" stroke-linecap="round"/>
<path d="M2.67536 21.9298C0.765362 19.3198 1.41536 16.1598 2.85536 13.5498" stroke="#0C0016" stroke-width="2.3" stroke-miterlimit="10" stroke-linecap="round"/>
<path d="M33.8617 14.7891C35.4317 17.6191 34.6817 19.6591 33.7617 21.4591" stroke="#0C0016" stroke-width="2.3" stroke-miterlimit="10" stroke-linecap="round"/>
<path d="M37.5025 13.6719C39.2425 16.0519 39.0125 19.7119 37.3125 22.0419" stroke="#0C0016" stroke-width="2.3" stroke-miterlimit="10" stroke-linecap="round"/>
<g clip-path="url(#clip0_20852_202912)">
<path d="M20.1023 27.7499C17.4723 26.2699 14.8723 24.1699 12.9723 21.8199C11.7623 20.3199 10.7123 18.6199 10.3323 16.7299C9.94231 14.8399 10.2323 12.8699 10.8223 11.0299C11.0023 10.4799 11.2023 9.9199 11.5623 9.4599C12.0823 8.7799 12.9023 8.3499 13.7523 8.2099C14.6023 8.0699 15.4823 8.2099 16.2923 8.4799C17.8523 9.0199 19.2223 10.1199 20.0723 11.5399C21.3723 10.3999 22.8423 9.4499 24.4223 8.7399C27.4423 7.3899 30.0123 10.5299 30.1523 13.2999C30.2823 15.9099 28.7923 18.2799 27.3623 20.4699C26.9123 21.1499 26.4623 21.8399 25.9323 22.4699C25.2123 23.3299 24.3523 24.0699 23.5023 24.8099L20.1023 27.7599V27.7499Z" fill="#0C0016" stroke="#0C0016" stroke-width="2.3" stroke-linecap="round" stroke-linejoin="round"/>
<path d="M14.8722 12.45C14.4122 12.79 14.1922 13.29 14.0522 13.83C13.9122 14.4 13.9022 15 14.0122 15.57C14.1922 16.5 14.6622 17.35 15.2522 18.08" stroke="white" stroke-width="2.3" stroke-miterlimit="10" stroke-linecap="round"/>
</g>
<defs>
<clipPath id="clip0_20852_202912">
<rect width="22.3" height="21.9" fill="white" transform="translate(9.00195 7)"/>
</clipPath>
</defs>
</svg>
