<svg width="40" height="36" viewBox="0 0 40 36" fill="none" xmlns="http://www.w3.org/2000/svg">
<path d="M30.7688 26.8632C30.5588 24.6132 30.5388 22.2832 30.5188 19.9632C30.5188 18.8832 30.5088 17.7932 30.5188 16.7132C30.5188 16.3532 30.5188 15.9932 30.5388 15.6232C30.5388 15.5132 30.5388 15.4032 30.5588 15.2032C30.5688 15.0732 30.5588 14.9532 30.5588 14.8432C30.5188 14.1932 30.1988 13.6432 29.6188 13.2932C28.1188 12.3732 26.5788 11.4232 25.1588 10.3832C24.7188 10.0632 24.2988 9.71316 23.8788 9.37316C22.9388 8.60316 21.9688 7.81316 20.8088 7.23316C20.0788 6.87316 19.2588 6.97316 18.6188 7.50316L18.4888 7.61316C17.0288 8.83316 15.5688 10.0432 14.0888 11.2432C13.2988 11.8732 12.5188 12.5032 11.7188 13.1232C11.6588 13.1632 11.5988 13.2132 11.5188 13.2632C11.1188 13.5332 10.5088 13.9532 10.2988 14.6932C10.1788 15.1232 10.1788 15.5432 10.1788 15.9132C10.1788 16.0232 10.1788 16.1432 10.1788 16.2532C9.99883 19.6632 9.86883 23.3132 10.1488 26.8532C10.1488 27.8632 10.9088 28.6732 11.9688 28.7732C13.6288 28.9332 15.3788 29.0232 17.4388 29.0432C17.3488 25.9232 17.3488 22.6132 17.2588 19.5032C19.1788 19.4332 20.9988 19.5332 22.9088 19.3532C22.8388 21.5832 23.2188 28.4432 23.1888 28.9832H23.4788L23.9288 28.9632C25.0088 28.9332 26.0888 28.9132 27.1688 28.8932H27.3688C27.6688 28.8932 27.9688 28.8832 28.2788 28.8932H28.5988C28.7488 28.9132 28.8788 28.8932 29.0088 28.8532C30.7888 28.4932 30.8188 27.2732 30.7788 26.8932L30.7688 26.8632Z" fill="#0C0016"/>
<path d="M20.5195 4.40151L20.6595 2.30151" stroke="#0C0016" stroke-width="2.3" stroke-linecap="round" stroke-linejoin="round"/>
<path d="M26.7383 6.58308L27.9883 4.40308" stroke="#0C0016" stroke-width="2.3" stroke-linecap="round" stroke-linejoin="round"/>
<path d="M31.8867 11.0112C32.7767 10.5312 33.5967 9.9312 34.3167 9.2312" stroke="#0C0016" stroke-width="2.3" stroke-linecap="round" stroke-linejoin="round"/>
<path d="M14.5461 6.47901C14.3361 5.75901 13.9761 5.06901 13.4961 4.48901" stroke="#0C0016" stroke-width="2.3" stroke-linecap="round" stroke-linejoin="round"/>
<path d="M9.92641 11.154C9.27641 10.564 8.56641 10.054 7.81641 9.61401" stroke="#0C0016" stroke-width="2.3" stroke-linecap="round" stroke-linejoin="round"/>
<path d="M7.31766 16.2218C6.82766 16.1718 6.33766 16.1718 5.84766 16.2218" stroke="#0C0016" stroke-width="2.3" stroke-linecap="round" stroke-linejoin="round"/>
<path d="M34.9778 16.2218C34.4878 16.1718 33.9978 16.1718 33.5078 16.2218" stroke="#0C0016" stroke-width="2.3" stroke-linecap="round" stroke-linejoin="round"/>
</svg>
