<svg width="40" height="36" viewBox="0 0 40 36" fill="none" xmlns="http://www.w3.org/2000/svg">
<g clip-path="url(#clip0_20852_202776)">
<path d="M29.6406 26.9701C29.4306 24.6501 29.4106 22.3001 29.3906 19.9701C29.3906 18.8801 29.3806 17.7901 29.3906 16.6901C29.3906 16.3201 29.3906 15.9501 29.4106 15.5801C29.4106 15.4601 29.4106 15.3301 29.4206 15.2101C29.4206 15.1201 29.4606 14.7801 29.4206 15.1501C29.4706 14.7901 29.3806 14.4701 29.0606 14.2701C27.5106 13.3201 25.9706 12.3701 24.5006 11.2901C23.1106 10.2701 21.8706 9.01009 20.3206 8.24009C19.9806 8.07009 19.6606 8.13009 19.3806 8.36009C17.8706 9.62009 16.3606 10.8801 14.8306 12.1101C14.0406 12.7501 13.2406 13.3801 12.4406 14.0001C12.1106 14.2501 11.5506 14.5301 11.4306 14.9601C11.3206 15.3601 11.3606 15.8501 11.3406 16.2701C11.1606 19.7701 11.0406 23.3001 11.3106 26.8101C11.3106 27.2701 11.6706 27.5501 12.0906 27.5901C14.0706 27.7901 16.0706 27.8601 18.0606 27.8701L23.4606 27.7901C24.7006 27.7601 25.9306 27.7301 27.1706 27.7101C27.5506 27.7101 27.9206 27.7001 28.3006 27.7101C28.4206 27.7101 28.5406 27.7101 28.6706 27.7101H28.6906C28.5906 27.6901 29.7206 27.6501 29.6506 26.9601L29.6406 26.9701Z" stroke="#0C0016" stroke-width="2.3" stroke-linecap="round" stroke-linejoin="round"/>
<path d="M17.4498 28.0001C17.3598 25.2101 17.3498 22.2401 17.2598 19.4501C19.1798 19.3901 20.9998 19.4801 22.9098 19.3201C22.8398 21.3501 23.2498 27.8101 23.1898 27.8201L17.4398 28.0001H17.4498Z" fill="#0C0016"/>
</g>
<defs>
<clipPath id="clip0_20852_202776">
<rect width="20.79" height="22.02" fill="white" transform="translate(10 7)"/>
</clipPath>
</defs>
</svg>
