<svg width="87" height="87" viewBox="0 0 87 87" fill="none" xmlns="http://www.w3.org/2000/svg">
<path d="M30.7548 64.7922C29.7307 70.4754 29.7124 76.2854 30.7182 81.6248C42.3674 83.127 51.1821 83.0365 62.1912 83.3804C63.1239 76.9189 62.6484 71.8691 60.8562 65.3714C58.0582 55.2899 52.0782 46.1134 43.355 40.7922C43.2818 40.756 43.227 40.7017 43.1538 40.6655C38.5819 37.9324 34.5952 34.0953 31.3583 29.6429C25.9817 22.2039 22.69 13.0275 22.3242 4.23109C34.9975 3.8148 47.6709 3.39851 60.3442 3.00032C63.069 2.90983 58.6983 21.7696 58.0216 23.3804C57.2536 25.2085 56.3575 26.8736 55.3517 28.394C52.4439 32.9189 48.6035 36.3397 44.1779 40.032C43.9036 40.2673 43.6293 40.5026 43.355 40.7922C36.6251 46.7831 32.3824 55.6157 30.7548 64.7922Z" fill="white"/>
<path d="M43.355 40.7922C52.0782 46.1134 58.0582 55.2899 60.8562 65.3714C62.6484 71.8691 63.1239 76.9189 62.1912 83.3804C51.1821 83.0365 42.3674 83.127 30.7182 81.6248C29.7124 76.2854 29.7307 70.4754 30.7548 64.7922C32.3824 55.6157 36.6251 46.7831 43.355 40.7922ZM43.355 40.7922C43.2818 40.756 43.227 40.7017 43.1538 40.6655C38.5819 37.9325 34.5952 34.0953 31.3583 29.6429C25.9817 22.2039 22.69 13.0275 22.3242 4.23109C34.9975 3.8148 47.6709 3.39851 60.3442 3.00032C63.069 2.90983 58.6983 21.7696 58.0216 23.3804C57.2536 25.2085 56.3575 26.8736 55.3516 28.394C52.4439 32.9189 48.6035 36.3397 44.1779 40.032C43.9036 40.2673 43.6293 40.5026 43.355 40.7922Z" stroke="#0C0016" stroke-width="6" stroke-linecap="round" stroke-linejoin="round"/>
<path d="M60.8576 65.3722C62.6498 71.8699 63.1253 76.9197 62.1926 83.3812C50.5617 81.8789 42.3688 83.1278 30.7196 81.6255C29.7138 76.2862 29.7321 70.4762 30.7562 64.793C32.841 64.9016 34.9441 65.0283 37.0472 65.1731C44.8925 65.6436 52.8842 66.1323 60.6565 65.4265L60.8576 65.3722Z" fill="#0C0016"/>
<path d="M55.3527 28.3949C52.445 32.9198 48.6046 36.3406 44.179 40.0329C43.9047 40.2682 43.6304 40.5035 43.3561 40.7931C43.2829 40.7569 43.228 40.7026 43.1549 40.6664C38.583 37.9333 34.5963 34.0962 31.3594 29.6437L32.3835 29.1731C35.7484 27.8881 39.4974 27.3813 43.1549 27.689C47.233 28.051 51.4026 29.4084 55.3527 28.3949Z" fill="#0C0016"/>
<path d="M44.4969 51.1974C44.4971 51.198 44.4969 51.1985 44.4971 51.1991C44.4972 51.1994 44.4972 51.1996 44.4972 51.1999" stroke="#0C0016" stroke-width="5" stroke-linecap="round"/>
<path d="M41.5008 59.1974C41.501 59.198 41.5008 59.1985 41.501 59.1991C41.5011 59.1994 41.5011 59.1996 41.5012 59.1999" stroke="#0C0016" stroke-width="5" stroke-linecap="round"/>
<path d="M49.4412 60.5835C49.4839 60.6708 49.4597 60.7355 49.5007 60.8223C49.5194 60.8619 49.5295 60.8982 49.5338 60.9329" stroke="#0C0016" stroke-width="5" stroke-linecap="round"/>
<path d="M43.355 40.7922C52.0782 46.1134 58.0582 55.2899 60.8562 65.3714C62.6484 71.8691 63.1239 76.9189 62.1912 83.3804C51.1821 83.0365 42.3674 83.127 30.7182 81.6248C29.7124 76.2854 29.7307 70.4754 30.7548 64.7922C32.3824 55.6157 36.6251 46.7831 43.355 40.7922ZM43.355 40.7922C43.2818 40.756 43.227 40.7017 43.1538 40.6655C38.5819 37.9325 34.5952 34.0953 31.3583 29.6429C25.9817 22.2039 22.69 13.0275 22.3242 4.23109C34.9975 3.8148 47.6709 3.39851 60.3442 3.00032C63.069 2.90983 58.6983 21.7696 58.0216 23.3804C57.2536 25.2085 56.3575 26.8736 55.3516 28.394C52.4439 32.9189 48.6035 36.3397 44.1779 40.032C43.9036 40.2673 43.6293 40.5026 43.355 40.7922Z" stroke="#0C0016" stroke-width="6" stroke-linecap="round" stroke-linejoin="round"/>
</svg>
