<svg width="24" height="24" viewBox="0 0 24 24" fill="none" xmlns="http://www.w3.org/2000/svg">
<path d="M12.1772 5.97019C13.0872 6.1196 14.0671 5.69628 14.5825 4.94925C15.0979 4.20222 15.1361 3.16882 14.697 2.37199C14.258 1.57516 13.3672 1.04601 12.4445 1.00243C11.7191 0.971308 10.9682 1.23899 10.4974 1.78682C9.30109 3.17505 10.421 5.68383 12.1772 5.97642V5.97019Z" fill="#0C0016" stroke="#0C0016" stroke-linecap="round" stroke-linejoin="round"/>
<path d="M14.6821 11.2665C16.1354 11.0408 17.5825 10.8088 19.0357 10.5831C19.4833 10.5141 19.9371 10.4389 20.3295 10.2069C20.722 9.97492 21.0285 9.54856 20.9979 9.08459C20.955 8.55792 20.4767 8.16291 19.98 8.05005C19.4833 7.93719 18.956 8.03751 18.4532 8.13156C14.1609 8.9153 9.74606 8.98427 5.42928 8.3322C4.74252 8.23188 3.97605 8.84006 4.00057 9.54856C4.01897 10.1129 4.44206 10.5894 4.93261 10.8402C5.42315 11.091 5.98727 11.1474 6.533 11.1975C7.7471 11.3167 8.96732 11.4358 10.1814 11.5549C9.99746 14.5896 9.3291 17.7245 8.37867 20.6024C8.26217 20.9473 8.13953 21.2984 8.12727 21.6683C8.115 22.0382 8.22537 22.427 8.50744 22.6527C8.93053 22.9975 9.5805 22.8533 9.97907 22.4834C10.3776 22.1135 10.58 21.5805 10.7701 21.0664C11.4752 19.1478 12.1804 17.2355 12.8917 15.3169C13.1247 17.1414 13.419 18.9095 13.8728 20.6902C14.0444 21.3611 14.2468 22.057 14.7251 22.5398C15.2033 23.0226 16.0557 23.1919 16.5462 22.7216C17.0674 22.2263 16.9325 21.3611 16.7547 20.6588C15.9943 17.6054 15.4548 14.3262 14.6883 11.2791L14.6821 11.2665Z" fill="#0C0016" stroke="#0C0016" stroke-linecap="round" stroke-linejoin="round"/>
</svg>
