<svg width="24" height="24" viewBox="0 0 24 24" fill="none" xmlns="http://www.w3.org/2000/svg">
<path d="M2 5.55602H14.6239" stroke="#0C0016" stroke-width="2.3" stroke-linecap="round"/>
<path d="M4.84177 6.33316C4.84177 6.33316 4.84177 11.4997 10.0019 14.9997" stroke="#0C0016" stroke-width="2.3" stroke-linecap="round"/>
<path d="M11.9545 6.33316C11.9545 6.33316 11.9545 13.0307 3.15384 16.7336" stroke="#0C0016" stroke-width="2.3" stroke-linecap="round"/>
<path d="M8.39606 5.55602L8.39606 2" stroke="#0C0016" stroke-width="2.3" stroke-linecap="round"/>
<path d="M11.547 22.153C11.2297 22.153 10.969 22.0793 10.765 21.932C10.5723 21.7847 10.4477 21.5863 10.391 21.337C10.3457 21.0877 10.3967 20.81 10.544 20.504L14.896 10.967C15.0773 10.5817 15.2927 10.304 15.542 10.134C15.7913 9.95267 16.0803 9.862 16.409 9.862C16.7377 9.862 17.0267 9.95267 17.276 10.134C17.5253 10.304 17.735 10.5817 17.905 10.967L22.291 20.504C22.4383 20.81 22.4893 21.0933 22.444 21.354C22.41 21.6033 22.2967 21.8017 22.104 21.949C21.9113 22.085 21.662 22.153 21.356 22.153C20.9707 22.153 20.6703 22.0623 20.455 21.881C20.251 21.6997 20.0697 21.4163 19.911 21.031L18.891 18.668L19.945 19.399H12.856L13.91 18.668L12.907 21.031C12.737 21.4277 12.5557 21.7167 12.363 21.898C12.1817 22.068 11.9097 22.153 11.547 22.153ZM16.375 12.82L14.199 18.005L13.74 17.342H19.061L18.602 18.005L16.409 12.82H16.375Z" fill="#0C0016"/>
</svg>
