<svg width="24" height="24" viewBox="0 0 24 24" fill="none" xmlns="http://www.w3.org/2000/svg">
<path d="M10 4.5L20 4L19.4998 14" stroke="#0C0016" stroke-width="2" stroke-linecap="round" stroke-linejoin="round"/>
<path d="M10 14L14 9.5L20 4" stroke="#0C0016" stroke-width="2" stroke-linecap="round" stroke-linejoin="round"/>
<path d="M16 17.6396C16 18.3213 16.1285 19.7207 15.7086 20.2484C15.1486 20.9411 14.1579 20.9961 13.2857 21.0071C10.8197 21.0181 8.34293 21.029 5.87695 21.04C5.13393 21.04 4.30475 21.0181 3.75556 20.5013C3.15253 19.9296 3.10945 18.9951 3.09869 18.1485C3.09869 15.7297 3.08792 13.3109 3.07715 10.8921C3.07715 10.1225 3.07715 9.3199 3.45405 8.64923C3.76633 8.09951 5.12163 8.15064 6.5 8.13965" stroke="#1A1A1A" stroke-width="2" stroke-linecap="round" stroke-linejoin="round"/>
</svg>
