<svg width="37" height="36" viewBox="0 0 37 36" fill="none" xmlns="http://www.w3.org/2000/svg">
<path d="M24.797 7.94156C28.257 8.49019 31.5954 10.9588 31.4019 14.9555" stroke="#0C0016" stroke-width="2.3" stroke-linecap="round" stroke-linejoin="round"/>
<path d="M34.903 14.4909C34.903 14.4909 35.2334 10.5825 32.7464 7.82588C30.2593 5.06925 24.9508 4.0253 24.9508 4.0253" stroke="#0C0016" stroke-width="2.3" stroke-linecap="round" stroke-linejoin="round"/>
<path d="M4.4 14L16.4 14.2377L23.6 14C24.92 14 26 15.0688 26 16.375L25.76 30.0312C25.76 31.3375 24.32 32.7625 23 32.7625L4.4 33C3.08 33 2 31.9312 2 30.625L2.36 24.6875L2 16.375C2 15.0688 3.08 14 4.4 14Z" fill="white" stroke="#0C0016" stroke-width="2.3" stroke-linecap="round" stroke-linejoin="round"/>
<path d="M25 15L13.7556 25L3 15" stroke="#0C0016" stroke-width="2.3" stroke-linecap="round" stroke-linejoin="round"/>
</svg>
