<svg width="171" height="102" viewBox="0 0 171 102" fill="none" xmlns="http://www.w3.org/2000/svg">
<g clip-path="url(#clip0_20852_202377)">
<path d="M76.002 83.7656L94.0032 91.1055" stroke="#0C0016" stroke-width="8" stroke-linecap="round" stroke-linejoin="round"/>
<path d="M78.0234 95.3099L93.4744 80.6613" stroke="#0C0016" stroke-width="8" stroke-linecap="round" stroke-linejoin="round"/>
<path d="M82.0977 76.5312L85.2451 84.7793L88.3925 97.9163" fill="#0C0016"/>
<path d="M82.0977 76.5312L85.2451 84.7793L88.3925 97.9163" stroke="#0C0016" stroke-width="8" stroke-linecap="round" stroke-linejoin="round"/>
<path d="M148.004 83.7656L166.005 91.1055" stroke="#0C0016" stroke-width="8" stroke-linecap="round" stroke-linejoin="round"/>
<path d="M150.025 95.3099L165.476 80.6613" stroke="#0C0016" stroke-width="8" stroke-linecap="round" stroke-linejoin="round"/>
<path d="M154.1 76.5312L157.247 84.7793L160.394 97.9163" fill="#0C0016"/>
<path d="M154.1 76.5312L157.247 84.7793L160.394 97.9163" stroke="#0C0016" stroke-width="8" stroke-linecap="round" stroke-linejoin="round"/>
<path d="M40 83.7656L58.0013 91.1055" stroke="#0C0016" stroke-width="8" stroke-linecap="round" stroke-linejoin="round"/>
<path d="M42.0215 95.3099L57.4725 80.6613" stroke="#0C0016" stroke-width="8" stroke-linecap="round" stroke-linejoin="round"/>
<path d="M46.0957 76.5312L49.2431 84.7793L52.3906 97.9163" fill="#0C0016"/>
<path d="M46.0957 76.5312L49.2431 84.7793L52.3906 97.9163" stroke="#0C0016" stroke-width="8" stroke-linecap="round" stroke-linejoin="round"/>
<path d="M4 83.7656L22.0013 91.1055" stroke="#0C0016" stroke-width="8" stroke-linecap="round" stroke-linejoin="round"/>
<path d="M6.02148 95.3099L21.4725 80.6613" stroke="#0C0016" stroke-width="8" stroke-linecap="round" stroke-linejoin="round"/>
<path d="M10.0957 76.5312L13.2431 84.7793L16.3906 97.9163" fill="#0C0016"/>
<path d="M10.0957 76.5312L13.2431 84.7793L16.3906 97.9163" stroke="#0C0016" stroke-width="8" stroke-linecap="round" stroke-linejoin="round"/>
<path d="M112.004 83.7656L130.005 91.1055" stroke="#0C0016" stroke-width="8" stroke-linecap="round" stroke-linejoin="round"/>
<path d="M114.025 95.3099L129.476 80.6613" stroke="#0C0016" stroke-width="8" stroke-linecap="round" stroke-linejoin="round"/>
<path d="M118.1 76.5312L121.247 84.7793L124.394 97.9163" fill="#0C0016"/>
<path d="M118.1 76.5312L121.247 84.7793L124.394 97.9163" stroke="#0C0016" stroke-width="8" stroke-linecap="round" stroke-linejoin="round"/>
<path d="M62.1678 26.8088C61.4721 22.8918 63.0249 18.8752 65.2611 15.5799C70.516 7.83287 80.1066 2.99563 89.3866 4.17696C98.6666 5.35829 106.99 12.9561 108.27 22.2451C109.549 30.6015 105.45 39.0822 104.779 40.0024C103.897 41.2086 99.5984 50.8956 83.2 50.6469C67.1991 50.3857 62.4286 35.4263 62.1678 26.8213V26.8088Z" fill="#15D7B4" stroke="#0C0016" stroke-width="8" stroke-miterlimit="10"/>
<path d="M77.6211 29.7661L85.2488 35.5858L94.5785 18.9227" fill="#15D7B4"/>
<path d="M77.6211 29.7661L85.2488 35.5858L94.5785 18.9227" stroke="#0C0016" stroke-width="8" stroke-linecap="round" stroke-linejoin="round"/>
</g>
<defs>
<clipPath id="clip0_20852_202377">
<rect width="171" height="102" fill="white"/>
</clipPath>
</defs>
</svg>
