<svg width="100" height="84" viewBox="0 0 100 84" fill="none" xmlns="http://www.w3.org/2000/svg">
<g clip-path="url(#clip0_8633_131381)">
<path d="M70.4051 -28.3799C58.1066 -25.5191 48.7677 -8.03784 51.2013 5.00761C52.4333 11.6059 56.1399 17.6513 56.3297 24.4538C56.6517 35.7621 48.2943 45.4001 55.212 56.34C59.3532 62.888 67.5145 66.6881 75.1482 65.2776C83.2795 63.7754 87.8035 57.2085 91.0123 50.127C94.4876 42.4573 97.3911 37.6604 106.187 36.3821C112.004 35.5392 118.988 35.7059 121.259 28.9027C124.557 19.0012 112.243 13.9337 105.34 10.7377C99.608 8.08409 93.6605 2.62092 92.4742 -3.93739C91.1218 -11.4186 92.7152 -17.4194 86.2942 -23.3279C80.9029 -28.2859 75.4143 -29.5407 70.4099 -28.378L70.4051 -28.3799Z" fill="#F566C5"/>
</g>
<path d="M72.51 51.1394L59.08 50.7594L43.92 51.1394C42.31 51.1394 41.38 49.1994 41.38 47.5794L41.44 38.3694L41 28.5294C41 26.1694 42.09 25.6094 43.92 25.6094H72.32C75.92 25.6094 75.92 26.9194 75.92 28.5294L75.43 48.2194C75.43 49.8294 74.12 51.1394 72.51 51.1394Z" fill="white" stroke="black" stroke-width="2" stroke-miterlimit="10"/>
<path d="M57 36.5V44L62.3571 40.3284L57 36.5Z" fill="black" stroke="black" stroke-width="2" stroke-linecap="round" stroke-linejoin="round"/>
<path d="M41 28.3596V21.4196C41 20.8196 41.39 20.2896 41.96 20.0996L69.6 11.0896C70.56 10.7796 71.59 11.2996 71.9 12.2596L72.96 15.4796L68.55 16.9696L41.22 26.1696" fill="white"/>
<path d="M41 28.3596V21.4196C41 20.8196 41.39 20.2896 41.96 20.0996L69.6 11.0896C70.56 10.7796 71.59 11.2996 71.9 12.2596L72.96 15.4796L68.55 16.9696L41.22 26.1696" stroke="black" stroke-width="2" stroke-linecap="round" stroke-linejoin="round"/>
<path d="M45.4219 19.4375L48.1619 22.9575" stroke="black" stroke-width="2" stroke-linecap="round" stroke-linejoin="round"/>
<path d="M45.3984 30.9394L49.8684 25.6094" stroke="black" stroke-width="2" stroke-linecap="round" stroke-linejoin="round"/>
<path d="M52.8906 31.0275L57.3606 25.6875" stroke="black" stroke-width="2" stroke-linecap="round" stroke-linejoin="round"/>
<path d="M60.4297 31.0275L64.8897 25.6875" stroke="black" stroke-width="2" stroke-linecap="round" stroke-linejoin="round"/>
<path d="M67.25 31.3691L71.72 26.0391" stroke="black" stroke-width="2" stroke-linecap="round" stroke-linejoin="round"/>
<path d="M52.5195 17.3438L55.2695 20.8637" stroke="black" stroke-width="2" stroke-linecap="round" stroke-linejoin="round"/>
<path d="M59.5117 15.5781L62.2617 19.0981" stroke="black" stroke-width="2" stroke-linecap="round" stroke-linejoin="round"/>
<path d="M65.5 13.0938L68.25 16.6138" stroke="black" stroke-width="2" stroke-linecap="round" stroke-linejoin="round"/>
<path d="M41 30.9375L75.85 31.8075" stroke="black" stroke-width="2" stroke-miterlimit="10"/>
<defs>
<clipPath id="clip0_8633_131381">
<rect width="91.0066" height="77.9424" fill="white" transform="translate(29.3516 50.4668) rotate(-68.84)"/>
</clipPath>
</defs>
</svg>
