<svg width="100" height="94" viewBox="0 0 100 94" fill="none" xmlns="http://www.w3.org/2000/svg">
<g clip-path="url(#clip0_8633_131495)">
<path d="M118.895 10.704C113.465 5.23079 106.457 1.12916 98.7805 -0.0476325C89.4956 -1.47434 82.9652 2.06218 75.7262 7.47701C71.1777 10.879 63.8598 11.6579 58.3903 12.2257C47.9762 13.3001 36.4499 13.7548 28.8953 21.004C19.2905 30.2175 20.9661 46.8414 28.827 57.6196C36.1049 67.5992 50.5033 74.0911 60.9209 67.5186C67.3531 63.4644 71.1622 55.2024 78.5826 53.5155C85.3923 51.9613 91.9059 56.7093 98.7263 58.2321C109.987 60.7542 122.212 53.3784 126.366 42.6142C130.52 31.85 127.03 18.9069 118.89 10.707L118.895 10.704Z" fill="#0059F5"/>
</g>
<path d="M47.4621 32.095C47.4372 31.9535 47.4122 31.8037 47.3872 31.6622C46.9045 28.9988 47.7201 26.7266 50.8829 26.8848C56.0598 27.1428 60.4711 26.2356 62.2855 25.5864C64.0999 24.9372 65.9726 23.3808 70.6751 25.5864C74.5287 27.3925 78.6902 27.4174 82.8018 26.7516C83.3179 26.6684 83.8589 26.5935 84.3416 26.7766C85.124 27.0762 85.5235 27.9584 85.6067 28.7908C86.3225 36.0568 83.8172 43.2646 85.0074 50.5888C85.1573 51.4961 85.332 52.4366 85.0824 53.3271C84.4831 55.4329 82.3857 55.4495 80.6711 55.1249C77.9828 54.6172 75.2112 54.4507 72.5312 55.0916C70.1674 55.6576 68.4529 57.239 65.8561 57.1391C62.452 57.0059 59.4224 54.7753 56.0266 54.4674C54.3619 54.3176 52.689 54.6422 51.0743 55.0833C50.292 55.2997 49.4763 55.5411 48.669 55.3996C45.423 54.8336 46.6631 47.6841 47.0959 45.4951C47.9948 40.9341 48.2278 36.6477 47.4621 32.095Z" fill="white" stroke="black" stroke-width="2" stroke-miterlimit="10"/>
<path d="M78.4082 50.7471L66.6727 50.4475L53.4307 50.7471C52.0241 50.7471 51.2084 49.2157 51.2084 47.9505L51.2584 40.7095L50.8672 32.969C50.8672 31.113 51.816 30.6719 53.4224 30.6719H78.2334C81.3795 30.6719 81.3795 31.7039 81.3795 32.969L80.955 48.4499C80.955 49.715 79.8148 50.7471 78.3999 50.7471H78.4082Z" stroke="black" stroke-width="2" stroke-miterlimit="10"/>
<path d="M53.207 26.9346L66.1411 17.4297L80.5649 26.9346" stroke="black" stroke-width="2" stroke-miterlimit="10"/>
<path d="M64.0513 17.8713C64.0576 17.6237 64.1122 17.3762 64.2213 17.1496C64.3619 16.858 64.5739 16.6021 64.8258 16.4007C64.958 16.2958 65.1008 16.2014 65.2561 16.1364C65.4429 16.0566 65.6444 16.0189 65.8459 16C66.8492 16 67.6762 16.5392 67.8273 17.3951C67.9721 18.2133 67.7056 19.0461 66.994 19.5076C66.9604 19.5307 66.9248 19.5517 66.8891 19.5706C66.4063 19.8433 65.8921 19.8769 65.3673 19.7237C65.2099 19.6776 65.0546 19.6377 64.9119 19.5538C64.8132 19.4971 64.7251 19.4237 64.6432 19.344C64.257 18.9643 64.0387 18.4146 64.0513 17.8713Z" fill="black"/>
<path d="M66.1203 38.7696C64.8219 39.81 64.3226 42.4983 66.1287 43.0893C67.1441 43.4222 68.0596 43.0893 68.6838 42.2486C69.1333 41.641 69.6743 40.6839 69.4163 39.8682C69.1583 39.0526 67.9348 38.3118 67.1191 38.3618C66.7612 38.3867 66.42 38.5365 66.1287 38.7696H66.1203Z" stroke="black" stroke-width="2" stroke-miterlimit="10"/>
<path d="M61.5 50C61.5 50 61.8564 44.438 64.9525 42.7734" stroke="black" stroke-width="2" stroke-linecap="round" stroke-linejoin="round"/>
<path d="M65.1758 38.7682C65.1758 38.7682 61.8969 32.9019 66.5345 34.183C71.1721 35.464 67.3135 38.353 67.3135 38.353" stroke="black" stroke-width="2" stroke-linecap="round" stroke-linejoin="round"/>
<path d="M65.4802 43.0964C65.4802 43.0964 63.4141 47.4753 66.6597 47.3504C69.9053 47.2255 68.0522 43.0938 68.0522 43.0938" stroke="black" stroke-width="2" stroke-linecap="round" stroke-linejoin="round"/>
<path d="M68.3398 43.2133C68.3398 43.2133 69.5661 47.9438 72.2924 45.8796C75.0187 43.8153 70.0369 41.6328 70.0369 41.6328" stroke="black" stroke-width="2" stroke-linecap="round" stroke-linejoin="round"/>
<path d="M70.0522 41.0137C70.0522 41.0137 72.8903 42.149 74.4143 40.2636C75.9382 38.3782 72.9128 37.6187 72.9128 37.6187C72.9128 37.6187 70.6385 36.5594 68.8357 39.055" stroke="black" stroke-width="2" stroke-linecap="round" stroke-linejoin="round"/>
<path d="M65.3671 39.3515C64.1122 39.076 62.6219 38.7466 61.3258 39.1719C60.5003 39.4454 60.0424 40.3216 60.2305 41.2327C60.4095 42.0966 60.9427 42.365 61.6882 42.355C62.7591 42.3518 63.8759 41.9306 64.8822 41.4729" stroke="black" stroke-width="2" stroke-linecap="round" stroke-linejoin="round"/>
<defs>
<clipPath id="clip0_8633_131495">
<rect width="102.464" height="74.2493" fill="white" transform="translate(12.3516 30.1758) rotate(-30.7305)"/>
</clipPath>
</defs>
</svg>
