<svg width="100" height="84" viewBox="0 0 100 84" fill="none" xmlns="http://www.w3.org/2000/svg">
<g clip-path="url(#clip0_8633_131412)">
<path d="M90.1068 -30.5722C84.671 -30.2485 79.1571 -28.8031 74.5423 -26.9849C58.3947 -20.6319 46.1899 -6.88782 46.8788 11.234C47.6316 30.8854 60.5049 51.0046 79.0883 58.5508C89.0975 62.617 100.737 63.3754 110.597 59.0788C120.457 54.7822 128.047 44.9557 128.152 34.239C128.258 23.5223 119.848 12.8721 109.11 11.7692C106.309 11.4839 103.081 11.6403 101.167 9.58026C94.6765 2.59013 109.762 -3.18286 112.027 -7.69433C113.877 -11.3756 113.915 -15.9128 112.139 -19.6535C107.886 -28.583 99.1007 -31.098 90.1156 -30.5626L90.1068 -30.5722Z" fill="#F5D640"/>
</g>
<path d="M54.5687 19.5688C54.5687 19.5688 54.3553 25.5816 52.5086 28.7653C49.6157 33.7524 47.1632 36.7669 39.9609 36.5444V19.5688L54.3243 19.2886L64.4933 19.5688H73.3107V36.5527C59.5489 36.9647 57.4529 19.3748 57.4529 19.3748" fill="white"/>
<path d="M54.5687 19.5688C54.5687 19.5688 54.3553 25.5816 52.5086 28.7653C49.6157 33.7524 47.1632 36.7669 39.9609 36.5444V19.5688L54.3243 19.2886L64.4933 19.5688H73.3107V36.5527C59.5489 36.9647 57.4529 19.3748 57.4529 19.3748" stroke="black" stroke-width="2" stroke-linecap="round" stroke-linejoin="round"/>
<path d="M44.503 40.0677C44.503 40.0677 46.6291 43.1661 46.1429 48.9593L39.0312 49.429L39.9624 39.7051L44.503 40.0677Z" fill="white" stroke="black" stroke-width="2" stroke-linecap="round" stroke-linejoin="round"/>
<path d="M43.8672 39.9997C44.4605 39.9255 45.0703 39.3734 45.2516 38.9119C45.6389 37.9313 45.5235 36.7941 44.411 36.1843C43.6243 35.7519 42.6276 35.8491 41.695 35.94C41.3479 35.9738 41.0097 36.0068 40.6945 36.0112L43.8672 39.9997ZM40.4348 39.4729L40.4333 39.4727C39.9855 39.4032 39.6805 39.3391 39.4706 39.1976L39.3921 39.129C39.3195 39.0654 39.2467 38.9706 39.1918 38.8444L39.1918 38.8444L39.1912 38.8431C38.9819 38.3655 38.9767 37.744 39.0257 37.1058C39.0404 36.9292 39.1031 36.8298 39.1844 36.759C39.2782 36.6772 39.4323 36.6047 39.6639 36.5608C39.9504 36.5101 40.2447 36.5106 40.5865 36.5111C40.622 36.5112 40.658 36.5112 40.6945 36.5112V36.5113L40.7016 36.5112C41.0156 36.5067 41.3452 36.4763 41.6619 36.4456C41.6885 36.443 41.7151 36.4404 41.7416 36.4378C42.0368 36.4091 42.3229 36.3812 42.6059 36.3686C43.2291 36.3409 43.7537 36.3936 44.1702 36.6225L44.1707 36.6228C44.607 36.8619 44.8232 37.1846 44.9084 37.5291C44.9972 37.8881 44.9519 38.3097 44.7865 38.7283L44.7862 38.7291C44.7347 38.8601 44.5992 39.0481 44.3963 39.2149C44.1947 39.3807 43.9802 39.4815 43.8057 39.5035C42.698 39.6389 41.5262 39.6456 40.4348 39.4729Z" fill="black" stroke="black"/>
<path d="M50.4481 19.6756C50.4481 19.6756 48.9088 29.6146 44.0364 32.154" stroke="black" stroke-width="2" stroke-linecap="round" stroke-linejoin="round"/>
<path d="M68.7731 40.0677C68.7731 40.0677 65.6829 42.8036 66.1691 48.6049L74.2449 49.429L73.3137 39.7051L68.7731 40.0677Z" fill="white" stroke="black" stroke-width="2" stroke-linecap="round" stroke-linejoin="round"/>
<path d="M73.5363 39.3163L73.5362 39.3161L73.5271 39.3252C73.5165 39.3358 73.4959 39.3531 73.4469 39.3839C73.3253 39.4553 73.1545 39.4746 72.842 39.4925C72.6432 39.501 72.4469 39.5108 72.2527 39.5205C71.2921 39.5682 70.3829 39.6134 69.4698 39.496L69.4698 39.496L69.4656 39.4955C68.9793 39.4371 68.5995 38.9626 68.5152 38.2252C68.4304 37.4826 68.6952 36.8376 69.1019 36.6152L69.1019 36.6152L69.1029 36.6147C69.5194 36.3858 70.0441 36.3331 70.6673 36.3608C70.9503 36.3734 71.2364 36.4012 71.5315 36.43C71.558 36.4326 71.5846 36.4352 71.6113 36.4378C71.9276 36.4684 72.2568 36.4989 72.5704 36.5034C72.8931 36.5097 73.2627 36.6437 73.5527 36.8721C73.8423 37.1002 74.0033 37.3805 74.0157 37.6574L74.0156 37.6574L74.0159 37.6624C74.0295 37.9093 74.0003 38.25 73.9127 38.577C73.8229 38.9122 73.6884 39.1717 73.5363 39.3163Z" fill="black" stroke="black"/>
<path d="M61.9855 20.0699C61.9855 20.0699 63.7833 28.9101 68.8141 31.119" stroke="black" stroke-width="2" stroke-linecap="round" stroke-linejoin="round"/>
<path d="M67.847 52.334C67.847 51.0408 67.9311 49.9998 67.8155 48.6961C67.7419 47.8865 66.5748 47.6447 65.7862 47.4659C64.9977 47.2872 64.1775 47.3187 63.3679 47.3397C62.5163 47.3713 61.6331 47.4869 61.0022 48.0442C60.3714 48.6015 60.424 48.9064 60.4134 49.716C60.3924 50.841 60.3609 51.188 60.3398 52.313" fill="white"/>
<path d="M67.847 52.334C67.847 51.0408 67.9311 49.9998 67.8155 48.6961C67.7419 47.8865 66.5748 47.6447 65.7862 47.4659C64.9977 47.2872 64.1775 47.3187 63.3679 47.3397C62.5163 47.3713 61.6331 47.4869 61.0022 48.0442C60.3714 48.6015 60.424 48.9064 60.4134 49.716C60.3924 50.841 60.3609 51.188 60.3398 52.313" stroke="black" stroke-width="2" stroke-linecap="round" stroke-linejoin="round"/>
<path d="M52.9944 52.3354C52.9733 50.7267 53.0154 51.326 52.9944 49.7068C52.9944 49.0759 52.9944 48.3715 53.4254 47.8983C53.8986 47.3726 55.5388 47.3306 56.6533 47.3306C58.8193 47.3306 60.3123 47.6881 60.3123 48.8551C60.3123 50.8528 60.3018 50.5374 60.3123 52.3248" fill="white"/>
<path d="M52.9944 52.3354C52.9733 50.7267 53.0154 51.326 52.9944 49.7068C52.9944 49.0759 52.9944 48.3715 53.4254 47.8983C53.8986 47.3726 55.5388 47.3306 56.6533 47.3306C58.8193 47.3306 60.3123 47.6881 60.3123 48.8551C60.3123 50.8528 60.3018 50.5374 60.3123 52.3248" stroke="black" stroke-width="2" stroke-linecap="round" stroke-linejoin="round"/>
<path d="M45.6701 51.9674C45.6491 50.3587 45.6912 51.3155 45.6701 49.7068C45.6701 49.0759 45.6701 48.3715 46.1012 47.8983C46.5744 47.3726 48.2146 47.3306 49.3291 47.3306C51.495 47.3306 52.9881 47.6881 52.9881 48.8551C52.9881 50.8528 52.9775 50.1274 52.9881 51.9148" fill="white"/>
<path d="M45.6701 51.9674C45.6491 50.3587 45.6912 51.3155 45.6701 49.7068C45.6701 49.0759 45.6701 48.3715 46.1012 47.8983C46.5744 47.3726 48.2146 47.3306 49.3291 47.3306C51.495 47.3306 52.9881 47.6881 52.9881 48.8551C52.9881 50.8528 52.9775 50.1274 52.9881 51.9148" stroke="black" stroke-width="2" stroke-linecap="round" stroke-linejoin="round"/>
<path d="M41.7991 59.8258C41.7991 58.5325 41.715 55.21 41.8306 53.9168C41.9042 53.1072 43.0713 52.8654 43.8599 52.6866C44.6484 52.5079 45.4685 52.5394 46.2781 52.5604C47.1298 52.592 48.013 52.7076 48.6438 53.2649C49.2747 53.8222 49.2221 54.1271 49.2326 54.9367C49.2537 56.0617 49.2852 58.6797 49.3062 59.8048" fill="white"/>
<path d="M41.7991 59.8258C41.7991 58.5325 41.715 55.21 41.8306 53.9168C41.9042 53.1072 43.0713 52.8654 43.8599 52.6866C44.6484 52.5079 45.4685 52.5394 46.2781 52.5604C47.1298 52.592 48.013 52.7076 48.6438 53.2649C49.2747 53.8222 49.2221 54.1271 49.2326 54.9367C49.2537 56.0617 49.2852 58.6797 49.3062 59.8048" stroke="black" stroke-width="2" stroke-linecap="round" stroke-linejoin="round"/>
<path d="M64.1751 59.8258C64.1751 58.5325 64.2593 55.21 64.1436 53.9168C64.07 53.1072 62.9029 52.8654 62.1144 52.6866C61.3258 52.5079 60.5057 52.5394 59.6961 52.5604C58.8444 52.592 57.9612 52.7076 57.3304 53.2649C56.6995 53.8222 56.7521 54.1271 56.7416 54.9367C56.7205 56.0617 56.689 58.6797 56.668 59.8048" fill="white"/>
<path d="M64.1751 59.8258C64.1751 58.5325 64.2593 55.21 64.1436 53.9168C64.07 53.1072 62.9029 52.8654 62.1144 52.6866C61.3258 52.5079 60.5057 52.5394 59.6961 52.5604C58.8444 52.592 57.9612 52.7076 57.3304 53.2649C56.6995 53.8222 56.7521 54.1271 56.7416 54.9367C56.7205 56.0617 56.689 58.6797 56.668 59.8048" stroke="black" stroke-width="2" stroke-linecap="round" stroke-linejoin="round"/>
<path d="M49.3303 59.5502C49.3093 57.9415 49.3513 56.7955 49.3303 55.1868C49.3303 54.5559 49.3303 53.8515 49.7614 53.3783C50.2345 52.8526 51.8747 52.8105 52.9893 52.8105C55.1552 52.8105 56.6482 53.168 56.6482 54.3351C56.6482 56.3328 56.6377 57.7102 56.6482 59.4976" fill="white"/>
<path d="M49.3303 59.5502C49.3093 57.9415 49.3513 56.7955 49.3303 55.1868C49.3303 54.5559 49.3303 53.8515 49.7614 53.3783C50.2345 52.8526 51.8747 52.8105 52.9893 52.8105C55.1552 52.8105 56.6482 53.168 56.6482 54.3351C56.6482 56.3328 56.6377 57.7102 56.6482 59.4976" stroke="black" stroke-width="2" stroke-linecap="round" stroke-linejoin="round"/>
<path d="M64.217 59.5502C64.196 57.9415 64.238 56.7955 64.217 55.1868C64.217 54.5559 64.217 53.8515 64.6481 53.3783C65.1212 52.8526 66.7615 52.8105 67.876 52.8105C70.0419 52.8105 71.5349 53.168 71.5349 54.3351C71.5349 56.3328 71.5244 57.7102 71.5349 59.4976" fill="white"/>
<path d="M64.217 59.5502C64.196 57.9415 64.238 56.7955 64.217 55.1868C64.217 54.5559 64.217 53.8515 64.6481 53.3783C65.1212 52.8526 66.7615 52.8105 67.876 52.8105C70.0419 52.8105 71.5349 53.168 71.5349 54.3351C71.5349 56.3328 71.5244 57.7102 71.5349 59.4976" stroke="black" stroke-width="2" stroke-linecap="round" stroke-linejoin="round"/>
<path d="M40.0781 59.8594L73.7553 59.8384" stroke="black" stroke-width="2" stroke-linecap="round" stroke-linejoin="round"/>
<defs>
<clipPath id="clip0_8633_131412">
<rect width="89.9503" height="88.6077" fill="white" transform="translate(32.3516 40.4668) rotate(-68.84)"/>
</clipPath>
</defs>
</svg>
