<svg width="100" height="84" viewBox="0 0 100 84" fill="none" xmlns="http://www.w3.org/2000/svg">
<g clip-path="url(#clip0_8633_131328)">
<path d="M88.2947 -20.9537C83.5447 -20.3223 78.7978 -18.7015 74.8638 -16.8109C61.0978 -10.2037 51.2644 2.63848 53.0267 18.499C54.9428 35.6979 67.5263 52.533 84.3181 57.9686C93.3624 60.8979 103.626 60.8199 112.005 56.4191C120.384 52.0183 126.417 42.9092 125.826 33.497C125.234 24.0848 117.172 15.2751 107.678 14.993C105.202 14.9216 102.379 15.2651 100.567 13.5794C94.4239 7.85918 107.295 1.82878 108.995 -2.27538C110.383 -5.62435 110.126 -9.60891 108.329 -12.7784C104.026 -20.3437 96.1546 -21.9896 88.303 -20.9458L88.2947 -20.9537Z" fill="#F5D640"/>
</g>
<path d="M78.2375 19.3828L83.0027 23.7788L83.5 33L84.7681 45.4474L70.207 46.0358C66.5494 51.3203 62.9956 46.6012 62.9956 46.6012L56 47.5L49.0345 49.0011L46 26.7672L49.5076 22.7173" fill="white"/>
<path d="M78.2375 19.3828L83.0027 23.7788L83.5 33L84.7681 45.4474L70.207 46.0358C66.5494 51.3203 62.9956 46.6012 62.9956 46.6012L56 47.5L49.0345 49.0011L46 26.7672L49.5076 22.7173" stroke="black" stroke-width="2" stroke-linecap="round" stroke-linejoin="round"/>
<path d="M64.392 23.2361C64.392 23.2361 65.2919 17.467 78.2492 19.3939L80.5569 40.5548C80.5569 40.5548 69.388 38.6164 66.4342 45.3315C66.4342 45.3315 62.3728 39.1471 52.2193 44.27L51 33L49.5078 22.7169C49.5078 22.7169 60.4113 16.4286 64.3804 23.2245L64.392 23.2361Z" fill="white" stroke="black" stroke-width="2" stroke-linecap="round" stroke-linejoin="round"/>
<path d="M64.4141 22.2891L66.4217 45.3191" stroke="black" stroke-width="2" stroke-linecap="round" stroke-linejoin="round"/>
<path d="M68.5469 25.9598C68.5469 25.9598 70.716 23.2022 74.8582 24.806" stroke="black" stroke-width="2" stroke-linecap="round" stroke-linejoin="round"/>
<defs>
<clipPath id="clip0_8633_131328">
<rect width="79.1533" height="77.9719" fill="white" transform="translate(42.1445 45.083) rotate(-73.0033)"/>
</clipPath>
</defs>
</svg>
