<svg width="100" height="94" viewBox="0 0 100 94" fill="none" xmlns="http://www.w3.org/2000/svg">
<g clip-path="url(#clip0_27912_85358)">
<path d="M118.896 10.704C113.465 5.23079 106.457 1.12916 98.781 -0.0476325C89.4961 -1.47434 82.9657 2.06218 75.7267 7.47701C71.1782 10.879 63.8603 11.6579 58.3908 12.2257C47.9766 13.3001 36.4504 13.7548 28.8958 21.004C19.291 30.2175 20.9666 46.8414 28.8275 57.6196C36.1054 67.5992 50.5038 74.0911 60.9214 67.5186C67.3536 63.4644 71.1627 55.2024 78.5831 53.5155C85.3927 51.9613 91.9064 56.7093 98.7268 58.2321C109.988 60.7542 122.213 53.3784 126.366 42.6142C130.52 31.85 127.031 18.9069 118.891 10.707L118.896 10.704Z" fill="#0059F5"/>
</g>
<path d="M52.2904 49.3221C59.3172 53.1503 71.9621 50.3163 71.0436 41.1554C70.5301 36.0037 67.3164 32.5502 62.4589 31.3505C58.9514 30.491 53.0645 28.6658 50.0184 31.3506C46.9724 34.0355 46.7992 42.0977 48.5906 45.6387C49.3899 47.1866 50.6995 48.4254 52.2744 49.285L52.2904 49.3221Z" fill="white" stroke="#0C0016" stroke-width="2" stroke-miterlimit="10"/>
<path d="M55.8689 43.5402L54.4286 21.71L76.2589 20.2697L77.6991 42.0999L55.8689 43.5402Z" fill="white" stroke="#0C0016" stroke-width="2" stroke-linecap="round" stroke-linejoin="round"/>
<path d="M64.3067 18.4735C62.8736 19.7586 62.3224 23.0794 64.3159 23.8094C65.4367 24.2206 66.4472 23.8094 67.1362 22.771C67.6323 22.0205 68.2294 20.8382 67.9446 19.8306C67.6599 18.8231 66.3094 17.9081 65.4091 17.9697C65.0141 18.0006 64.6375 18.1856 64.3159 18.4735H64.3067Z" fill="white" stroke="#0C0016" stroke-width="2" stroke-miterlimit="10"/>
<path d="M91.3143 37.1506L88.7917 43.6803L79.6266 39.3512L68.2699 35.7522L70.7925 29.2225L81.2608 33.4921L91.3143 37.1506Z" fill="white" stroke="#0C0016" stroke-width="2" stroke-linecap="round" stroke-linejoin="round"/>
<path d="M61.6021 29.4251L68.2697 35.7531L70.7923 29.2234L61.6021 29.4251Z" fill="white" stroke="#0C0016" stroke-width="2" stroke-linecap="round" stroke-linejoin="round"/>
<defs>
<clipPath id="clip0_27912_85358">
<rect width="102.464" height="74.2493" fill="white" transform="translate(12.3505 30.1758) rotate(-30.7305)"/>
</clipPath>
</defs>
</svg>