<svg width="100" height="84" viewBox="0 0 100 84" fill="none" xmlns="http://www.w3.org/2000/svg">
<g clip-path="url(#clip0_3301_6573)">
<path d="M70.1641 -26.9928C58.238 -24.2187 49.1819 -7.26661 51.5417 5.38389C52.7365 11.7825 56.3308 17.6447 56.5149 24.2414C56.8272 35.2073 48.7228 44.5535 55.431 55.1622C59.4468 61.5119 67.361 65.197 74.7636 63.8292C82.6488 62.3725 87.0358 56.0044 90.1474 49.1372C93.5176 41.6998 96.3332 37.0481 104.863 35.8085C110.503 34.9911 117.276 35.1528 119.479 28.5555C122.677 18.9539 110.735 14.0397 104.041 10.9405C98.4829 8.36723 92.7155 3.06946 91.5651 -3.29031C90.2536 -10.545 91.7988 -16.3642 85.5722 -22.0938C80.3441 -26.9017 75.0217 -28.1184 70.1688 -26.991L70.1641 -26.9928Z" fill="#F566C5"/>
</g>
<path d="M74.2708 38.078L63.5896 39.6183L48.4537 41.4989L45.6688 25.431C50.172 25.3206 64.4824 23.4563 71.0746 22.538C71.1726 22.9745 71.6057 23.8228 72.5538 23.7243C73.502 23.6258 73.5431 22.7282 73.4451 22.2918L79.1518 21.5065C79.6679 26.289 82.1392 33.7359 83.3102 36.8615L76.5307 37.7739C76.545 37.3411 76.3255 36.4996 75.3324 36.5966C74.3393 36.6936 74.2109 37.6246 74.2708 38.078Z" fill="white" stroke="#0C0016" stroke-width="2" stroke-linejoin="round"/>
<path d="M72.1305 26.973C72.1505 26.8447 72.1956 26.7197 72.2676 26.6092C72.3604 26.4671 72.4879 26.3483 72.6324 26.2606C72.7083 26.215 72.7888 26.1755 72.874 26.1522C72.9765 26.1233 73.0838 26.1173 73.1898 26.1211C73.7115 26.1887 74.1051 26.5248 74.126 26.98C74.1461 27.4152 73.9514 27.8303 73.5503 28.0223C73.5312 28.032 73.5113 28.0405 73.4915 28.0479C73.2221 28.1572 72.9524 28.1399 72.6899 28.0249C72.6112 27.9903 72.5331 27.9591 72.4645 27.9059C72.4171 27.8698 72.3762 27.8256 72.339 27.7787C72.1638 27.5552 72.0874 27.2547 72.1305 26.973Z" fill="#0C0016"/>
<path d="M72.7364 30.0765C72.7563 29.9482 72.8014 29.8232 72.8734 29.7128C72.9662 29.5706 73.0937 29.4518 73.2383 29.3641C73.3141 29.3185 73.3947 29.279 73.4798 29.2557C73.5823 29.2268 73.6896 29.2208 73.7957 29.2246C74.3173 29.2922 74.711 29.6283 74.7318 30.0836C74.752 30.5187 74.5572 30.9338 74.1561 31.1258C74.1371 31.1355 74.1171 31.144 74.0973 31.1514C73.8279 31.2607 73.5582 31.2435 73.2957 31.1284C73.217 31.0938 73.1389 31.0626 73.0704 31.0094C73.0229 30.9733 72.982 30.9291 72.9448 30.8822C72.7696 30.6587 72.6932 30.3582 72.7364 30.0765Z" fill="#0C0016"/>
<path d="M73.3422 33.18C73.3622 33.0518 73.4073 32.9267 73.4793 32.8163C73.5721 32.6741 73.6996 32.5554 73.8441 32.4676C73.9199 32.422 74.0005 32.3826 74.0856 32.3592C74.1882 32.3304 74.2955 32.3243 74.4015 32.3281C74.9232 32.3957 75.3168 32.7318 75.3377 33.1871C75.3578 33.6222 75.163 34.0373 74.7619 34.2293C74.7429 34.239 74.7229 34.2475 74.7031 34.2549C74.4337 34.3642 74.1641 34.347 73.9016 34.232C73.8228 34.1973 73.7448 34.1661 73.6762 34.1129C73.6287 34.0768 73.5878 34.0327 73.5507 33.9857C73.3755 33.7622 73.299 33.4617 73.3422 33.18Z" fill="#0C0016"/>
<defs>
<clipPath id="clip0_3301_6573">
<rect width="88.2513" height="75.5826" fill="white" transform="translate(30.3535 49.4668) rotate(-68.84)"/>
</clipPath>
</defs>
</svg>
