<svg width="100" height="86" viewBox="0 0 100 86" fill="none" xmlns="http://www.w3.org/2000/svg">
<g clip-path="url(#clip0_8633_131448)">
<path d="M129.374 21.9247C125.075 5.81782 105.123 -14.1088 91.3471 -14.258C82.5674 -14.3555 72.1758 -8.9992 71.6871 0.822875C71.4771 5.08634 73.1783 9.64656 71.2813 13.472C68.3334 19.4221 59.7421 18.7433 53.7391 21.5726C48.7346 23.929 45.394 29.1449 44.5754 34.6195C43.7595 40.0901 45.2511 45.7388 47.9778 50.5474C52.9813 59.3681 62.2795 65.6101 72.3428 66.8979C82.3994 68.187 92.9845 64.4907 100.067 57.2189C105.384 51.7633 108.495 48.7888 115.224 45.8818C122.374 42.7917 128.246 39.4046 129.937 30.806C130.466 28.1118 130.225 25.0954 129.378 21.9274L129.374 21.9247Z" fill="#0059F5"/>
</g>
<path d="M43.5293 30.9754C43.4131 25.3551 46.7001 20.0636 51.1121 16.5504C52.4104 15.5166 53.8168 14.6036 55.3487 13.9594C57.1886 13.1863 59.1763 12.8161 61.164 12.6172C71.0558 12.603 79.2006 17.9017 80.6916 26.2935C80.968 27.0088 81.2108 30.4945 81.0588 31.4867C80.8456 32.8816 80.7732 34.2979 80.505 35.6826C79.3015 41.8852 74.1552 46.837 68.2318 49.1165C66.551 49.7638 64.7785 50.2304 62.9764 50.2568C61.0406 50.2852 59.1375 49.8074 57.261 49.3336C55.4425 48.8741 53.5976 48.4043 51.9749 47.468C51.0061 46.909 50.1351 46.1948 49.3355 45.4146C45.5752 41.7452 43.4049 36.5155 43.4661 31.2757L43.5293 30.9754Z" fill="white" stroke="black" stroke-width="2" stroke-miterlimit="10" stroke-linecap="round"/>
<path d="M68.5541 31.0822C68.6734 28.239 66.4215 25.9298 63.2266 25.2276C62.5706 25.1501 61.9022 25.1284 61.2524 25.2493C60.7115 25.3494 60.1922 25.5467 59.6986 25.7915C58.0225 26.6218 56.5819 28.112 56.2179 29.9524L56.1758 30.0453C55.7809 31.7493 56.1079 33.6103 57.0591 35.0758C57.2616 35.3877 57.492 35.683 57.7645 35.934C58.222 36.3553 58.7835 36.6404 59.3377 36.9203C59.9094 37.2094 60.4904 37.5007 61.1177 37.6297C61.7017 37.7495 62.3074 37.7248 62.8966 37.6339C64.9727 37.3137 66.9891 36.0672 67.821 34.1308C68.0071 33.6981 68.1315 33.2416 68.3002 32.8027C68.4205 32.4898 68.5912 31.3362 68.5531 31.0832L68.5541 31.0822ZM63.8889 31.801C63.8436 31.9177 63.8107 32.0395 63.7613 32.1552C63.5392 32.6716 63.0025 33.0031 62.4493 33.0888C62.2919 33.1125 62.1305 33.1198 61.9752 33.0888C61.8076 33.0547 61.6534 32.9762 61.5012 32.8998C61.3531 32.8254 61.204 32.749 61.0817 32.6375C61.0087 32.5704 60.948 32.4919 60.8935 32.4092C60.6395 32.0189 60.5531 31.5232 60.658 31.0688L60.6693 31.044C60.766 30.5534 61.1506 30.1568 61.5968 29.9348C61.7284 29.8697 61.8662 29.8171 62.0112 29.7902C62.184 29.7582 62.3619 29.7634 62.5367 29.784C63.3881 29.9709 63.9876 30.5865 63.9557 31.3435C63.966 31.4106 63.9207 31.7183 63.8878 31.802L63.8889 31.801Z" fill="black"/>
<path d="M67.5938 22.2656C67.5938 22.2656 71.4034 23.5127 72.4195 28.0565" stroke="black" stroke-width="2" stroke-miterlimit="10" stroke-linecap="round"/>
<path d="M68.5586 18.4062C68.5586 18.4062 74.6543 20.2776 76.2798 27.0926" stroke="black" stroke-width="2" stroke-miterlimit="10" stroke-linecap="round"/>
<defs>
<clipPath id="clip0_8633_131448">
<rect width="71.8757" height="84.8877" fill="white" transform="translate(82.4297 -24.5903) rotate(34.0727)"/>
</clipPath>
</defs>
</svg>
