<svg width="53" height="64" viewBox="0 0 53 64" fill="none" xmlns="http://www.w3.org/2000/svg">
<g clip-path="url(#clip0_8329_145027)">
<path d="M-15.9274 27.5845C-10.175 27.5799 -3.80832 26.4477 0.765216 28.8663C5.45076 31.3391 7.17967 37.0301 11.7296 39.6769C15.8335 42.0622 22.07 41.4967 27.1269 38.273C38.1326 31.2632 42.8383 15.793 38.1607 7.09451C35.1617 1.51941 30.1732 -2.74728 28.2339 -8.92984C27.3487 -11.7478 27.1276 -14.9037 25.8163 -17.477C24.505 -20.0502 21.6572 -21.9959 18.2868 -21.0331C15.2456 -20.1606 12.8344 -17.2961 9.93349 -15.7263C5.00148 -13.0604 -0.0512826 -14.6206 -4.92075 -15.0568C-9.79022 -15.493 -16.7972 -13.2758 -18.1773 -8.29624C-18.7812 -6.12475 -18.0206 -4.16422 -18.1023 -2.04696C-18.3794 5.45737 -28.6795 12.8293 -28.2287 20.1434C-27.8937 25.5895 -21.6812 27.595 -15.9311 27.5874L-15.9274 27.5845Z" fill="#F566C5"/>
<path d="M42 25.1623L24 28.6484L24.3629 21.9529L42 18.6484V25.1623Z" fill="white"/>
<path d="M22.8516 44.1484L23.7603 22.6169L41.7403 18.7969L41.85 42.7169" stroke="black" stroke-width="2" stroke-linecap="round" stroke-linejoin="round"/>
<path d="M20.547 46.5421L20.547 46.5421L20.5406 46.5461C20.4278 46.6176 20.3185 46.6875 20.2121 46.7556C19.412 47.2674 18.7721 47.6768 17.972 47.8811C16.9613 48.1308 15.7835 47.9818 14.8898 47.5151C13.8678 46.9775 13.3405 46.2273 13.1229 45.4147C12.898 44.5749 12.9867 43.5936 13.3502 42.627C13.4751 42.3044 13.7937 41.8588 14.2583 41.4652C14.7219 41.0724 15.224 40.8219 15.6449 40.7612C17.9601 40.443 20.1928 40.7751 21.8244 42.0323C22.695 42.7066 23.054 43.796 22.7745 44.6623C22.6554 45.0281 22.4335 45.3018 22.0675 45.5841C21.79 45.7981 21.5005 45.9698 21.146 46.1801C20.9655 46.2872 20.7682 46.4043 20.547 46.5421Z" fill="white" stroke="black" stroke-width="2"/>
<path d="M34.0608 41.8873C34.9163 41.1501 35.363 40.8875 36.4031 40.4095C36.7048 40.2731 37.3438 40.0557 38.0221 39.8823C38.3557 39.797 38.6784 39.7276 38.9543 39.6851C39.2496 39.6396 39.4218 39.6362 39.4863 39.6434L39.4936 39.6443L39.501 39.645C40.016 39.6952 40.4755 39.9202 40.7906 40.2329L40.8954 40.3565C42.2172 41.915 42.4128 44.4083 40.374 46.1247L40.3731 46.1255C39.648 46.7375 38.7903 46.8933 37.6322 47.1036C37.4524 47.1363 37.2654 47.1703 37.0706 47.2074L37.0686 47.2078C35.9756 47.4188 35.1094 47.4642 34.3332 47.1812C33.3342 46.8103 32.7562 45.7184 32.9995 44.4712L33.0001 44.4683C33.0054 44.4406 33.0107 44.4133 33.0158 44.3863C33.2608 43.1093 33.385 42.4618 34.0557 41.8917L34.0557 41.8917L34.0608 41.8873Z" fill="white" stroke="black" stroke-width="2"/>
<path d="M23.9508 28.4204L41.0524 24.88" stroke="black" stroke-width="2" stroke-linecap="round" stroke-linejoin="round"/>
</g>
<defs>
<clipPath id="clip0_8329_145027">
<rect width="53" height="64" fill="white"/>
</clipPath>
</defs>
</svg>
