<svg width="20" height="20" viewBox="0 0 20 20" fill="none" xmlns="http://www.w3.org/2000/svg">
<path d="M15.3728 3.04117L9.5835 3.33332L4.60524 3.04117C3.05201 3.04117 1.79175 4.27493 1.79175 5.7955V12.1862C1.79175 13.7068 3.05201 14.9405 4.60524 14.9405H8.02148L9.68815 17.7868L11.9128 14.9405H15.3728C16.926 14.9405 18.1863 13.7068 18.1863 12.1862L18.0835 9.58332L18.1863 5.7955C18.1863 4.27493 16.926 3.04117 15.3728 3.04117Z" stroke="#0C0016" stroke-width="2" stroke-linecap="round" stroke-linejoin="round"/>
<path d="M9.16697 12.0676C9.16972 11.9594 9.19357 11.8513 9.24126 11.7523C9.3027 11.6249 9.39532 11.5131 9.50537 11.4251C9.56315 11.3792 9.62551 11.338 9.69337 11.3096C9.77499 11.2747 9.86303 11.2582 9.95107 11.25C10.3894 11.25 10.7508 11.4856 10.8168 11.8595C10.8801 12.217 10.7636 12.5809 10.4527 12.7826C10.438 12.7926 10.4224 12.8018 10.4069 12.8101C10.1959 12.9292 9.97125 12.9439 9.74198 12.877C9.6732 12.8568 9.60533 12.8394 9.54297 12.8027C9.49987 12.778 9.46135 12.7459 9.42559 12.7111C9.25685 12.5452 9.16147 12.305 9.16697 12.0676Z" fill="#0C0016"/>
<path d="M10 6.25L10 9.33333" stroke="#0C0016" stroke-width="2" stroke-linecap="round" stroke-linejoin="round"/>
</svg>
