<svg width="40" height="36" viewBox="0 0 40 36" fill="none" xmlns="http://www.w3.org/2000/svg">
<g clip-path="url(#clip0_20852_202841)">
<path d="M10.0025 16.92C10.0325 15.74 10.2925 14.56 10.8125 13.48C11.4825 12.09 12.4925 10.87 13.6925 9.91C14.3225 9.41 15.0025 8.96 15.7425 8.65C16.6325 8.27 17.5925 8.09 18.5525 8C23.3325 8 27.2725 10.57 27.9925 14.65C28.6825 18.55 27.4125 22.52 24.0225 24.72C23.8625 24.83 23.6925 24.93 23.5225 25.02C21.2225 26.32 18.7725 26.48 16.2725 25.75C15.5225 25.53 14.7825 25.34 14.1025 24.94C13.6325 24.67 13.2125 24.32 12.8225 23.94C10.9825 22.13 9.94246 19.51 10.0025 16.92Z" fill="#0C0016" stroke="#0C0016" stroke-width="2.3" stroke-miterlimit="10" stroke-linecap="round"/>
<path d="M13.1133 19.0312C13.1933 19.3713 13.2833 19.7213 13.3933 20.0513C13.9733 21.9113 16.2933 23.0712 18.0933 23.3212" stroke="white" stroke-width="2.3" stroke-miterlimit="10" stroke-linecap="round"/>
<path d="M25.9023 23.8604C25.9023 23.8604 26.9423 25.0204 27.2123 25.2504C28.3023 26.1904 28.5623 26.4704 29.7523 27.9904" stroke="#0C0016" stroke-width="2.3" stroke-miterlimit="10" stroke-linecap="round"/>
<path d="M20.293 10.8203C21.873 10.9503 23.393 11.7803 24.343 13.0503C25.003 13.9303 25.403 15.0503 25.273 16.1503" stroke="white" stroke-width="2.3" stroke-miterlimit="10" stroke-linecap="round"/>
</g>
<path d="M30.0098 7.50977C30.7898 6.79977 31.6098 6.13977 32.4498 5.50977" stroke="#0C0016" stroke-width="2.3" stroke-linecap="round" stroke-linejoin="round"/>
<path d="M25.9004 5.44039L26.8504 3.15039" stroke="#0C0016" stroke-width="2.3" stroke-linecap="round" stroke-linejoin="round"/>
<path d="M31.8496 11.5099C32.5396 11.1499 33.3196 10.9699 34.0996 10.9799" stroke="#0C0016" stroke-width="2.3" stroke-linecap="round" stroke-linejoin="round"/>
<path d="M8.58969 27C7.81969 27.7 7.00969 28.36 6.17969 28.97" stroke="#0C0016" stroke-width="2.3" stroke-linecap="round" stroke-linejoin="round"/>
<path d="M12.7 29.0781L11.75 31.3681" stroke="#0C0016" stroke-width="2.3" stroke-linecap="round" stroke-linejoin="round"/>
<path d="M6.75 23C6.06 23.36 5.28 23.54 4.5 23.53" stroke="#0C0016" stroke-width="2.3" stroke-linecap="round" stroke-linejoin="round"/>
<defs>
<clipPath id="clip0_20852_202841">
<rect width="24" height="24" fill="white" transform="translate(8 6)"/>
</clipPath>
</defs>
</svg>
