<svg width="24" height="24" viewBox="0 0 24 24" fill="none" xmlns="http://www.w3.org/2000/svg">
<path d="M2.20241 10.92C2.23241 9.74 2.49241 8.56 3.01241 7.48C3.68241 6.09 4.69241 4.87 5.89241 3.91C6.52241 3.41 7.20241 2.96 7.94241 2.65C8.83241 2.27 9.79241 2.09 10.7524 2C15.5324 2 19.4724 4.57 20.1924 8.65C20.8824 12.55 19.6124 16.52 16.2224 18.72C16.0624 18.83 15.8924 18.93 15.7224 19.02C13.4224 20.32 10.9724 20.48 8.47241 19.75C7.72241 19.53 6.98241 19.34 6.30241 18.94C5.83241 18.67 5.41241 18.32 5.02241 17.94C3.18241 16.13 2.14241 13.51 2.20241 10.92Z" stroke="#0C0016" stroke-width="2" stroke-miterlimit="10" stroke-linecap="round"/>
<path d="M18.1023 17.8604C18.1023 17.8604 19.1423 19.0204 19.4123 19.2504C20.5023 20.1904 20.7623 20.4704 21.9523 21.9904" stroke="#0C0016" stroke-width="2" stroke-miterlimit="10" stroke-linecap="round"/>
</svg>
