<svg width="24" height="24" viewBox="0 0 24 24" fill="none" xmlns="http://www.w3.org/2000/svg">
<path d="M1 12C1 12 5.5 4 12.5 4C19.5 4 23 12 23 12C23 12 19 20 12 20C5 20 1 12 1 12Z" stroke="#0C0016" stroke-width="2" stroke-linecap="round" stroke-linejoin="round"/>
<path d="M9.00081 11.9434C9.01072 11.554 9.09655 11.1646 9.26823 10.8083C9.48943 10.3496 9.82288 9.94703 10.2191 9.63025C10.427 9.46527 10.6515 9.31678 10.8959 9.21448C11.1897 9.08909 11.5066 9.0297 11.8236 9C13.4017 9 14.7024 9.84804 14.9401 11.1943C15.1679 12.4812 14.7487 13.7912 13.6295 14.5172C13.5766 14.5535 13.5205 14.5865 13.4644 14.6162C12.7051 15.0452 11.8962 15.0979 11.0708 14.8571C10.8232 14.7845 10.5789 14.7218 10.3544 14.5898C10.1992 14.5007 10.0606 14.3852 9.93182 14.2598C9.32436 13.6626 8.981 12.798 9.00081 11.9434Z" stroke="#0C0016" stroke-width="2" stroke-miterlimit="10" stroke-linecap="round"/>
</svg>
