<svg width="24" height="24" viewBox="0 0 24 24" fill="none" xmlns="http://www.w3.org/2000/svg">
<path d="M15.2542 5L9.60425 5.27738L4.74579 5C3.22994 5 2 6.17138 2 7.61505V13.6826C2 15.1262 3.22994 16.2976 4.74579 16.2976H4.8267V19L8.62441 16.2976H15.2542C16.7701 16.2976 18 15.1262 18 13.6826L17.8997 11.2113L18 7.61505C18 6.17138 16.7701 5 15.2542 5Z" fill="white" stroke="black" stroke-width="2" stroke-linecap="round" stroke-linejoin="round"/>
<path d="M12.0593 11L16.2968 11.1981L19.9407 11C21.0775 11 22 11.8367 22 12.8679V17.2018C22 18.233 21.0775 19.0697 19.9407 19.0697H19.88V21L17.0317 19.0697H12.0593C10.9225 19.0697 10 18.233 10 17.2018L10.0752 15.4367L10 12.8679C10 11.8367 10.9225 11 12.0593 11Z" fill="white" stroke="black" stroke-width="2" stroke-linecap="round" stroke-linejoin="round"/>
</svg>
