<svg width="24" height="24" viewBox="0 0 24 24" fill="none" xmlns="http://www.w3.org/2000/svg">
<path d="M2.00271 11.8113C2.03572 10.5134 2.32185 9.21546 2.8941 8.02755C3.63143 6.49867 4.74292 5.15677 6.0635 4.10084C6.75681 3.55088 7.50514 3.05592 8.3195 2.71495C9.29893 2.29698 10.3554 2.09899 11.4119 2C16.6722 2 21.0081 4.82679 21.8005 9.31446C22.5598 13.6041 21.1622 17.9708 17.4315 20.3906C17.2555 20.5116 17.0684 20.6216 16.8813 20.7206C14.3502 22.1505 11.654 22.3265 8.90276 21.5236C8.07739 21.2816 7.26303 21.0726 6.5147 20.6326C5.99747 20.3356 5.53527 19.9507 5.10608 19.5327C3.08118 17.5418 1.93668 14.6601 2.00271 11.8113Z" stroke="#0C0016" stroke-width="2" stroke-miterlimit="10" stroke-linecap="round"/>
<path d="M8 8C8.67436 8.67986 9.69977 9.38766 10.3741 10.0675C12.3695 12.0605 14.0139 14.007 16 16" stroke="#0C0016" stroke-width="2" stroke-linecap="round" stroke-linejoin="round"/>
<path d="M7.6665 16.3333L10.066 14.1282L14.3781 10.1217L16.6665 8" stroke="#0C0016" stroke-width="2" stroke-linecap="round" stroke-linejoin="round"/>
</svg>
