<svg width="390" height="463" viewBox="0 0 390 463" fill="none" xmlns="http://www.w3.org/2000/svg">
<path d="M300.881 206.079C274.053 210.438 249.104 225.309 231.574 247.832C224.986 256.306 219.225 266.045 210.663 272.073C186.239 289.51 147.781 273.417 133.815 244.953C120.727 218.19 127.723 185.096 137.041 159.503C146.959 132.209 161.456 107.324 170.027 79.4164C173.539 67.9486 176.019 55.0769 171.934 43.4669C165.395 24.969 144.881 11.5314 133.041 -3.13917C119.828 -19.4461 107.349 -36.4592 97.1613 -55.228C79.8151 -86.9927 65.3371 -129.157 85.6802 -161.614C123.127 -221.502 148.513 -173.432 203.111 -186.127C268.232 -201.309 227.54 -351.875 223.688 -416.435C222.019 -444.374 225.025 -476.364 245.146 -491.906C260.683 -503.936 330.323 -509.968 349 -503C404.648 -482.254 486.81 -297.241 484.877 -227.376C483.889 -190.701 458.094 -161.648 452.004 -125.83C439.304 -51.0339 525.809 17.3845 555.871 78.0683C571.958 110.483 581.567 147.933 576.263 183.482C570.35 223.436 544.849 258.011 511.041 271.782C480.957 284.067 442.453 279.89 414.634 258.577C382.892 234.298 358.582 204.929 317.473 204.905C311.911 204.94 306.332 205.366 300.873 206.275L300.881 206.079Z" fill="#353535"/>
<path d="M-93.1426 94.5561C-80.3547 123.127 -76.3234 155.811 -82.2653 185.599C-84.5052 196.799 -88.1555 207.909 -87.445 219.648C-85.5902 253.27 -51.0234 281.601 -22.0325 279.106C5.19978 276.717 25.089 251.206 38.1457 227.674C52.0815 202.598 61.5434 174.427 76.7263 150.314C82.9715 140.415 90.8503 130.727 101.717 128.141C119.048 124.05 141.013 136.419 158.716 139.65C178.424 143.292 198.209 145.821 217.908 145.128C251.307 144.057 290.558 134.318 302.046 96.1775C323.296 25.8907 273.266 28.3532 250.02 -31.9535C222.323 -103.906 263.33 -150.703 312.536 -183.44C333.833 -197.605 355.291 -218.61 354.619 -246.974C354.121 -268.893 341.671 -362.763 325.499 -377C197.409 -518.764 126.347 -498.365 76.7264 -457C50.6621 -435.312 -35.3203 -456.94 -57.7273 -430.771C-104.528 -376.141 -125.485 -358.508 -187.462 -353.466C-220.585 -350.802 -217.82 -211.453 -240.499 -186.201C-266.017 -157.867 -275.976 -113.512 -265.877 -72.8291C-256.913 -36.6095 -230.977 -1.50027 -198.945 13.5272C-162.424 30.6951 -126.623 37.7551 -102.157 77.7459C-98.8743 83.1789 -95.8655 88.8486 -93.2796 94.6743L-93.1426 94.5561Z" fill="#97D700"/>
</svg>
