<svg width="100%" height="100%" viewBox="0 0 390 300" fill="none" xmlns="http://www.w3.org/2000/svg">
<g clip-path="url(#clip0_8786_125823)">
<path d="M18.3884 139.918C27.9391 164.4 29.2168 192.083 21.6268 217.02C18.7677 226.396 14.6313 235.653 14.4189 245.574C13.6463 273.982 43.042 298.927 69.6178 297.708C94.5848 296.526 114.559 275.621 128.169 256.177C142.691 235.457 153.367 211.991 168.955 192.122C175.365 183.966 183.247 176.037 193.329 174.188C209.407 171.268 228.499 182.369 244.378 185.633C262.054 189.306 279.881 192.043 297.865 192.061C328.351 192.177 364.797 185.163 378.048 153.353C402.539 94.7329 356.812 95.2817 340.063 43.719C320.115 -17.8002 360.872 -56.0087 408.066 -82.1111C428.491 -93.4052 449.564 -110.462 451.029 -134.4C452.18 -152.898 441.033 -170.276 427.353 -182.775C386.603 -220.024 284.773 -244.721 236.571 -211.356C211.254 -193.864 202.96 -159.027 180.645 -137.645C134.04 -93.0075 45.2691 -134.478 -11.5237 -132.12C-41.8739 -130.885 -72.7177 -121.928 -95.2126 -101.327C-120.518 -78.2145 -132.832 -41.116 -126.616 -6.50253C-121.106 24.313 -100.064 54.7103 -72.002 68.3602C-40.0103 83.952 -7.93397 90.9985 11.4123 125.467C14.0031 130.149 16.3273 135.022 18.2551 140.013L18.3884 139.918Z" fill="#F5D640"/>
<path d="M122.276 219.084C110.951 202.282 105.57 188.578 99.891 172.061C90.1898 144.09 84.758 108.292 108.006 85.6326C150.824 43.8089 164.752 86.0021 214.474 84.3935C273.787 82.4429 293.887 32.4018 301.525 -19.5617C304.829 -42.0502 312.895 -67.0342 333.069 -76.2703C348.652 -83.4254 367.143 -78.9121 382.225 -70.4634C427.168 -45.3024 478.499 63 466.946 95.3989C455.393 127.798 446.538 136.657 421.018 171.078C395.499 205.5 189.813 319.276 122.276 219.084Z" fill="#F566C5"/>
</g>
<defs>
<clipPath id="clip0_8786_125823">
<rect width="390" height="300" fill="white"/>
</clipPath>
</defs>
</svg>
