<svg width="100%" height="100%" viewBox="0 0 390 500" fill="none" xmlns="http://www.w3.org/2000/svg">
<g clip-path="url(#clip0_8633_248507)">
<path d="M-3.44399 138.633C-3.6359 111.454 -14.504 84.5188 -34.0716 63.7417C-41.4348 55.9317 -50.1741 48.7446 -54.8184 39.3599C-68.3022 12.55 -46.5005 -22.9843 -16.231 -32.4191C12.2227 -41.2468 43.8524 -29.2578 67.7132 -16.1243C93.1626 -2.13718 115.529 16.0055 141.792 28.756C152.585 33.9852 164.924 38.4103 177.023 36.1548C196.305 32.5309 212.731 14.3204 229.044 4.8716C247.184 -5.68382 265.91 -15.4058 286.02 -22.594C320.069 -34.8625 363.955 -42.7016 392.908 -17.6206C446.343 28.5694 394.949 46.2811 399.118 102.181C404.132 168.86 559.157 151.745 623.544 157.841C651.408 160.477 682.558 168.355 694.83 190.622C704.335 207.821 699.614 277.562 689.863 294.948C660.826 346.755 465.4 399.566 396.659 386.939C360.569 380.338 335.816 350.391 301.356 338.879C229.394 314.856 148.516 389.843 83.9391 410.241C49.4402 421.165 10.9594 424.916 -23.355 414.221C-61.9291 402.25 -92.1831 371.747 -100.606 336.228C-108.131 304.615 -98.0965 267.207 -72.769 242.986C-43.9088 215.345 -11.1579 195.827 -4.82851 155.209C-4.01001 149.707 -3.57473 144.128 -3.63555 138.595L-3.44399 138.633Z" fill="#0059F5"/>
<path d="M300.879 153.079C274.052 157.438 249.102 172.309 231.572 194.832C224.984 203.306 219.223 213.045 210.662 219.073C186.237 236.51 147.779 220.417 133.813 191.953C120.725 165.19 127.721 132.096 137.039 106.503C146.957 79.2089 161.454 54.3241 170.025 26.4164C173.537 14.9486 176.017 2.07691 171.932 -9.53312C165.393 -28.031 144.879 -41.4686 133.04 -56.1392C119.827 -72.4461 107.347 -89.4592 97.1595 -108.228C79.8133 -139.993 65.3352 -182.157 85.6783 -214.614C123.125 -274.502 148.511 -226.432 203.109 -239.127C268.231 -254.309 227.539 -404.875 223.686 -469.435C222.017 -497.374 225.023 -529.364 245.144 -544.906C260.682 -556.936 330.322 -562.968 348.998 -556C404.646 -535.254 486.808 -350.241 484.875 -280.376C483.888 -243.701 458.092 -214.648 452.002 -178.83C439.302 -104.034 525.808 -35.6155 555.869 25.0683C571.956 57.4832 581.565 94.9333 576.261 130.482C570.348 170.436 544.847 205.011 511.039 218.782C480.955 231.067 442.451 226.89 414.632 205.577C382.891 181.298 358.58 151.929 317.471 151.905C311.909 151.94 306.33 152.366 300.871 153.275L300.879 153.079Z" fill="#0059F5"/>
<path d="M-93.1423 41.5561C-80.3543 70.1269 -76.323 102.811 -82.2649 132.599C-84.5049 143.799 -88.1551 154.909 -87.4447 166.648C-85.5899 200.27 -51.0231 228.601 -22.0321 226.106C5.20014 223.717 25.0894 198.206 38.1461 174.674C52.0819 149.598 61.5438 121.427 76.7267 97.3136C82.9718 87.4152 90.8507 77.7273 101.717 75.1409C119.048 71.05 141.014 83.4194 158.716 86.6496C178.424 90.2922 198.21 92.8214 217.908 92.1284C251.308 91.0571 290.559 81.3177 302.047 43.1775C323.297 -27.1093 273.267 -24.6468 250.021 -84.9535C222.324 -156.906 263.33 -203.703 312.537 -236.44C333.833 -250.605 355.292 -271.61 354.62 -299.974C354.122 -321.893 341.671 -415.763 325.5 -430C197.41 -571.764 126.347 -551.365 76.7267 -510C50.6625 -488.312 -35.32 -509.94 -57.7269 -483.771C-104.527 -429.141 -125.484 -411.508 -187.462 -406.466C-220.585 -403.802 -217.82 -264.453 -240.498 -239.201C-266.016 -210.867 -275.976 -166.512 -265.877 -125.829C-256.913 -89.6095 -230.977 -54.5003 -198.944 -39.4728C-162.424 -22.3049 -126.622 -15.2449 -102.157 24.7459C-98.8739 30.1789 -95.8652 35.8486 -93.2792 41.6743L-93.1423 41.5561Z" fill="#F566C5"/>
<path d="M123.044 423.411C148.291 430.79 172.15 446.315 189.337 466.891C195.796 474.631 201.527 483.264 209.747 489.332C233.204 506.835 268.612 499.524 280.677 478.756C291.979 459.223 284.275 431.71 274.661 409.866C264.427 386.573 249.994 364.546 240.997 340.957C237.31 331.265 234.539 320.598 237.952 311.894C243.419 298.03 262.136 290.244 272.696 280.213C284.483 269.071 295.558 257.257 304.429 243.705C319.54 220.784 331.603 189.121 311.436 160.182C274.308 106.8 252.25 141.611 200.735 123.531C139.289 101.934 167.5 85.5 185 90.5C185.581 68.3702 125.285 -50.8763 105.919 -66.2381C90.9638 -78.1236 22.0265 -122.128 4.8019 -119.255C-151.105 -112.667 -171.087 -53.8001 -166.828 2.42278C-164.617 31.9327 -219.892 77.3448 -212.939 106.908C-198.436 168.641 -196.527 192.477 -222.516 236.711C-236.426 260.335 -141.54 336.163 -135.331 365.397C-128.399 398.247 -103.333 429.628 -71.2273 445.556C-42.6563 459.755 -6.78733 461.991 18.486 448.958C47.3239 434.119 69.033 414.126 107.484 420.065C112.688 420.9 117.921 422.049 123.059 423.568L123.044 423.411Z" fill="#F566C5"/>
</g>
<defs>
<clipPath id="clip0_8633_248507">
<rect width="390" height="500" fill="white"/>
</clipPath>
</defs>
</svg>
