<svg width="100%" height="100%" viewBox="0 0 390 500" fill="none" xmlns="http://www.w3.org/2000/svg">
<g clip-path="url(#clip0_8786_125828)">
<path d="M-39.7339 288.738C-28.1291 318.486 -26.5767 352.123 -35.799 382.423C-39.273 393.815 -44.299 405.064 -44.5572 417.117C-45.4959 451.635 -9.77817 481.945 22.5133 480.464C52.8499 479.027 77.1201 453.627 93.6563 430.001C111.302 404.825 124.275 376.312 143.214 352.169C151.003 342.259 160.58 332.626 172.831 330.379C192.366 326.83 215.564 340.319 234.859 344.285C256.336 348.749 277.998 352.074 299.849 352.095C336.891 352.237 381.176 343.714 397.277 305.062C427.035 233.836 371.473 234.502 351.122 171.85C326.884 97.1002 376.407 50.6743 433.75 18.9582C458.568 5.23514 484.174 -15.4901 485.953 -44.5765C487.352 -67.0532 473.808 -88.1686 457.186 -103.355C407.672 -148.615 283.941 -178.624 225.372 -138.083C194.611 -116.829 184.533 -74.4996 157.419 -48.5187C100.79 5.71832 -7.07204 -44.6713 -76.0791 -41.8057C-112.957 -40.305 -150.434 -29.4225 -177.767 -4.39097C-208.515 23.6929 -223.477 68.77 -215.924 110.828C-209.229 148.271 -183.662 185.205 -149.564 201.791C-110.692 220.736 -71.7174 229.298 -48.2103 271.18C-45.0623 276.868 -42.2383 282.789 -39.8959 288.854L-39.7339 288.738Z" fill="#F5D640"/>
<path d="M232.857 411.645C208.745 410.94 184.479 418.891 165.373 434.084C158.191 439.802 151.514 446.654 143.03 450.119C118.784 460.193 88.024 441.408 80.7051 416.589C73.8616 393.261 85.5909 368.018 98.066 349.105C111.353 328.933 128.219 311.389 140.438 290.518C145.45 281.94 149.802 272.085 148.221 262.213C145.675 246.478 130.093 232.597 122.278 219.083C113.545 204.054 105.571 188.577 99.8927 172.06C90.1915 144.09 84.7596 108.292 108.008 85.632C150.826 43.8083 164.754 86.0015 214.476 84.393C273.789 82.4423 293.889 32.401 301.527 -19.5625C304.83 -42.051 312.897 -67.0349 333.071 -76.271C348.654 -83.4261 367.145 -78.913 382.227 -70.4643C427.169 -45.3034 480.528 40.1135 466.947 95.3979C459.842 124.423 432.424 143.527 421.02 171.077C397.219 228.61 460.924 296.499 476.777 349.456C485.271 377.747 487.264 409.038 476.59 436.496C464.636 467.364 436.534 490.906 404.739 496.605C376.441 501.7 343.611 492.388 323.007 471.105C299.491 446.851 283.315 419.704 247.51 413.291C242.658 412.454 237.726 411.925 232.816 411.799L232.857 411.645Z" fill="#F566C5"/>
</g>
<defs>
<clipPath id="clip0_8786_125828">
<rect width="390" height="500" fill="white"/>
</clipPath>
</defs>
</svg>
