<svg width="100%" height="100%" viewBox="0 0 390 300" fill="none" xmlns="http://www.w3.org/2000/svg">
<g clip-path="url(#clip0_8826_123207)">
<path d="M493.738 113.171C392.858 0.871216 258.208 119.681 204.308 108.181C126.178 91.5012 130.498 -16.7188 48.5176 -36.9688C-3.32239 -49.7688 -60.8724 -20.2988 -92.6824 18.8912C-142.022 79.6812 -139.112 175.791 -95.9124 213.501C-44.7424 258.161 26.1776 188.821 102.078 231.481C196.774 284.705 322.5 280.5 405.5 213.501C501.05 149.551 547.358 177.341 493.748 113.171" fill="#FF0000"/>
<path d="M173.488 25.1913C127.368 54.1713 99.1776 39.2413 53.1376 51.1213C9.7676 62.3113 -21.4924 107.671 -4.60239 154.371C14.9576 208.471 10.0952 182.663 78.7976 251.081C147.5 319.5 329.103 296.936 329.328 155.031C329.378 121.111 375.898 117.991 402.238 60.5013C422.738 15.7813 429.588 -58.7387 387.378 -94.2787C280.968 -179.319 219.628 -3.79872 173.508 25.1713" fill="#0059F5"/>
</g>
<defs>
<clipPath id="clip0_8826_123207">
<rect width="390" height="300" fill="white"/>
</clipPath>
</defs>
</svg>
