<svg width="100%" height="100%" viewBox="0 0 390 300" fill="none" xmlns="http://www.w3.org/2000/svg">
<g clip-path="url(#clip0_8786_126847)">
<path d="M74.5075 -14.1589C59.6234 8.50552 37.1029 26.1245 11.5929 34.6436C1.99825 37.8422 -8.26001 39.8955 -16.7307 45.6454C-41.0864 61.9733 -44.4995 101.605 -27.5919 123.23C-11.6762 143.522 17.8434 147.829 42.3309 147.656C68.4372 147.488 94.5548 142.443 120.582 143.679C131.273 144.196 142.652 146.088 150.233 153.462C162.297 165.24 164.37 187.932 171.115 203.239C178.589 220.301 186.941 236.931 197.674 252.068C215.795 277.778 243.476 304.241 278.15 296.375C342.091 281.941 314.301 243.809 347.661 198.906C387.482 145.363 443.977 156.809 494.135 180.903C515.841 191.333 542.781 198.864 563.791 185.789C580.037 175.702 587.992 155.941 590.329 136.966C597.305 80.4307 557.221 -19.977 500.351 -40.5793C470.509 -51.4189 436.251 -37.5755 404.931 -43.5655C339.534 -56.0887 321.363 -155.536 285.438 -201.895C266.261 -226.684 240.295 -247.274 209.524 -253.882C174.961 -261.353 136.399 -249.539 111.001 -223.625C88.3753 -200.574 75.3835 -164.71 80.6737 -132.95C86.6787 -96.7238 99.9217 -65.5337 82.4923 -28.6622C80.103 -23.6853 77.3936 -18.8184 74.3475 -14.2139L74.5075 -14.1589Z" fill="#0059F5"/>
<path d="M-16.1504 -53.7984C0.422921 -65.4562 14.017 -71.1091 30.418 -77.1151C58.1898 -87.3709 93.8725 -93.5139 116.99 -70.7213C159.658 -28.7438 117.75 -13.9794 120.347 35.7012C123.478 94.9635 173.909 114.064 226.014 120.667C248.564 123.522 273.703 131.09 283.339 151.076C290.803 166.514 286.658 185.091 278.511 200.338C254.249 245.772 146.99 299.248 114.367 288.342C81.7451 277.436 72.7119 268.758 37.7892 243.929C2.86655 219.099 -114.979 15.7181 -16.1504 -53.7984Z" fill="#15D7B4"/>
</g>
<defs>
<clipPath id="clip0_8786_126847">
<rect width="390" height="300" fill="white"/>
</clipPath>
</defs>
</svg>
