<svg width="100%" height="100%" viewBox="0 0 390 500" fill="none" xmlns="http://www.w3.org/2000/svg">
<g clip-path="url(#clip0_8826_122389)">
<path d="M74.5075 -14.1589C59.6234 8.50546 37.1029 26.1244 11.5929 34.6435C1.99825 37.8421 -8.26001 39.8955 -16.7307 45.6453C-41.0864 61.9732 -44.4995 101.605 -27.5919 123.229C-11.6762 143.522 17.8434 147.829 42.3309 147.656C68.4372 147.488 94.5548 142.443 120.582 143.679C131.273 144.196 142.652 146.088 150.233 153.462C162.297 165.24 164.37 187.932 171.115 203.239C178.589 220.301 186.941 236.931 197.674 252.067C215.795 277.778 243.476 304.241 278.15 296.375C342.091 281.941 314.301 243.809 347.661 198.906C387.482 145.362 443.977 156.809 494.135 180.903C515.841 191.333 542.781 198.864 563.791 185.789C580.037 175.702 587.992 155.941 590.329 136.966C597.305 80.4306 557.221 -19.9771 500.351 -40.5794C470.509 -51.419 436.251 -37.5756 404.931 -43.5656C339.534 -56.0888 321.363 -155.536 285.438 -201.895C266.261 -226.684 240.295 -247.274 209.524 -253.882C174.961 -261.353 136.399 -249.539 111.001 -223.625C88.3753 -200.574 75.3835 -164.71 80.6737 -132.95C86.6787 -96.7239 99.9217 -65.5337 82.4923 -28.6623C80.103 -23.6853 77.3936 -18.8184 74.3475 -14.2139L74.5075 -14.1589Z" fill="#0059F5"/>
<path d="M-60.3615 163.841C-75.2456 186.506 -97.7661 204.125 -123.276 212.644C-132.871 215.842 -143.129 217.896 -151.6 223.645C-175.955 239.973 -179.368 279.605 -162.461 301.23C-146.545 321.522 -117.026 325.829 -92.5381 325.656C-66.4318 325.488 -40.3142 320.443 -14.2869 321.679C-3.59611 322.196 7.78297 324.088 15.3635 331.462C27.4283 343.24 29.5012 365.932 36.2456 381.239C43.7196 398.301 52.0716 414.931 62.8048 430.068C80.9257 455.778 108.607 482.241 143.281 474.375C207.222 459.941 179.432 421.809 212.792 376.906C252.613 323.363 309.108 334.809 359.266 358.903C380.972 369.333 407.912 376.864 428.922 363.789C445.168 353.702 453.123 333.941 455.46 314.966C462.436 258.431 422.352 158.023 365.482 137.421C335.64 126.581 301.382 140.425 270.062 134.434C204.665 121.911 186.494 22.4636 150.569 -23.8947C131.392 -48.6837 105.426 -69.2735 74.6554 -75.882C40.0922 -83.3531 1.53009 -71.5389 -23.868 -45.6247C-46.4937 -22.5744 -59.4855 13.2898 -54.1954 45.0502C-48.1903 81.2762 -34.9473 112.466 -52.3767 149.338C-54.766 154.315 -57.4754 159.182 -60.5215 163.786L-60.3615 163.841Z" fill="#0059F5"/>
<path d="M-16.1502 -53.7984C0.423043 -65.4562 14.0172 -71.1091 30.4181 -77.1151C58.1899 -87.3709 93.8726 -93.5139 116.99 -70.7213C159.658 -28.7438 117.75 -13.9794 120.348 35.7012C123.478 94.9635 173.909 114.064 226.014 120.667C248.564 123.522 273.703 131.09 283.339 151.076C290.803 166.514 286.658 185.091 278.511 200.338C254.25 245.772 146.99 299.248 114.368 288.342C81.7452 277.436 72.712 268.758 37.7893 243.929C2.86667 219.099 -114.979 15.7181 -16.1502 -53.7984Z" fill="#15D7B4"/>
<path d="M142.004 254.735C147.38 230.061 154.522 213.553 163.709 194.414C179.205 161.923 204.034 126.891 238.84 129.746C303.018 134.928 279.136 183.277 315.995 228.567C359.989 282.566 414.507 259.569 461.652 223.276C482.053 207.567 507.864 194.238 529.704 205.435C546.59 214.067 556.197 235.185 560.21 256.396C572.177 319.59 522.024 458.307 487.772 474.566C453.52 490.826 440.079 489.929 394.214 494.781C348.348 499.633 109.95 401.868 142.004 254.735Z" fill="#15D7B4"/>
</g>
<defs>
<clipPath id="clip0_8826_122389">
<rect width="390" height="499" fill="white"/>
</clipPath>
</defs>
</svg>
