<svg width="100%" height="100%" viewBox="0 0 390 300" fill="none" xmlns="http://www.w3.org/2000/svg">
<g clip-path="url(#clip0_8544_232759)">
<path d="M-141.238 543.978C-112.11 565.556 -21.8209 385.631 -12.9166 420.772C-9.57499 433.988 -7.85065 448.036 -0.943033 459.882C18.6418 493.93 129.5 484 162.5 469.5C195.5 455 272.222 398.246 274.5 365C276.952 329.557 277 362.5 277 362.5C277 362.5 281.5 365.272 279.5 355C277.5 344.728 283 352 283 352L286 346.5C286 346.5 -12.9166 389 -23.5 272.5C216 352 232.294 234.172 174.984 186.169C106.649 128.871 127.93 52.888 165.667 -13.7278C182.002 -42.5554 194.953 -78.6636 179.426 -107.972C167.45 -130.635 141.538 -142.631 116.112 -146.955C40.3606 -159.855 -99.5621 -111.543 -133.265 -35.6063C-150.989 4.23923 -135.781 51.5764 -147.098 93.7227C-170.749 181.723 -307.124 200.351 -373.514 246.296C-409.011 270.82 -439.525 304.813 -451.622 346.176C-465.275 392.634 -453.253 445.69 -420.809 481.735C-391.954 513.843 -344.779 533.652 -301.278 528.4C-251.663 522.448 -139.347 294.806 -91.2651 320.7C-84.7787 324.245 -78.4739 328.218 -72.5587 332.632L-141.238 543.978Z" fill="#15D7B4"/>
<path d="M657.397 72.3705C664.5 95.362 679.576 115.803 699.625 129.114C707.167 134.116 715.585 138.288 721.484 145.221C738.497 164.981 731.183 199.883 710.813 214.526C691.655 228.256 664.776 225.041 643.453 219.15C620.715 212.884 599.234 202.42 576.201 197.381C566.737 195.32 556.316 194.279 547.786 198.847C534.2 206.153 526.497 225.192 516.637 236.782C505.684 249.711 494.077 262.062 480.78 272.57C458.29 290.444 427.262 306.725 399.047 291.827C346.999 264.415 381.152 238.119 363.702 191.661C342.858 136.252 290.586 132.856 240.559 141.828C218.91 145.713 193.445 145.876 178.507 129.7C166.949 117.212 165.14 98.3431 168.028 81.4674C176.622 31.1855 237.677 -45.8131 292.654 -50.2068C321.51 -52.5371 347.81 -32.5932 376.696 -30.404C437.016 -25.8469 478.699 -107.157 522.087 -138.624C545.26 -155.457 573.266 -167.086 601.833 -165.558C633.935 -163.883 664.517 -144.676 679.95 -116.423C693.708 -91.2841 695.731 -57.3784 682.867 -31.2901C668.219 -1.52709 648.562 22.2059 654.196 58.0188C654.989 62.8615 656.089 67.6845 657.551 72.3607L657.397 72.3705Z" fill="#0059F5"/>
</g>
<defs>
<clipPath id="clip0_8544_232759">
<rect width="390" height="300" fill="white"/>
</clipPath>
</defs>
</svg>
