<svg width="100%" height="100%" viewBox="0 0 390 500" fill="none" xmlns="http://www.w3.org/2000/svg">
<g clip-path="url(#clip0_8826_123158)">
<path d="M493.738 113.171C392.858 0.871216 258.208 119.681 204.308 108.181C126.178 91.5012 130.498 -16.7188 48.5176 -36.9688C-3.32239 -49.7688 -60.8724 -20.2988 -92.6824 18.8912C-142.022 79.6812 -139.112 175.791 -95.9124 213.501C-44.7424 258.161 26.1776 188.821 102.078 231.481C178.548 274.461 150.358 369.471 227.538 410.861C288.248 443.421 367.448 417.751 413.048 387.221C508.598 323.271 547.358 177.341 493.748 113.171" fill="#FF0000"/>
<path d="M373.892 30.7989C230.378 -16.0157 173.172 154.202 120.743 171.192C44.7409 195.812 -5.62786 99.9309 -86.7496 123.384C-138.044 138.219 -173.149 192.516 -181.102 242.36C-193.437 319.676 -142.862 401.454 -86.5947 412.512C-19.9502 425.604 6.79837 330.094 93.8597 329.088C181.575 328.075 204.666 424.451 292.201 421.706C361.058 419.549 416.812 357.718 441.038 308.478C491.811 205.321 452.413 59.5618 373.901 30.7939" fill="#FF0000"/>
<path d="M173.488 25.1913C127.368 54.1713 99.1776 39.2413 53.1376 51.1213C9.7676 62.3113 -21.4924 107.671 -4.60239 154.371C14.9576 208.471 62.9076 199.461 78.7976 251.081C83.3476 265.861 80.1976 289.651 76.0076 315.801C66.2476 376.611 80.1576 447.781 142.468 450.071C191.728 451.941 201.118 379.921 264.668 368.041C315.028 358.631 391.808 415.201 427.158 349.471C458.028 292.061 329.238 211.781 329.328 155.031C329.378 121.111 375.898 117.991 402.238 60.5013C422.738 15.7813 429.588 -58.7387 387.378 -94.2787C280.968 -179.319 219.628 -3.79872 173.508 25.1713" fill="#0059F5"/>
</g>
<defs>
<clipPath id="clip0_8826_123158">
<rect width="390" height="500" fill="white"/>
</clipPath>
</defs>
</svg>
