<svg width="100%" height="100%" viewBox="0 0 390 300" fill="none" xmlns="http://www.w3.org/2000/svg">
<g clip-path="url(#clip0_8633_248398)">
<path d="M300.881 208.94C274.054 213.298 249.104 228.169 231.574 250.692C224.986 259.166 219.225 268.905 210.664 274.934C186.239 292.37 147.781 276.277 133.815 247.813C120.727 221.05 127.723 187.956 137.041 162.363C146.959 135.069 161.456 110.184 170.027 82.2767C173.539 70.8088 176.019 57.9371 171.934 46.3271C165.395 27.8292 144.881 14.3917 133.042 -0.278941C119.828 -16.5858 107.349 -33.5989 97.1614 -52.3677C79.8152 -84.1325 65.3372 -126.296 85.6803 -158.754C123.127 -218.642 148.513 -170.572 203.111 -183.267C268.233 -198.449 227.54 -349.015 223.688 -413.574C222.019 -441.514 225.025 -473.503 245.146 -489.045C260.684 -501.076 330.323 -507.108 349 -500.14C404.648 -479.394 486.81 -294.38 484.877 -224.516C483.89 -187.841 458.094 -158.787 452.004 -122.969C439.304 -48.1737 525.81 20.2447 555.871 80.9285C571.958 113.343 581.567 150.794 576.263 186.342C570.35 226.296 544.849 260.871 511.041 274.642C480.957 286.928 442.453 282.75 414.634 261.437C382.892 237.159 358.582 207.789 317.473 207.765C311.911 207.8 306.332 208.226 300.873 209.135L300.881 208.94Z" fill="#0059F5"/>
<path d="M-93.1426 41.5561C-80.3547 70.1269 -76.3234 102.811 -82.2653 132.599C-84.5052 143.799 -88.1555 154.909 -87.445 166.648C-85.5902 200.27 -51.0234 228.601 -22.0325 226.106C5.19978 223.717 25.089 198.206 38.1457 174.674C52.0815 149.598 61.5434 121.427 76.7263 97.3136C82.9715 87.4152 90.8503 77.7273 101.717 75.1409C119.048 71.05 141.013 83.4194 158.716 86.6496C178.424 90.2922 198.209 92.8214 217.908 92.1284C251.307 91.0571 290.558 81.3177 302.046 43.1775C323.296 -27.1093 273.266 -24.6468 250.02 -84.9535C222.323 -156.906 263.33 -203.703 312.536 -236.44C333.833 -250.605 355.291 -271.61 354.619 -299.974C354.121 -321.893 341.671 -415.763 325.499 -430C197.409 -571.764 126.347 -551.365 76.7264 -510C50.6621 -488.312 -35.3203 -509.94 -57.7273 -483.771C-104.528 -429.141 -125.485 -411.508 -187.462 -406.466C-220.585 -403.802 -217.82 -264.453 -240.499 -239.201C-266.017 -210.867 -275.976 -166.512 -265.877 -125.829C-256.913 -89.6095 -230.977 -54.5003 -198.945 -39.4728C-162.424 -22.3049 -126.623 -15.2449 -102.157 24.7459C-98.8743 30.1789 -95.8655 35.8486 -93.2796 41.6743L-93.1426 41.5561Z" fill="#F566C5"/>
</g>
<defs>
<clipPath id="clip0_8633_248398">
<rect width="390" height="300" fill="white"/>
</clipPath>
</defs>
</svg>
