<svg width="126" height="121" viewBox="0 0 126 121" fill="none" xmlns="http://www.w3.org/2000/svg">
<path d="M39.6796 29.3307C28.5098 38.3971 22.9158 53.8372 25.6992 67.9536C28.4826 82.07 39.5073 94.2371 53.2883 98.3895C67.0692 102.542 82.9808 98.4893 93.0989 88.2533C103.217 78.0264 107.079 62.0604 102.773 48.3339C99.527 37.971 91.8749 29.1131 82.1739 24.2263C66.217 16.1753 45.1648 19.9197 32.9523 32.9663" fill="#FF9E81"/>
<path d="M39.6796 29.3307C28.5098 38.3971 22.9158 53.8372 25.6992 67.9536C28.4826 82.07 39.5073 94.2371 53.2883 98.3895C67.0692 102.542 82.9808 98.4893 93.0989 88.2533C103.217 78.0264 107.079 62.0604 102.773 48.3339C99.527 37.971 91.8749 29.1131 82.1739 24.2263C66.217 16.1753 45.1648 19.9197 32.9523 32.9663" stroke="black" stroke-width="6" stroke-linecap="round" stroke-linejoin="round"/>
<path d="M34.903 59.901C34.8124 72.5849 43.5796 84.8336 55.6107 88.841C67.6418 92.8483 82.003 88.306 89.5463 78.1063C97.0805 67.9066 97.2074 52.8382 89.8455 42.5207C77.5968 25.3489 51.3767 26.3009 39.9621 43.6902C36.8161 48.4864 34.9393 54.1438 34.903 59.901Z" fill="#FF0000" stroke="black" stroke-width="6" stroke-linecap="round" stroke-linejoin="round"/>
<path d="M59.0635 60.4115C56.6156 58.3262 54.2765 56.114 52.0643 53.7839C51.1304 52.8048 50.1694 51.6987 50.0062 50.3568C49.7976 48.598 51.1123 46.8935 52.7805 46.3132C54.4487 45.733 56.3345 46.1138 57.8849 46.966C59.4352 47.8183 60.6955 49.0966 61.9013 50.3931C63.1071 51.6896 64.2676 53.0405 65.6911 54.0922C67.1689 53.4848 68.1662 52.5237 69.2451 51.3451C70.324 50.1665 71.3304 48.9062 72.5725 47.9089C73.8146 46.9116 75.3649 46.1863 76.9606 46.286C78.5563 46.3858 80.1339 47.5191 80.4058 49.0875C80.7141 50.8736 79.3813 52.4784 78.1483 53.8021C76.0358 56.0687 73.9234 58.3262 71.8018 60.5928C72.8354 62.3336 74.4855 63.3581 76.1446 64.5095C77.8038 65.6609 79.4992 66.9484 80.3515 68.7798C81.2037 70.6112 80.8773 73.1498 79.1275 74.1652C77.3686 75.1807 75.1564 74.2831 73.4156 73.2495C70.4781 71.4997 67.7763 69.351 65.41 66.8758C63.4245 69.0337 61.1216 71.0101 59.127 73.1679C58.5195 73.8207 57.894 74.5007 57.078 74.8633C55.3191 75.6612 53.0888 74.6911 52.1459 73.0138C51.2029 71.3365 51.3933 69.1787 52.2818 67.4652C53.7143 64.709 56.3255 61.8712 59.0635 60.4024V60.4115Z" fill="white" stroke="black" stroke-width="6" stroke-linecap="round" stroke-linejoin="round"/>
</svg>
