<svg width="23" height="22" viewBox="0 0 23 22" fill="none" xmlns="http://www.w3.org/2000/svg">
<path d="M1.51123 19.6727C8.99996 20.264 14.8612 19.6127 20.8512 19.5427C21.4612 16.7227 20.94 11.1152 21 9.26396C21.1038 6.06126 20.9812 3.90271 21.1712 0.742711C18.4312 0.412711 12.7588 1.09267 10 1.09272C5.5 1.09279 4.91123 0.572711 1.80123 1.09271C1.8012 8.26399 2.00003 9.26399 1.51123 19.6727Z" fill="white" stroke="#0C0016" stroke-width="2.3" stroke-linecap="round" stroke-linejoin="round"/>
<path d="M8.13052 4.40617C7.44052 3.77617 6.52052 3.63617 5.62052 3.77617C5.14052 3.85617 4.65052 4.39617 4.50052 4.84617C4.20052 5.79617 4.31052 6.88617 5.23052 7.45617C5.63052 7.70617 6.15052 7.78617 6.60052 7.64617C7.00052 7.52617 7.31052 7.26617 7.64052 7.02617C8.05052 6.72617 8.49052 6.45617 8.64052 5.92617C8.80052 5.35617 8.55052 4.78617 8.14052 4.40617H8.13052Z" fill="#0C0016"/>
<path d="M18.3009 14.2438C18.2009 13.9238 18.0109 13.6438 17.7609 13.4238C17.6109 13.2938 17.4509 13.2038 17.2909 13.1138C16.8409 12.8538 16.2709 12.6838 15.7609 12.8238C15.1809 12.9838 15.0109 13.5538 14.8309 14.0638C14.7309 14.3638 14.6409 14.6638 14.6209 14.9838C14.6009 15.3338 14.6609 15.6838 14.8309 15.9838C15.3209 16.8738 16.4909 17.1138 17.3409 16.6238C18.1409 16.1538 18.6009 15.1538 18.3109 14.2538L18.3009 14.2438Z" fill="#0C0016"/>
<path d="M3.87933 14.6462C3.79716 15.5769 4.24405 16.3932 4.90138 17.0237C5.2562 17.3567 5.98274 17.4186 6.43146 17.2648C7.36865 16.9269 8.16838 16.1782 8.06331 15.101C8.01935 14.6314 7.76746 14.1695 7.38315 13.8967C7.04507 13.6515 6.65031 13.5628 6.25931 13.4461C5.77209 13.3022 5.2905 13.1163 4.77819 13.3186C4.22801 13.5372 3.92658 14.0818 3.87326 14.6383L3.87933 14.6462Z" fill="#0C0016"/>
<path d="M16.1143 3.44795C15.7799 3.42509 15.45 3.50062 15.1543 3.65381C14.9788 3.74646 14.8369 3.86292 14.695 3.97939C14.2895 4.30447 13.9243 4.77402 13.8699 5.30007C13.8086 5.89861 14.2782 6.26375 14.6882 6.61645C14.9315 6.81844 15.1784 7.01111 15.4694 7.14579C15.7883 7.29136 16.1362 7.36238 16.4775 7.31274C17.4846 7.17886 18.1326 6.17555 17.9842 5.20571C17.8363 4.28973 17.0712 3.49839 16.1273 3.44226L16.1143 3.44795Z" fill="#0C0016"/>
</svg>
