<svg width="23" height="22" viewBox="0 0 23 22" fill="none" xmlns="http://www.w3.org/2000/svg">
<g clip-path="url(#clip0_19640_248065)">
<path d="M1.51143 20.6755C8 21.2667 13 20.2667 20.8514 20.5455C21.5 17.7667 21.6302 17.1467 21.5002 14.2667C21.3502 11.1067 21.5002 7.76672 21.1714 1.74553C19.0002 1.76675 10.7502 1.52559 8.00017 1.74559C4.76017 1.99559 4.91143 1.57553 1.80143 2.09553C0.911433 8.49553 1.50003 12.7667 1.51143 20.6755Z" fill="white" stroke="#0C0016" stroke-width="2.3" stroke-linecap="round" stroke-linejoin="round"/>
<path d="M4.8798 14.0179C4.2498 14.7079 4.1098 15.6279 4.2498 16.5279C4.3298 17.0079 4.8698 17.4979 5.3198 17.6479C6.2698 17.9479 7.3598 17.8379 7.9298 16.9179C8.1798 16.5179 8.2598 15.9979 8.1198 15.5479C7.9998 15.1479 7.7398 14.8379 7.4998 14.5079C7.1998 14.0979 6.9298 13.6579 6.3998 13.5079C5.8298 13.3479 5.2598 13.5979 4.8798 14.0079L4.8798 14.0179Z" fill="#0C0016"/>
<path d="M15.3189 4.37099C14.9989 4.47099 14.719 4.66099 14.499 4.91099C14.369 5.06099 14.2789 5.22099 14.1889 5.38099C13.9289 5.83099 13.7589 6.40099 13.8989 6.91099C14.0589 7.49099 14.629 7.66099 15.139 7.84099C15.439 7.94099 15.7389 8.03099 16.0589 8.05099C16.4089 8.07099 16.759 8.01099 17.059 7.84099C17.949 7.35099 18.1889 6.18099 17.6989 5.33099C17.2289 4.53099 16.2289 4.07099 15.329 4.36099L15.3189 4.37099Z" fill="#0C0016"/>
</g>
<defs>
<clipPath id="clip0_19640_248065">
<rect width="24" height="24" fill="white" transform="translate(-1 -1.23438)"/>
</clipPath>
</defs>
</svg>
