<svg width="23" height="22" viewBox="0 0 23 22" fill="none" xmlns="http://www.w3.org/2000/svg">
<path d="M1.36263 20.5267C7.33263 20.5267 12 19.7664 20.7026 20.3967C21.3126 17.5767 21.63 13.6464 21.5 10.7664C21.35 7.60636 20.8326 4.75665 21.0226 1.59665C21.0226 1.59665 14.3726 1.20665 11.6226 1.42665C8.38263 1.67665 4.76263 1.42665 1.65263 1.94665C1.65281 8.76636 0.902626 14.4267 1.36263 20.5267Z" fill="white" stroke="#0C0016" stroke-width="2.3" stroke-linecap="round" stroke-linejoin="round"/>
<path d="M12.9835 9.76719C12.8835 9.44719 12.6935 9.16719 12.4435 8.94719C12.2935 8.81719 12.1335 8.72719 11.9735 8.63719C11.5235 8.37719 10.9535 8.20719 10.4435 8.34719C9.8635 8.50719 9.6935 9.07719 9.5135 9.58719C9.4135 9.88719 9.3235 10.1872 9.3035 10.5072C9.2835 10.8572 9.3435 11.2072 9.5135 11.5072C10.0035 12.3972 11.1735 12.6372 12.0235 12.1472C12.8235 11.6772 13.2835 10.6772 12.9935 9.77719L12.9835 9.76719Z" fill="#0C0016"/>
</svg>
