<svg width="23" height="22" viewBox="0 0 23 22" fill="none" xmlns="http://www.w3.org/2000/svg">
<g clip-path="url(#clip0_19640_248911)">
<path d="M1.51127 20.6131C7.48127 20.6131 14.8613 20.5531 20.8513 20.4831C21.4613 17.6631 21.0413 14.7331 20.9113 11.8531C20.7613 8.69307 20.9813 4.84307 21.1713 1.68307C18.4313 1.35307 14.5213 1.29307 11.7713 1.51307C8.53127 1.76307 4.91127 1.51307 1.80127 2.03307C0.911266 8.43307 1.05127 14.5131 1.51127 20.6131Z" fill="white" stroke="#0C0016" stroke-width="2.3" stroke-linecap="round" stroke-linejoin="round"/>
<path d="M7.79338 5.71291L7.89115 5.80218C8.14104 6.08 8.24475 6.42275 8.15926 6.72806C8.07369 7.02967 7.85046 7.1922 7.44674 7.48615C7.41429 7.50977 7.38067 7.53425 7.34586 7.55972C7.29088 7.59971 7.23916 7.63788 7.18997 7.67418C6.9078 7.88241 6.70904 8.0291 6.45685 8.10476L6.45684 8.10473L6.45199 8.10624C6.15029 8.20011 5.78049 8.14778 5.49552 7.96967L5.49386 7.96864C4.85572 7.57327 4.71038 6.78362 4.97599 5.93842C5.02282 5.80041 5.13469 5.61911 5.29032 5.46347C5.45014 5.30366 5.60178 5.22445 5.70064 5.20722C6.50611 5.08261 7.25239 5.21896 7.79338 5.71291Z" fill="#0C0016" stroke="#0C0016"/>
<path d="M10.3152 12.8823L10.3152 12.8822L10.3129 12.8801C10.0692 12.6492 9.95492 12.2848 9.91781 11.8273C9.89434 11.4476 9.98217 11.0626 10.094 10.6049C10.1827 10.2615 10.2167 10.1445 10.3234 10.0449C10.4923 9.89791 10.7153 9.80547 10.928 9.79226C11.3796 9.76771 11.8578 9.88468 12.2061 10.1191C12.5395 10.3436 12.7459 10.6647 12.7391 11.1046C12.7317 11.4933 12.5487 11.8211 12.2761 12.293L12.2761 12.2929L12.2736 12.2974C12.0721 12.6547 11.8674 12.9133 11.5828 13.0779C11.1843 13.2983 10.6624 13.2153 10.3152 12.8823Z" fill="#0C0016" stroke="#0C0016"/>
<path d="M17.8236 15.3304L17.8603 15.4478L17.8644 15.4519C18.0065 16.0745 17.6802 16.7809 17.0894 17.1291C16.4506 17.4961 15.6066 17.2935 15.2689 16.6801L15.2689 16.6801L15.2659 16.6747C15.1538 16.4769 15.1044 16.2279 15.12 15.9511C15.1357 15.7026 15.206 15.4572 15.3039 15.1635C15.3127 15.1385 15.3212 15.1141 15.3296 15.0902C15.4141 14.8497 15.4792 14.6642 15.5732 14.5097C15.664 14.3601 15.7587 14.2806 15.8935 14.2433C16.22 14.1539 16.6461 14.2562 17.0407 14.4842L17.0407 14.4842L17.0458 14.487C17.21 14.5794 17.3262 14.6465 17.432 14.7379C17.6177 14.9017 17.7532 15.1048 17.8236 15.3304Z" fill="#0C0016" stroke="#0C0016"/>
</g>
<defs>
<clipPath id="clip0_19640_248911">
<rect width="22.33" height="21.53" fill="white" transform="translate(0 0.234375)"/>
</clipPath>
</defs>
</svg>
