<svg width="23" height="22" viewBox="0 0 23 22" fill="none" xmlns="http://www.w3.org/2000/svg">
<g clip-path="url(#clip0_19640_248095)">
<path d="M1.51146 20.6745C7.48145 20.6745 11 21.2657 20.8515 20.5445C21.4615 17.7245 20.9815 13.6457 20.8515 10.7657C20.7015 7.60575 20.9815 4.90449 21.1715 1.74449C18.4315 1.41449 13.7502 1.04574 11.0002 1.26574C7.76019 1.51574 4.91146 1.57449 1.80146 2.09449C5.22137e-05 10.2657 1.05146 14.5745 1.51146 20.6745Z" fill="white" stroke="#0C0016" stroke-width="2.3" stroke-linecap="round" stroke-linejoin="round"/>
<path d="M8.13052 5.40617C7.44052 4.77617 6.52052 4.63617 5.62052 4.77617C5.14052 4.85617 4.65052 5.39617 4.50052 5.84617C4.20052 6.79617 4.31052 7.88617 5.23052 8.45617C5.63052 8.70617 6.15052 8.78617 6.60052 8.64617C7.00052 8.52617 7.31052 8.26617 7.64052 8.02617C8.05052 7.72617 8.49052 7.45617 8.64052 6.92617C8.80052 6.35617 8.55052 5.78617 8.14052 5.40617H8.13052Z" fill="#0C0016"/>
<path d="M10.8991 9.35559C10.5691 9.37559 10.2391 9.51559 9.98907 9.73559C9.74907 9.95559 9.68907 10.2356 9.60907 10.5456C9.49907 10.9956 9.38907 11.4556 9.41907 11.9256C9.45907 12.4256 9.58907 12.9456 9.96907 13.3056C10.4591 13.7756 11.2191 13.9156 11.8291 13.5756C12.2291 13.3456 12.4891 12.9956 12.7091 12.6056C12.9691 12.1556 13.2291 11.7156 13.2391 11.1756C13.2591 9.90559 11.9891 9.29559 10.8991 9.35559Z" fill="#0C0016"/>
<path d="M3.77386 15.4782C3.69169 16.409 4.13858 17.2252 4.79591 17.8557C5.15073 18.1887 5.87727 18.2506 6.32599 18.0968C7.26318 17.7589 8.06291 17.0102 7.95784 15.933C7.91388 15.4634 7.66199 15.0015 7.27768 14.7287C6.9396 14.4835 6.54484 14.3949 6.15385 14.2782C5.66662 14.1343 5.18503 13.9483 4.67272 14.1506C4.12254 14.3693 3.82111 14.9138 3.7678 15.4703L3.77386 15.4782Z" fill="#0C0016"/>
<path d="M16.0089 4.28389C15.6744 4.26103 15.3445 4.33655 15.0489 4.48975C14.8733 4.58239 14.7314 4.69886 14.5895 4.81533C14.184 5.14041 13.8189 5.60995 13.7644 6.13601C13.7032 6.73455 14.1727 7.09969 14.5827 7.45239C14.826 7.65437 15.073 7.84704 15.3639 7.98173C15.6828 8.1273 16.0308 8.19831 16.372 8.14868C17.3791 8.0148 18.0271 7.01149 17.8787 6.04165C17.7308 5.12566 16.9657 4.33433 16.0218 4.2782L16.0089 4.28389Z" fill="#0C0016"/>
<path d="M18.3725 15.5511C18.3276 15.2189 18.1872 14.911 17.9776 14.6523C17.8515 14.499 17.7088 14.3834 17.5662 14.2679C17.1661 13.9362 16.6326 13.6731 16.1064 13.7256C15.5078 13.7862 15.2447 14.3196 14.9818 14.7923C14.8329 15.0713 14.6939 15.3519 14.6206 15.6641C14.5422 16.0058 14.5427 16.3609 14.6601 16.6851C14.994 17.6446 16.1072 18.0773 17.0273 17.7366C17.8948 17.4073 18.5158 16.4985 18.3807 15.5627L18.3725 15.5511Z" fill="#0C0016"/>
</g>
<defs>
<clipPath id="clip0_19640_248095">
<rect width="24" height="24" fill="white" transform="translate(-1 -1.23438)"/>
</clipPath>
</defs>
</svg>
