<svg width="24" height="24" viewBox="0 0 24 24" fill="none" xmlns="http://www.w3.org/2000/svg">
<path d="M18 18L23 23" stroke="#0C0016" stroke-width="2" stroke-linecap="round" stroke-linejoin="round"/>
<path d="M23 18L18 23" stroke="#0C0016" stroke-width="2" stroke-linecap="round" stroke-linejoin="round"/>
<path d="M14 22C11.5103 21.86 3.42966 21.8104 3.42966 21.8104C2.82966 20.3104 3.35966 16.9904 3.35966 16.9904C3.87966 14.0204 6.27966 11.4604 9.21966 10.7504C8.48966 10.4304 7.99966 10.0004 7.61966 9.37039C7.28966 8.82039 6.97966 8.24039 6.87966 7.61039C6.75966 6.85039 6.82966 5.76039 7.14966 5.06039C8.00966 3.19039 9.91966 2.15039 11.9897 2.15039C14.0597 2.15039 16.2497 3.56039 16.8297 5.54039C17.4097 7.52039 16.3897 9.88039 14.4897 10.7104C15.4931 10.9736 18 12.5 19 14.5" stroke="black" stroke-width="2" stroke-linecap="round" stroke-linejoin="round"/>
</svg>
