<svg width="81" height="100" viewBox="0 0 81 100" fill="none" xmlns="http://www.w3.org/2000/svg">
<g clip-path="url(#clip0_8329_107752)">
<path d="M44.8104 79.4911C43.0161 86.3893 40.7816 91.2653 36.511 96.6896C26.6538 89.1642 18.4905 85.976 8.61647 78.4409C10.5185 73.0193 13.6071 67.7083 17.5499 63.045C19.4018 64.2468 21.2608 65.4748 23.1102 66.7194C30.0461 71.2985 37.1065 75.9715 44.5975 79.4345L44.8104 79.4911Z" fill="black"/>
<path d="M59.3192 42.7173C54.2638 45.3238 48.9381 46.426 42.9329 47.4674C42.5573 47.5379 42.1817 47.6083 41.7773 47.7285C41.7295 47.6566 41.7079 47.5779 41.6601 47.5061C38.9182 42.5858 37.296 36.9639 36.6859 31.1749L37.8725 31.2854C41.6336 31.8877 45.3348 33.4058 48.5217 35.6215C52.065 38.1092 55.1658 41.557 59.3192 42.7173Z" fill="black"/>
<path d="M41.7778 47.7296C46.953 57.2151 47.5775 68.7807 44.8095 79.4926C43.0152 86.3908 40.7807 91.2668 36.5101 96.6911C26.6098 90.5553 18.4895 85.9775 8.61555 78.4424C10.5175 73.0209 13.6062 67.7098 17.549 63.0466C23.8915 55.5034 32.447 49.6578 41.7778 47.7296ZM41.7778 47.7296C41.73 47.6578 41.7084 47.5791 41.6606 47.5072C38.9187 42.587 37.2965 36.9651 36.6864 31.1761C35.6957 21.5208 37.5331 11.3765 41.8491 3.12743C53.6754 9.44702 65.5016 15.7666 77.3183 22.1028C79.8616 23.4606 65.8871 38.4213 64.4157 39.5388C62.7457 40.8068 61.0447 41.8579 59.3197 42.7185C54.2643 45.3249 48.9386 46.4271 42.9334 47.4686C42.5578 47.539 42.1822 47.6094 41.7778 47.7296Z" stroke="black" stroke-width="6" stroke-linecap="round" stroke-linejoin="round"/>
<path d="M37.3298 57.8692C37.3297 57.8699 37.3293 57.8702 37.3292 57.8708C37.3291 57.8711 37.329 57.8713 37.3289 57.8716" stroke="black" stroke-width="5" stroke-linecap="round"/>
<path d="M30.3533 63.6036C30.3531 63.6042 30.3527 63.6046 30.3526 63.6052C30.3526 63.6055 30.3525 63.6057 30.3523 63.6059" stroke="black" stroke-width="5" stroke-linecap="round"/>
<path d="M36.8947 69.0797C36.8877 69.1822 36.8313 69.2286 36.823 69.3298C36.8192 69.376 36.8092 69.4146 36.7948 69.4486" stroke="black" stroke-width="5" stroke-linecap="round"/>
</g>
<defs>
<clipPath id="clip0_8329_107752">
<rect width="80.9999" height="100" fill="white"/>
</clipPath>
</defs>
</svg>
