<svg width="96" height="96" viewBox="0 0 96 96" fill="none" xmlns="http://www.w3.org/2000/svg">
<path d="M34.7548 70.7922C33.7307 76.4754 33.7124 82.2854 34.7182 87.6248C46.3674 89.127 55.1821 89.0365 66.1912 89.3804C67.1239 82.9189 66.6484 77.8691 64.8562 71.3714C62.0582 61.2899 56.0782 52.1134 47.355 46.7922C47.2818 46.756 47.227 46.7017 47.1538 46.6655C42.5819 43.9324 38.5952 40.0953 35.3583 35.6429C29.9817 28.2039 26.69 19.0275 26.3242 10.2311C38.9975 9.8148 51.6709 9.39851 64.3442 9.00032C67.069 8.90983 62.6983 27.7696 62.0216 29.3804C61.2536 31.2085 60.3575 32.8736 59.3517 34.394C56.4439 38.9189 52.6035 42.3397 48.1779 46.032C47.9036 46.2673 47.6293 46.5026 47.355 46.7922C40.6251 52.7831 36.3824 61.6157 34.7548 70.7922Z" fill="white"/>
<path d="M47.355 46.7922C56.0782 52.1134 62.0582 61.2899 64.8562 71.3714C66.6484 77.8691 67.1239 82.9189 66.1912 89.3804C55.1821 89.0365 46.3674 89.127 34.7182 87.6248C33.7124 82.2854 33.7307 76.4754 34.7548 70.7922C36.3824 61.6157 40.6251 52.7831 47.355 46.7922ZM47.355 46.7922C47.2818 46.756 47.227 46.7017 47.1538 46.6655C42.5819 43.9325 38.5952 40.0953 35.3583 35.6429C29.9817 28.2039 26.69 19.0275 26.3242 10.2311C38.9975 9.8148 51.6709 9.39851 64.3442 9.00032C67.069 8.90983 62.6983 27.7696 62.0216 29.3804C61.2536 31.2085 60.3575 32.8736 59.3516 34.394C56.4439 38.9189 52.6035 42.3397 48.1779 46.032C47.9036 46.2673 47.6293 46.5026 47.355 46.7922Z" stroke="black" stroke-width="6" stroke-linecap="round" stroke-linejoin="round"/>
<path d="M64.8576 71.3722C66.6498 77.8699 67.1253 82.9197 66.1926 89.3812C54.5617 87.8789 46.3688 89.1278 34.7196 87.6255C33.7138 82.2862 33.7321 76.4762 34.7562 70.793C36.841 70.9016 38.9441 71.0283 41.0472 71.1731C48.8925 71.6436 56.8842 72.1323 64.6565 71.4265L64.8576 71.3722Z" fill="black"/>
<path d="M59.3527 34.3949C56.445 38.9198 52.6046 42.3406 48.179 46.0329C47.9047 46.2682 47.6304 46.5035 47.3561 46.7931C47.2829 46.7569 47.228 46.7026 47.1549 46.6664C42.583 43.9333 38.5963 40.0962 35.3594 35.6437L36.3835 35.1731C39.7484 33.8881 43.4974 33.3813 47.1549 33.689C51.233 34.051 55.4026 35.4084 59.3527 34.3949Z" fill="black"/>
<path d="M48.4969 57.1974C48.4971 57.198 48.4969 57.1985 48.4971 57.1991C48.4972 57.1994 48.4972 57.1996 48.4972 57.1999" stroke="black" stroke-width="5" stroke-linecap="round"/>
<path d="M45.5008 65.1974C45.501 65.198 45.5008 65.1985 45.501 65.1991C45.5011 65.1994 45.5011 65.1996 45.5012 65.1999" stroke="black" stroke-width="5" stroke-linecap="round"/>
<path d="M53.4412 66.5835C53.4839 66.6708 53.4597 66.7355 53.5007 66.8223C53.5194 66.8619 53.5295 66.8982 53.5338 66.9329" stroke="black" stroke-width="5" stroke-linecap="round"/>
<path d="M47.355 46.7922C56.0782 52.1134 62.0582 61.2899 64.8562 71.3714C66.6484 77.8691 67.1239 82.9189 66.1912 89.3804C55.1821 89.0365 46.3674 89.127 34.7182 87.6248C33.7124 82.2854 33.7307 76.4754 34.7548 70.7922C36.3824 61.6157 40.6251 52.7831 47.355 46.7922ZM47.355 46.7922C47.2818 46.756 47.227 46.7017 47.1538 46.6655C42.5819 43.9325 38.5952 40.0953 35.3583 35.6429C29.9817 28.2039 26.69 19.0275 26.3242 10.2311C38.9975 9.8148 51.6709 9.39851 64.3442 9.00032C67.069 8.90983 62.6983 27.7696 62.0216 29.3804C61.2536 31.2085 60.3575 32.8736 59.3516 34.394C56.4439 38.9189 52.6035 42.3397 48.1779 46.032C47.9036 46.2673 47.6293 46.5026 47.355 46.7922Z" stroke="black" stroke-width="6" stroke-linecap="round" stroke-linejoin="round"/>
</svg>
