<svg width="20" height="22" viewBox="0 0 20 22" fill="none" xmlns="http://www.w3.org/2000/svg">
<path d="M1.42991 20.8104C0.829907 19.3104 1.35991 15.9904 1.35991 15.9904C1.87991 13.0204 4.27991 10.4604 7.21991 9.75039C6.48991 9.43039 5.99991 9.00039 5.61991 8.37039C5.28991 7.82039 4.97991 7.24039 4.87991 6.61039C4.75991 5.85039 4.82991 4.76039 5.14991 4.06039C6.00991 2.19039 7.91991 1.15039 9.98991 1.15039C12.0599 1.15039 14.2499 2.56039 14.8299 4.54039C15.4099 6.52039 14.3899 8.88039 12.4899 9.71039C14.7199 9.75039 16.6499 11.4504 17.5799 13.4704C18.5099 15.4904 18.6199 17.7904 18.5999 20.0104C18.5999 20.2904 18.5999 20.7004 18.4899 20.9504L1.42991 20.8104Z" fill="white" stroke="black" stroke-width="2" stroke-linecap="round" stroke-linejoin="round"/>
</svg>
