<svg width="86" height="86" viewBox="0 0 86 86" fill="none" xmlns="http://www.w3.org/2000/svg">
<path d="M17.9276 12.3307C6.75782 21.3971 1.16385 36.8372 3.94723 50.9536C6.73062 65.07 17.7554 77.2371 31.5363 81.3895C45.3173 85.5419 61.2288 81.4893 71.3469 71.2533C81.465 61.0264 85.3273 45.0604 81.0208 31.3339C77.775 20.971 70.123 12.1131 60.4219 7.22629C44.465 -0.82468 23.4128 2.91975 11.2004 15.9663" fill="#F5D640"/>
<path d="M17.9276 12.3307C6.75782 21.3971 1.16385 36.8372 3.94723 50.9536C6.73062 65.07 17.7554 77.2371 31.5363 81.3895C45.3173 85.5419 61.2288 81.4893 71.3469 71.2533C81.465 61.0264 85.3273 45.0604 81.0208 31.3339C77.775 20.971 70.123 12.1131 60.4219 7.22629C44.465 -0.82468 23.4128 2.91975 11.2004 15.9663" stroke="black" stroke-width="6" stroke-linecap="round" stroke-linejoin="round"/>
<path d="M13.1511 42.901C13.0604 55.5849 21.8276 67.8336 33.8588 71.841C45.8899 75.8483 60.2511 71.306 67.7943 61.1063C75.3285 50.9066 75.4555 35.8382 68.0935 25.5207C55.8448 8.34889 29.6248 9.30086 18.2101 26.6902C15.0641 31.4864 13.1874 37.1438 13.1511 42.901Z" fill="white" stroke="black" stroke-width="6" stroke-linecap="round" stroke-linejoin="round"/>
<path d="M46.2581 51.36C46.2381 54.58 46.2981 57.02 45.7981 58.23C45.2981 59.44 44.1281 60.49 42.8181 60.41C41.6381 60.34 40.6581 59.39 40.1981 58.3C39.7381 57.21 39.6981 55.99 39.6681 54.81C39.5581 50.78 39.4481 46.76 39.3481 42.73C39.3181 41.45 39.2881 40.14 39.6781 38.92C40.8581 35.22 45.1581 35.46 45.8881 39.09C46.8381 43.84 46.3081 46.51 46.2781 51.36H46.2581Z" fill="black"/>
<path d="M41.1381 31.39C42.5981 32.37 44.7381 32.28 45.9981 31.05C47.2581 29.82 47.3781 27.56 46.1381 26.31C42.3381 22.46 36.0881 27.97 41.1381 31.39Z" fill="black"/>
</svg>
