<svg width="178" height="60" viewBox="0 0 178 60" fill="none" xmlns="http://www.w3.org/2000/svg">
<path d="M98.6742 12.5527H94.9436C93.5665 12.5527 92.4648 13.6573 92.4648 15.0381V44.9879C92.4648 46.3686 93.5665 47.4732 94.9436 47.4732C96.3207 47.4732 97.4223 46.3686 97.4223 44.9879V32.5109H98.6742C101.428 32.5109 103.657 30.2766 103.657 27.5151V17.5486C103.657 14.8121 101.428 12.5527 98.6742 12.5527ZM98.6742 27.5402H97.4223V17.5486H98.6742V27.5402Z" fill="black"/>
<path d="M145.62 12.5527C142.541 12.5527 140.012 15.0632 140.012 18.1762V21.4398C140.012 23.3728 140.462 25.2808 141.314 27.013L145.445 35.2724C145.971 36.3017 146.221 37.4565 146.221 38.6113V41.8749C146.221 42.2264 145.946 42.5025 145.595 42.5025C145.245 42.5025 144.969 42.2264 144.969 41.8749V38.7619C144.969 37.3812 143.868 36.2766 142.49 36.2766C141.113 36.2766 140.012 37.3812 140.012 38.7619V41.8749C140.012 44.9628 142.515 47.4983 145.62 47.4983C148.7 47.4983 151.229 44.9879 151.229 41.8749V38.6113C151.229 36.6783 150.778 34.7703 149.927 33.0381L145.795 24.7787C145.27 23.7494 145.019 22.5946 145.019 21.4398V18.1762C145.019 17.8247 145.295 17.5486 145.645 17.5486C145.996 17.5486 146.271 17.8247 146.271 18.1762V21.2891C146.271 22.6699 147.373 23.7745 148.75 23.7745C150.127 23.7745 151.229 22.6699 151.229 21.2891V18.1762C151.204 15.0883 148.7 12.5527 145.62 12.5527Z" fill="black"/>
<path d="M159.116 12.5527C156.037 12.5527 153.508 15.0632 153.508 18.1762V21.4398C153.508 23.3728 153.958 25.2808 154.81 27.013L158.941 35.2724C159.467 36.3017 159.717 37.4565 159.717 38.6113V41.8749C159.717 42.2264 159.442 42.5025 159.091 42.5025C158.741 42.5025 158.465 42.2264 158.465 41.8749V38.7619C158.465 37.3812 157.364 36.2766 155.987 36.2766C154.609 36.2766 153.508 37.3812 153.508 38.7619V41.8749C153.508 44.9628 156.012 47.4983 159.116 47.4983C162.196 47.4983 164.725 44.9879 164.725 41.8749V38.6113C164.725 36.6783 164.274 34.7703 163.423 33.0381L159.292 24.7787C158.766 23.7494 158.515 22.5946 158.515 21.4398V18.1762C158.515 17.8247 158.791 17.5486 159.141 17.5486C159.492 17.5486 159.767 17.8247 159.767 18.1762V21.2891C159.767 22.6699 160.869 23.7745 162.246 23.7745C163.623 23.7745 164.725 22.6699 164.725 21.2891V18.1762C164.7 15.0883 162.196 12.5527 159.116 12.5527Z" fill="black"/>
<path d="M49.2503 42.5279H46.7466V15.0635C46.7466 13.6827 45.6449 12.5781 44.2678 12.5781C42.8907 12.5781 41.7891 13.6827 41.7891 15.0635V45.0384C41.7891 46.4191 42.8907 47.5237 44.2678 47.5237H49.2503C50.6274 47.5237 51.7291 46.4191 51.7291 45.0384C51.7541 43.6576 50.6274 42.5279 49.2503 42.5279Z" fill="black"/>
<path d="M89.0864 17.5486C89.0864 14.787 86.8581 12.5527 84.1039 12.5527H80.3733C78.9962 12.5527 77.8945 13.6573 77.8945 15.0381V45.013C77.8945 46.3937 78.9962 47.4983 80.3733 47.4983C81.7504 47.4983 82.852 46.3937 82.852 45.013V32.536C83.528 32.536 84.1039 33.0883 84.1039 33.7912V45.0381C84.1039 46.4188 85.2056 47.5234 86.5827 47.5234C87.9597 47.5234 89.0614 46.4188 89.0614 45.0381V33.7912C89.0614 32.3854 88.5857 31.0799 87.8095 30.0506C88.5857 28.9962 89.0614 27.7159 89.0614 26.3101V17.5486H89.0864ZM84.1039 26.3101C84.1039 26.9879 83.5531 27.5653 82.852 27.5653V17.5486H84.1039V26.3101Z" fill="black"/>
<path d="M21.2086 28.8451L24.789 15.7154C25.1395 14.3849 24.3633 13.0041 23.0363 12.6527C21.7093 12.3012 20.3322 13.0795 19.9817 14.41L17.4028 23.8995V15.0627C17.4028 13.682 16.3011 12.5774 14.9241 12.5774C13.547 12.5774 12.4453 13.682 12.4453 15.0627V45.0376C12.4453 46.4184 13.547 47.523 14.9241 47.523C16.3011 47.523 17.4028 46.4184 17.4028 45.0376V34.4686L19.9567 45.5899C20.2321 46.7447 21.2336 47.523 22.3853 47.523C22.5606 47.523 22.7609 47.4979 22.9362 47.4477C24.2632 47.1464 25.1145 45.7908 24.789 44.4602L21.2086 28.8451Z" fill="black"/>
<path d="M36.0553 12.5527C34.6782 12.5527 33.5766 13.6573 33.5766 15.0381V41.8749C33.5766 42.2264 33.3012 42.5025 32.9506 42.5025C32.6001 42.5025 32.3247 42.2264 32.3247 41.8749V15.0632C32.3247 13.6824 31.223 12.5778 29.8459 12.5778C28.4689 12.5778 27.3672 13.6824 27.3672 15.0632V41.9C27.3672 44.9879 29.871 47.5234 32.9757 47.5234C36.0553 47.5234 38.5842 45.013 38.5842 41.9V15.0632C38.5591 13.6824 37.4324 12.5527 36.0553 12.5527Z" fill="black"/>
<path d="M72.3366 12.5527C70.9595 12.5527 69.8578 13.6573 69.8578 15.0381V41.8749C69.8578 42.2264 69.5824 42.5025 69.2319 42.5025C68.8814 42.5025 68.6059 42.2264 68.6059 41.8749V15.0632C68.6059 13.6824 67.5043 12.5778 66.1272 12.5778C64.7501 12.5778 63.6484 13.6824 63.6484 15.0632V41.9C63.6484 44.9879 66.1522 47.5234 69.2569 47.5234C72.3366 47.5234 74.8654 45.013 74.8654 41.9V15.0632C74.8404 13.6824 73.7137 12.5527 72.3366 12.5527Z" fill="black"/>
<path d="M59.4674 12.5527H52.0061C50.629 12.5527 49.5273 13.6573 49.5273 15.0381C49.5273 16.4188 50.629 17.5234 52.0061 17.5234H53.258V44.9879C53.258 46.3686 54.3597 47.4732 55.7367 47.4732C57.1138 47.4732 58.2155 46.3686 58.2155 44.9879V17.5486H59.4674C60.8445 17.5486 61.9461 16.4439 61.9461 15.0632C61.9712 13.6824 60.8445 12.5527 59.4674 12.5527Z" fill="black"/>
<path d="M119.805 12.5527H108.663C107.386 12.5527 106.184 13.6071 106.084 14.8875C105.984 16.3435 107.136 17.5486 108.563 17.5486H119.78C123.46 17.5486 126.791 19.1803 129.069 21.741C126.515 19.7829 123.26 18.6532 119.755 18.8289C112.218 19.1552 106.184 25.4063 106.084 32.9628C105.984 40.9711 112.419 47.5234 120.406 47.5234C124.111 47.5234 127.492 46.1176 130.02 43.7829L133 46.7703C133.401 47.172 133.951 47.4732 134.552 47.4983C136.004 47.5988 137.206 46.444 137.206 45.013V30.0255C137.231 20.3854 129.419 12.5527 119.805 12.5527Z" fill="black"/>
<path d="M140.161 28.9711C136.58 35.0464 130.696 39.7911 123.36 41.7744C120.406 42.5777 117.426 42.8539 114.547 42.6782C114.347 42.6782 114.171 42.6531 113.971 42.628C109.865 42.3016 105.934 41.0715 102.429 39.1133C101.803 38.7619 101.602 37.9585 101.953 37.356C103.956 33.9669 106.66 31.0045 109.915 28.6949C110.065 28.5945 110.215 28.469 110.391 28.3685C112.894 26.6865 115.699 25.3811 118.778 24.5526C121.658 23.7744 124.562 23.4983 127.391 23.6238C127.717 23.6489 128.042 23.674 128.368 23.6991C132.399 24.0506 136.255 25.2556 139.71 27.2137C140.311 27.5401 140.511 28.3434 140.161 28.9711Z" fill="black"/>
<path d="M119.029 21.3646L117.978 17.3478C117.803 16.6951 117.227 16.2432 116.551 16.2432C116.426 16.2432 116.3 16.2683 116.175 16.2934C115.8 16.3939 115.474 16.6449 115.274 16.9713C115.073 17.3227 115.023 17.6993 115.124 18.0759L116.175 22.0926C116.35 22.7453 116.926 23.1721 117.602 23.1721C117.727 23.1721 117.853 23.147 117.978 23.1219C118.353 23.0215 118.679 22.7704 118.879 22.4441C119.08 22.1177 119.13 21.7411 119.029 21.3646ZM117.602 22.67C117.177 22.67 116.801 22.3939 116.701 21.9671L115.649 17.9503C115.524 17.4483 115.825 16.9462 116.3 16.7955C116.375 16.7704 116.476 16.7704 116.551 16.7704C116.976 16.7704 117.352 17.0466 117.452 17.4734L118.504 21.4901C118.629 21.9922 118.353 22.4943 117.853 22.6449C117.778 22.6449 117.702 22.67 117.602 22.67ZM114.297 22.9462L111.919 19.6826C111.643 19.306 111.193 19.0801 110.742 19.0801C110.441 19.0801 110.141 19.1805 109.866 19.3562C109.215 19.8332 109.064 20.7621 109.54 21.4148L111.919 24.6784C112.194 25.0549 112.645 25.2809 113.095 25.2809C113.396 25.2809 113.696 25.1805 113.972 25.0047C114.648 24.5026 114.773 23.5989 114.297 22.9462ZM113.671 24.5529C113.496 24.6784 113.321 24.7286 113.121 24.7286C112.845 24.7286 112.545 24.6031 112.369 24.352L109.991 21.0884C109.69 20.6616 109.79 20.0842 110.191 19.783C110.366 19.6575 110.542 19.6072 110.742 19.6072C111.042 19.6072 111.318 19.7328 111.493 19.9838L113.872 23.2474C114.172 23.6742 114.097 24.2516 113.671 24.5529ZM110.216 26.1847L107.487 24.0257C107.237 23.8248 106.911 23.7244 106.586 23.7244C106.135 23.7244 105.709 23.9252 105.434 24.2767C104.933 24.9043 105.033 25.8332 105.684 26.3353L108.413 28.4943C108.664 28.6951 108.989 28.7955 109.315 28.7955C109.515 28.7955 109.715 28.7453 109.891 28.67C110.041 28.5696 110.191 28.4441 110.366 28.3437C110.416 28.2934 110.441 28.2683 110.466 28.2181C110.967 27.6156 110.867 26.6867 110.216 26.1847ZM109.315 28.2683C109.114 28.2683 108.914 28.193 108.739 28.0675L106.01 25.9085C105.609 25.5821 105.534 25.0047 105.86 24.6031C106.035 24.3771 106.31 24.2516 106.586 24.2516C106.786 24.2516 106.986 24.3269 107.161 24.4524L109.891 26.6114C110.291 26.9378 110.366 27.5152 110.041 27.9169C109.866 28.1428 109.59 28.2683 109.315 28.2683ZM123.361 15.9922C123.311 15.9922 123.236 15.9922 123.186 15.9922C122.435 15.9922 121.809 16.5445 121.734 17.2976L121.283 21.1386C121.183 21.942 121.759 22.67 122.56 22.7704C122.61 22.7704 122.685 22.7704 122.735 22.7704C123.486 22.7704 124.112 22.2181 124.187 21.465L124.638 17.624C124.738 16.8206 124.162 16.0926 123.361 15.9922ZM122.76 22.2432C122.735 22.2432 122.685 22.2432 122.66 22.2432C122.134 22.193 121.784 21.716 121.834 21.2139L122.284 17.3729C122.334 16.896 122.735 16.5445 123.211 16.5445C123.261 16.5445 123.286 16.5445 123.336 16.5445C123.837 16.5947 124.212 17.0717 124.162 17.5738L123.686 21.4148C123.611 21.8918 123.211 22.2432 122.76 22.2432ZM129.545 18.3771C129.37 18.3018 129.17 18.2516 128.995 18.2516C128.394 18.2516 127.868 18.6031 127.642 19.1554L126.591 21.6909C126.29 22.4441 126.641 23.2976 127.367 23.5989C127.367 23.5989 127.367 23.5989 127.392 23.5989C127.567 23.6742 127.768 23.7244 127.943 23.7244C128.068 23.7244 128.218 23.6993 128.344 23.6742C128.769 23.5487 129.12 23.2474 129.295 22.8206L130.347 20.2851C130.647 19.5319 130.296 18.6784 129.545 18.3771ZM129.846 20.0842L128.794 22.6198C128.644 22.9713 128.293 23.1972 127.943 23.1972C127.818 23.1972 127.693 23.1721 127.592 23.1219C127.117 22.9211 126.891 22.3688 127.092 21.8918L128.143 19.3562C128.293 19.0047 128.644 18.7788 129.02 18.7788C129.145 18.7788 129.27 18.8039 129.37 18.8541C129.821 19.0549 130.046 19.6073 129.846 20.0842ZM127.067 47.8499L125.915 43.8583C125.74 43.2307 125.164 42.8039 124.513 42.8039C124.388 42.8039 124.237 42.829 124.112 42.8541C123.737 42.9545 123.411 43.2056 123.236 43.557C123.061 43.9085 123.01 44.2851 123.111 44.6616L124.262 48.6533C124.438 49.2809 125.013 49.7077 125.664 49.7077C125.79 49.7077 125.94 49.6826 126.065 49.6575C126.441 49.557 126.766 49.306 126.941 48.9545C127.117 48.6031 127.192 48.2265 127.067 47.8499ZM125.664 49.2056C125.264 49.2056 124.888 48.9294 124.763 48.5278L123.611 44.5361C123.461 44.034 123.762 43.5319 124.237 43.3813C124.312 43.3562 124.413 43.3311 124.488 43.3311C124.888 43.3311 125.264 43.6073 125.389 44.0089L126.541 48.0006C126.691 48.5026 126.391 49.0298 125.915 49.1554C125.84 49.1805 125.765 49.2056 125.664 49.2056ZM132.575 44.4106L130.121 41.1972C129.846 40.8206 129.42 40.6198 128.969 40.6198C128.644 40.6198 128.344 40.7202 128.068 40.9211C127.417 41.4232 127.317 42.3269 127.793 42.9796L130.246 46.193C130.522 46.5696 130.947 46.7704 131.398 46.7704C131.724 46.7704 132.024 46.67 132.3 46.4692C132.6 46.2181 132.8 45.8918 132.85 45.4901C132.925 45.1135 132.825 44.737 132.575 44.4106ZM131.974 46.0675C131.799 46.193 131.598 46.2683 131.398 46.2683C131.123 46.2683 130.847 46.1428 130.647 45.8918L128.193 42.6784C127.868 42.2767 127.968 41.6742 128.369 41.3729C128.544 41.2474 128.744 41.1721 128.944 41.1721C129.22 41.1721 129.495 41.2976 129.696 41.5487L132.149 44.7621C132.475 45.1637 132.4 45.7411 131.974 46.0675ZM136.906 40.4943C136.881 40.0926 136.706 39.7411 136.431 39.4901L134.478 37.7077C134.202 37.4566 133.852 37.3311 133.501 37.3311C133.076 37.3311 132.7 37.5068 132.425 37.8081C132.174 38.1093 132.024 38.4608 132.049 38.8625C132.074 39.2642 132.249 39.6156 132.525 39.8918L134.478 41.6742C134.753 41.9252 135.104 42.0508 135.454 42.0508C135.855 42.0508 136.255 41.875 136.531 41.5738C136.806 41.2725 136.932 40.896 136.906 40.4943ZM135.454 41.4985C135.229 41.4985 135.004 41.4232 134.828 41.2474L132.875 39.465C132.5 39.1135 132.475 38.511 132.825 38.1344C133.001 37.9336 133.251 37.8332 133.526 37.8332C133.752 37.8332 133.977 37.9085 134.152 38.0842L136.105 39.8667C136.481 40.2181 136.506 40.7955 136.155 41.1972C135.955 41.398 135.705 41.4985 135.454 41.4985ZM120.507 43.8834C120.256 43.5821 119.906 43.4064 119.505 43.3562C119.455 43.3562 119.405 43.3562 119.355 43.3562C118.604 43.3562 117.978 43.9336 117.903 44.6868L117.527 48.5529C117.502 48.9294 117.602 49.3311 117.853 49.6324C118.103 49.9336 118.454 50.1093 118.854 50.1596C118.904 50.1596 118.954 50.1596 119.004 50.1596C119.756 50.1596 120.381 49.5821 120.457 48.829L120.807 44.9629C120.882 44.5612 120.757 44.1847 120.507 43.8834ZM119.029 49.6073C119.004 49.6073 118.979 49.6073 118.929 49.6073C118.429 49.557 118.053 49.1052 118.078 48.578L118.429 44.737C118.479 44.26 118.879 43.8834 119.355 43.8834C119.38 43.8834 119.405 43.8834 119.455 43.8834C119.956 43.9336 120.356 44.3855 120.306 44.9127L119.956 48.7788C119.906 49.2558 119.505 49.6073 119.029 49.6073ZM115.474 43.5068C115.324 43.1554 115.023 42.8792 114.673 42.7286C114.623 42.7035 114.573 42.7035 114.523 42.6784C114.322 42.6784 114.147 42.6533 113.947 42.6282C113.421 42.7035 112.97 43.055 112.77 43.557L111.819 46.0173C111.668 46.3939 111.693 46.7704 111.844 47.147C111.994 47.5236 112.294 47.7746 112.645 47.9252C112.82 48.0006 112.995 48.0257 113.171 48.0257C113.771 48.0257 114.322 47.6491 114.548 47.0968L115.499 44.6365C115.649 44.26 115.624 43.8583 115.474 43.5068ZM113.171 47.4985C113.045 47.4985 112.945 47.4734 112.845 47.4231C112.369 47.2474 112.119 46.6951 112.319 46.2181L113.271 43.7579C113.421 43.3813 113.771 43.1554 114.147 43.1554C114.272 43.1554 114.372 43.1805 114.498 43.2307C114.973 43.4064 115.224 43.9587 115.023 44.4357L114.072 46.896C113.897 47.2725 113.546 47.4985 113.171 47.4985Z" fill="black"/>
<path d="M120.179 33.2386C121.894 33.2386 123.284 31.8449 123.284 30.1257C123.284 28.4064 121.894 27.0127 120.179 27.0127C118.464 27.0127 117.074 28.4064 117.074 30.1257C117.074 31.8449 118.464 33.2386 120.179 33.2386Z" fill="white"/>
<path d="M129.793 27.6152C130.219 32.3851 127.164 36.929 122.407 38.2094C117.625 39.4897 112.743 37.0797 110.715 32.7366C108.737 34.1926 107.059 35.9249 105.707 37.9332C110.74 40.268 116.849 41.2721 122.783 39.6654C128.742 38.0588 133.499 34.1424 136.704 29.5985C134.551 28.5692 132.222 27.9165 129.793 27.6152Z" fill="white"/>
<path d="M117.853 22.6444C117.778 22.6695 117.678 22.6695 117.603 22.6695C117.177 22.6695 116.801 22.3933 116.701 21.9665L115.65 17.9498C115.525 17.4477 115.825 16.9456 116.301 16.795C116.376 16.7699 116.476 16.7699 116.551 16.7699C116.977 16.7699 117.352 17.046 117.452 17.4728L118.504 21.4896C118.654 21.9916 118.354 22.4937 117.853 22.6444ZM113.872 23.2469L111.493 19.9833C111.318 19.7322 111.018 19.6067 110.742 19.6067C110.542 19.6067 110.367 19.6569 110.191 19.7824C109.766 20.0837 109.691 20.6611 109.991 21.0879L112.37 24.3515C112.545 24.6025 112.846 24.728 113.121 24.728C113.321 24.728 113.496 24.6778 113.672 24.5523C114.097 24.2511 114.173 23.6737 113.872 23.2469ZM109.891 26.6109L107.162 24.4519C106.987 24.3264 106.786 24.2511 106.586 24.2511C106.311 24.2511 106.035 24.3766 105.86 24.6025C105.534 25.0042 105.61 25.6067 106.01 25.908L108.739 28.067C108.915 28.1925 109.115 28.2678 109.315 28.2678C109.591 28.2678 109.866 28.1423 110.041 27.9163C110.367 27.5147 110.292 26.9373 109.891 26.6109ZM123.311 16.5439C123.261 16.5439 123.236 16.5439 123.186 16.5439C122.71 16.5439 122.31 16.8954 122.26 17.3724L121.809 21.2134C121.759 21.7155 122.11 22.1925 122.635 22.2427C122.66 22.2427 122.71 22.2427 122.735 22.2427C123.211 22.2427 123.612 21.8912 123.662 21.4142L124.113 17.5732C124.188 17.046 123.812 16.5942 123.311 16.5439ZM129.345 18.8536C129.22 18.8034 129.095 18.7783 128.995 18.7783C128.619 18.7783 128.269 19.0042 128.119 19.3557L127.067 21.8912C126.867 22.3682 127.092 22.9205 127.568 23.1214C127.693 23.1716 127.818 23.1967 127.918 23.1967C128.294 23.1967 128.619 22.9707 128.77 22.6193L129.821 20.0837C130.047 19.6067 129.821 19.0544 129.345 18.8536ZM126.566 48L125.415 44.0084C125.289 43.6067 124.914 43.3306 124.513 43.3306C124.438 43.3306 124.338 43.3306 124.263 43.3808C123.762 43.5314 123.487 44.0335 123.637 44.5356L124.789 48.5272C124.914 48.9289 125.289 49.205 125.69 49.205C125.765 49.205 125.865 49.205 125.94 49.1799C126.416 49.0293 126.716 48.5021 126.566 48ZM132.15 44.7364L129.696 41.523C129.521 41.272 129.245 41.1465 128.945 41.1465C128.745 41.1465 128.544 41.1967 128.369 41.3473C127.968 41.6486 127.893 42.2511 128.194 42.6527L130.647 45.8661C130.823 46.1172 131.098 46.2427 131.399 46.2427C131.599 46.2427 131.799 46.1925 131.974 46.0419C132.4 45.7406 132.475 45.1632 132.15 44.7364ZM136.081 39.8661L134.128 38.0837C133.952 37.908 133.727 37.8326 133.502 37.8326C133.251 37.8326 133.001 37.9331 132.801 38.1339C132.45 38.5105 132.475 39.113 132.851 39.4644L134.804 41.2469C134.979 41.3975 135.204 41.4979 135.43 41.4979C135.68 41.4979 135.93 41.3975 136.131 41.1967C136.481 40.8201 136.456 40.2176 136.081 39.8661ZM119.481 43.8829C119.456 43.8829 119.43 43.8829 119.38 43.8829C118.905 43.8829 118.504 44.2343 118.454 44.7364L118.103 48.5774C118.053 49.0795 118.429 49.5565 118.955 49.6067C118.98 49.6067 119.005 49.6067 119.055 49.6067C119.531 49.6067 119.931 49.2301 119.981 48.7532L120.332 44.887C120.357 44.4101 119.981 43.9331 119.481 43.8829ZM114.473 43.205C114.373 43.1548 114.248 43.1297 114.122 43.1297C113.747 43.1297 113.396 43.3557 113.246 43.7322L112.295 46.1925C112.094 46.6695 112.345 47.2218 112.82 47.3975C112.946 47.4477 113.046 47.4728 113.146 47.4728C113.522 47.4728 113.872 47.2469 114.022 46.8703L114.974 44.4101C115.199 43.9331 114.949 43.4059 114.473 43.205Z" fill="white"/>
</svg>
