<svg width="97" height="98" viewBox="0 0 97 98" fill="none" xmlns="http://www.w3.org/2000/svg">
<path d="M18.8815 50.2876H15.0796C13.6855 50.2876 12.5703 51.3984 12.5703 52.7868V82.929C12.5703 84.3175 13.6855 85.4282 15.0796 85.4282C16.4736 85.4282 17.5889 84.3175 17.5889 82.929V70.3572H18.8562C21.6443 70.3572 23.9001 68.1104 23.9001 65.3334V55.2861C23.9001 52.5596 21.6443 50.2876 18.8815 50.2876ZM18.8815 65.3587H17.6142V55.3113H18.8815V65.3587Z" fill="black"/>
<path d="M65.6463 50.2876C62.5287 50.2876 59.9688 52.8121 59.9688 55.9424V59.2242C59.9688 61.1681 60.425 63.1119 61.2868 64.8286L65.4689 73.1593C66.0011 74.1943 66.2546 75.3556 66.2546 76.5169V79.7987C66.2546 80.1521 65.9758 80.4298 65.621 80.4298C65.2661 80.4298 64.9873 80.1521 64.9873 79.7987V76.6683C64.9873 75.2799 63.8721 74.1691 62.478 74.1691C61.084 74.1691 59.9688 75.2799 59.9688 76.6683V79.7987C59.9688 82.9038 62.5034 85.4535 65.6463 85.4535C68.7639 85.4535 71.3239 82.929 71.3239 79.7987V76.5169C71.3239 74.573 70.8676 72.6292 70.0059 70.9125L65.8237 62.5818C65.2915 61.5467 65.038 60.3855 65.038 59.2242V55.9424C65.038 55.589 65.3168 55.3113 65.6716 55.3113C66.0265 55.3113 66.3053 55.589 66.3053 55.9424V59.0728C66.3053 60.4612 67.4205 61.572 68.8146 61.572C70.2086 61.572 71.3239 60.4612 71.3239 59.0728V55.9424C71.2985 52.8373 68.7639 50.2876 65.6463 50.2876Z" fill="black"/>
<path d="M78.7479 50.2876C75.6303 50.2876 73.0703 52.8121 73.0703 55.9424V59.2242C73.0703 61.1681 73.5265 63.1119 74.3883 64.8286L78.5704 73.1593C79.1027 74.1943 79.3562 75.3556 79.3562 76.5169V79.7987C79.3562 80.1521 79.0774 80.4298 78.7225 80.4298C78.3677 80.4298 78.0889 80.1521 78.0889 79.7987V76.6683C78.0889 75.2799 76.9736 74.1691 75.5796 74.1691C74.1856 74.1691 73.0703 75.2799 73.0703 76.6683V79.7987C73.0703 82.9038 75.6049 85.4535 78.7479 85.4535C81.8655 85.4535 84.4254 82.929 84.4254 79.7987V76.5169C84.4254 74.573 83.9692 72.6292 83.1074 70.9125L78.9253 62.5818C78.393 61.5467 78.1396 60.3855 78.1396 59.2242V55.9424C78.1396 55.589 78.4184 55.3113 78.7732 55.3113C79.1281 55.3113 79.4069 55.589 79.4069 55.9424V59.0728C79.4069 60.4612 80.5221 61.572 81.9162 61.572C83.3102 61.572 84.4254 60.4612 84.4254 59.0728V55.9424C84.4254 52.8373 81.8655 50.2876 78.7479 50.2876Z" fill="black"/>
<path d="M47.1157 42.7649H44.581V15.1472C44.581 13.7587 43.4658 12.6479 42.0718 12.6479C40.6777 12.6479 39.5625 13.7587 39.5625 15.1472V45.2894C39.5625 46.6778 40.6777 47.7886 42.0718 47.7886H47.1157C48.5097 47.7886 49.625 46.6778 49.625 45.2894C49.625 43.9009 48.5097 42.7649 47.1157 42.7649Z" fill="black"/>
<path d="M84.4274 17.6463C84.4274 14.8693 82.1716 12.6226 79.3835 12.6226H75.6069C74.2129 12.6226 73.0977 13.7333 73.0977 15.1218V45.264C73.0977 46.6524 74.2129 47.7632 75.6069 47.7632C77.001 47.7632 78.1162 46.6524 78.1162 45.264V32.7174C78.8006 32.7174 79.3835 33.2727 79.3835 33.9796V45.2892C79.3835 46.6777 80.4988 47.7885 81.8928 47.7885C83.2868 47.7885 84.4021 46.6777 84.4021 45.2892V33.9796C84.4021 32.5659 83.9205 31.2532 83.1348 30.2181C83.9205 29.1578 84.4021 27.8704 84.4021 26.4567V17.6463H84.4274ZM79.3835 26.4567C79.3835 27.1383 78.8259 27.7189 78.1162 27.7189V17.6463H79.3835V26.4567Z" fill="black"/>
<path d="M21.4649 29.0063L25.0894 15.8033C25.4443 14.4654 24.6586 13.0769 23.3152 12.7235C21.9719 12.37 20.5778 13.1526 20.223 14.4906L17.6123 24.0331V15.147C17.6123 13.7585 16.4971 12.6477 15.103 12.6477C13.709 12.6477 12.5938 13.7585 12.5938 15.147V45.2892C12.5938 46.6776 13.709 47.7884 15.103 47.7884C16.4971 47.7884 17.6123 46.6776 17.6123 45.2892V34.6611L20.1976 45.8445C20.4764 47.0058 21.4903 47.7884 22.6562 47.7884C22.8336 47.7884 23.0364 47.7631 23.2138 47.7126C24.5572 47.4097 25.4189 46.0465 25.0894 44.7085L21.4649 29.0063Z" fill="black"/>
<path d="M35.2561 12.6226C33.862 12.6226 32.7468 13.7333 32.7468 15.1218V42.1084C32.7468 42.4618 32.468 42.7395 32.1131 42.7395C31.7583 42.7395 31.4795 42.4618 31.4795 42.1084V15.147C31.4795 13.7586 30.3643 12.6478 28.9702 12.6478C27.5762 12.6478 26.4609 13.7586 26.4609 15.147V42.1336C26.4609 45.2387 28.9956 47.7885 32.1385 47.7885C35.2561 47.7885 37.816 45.264 37.816 42.1336V15.147C37.7907 13.7586 36.6501 12.6226 35.2561 12.6226Z" fill="black"/>
<path d="M68.7873 12.6226C67.3933 12.6226 66.2781 13.7333 66.2781 15.1218V42.1084C66.2781 42.4618 65.9992 42.7395 65.6444 42.7395C65.2895 42.7395 65.0107 42.4618 65.0107 42.1084V15.147C65.0107 13.7586 63.8955 12.6478 62.5015 12.6478C61.1074 12.6478 59.9922 13.7586 59.9922 15.147V42.1336C59.9922 45.2387 62.5268 47.7885 65.6697 47.7885C68.7873 47.7885 71.3473 45.264 71.3473 42.1336V15.147C71.2966 13.7586 70.1814 12.6226 68.7873 12.6226Z" fill="black"/>
<path d="M56.6992 12.6226H49.146C47.752 12.6226 46.6367 13.7333 46.6367 15.1218C46.6367 16.5102 47.752 17.621 49.146 17.621H50.4133V45.2387C50.4133 46.6272 51.5285 47.738 52.9226 47.738C54.3166 47.738 55.4319 46.6272 55.4319 45.2387V17.6463H56.6992C58.0932 17.6463 59.2084 16.5355 59.2084 15.147C59.2084 13.7586 58.0932 12.6226 56.6992 12.6226Z" fill="black"/>
<path d="M40.0217 50.2876H28.7426C27.45 50.2876 26.2334 51.3479 26.132 52.6354C26.0306 54.0996 27.1965 55.3113 28.6413 55.3113H39.9964C43.7223 55.3113 47.0933 56.9522 49.3998 59.5272C46.8145 57.5581 43.5195 56.4221 39.971 56.5735C32.3418 56.9017 26.2334 63.1876 26.1066 70.7863C26.0053 78.8646 32.5192 85.4282 40.6047 85.4282C44.3559 85.4282 47.7777 84.0145 50.3376 81.6668L53.3538 84.6709C53.7594 85.1001 54.317 85.3778 54.9253 85.403C56.3954 85.504 57.612 84.3427 57.612 82.9038V67.8327C57.6627 58.164 49.7547 50.2876 40.0217 50.2876Z" fill="black"/>
<path d="M60.602 66.7725C56.9775 72.8818 51.0211 77.653 43.5947 79.6474C40.6038 80.4552 37.5876 80.7329 34.6728 80.5562C34.4701 80.5562 34.2926 80.5309 34.0899 80.5057C29.9331 80.1775 25.9537 78.9405 22.4053 76.9714C21.7716 76.618 21.5688 75.8102 21.9237 75.2043C23.9514 71.7962 26.6888 68.8174 29.9838 66.4949C30.1359 66.3939 30.2879 66.2677 30.4654 66.1667C33 64.4753 35.8388 63.1625 38.9563 62.3295C41.8712 61.5469 44.8113 61.2692 47.6754 61.3954C48.0049 61.4207 48.3344 61.4459 48.6639 61.4712C52.7447 61.8246 56.648 63.0363 60.1458 65.0054C60.7794 65.3588 60.9822 66.1667 60.602 66.7725Z" fill="black"/>
<path d="M39.2359 59.1232L38.1714 55.0841C37.994 54.4277 37.411 53.9733 36.7267 53.9733C36.5999 53.9733 36.4732 53.9985 36.3465 54.0238C35.9663 54.1248 35.6368 54.3772 35.434 54.7054C35.2312 55.0588 35.1805 55.4375 35.2819 55.8162L36.3465 59.8553C36.5239 60.5117 37.1069 60.9408 37.7912 60.9408C37.9179 60.9408 38.0447 60.9156 38.1714 60.8903C38.5516 60.7894 38.8811 60.5369 39.0839 60.2087C39.2866 59.9058 39.3373 59.5019 39.2359 59.1232ZM37.7912 60.4612C37.3603 60.4612 36.9801 60.1835 36.8787 59.7543L35.8142 55.7152C35.6875 55.2103 35.9916 54.7054 36.4732 54.5539C36.5492 54.5287 36.6506 54.5287 36.7267 54.5287C37.1575 54.5287 37.5377 54.8064 37.6391 55.2355L38.7037 59.2747C38.8304 59.7796 38.5516 60.2845 38.0447 60.4359C37.9433 60.4359 37.8672 60.4612 37.7912 60.4612ZM34.4455 60.7136L32.0376 57.4318C31.7588 57.0532 31.3026 56.826 30.8463 56.826C30.5422 56.826 30.238 56.9269 29.9592 57.1036C29.3002 57.5833 29.1481 58.5173 29.6297 59.1737L32.0376 62.4555C32.3164 62.8342 32.7727 63.0614 33.2289 63.0614C33.533 63.0614 33.8372 62.9604 34.116 62.7837C34.775 62.3041 34.9271 61.37 34.4455 60.7136ZM33.8118 62.3545C33.6344 62.4808 33.457 62.5313 33.2542 62.5313C32.9754 62.5313 32.6713 62.405 32.4938 62.1526L30.0859 58.8708C29.7818 58.4416 29.8832 57.861 30.2887 57.558C30.4661 57.4318 30.6436 57.3813 30.8463 57.3813C31.1505 57.3813 31.4293 57.5076 31.6067 57.76L34.0146 61.0418C34.3188 61.471 34.2174 62.0516 33.8118 62.3545ZM30.3141 63.9955L27.5513 61.8244C27.2979 61.6224 26.9684 61.5215 26.6389 61.5215C26.1826 61.5215 25.7517 61.7234 25.4729 62.0769C24.966 62.708 25.0674 63.642 25.7264 64.1469L28.4891 66.318C28.7426 66.5199 29.0721 66.6209 29.4016 66.6209C29.6044 66.6209 29.8071 66.5704 29.9846 66.4947C30.1366 66.3937 30.2887 66.2675 30.4661 66.1665C30.5168 66.116 30.5422 66.0908 30.5675 66.0403C31.0745 65.4344 30.9477 64.5003 30.3141 63.9955ZM29.4016 66.0908C29.1988 66.0908 28.9961 66.015 28.8186 65.8888L26.0559 63.7178C25.6504 63.3896 25.5743 62.8089 25.9038 62.405C26.0812 62.1778 26.3601 62.0516 26.6389 62.0516C26.8416 62.0516 27.0444 62.1273 27.2218 62.2536L29.9846 64.4246C30.3901 64.7528 30.4661 65.3334 30.1366 65.7373C29.9592 65.9645 29.6804 66.0908 29.4016 66.0908ZM43.6208 53.7461C43.5701 53.7461 43.4941 53.7461 43.4434 53.7461C42.683 53.7461 42.0494 54.3015 41.9733 55.0588L41.5171 58.9213C41.4157 59.7291 41.9987 60.4612 42.8098 60.5622C42.8604 60.5622 42.9365 60.5622 42.9872 60.5622C43.7476 60.5622 44.3812 60.0068 44.4573 59.2494L44.9135 55.387C45.0149 54.5792 44.4319 53.8471 43.6208 53.7461ZM42.9872 60.032C42.9618 60.032 42.9111 60.032 42.8858 60.032C42.3535 59.9815 41.9987 59.5019 42.0494 58.997L42.5056 55.1346C42.5563 54.6549 42.9618 54.3015 43.4434 54.3015C43.4941 54.3015 43.5194 54.3015 43.5701 54.3015C44.0771 54.352 44.4573 54.8316 44.4066 55.3365L43.9503 59.199C43.8743 59.6786 43.4688 60.032 42.9872 60.032ZM49.8814 56.1191C49.7039 56.0434 49.5012 55.9929 49.3237 55.9929C48.7154 55.9929 48.1832 56.3463 47.955 56.9017L46.8905 59.4514C46.5863 60.2087 46.9412 61.0671 47.6762 61.37C47.6762 61.37 47.6762 61.37 47.7016 61.37C47.879 61.4457 48.0818 61.4962 48.2592 61.4962C48.3859 61.4962 48.538 61.471 48.6647 61.4457C49.0956 61.3195 49.4505 61.0166 49.6279 60.5874L50.6924 58.0629C50.9966 57.3056 50.6417 56.4473 49.8814 56.1191ZM50.1855 57.861L49.121 60.4107C48.9689 60.7641 48.614 60.9913 48.2592 60.9913C48.1325 60.9913 48.0057 60.9661 47.9043 60.9156C47.4228 60.7136 47.1947 60.1583 47.3974 59.6786L48.462 57.1289C48.614 56.7755 48.9689 56.5483 49.3491 56.5483C49.4758 56.5483 49.6025 56.5735 49.7039 56.624C50.1602 56.826 50.3883 57.3813 50.1855 57.861ZM47.3721 85.7816L46.2062 81.7677C46.0287 81.1366 45.4458 80.7075 44.7868 80.7075C44.66 80.7075 44.508 80.7327 44.3812 80.7579C44.001 80.8589 43.6715 81.1114 43.4941 81.4648C43.3167 81.8182 43.266 82.1969 43.3674 82.5756L44.5333 86.5895C44.7107 87.2206 45.2937 87.6498 45.9527 87.6498C46.0794 87.6498 46.2315 87.6245 46.3582 87.5993C46.7384 87.4983 47.0679 87.2458 47.2453 86.8924C47.4228 86.539 47.4735 86.1603 47.3721 85.7816ZM45.9527 87.1449C45.5471 87.1449 45.167 86.8672 45.0402 86.4632L43.8743 82.4493C43.7222 81.9444 44.0264 81.4396 44.508 81.2881C44.584 81.2628 44.6854 81.2376 44.7614 81.2376C45.167 81.2376 45.5471 81.5153 45.6739 81.9192L46.8398 85.9331C46.9919 86.438 46.6877 86.9681 46.2062 87.0944C46.1301 87.1196 46.0287 87.1449 45.9527 87.1449ZM52.9482 82.3231L50.4643 79.0918C50.1855 78.7131 49.7546 78.5112 49.2984 78.5112C48.9689 78.5112 48.6647 78.6121 48.3859 78.8141C47.7269 79.319 47.6255 80.2278 48.1071 80.8842L50.591 84.1155C50.8699 84.4942 51.3007 84.6961 51.757 84.6961C52.0865 84.6961 52.3906 84.5951 52.6694 84.3932C52.9736 84.1407 53.1764 83.8126 53.2271 83.4086C53.2777 83.03 53.1764 82.6261 52.9482 82.3231ZM52.3399 83.964C52.1625 84.0902 51.9597 84.166 51.757 84.166C51.4782 84.166 51.1994 84.0398 50.9966 83.7873L48.5127 80.556C48.1832 80.1521 48.2845 79.5462 48.6901 79.2433C48.8675 79.117 49.0703 79.0413 49.273 79.0413C49.5518 79.0413 49.8307 79.1675 50.0334 79.42L52.5174 82.6513C52.8215 83.0552 52.7455 83.6611 52.3399 83.964ZM57.3331 78.3849C57.3078 77.981 57.1304 77.6276 56.8516 77.3752L54.8746 75.5828C54.5957 75.3303 54.2409 75.2041 53.8861 75.2041C53.4552 75.2041 53.075 75.3808 52.7962 75.6838C52.5427 75.9867 52.3906 76.3401 52.416 76.744C52.4413 77.1479 52.6187 77.5014 52.8976 77.7791L54.8746 79.5714C55.1534 79.8239 55.5082 79.9501 55.8631 79.9501C56.2686 79.9501 56.6741 79.7734 56.9529 79.4705C57.2064 79.1423 57.3585 78.7636 57.3331 78.3849ZM55.8377 79.3947C55.6096 79.3947 55.3815 79.319 55.2041 79.1423L53.2271 77.3499C52.8469 76.9965 52.8215 76.3906 53.1764 76.0119C53.3538 75.81 53.6072 75.709 53.8861 75.709C54.1142 75.709 54.3423 75.7847 54.5197 75.9614L56.4967 77.7538C56.8769 78.1072 56.9023 78.6879 56.5474 79.0918C56.37 79.2937 56.0912 79.3947 55.8377 79.3947ZM40.7314 81.793C40.4779 81.49 40.1231 81.3133 39.7175 81.2628C39.6668 81.2628 39.6161 81.2628 39.5654 81.2628C38.8051 81.2628 38.1714 81.8435 38.0954 82.6008L37.7152 86.4885C37.6898 86.8672 37.7912 87.2711 38.0447 87.574C38.2981 87.877 38.653 88.0537 39.0585 88.1042C39.1092 88.1042 39.1599 88.1042 39.2106 88.1042C39.971 88.1042 40.6046 87.5235 40.6807 86.7662L41.0355 82.8785C41.1116 82.4746 40.9848 82.0959 40.7314 81.793ZM39.2106 87.5488C39.1852 87.5488 39.1599 87.5488 39.1092 87.5488C38.6023 87.4983 38.2221 87.0439 38.2474 86.5137L38.6023 82.6513C38.653 82.1716 39.0585 81.793 39.5401 81.793C39.5654 81.793 39.5908 81.793 39.6415 81.793C40.1484 81.8435 40.5539 82.2979 40.5033 82.828L40.1484 86.7157C40.1231 87.1953 39.6922 87.5488 39.2106 87.5488ZM35.6368 81.3891C35.4847 81.0356 35.1805 80.7579 34.8257 80.6065C34.775 80.5812 34.7243 80.5812 34.6736 80.556C34.4708 80.556 34.2934 80.5307 34.0907 80.5055C33.5584 80.5812 33.1022 80.9347 32.8994 81.4396L31.9362 83.9135C31.7841 84.2922 31.8095 84.6709 31.9616 85.0495C32.1136 85.4282 32.4178 85.6807 32.7727 85.8321C32.9501 85.9079 33.1275 85.9331 33.3049 85.9331C33.9132 85.9331 34.4708 85.5544 34.699 84.9991L35.6621 82.5251C35.7889 82.1464 35.7889 81.7677 35.6368 81.3891ZM33.3049 85.403C33.1782 85.403 33.0768 85.3777 32.9754 85.3272C32.4938 85.1505 32.2404 84.5951 32.4431 84.1155L33.4063 81.6415C33.5584 81.2628 33.9132 81.0356 34.2934 81.0356C34.4202 81.0356 34.5215 81.0609 34.6483 81.1114C35.1298 81.2881 35.3833 81.8435 35.1805 82.3231L34.2174 84.7971C34.04 85.1758 33.6851 85.403 33.3049 85.403Z" fill="black"/>
<path d="M40.4007 71.0893C42.1365 71.0893 43.5437 69.6878 43.5437 67.959C43.5437 66.2301 42.1365 64.8286 40.4007 64.8286C38.6649 64.8286 37.2578 66.2301 37.2578 67.959C37.2578 69.6878 38.6649 71.0893 40.4007 71.0893Z" fill="white"/>
<path d="M50.1331 65.4346C50.564 70.2311 47.4717 74.8004 42.6559 76.0878C37.8401 77.3753 32.8723 74.9518 30.8192 70.5845C28.8169 72.0487 27.1187 73.7906 25.75 75.8101C30.8446 78.1579 37.0291 79.1677 43.0361 77.552C49.0685 75.9364 53.8843 71.9982 57.1286 67.4289C54.9488 66.3686 52.5917 65.7123 50.1331 65.4346Z" fill="white"/>
<path d="M38.0424 60.4108C37.9663 60.4361 37.8649 60.4361 37.7889 60.4361C37.358 60.4361 36.9778 60.1584 36.8764 59.7292L35.8119 55.6901C35.6852 55.1852 35.9893 54.6803 36.4709 54.5288C36.5469 54.5036 36.6483 54.5036 36.7244 54.5036C37.1552 54.5036 37.5354 54.7813 37.6368 55.2104L38.7014 59.2496C38.8281 59.7797 38.5493 60.2846 38.0424 60.4108ZM34.0123 61.042L31.6044 57.7601C31.427 57.5077 31.1228 57.3815 30.844 57.3815C30.6413 57.3815 30.4638 57.432 30.2864 57.5582C29.8555 57.8611 29.7795 58.4417 30.0836 58.8709L32.4915 62.1527C32.669 62.4052 32.9731 62.5314 33.2519 62.5314C33.4547 62.5314 33.6321 62.4809 33.8095 62.3547C34.2151 62.0517 34.3165 61.4711 34.0123 61.042ZM29.9823 64.4247L27.2195 62.2537C27.0421 62.1275 26.8393 62.0517 26.6366 62.0517C26.3577 62.0517 26.0789 62.178 25.9015 62.4052C25.572 62.8091 25.6481 63.415 26.0536 63.7179L28.8163 65.8889C28.9938 66.0152 29.1965 66.0909 29.3993 66.0909C29.6781 66.0909 29.9569 65.9647 30.1343 65.7375C30.4638 65.3336 30.3878 64.7277 29.9823 64.4247ZM43.5678 54.2764C43.5171 54.2764 43.4918 54.2764 43.4411 54.2764C42.9595 54.2764 42.554 54.6298 42.5033 55.1094L42.0471 58.9719C41.9964 59.4768 42.3512 59.9564 42.8835 60.0069C42.9088 60.0069 42.9595 60.0069 42.9849 60.0069C43.4665 60.0069 43.872 59.6535 43.9227 59.1738L44.3789 55.3114C44.455 54.8065 44.0748 54.3521 43.5678 54.2764ZM49.6763 56.6241C49.5495 56.5736 49.4228 56.5484 49.3214 56.5484C48.9412 56.5484 48.5864 56.7756 48.4343 57.129L47.3698 59.6787C47.167 60.1584 47.3951 60.7138 47.8767 60.9157C48.0034 60.9662 48.1302 60.9915 48.2315 60.9915C48.6117 60.9915 48.9412 60.7643 49.0933 60.4108L50.1579 57.8611C50.386 57.3815 50.1579 56.8261 49.6763 56.6241ZM46.8628 85.9332L45.6969 81.9193C45.5702 81.5154 45.19 81.2377 44.7845 81.2377C44.7084 81.2377 44.607 81.2377 44.531 81.2882C44.0241 81.4397 43.7453 81.9446 43.8973 82.4495L45.0633 86.4634C45.19 86.8673 45.5702 87.145 45.9757 87.145C46.0518 87.145 46.1531 87.145 46.2292 87.1197C46.7108 86.943 46.9896 86.4381 46.8628 85.9332ZM52.5151 82.6514L50.0311 79.4201C49.8537 79.1677 49.5749 79.0414 49.2707 79.0414C49.068 79.0414 48.8652 79.0919 48.6878 79.2434C48.2822 79.5463 48.2062 80.1522 48.5103 80.5561L50.9943 83.7874C51.1717 84.0399 51.4505 84.1661 51.7547 84.1661C51.9574 84.1661 52.1602 84.1156 52.3376 83.9642C52.7432 83.6612 52.8192 83.0553 52.5151 82.6514ZM56.4691 77.754L54.4921 75.9616C54.3146 75.7849 54.0865 75.7091 53.8584 75.7091C53.6049 75.7091 53.3515 75.8101 53.1487 76.0121C52.7939 76.3907 52.8192 76.9966 53.1994 77.35L55.1764 79.1424C55.3538 79.2939 55.5819 79.3949 55.8101 79.3949C56.0635 79.3949 56.317 79.2939 56.5198 79.0919C56.9 78.688 56.8746 78.1074 56.4691 77.754ZM39.6645 81.7931C39.6392 81.7931 39.6138 81.7931 39.5631 81.7931C39.0816 81.7931 38.676 82.1465 38.6253 82.6514L38.2705 86.5139C38.2198 87.0188 38.6 87.4984 39.1322 87.5489C39.1576 87.5489 39.1829 87.5489 39.2336 87.5489C39.7152 87.5489 40.1207 87.1702 40.1714 86.6906L40.5263 82.8029C40.577 82.298 40.1968 81.8436 39.6645 81.7931ZM34.6206 81.1115C34.5192 81.061 34.3925 81.0358 34.2658 81.0358C33.8856 81.0358 33.5307 81.263 33.3787 81.6416L32.4155 84.1156C32.2127 84.5953 32.4662 85.1507 32.9478 85.3274C33.0745 85.3779 33.1759 85.4031 33.2773 85.4031C33.6575 85.4031 34.0123 85.1759 34.1644 84.7972L35.1275 82.3232C35.3303 81.8436 35.1022 81.3135 34.6206 81.1115Z" fill="white"/>
</svg>
