<svg width="47" height="87" viewBox="0 0 47 87" fill="none" xmlns="http://www.w3.org/2000/svg">
<path d="M11.7548 64.7922C10.7307 70.4754 10.7124 76.2854 11.7182 81.6248C23.3674 83.127 32.1821 83.0365 43.1912 83.3804C44.1239 76.9189 43.6484 71.8691 41.8562 65.3714C39.0582 55.2899 33.0782 46.1134 24.355 40.7922C24.2818 40.756 24.227 40.7017 24.1538 40.6655C19.5819 37.9324 15.5952 34.0953 12.3583 29.6429C6.98174 22.2039 3.68997 13.0275 3.32422 4.23109C15.9975 3.8148 28.6709 3.39851 41.3442 3.00032C44.069 2.90983 39.6983 21.7696 39.0216 23.3804C38.2536 25.2085 37.3575 26.8736 36.3517 28.394C33.4439 32.9189 29.6035 36.3397 25.1779 40.032C24.9036 40.2673 24.6293 40.5026 24.355 40.7922C17.6251 46.7831 13.3824 55.6157 11.7548 64.7922Z" fill="white"/>
<path d="M24.355 40.7922C33.0782 46.1134 39.0582 55.2899 41.8562 65.3714C43.6484 71.8691 44.1239 76.9189 43.1912 83.3804C32.1821 83.0365 23.3674 83.127 11.7182 81.6248C10.7124 76.2854 10.7307 70.4754 11.7548 64.7922C13.3824 55.6157 17.6251 46.7831 24.355 40.7922ZM24.355 40.7922C24.2818 40.756 24.227 40.7017 24.1538 40.6655C19.5819 37.9325 15.5952 34.0953 12.3583 29.6429C6.98174 22.2039 3.68997 13.0275 3.32422 4.23109C15.9975 3.8148 28.6709 3.39851 41.3442 3.00032C44.069 2.90983 39.6983 21.7696 39.0216 23.3804C38.2536 25.2085 37.3575 26.8736 36.3516 28.394C33.4439 32.9189 29.6035 36.3397 25.1779 40.032C24.9036 40.2673 24.6293 40.5026 24.355 40.7922Z" stroke="black" stroke-width="6" stroke-linecap="round" stroke-linejoin="round"/>
<path d="M41.8576 65.3722C43.6498 71.8699 44.1253 76.9197 43.1926 83.3812C31.5617 81.8789 23.3688 83.1278 11.7196 81.6255C10.7138 76.2862 10.7321 70.4762 11.7562 64.793C13.841 64.9016 15.9441 65.0283 18.0472 65.1731C25.8925 65.6436 33.8842 66.1323 41.6565 65.4265L41.8576 65.3722Z" fill="black"/>
<path d="M36.3527 28.3949C33.445 32.9198 29.6046 36.3406 25.179 40.0329C24.9047 40.2682 24.6304 40.5035 24.3561 40.7931C24.2829 40.7569 24.228 40.7026 24.1549 40.6664C19.583 37.9333 15.5963 34.0962 12.3594 29.6437L13.3835 29.1731C16.7484 27.8881 20.4974 27.3813 24.1549 27.689C28.233 28.051 32.4026 29.4084 36.3527 28.3949Z" fill="black"/>
<path d="M25.4969 51.1977C25.4971 51.1983 25.4969 51.1988 25.4971 51.1994C25.4972 51.1996 25.4972 51.1999 25.4972 51.2001" stroke="black" stroke-width="5" stroke-linecap="round"/>
<path d="M22.5008 59.1977C22.501 59.1983 22.5008 59.1988 22.501 59.1994C22.5011 59.1996 22.5011 59.1999 22.5012 59.2001" stroke="black" stroke-width="5" stroke-linecap="round"/>
<path d="M30.4412 60.5838C30.4839 60.671 30.4597 60.7357 30.5007 60.8225C30.5194 60.8622 30.5295 60.8985 30.5338 60.9332" stroke="black" stroke-width="5" stroke-linecap="round"/>
<path d="M24.355 40.7922C33.0782 46.1134 39.0582 55.2899 41.8562 65.3714C43.6484 71.8691 44.1239 76.9189 43.1912 83.3804C32.1821 83.0365 23.3674 83.127 11.7182 81.6248C10.7124 76.2854 10.7307 70.4754 11.7548 64.7922C13.3824 55.6157 17.6251 46.7831 24.355 40.7922ZM24.355 40.7922C24.2818 40.756 24.227 40.7017 24.1538 40.6655C19.5819 37.9325 15.5952 34.0953 12.3583 29.6429C6.98174 22.2039 3.68997 13.0275 3.32422 4.23109C15.9975 3.8148 28.6709 3.39851 41.3442 3.00032C44.069 2.90983 39.6983 21.7696 39.0216 23.3804C38.2536 25.2085 37.3575 26.8736 36.3516 28.394C33.4439 32.9189 29.6035 36.3397 25.1779 40.032C24.9036 40.2673 24.6293 40.5026 24.355 40.7922Z" stroke="black" stroke-width="6" stroke-linecap="round" stroke-linejoin="round"/>
</svg>
