<svg width="390" height="130" viewBox="0 0 390 130" fill="none" xmlns="http://www.w3.org/2000/svg">
<path d="M185 97.7656L203.001 105.105" stroke="black" stroke-width="8" stroke-linecap="round" stroke-linejoin="round"/>
<path d="M187.023 109.31L202.474 94.6611" stroke="black" stroke-width="8" stroke-linecap="round" stroke-linejoin="round"/>
<path d="M191.094 90.5312L194.241 98.7793L197.389 111.916" fill="black"/>
<path d="M191.094 90.5312L194.241 98.7793L197.389 111.916" stroke="black" stroke-width="8" stroke-linecap="round" stroke-linejoin="round"/>
<path d="M257.004 97.7656L275.005 105.105" stroke="black" stroke-width="8" stroke-linecap="round" stroke-linejoin="round"/>
<path d="M259.027 109.31L274.478 94.6611" stroke="black" stroke-width="8" stroke-linecap="round" stroke-linejoin="round"/>
<path d="M263.102 90.5312L266.249 98.7793L269.396 111.916" fill="black"/>
<path d="M263.102 90.5312L266.249 98.7793L269.396 111.916" stroke="black" stroke-width="8" stroke-linecap="round" stroke-linejoin="round"/>
<path d="M149 97.7656L167.001 105.105" stroke="black" stroke-width="8" stroke-linecap="round" stroke-linejoin="round"/>
<path d="M151.023 109.31L166.474 94.6611" stroke="black" stroke-width="8" stroke-linecap="round" stroke-linejoin="round"/>
<path d="M155.094 90.5312L158.241 98.7793L161.389 111.916" fill="black"/>
<path d="M155.094 90.5312L158.241 98.7793L161.389 111.916" stroke="black" stroke-width="8" stroke-linecap="round" stroke-linejoin="round"/>
<path d="M113 97.7656L131.001 105.105" stroke="black" stroke-width="8" stroke-linecap="round" stroke-linejoin="round"/>
<path d="M115.023 109.31L130.474 94.6611" stroke="black" stroke-width="8" stroke-linecap="round" stroke-linejoin="round"/>
<path d="M119.094 90.5312L122.241 98.7793L125.389 111.916" fill="black"/>
<path d="M119.094 90.5312L122.241 98.7793L125.389 111.916" stroke="black" stroke-width="8" stroke-linecap="round" stroke-linejoin="round"/>
<path d="M221.004 97.7656L239.005 105.105" stroke="black" stroke-width="8" stroke-linecap="round" stroke-linejoin="round"/>
<path d="M223.027 109.31L238.478 94.6611" stroke="black" stroke-width="8" stroke-linecap="round" stroke-linejoin="round"/>
<path d="M227.102 90.5312L230.249 98.7793L233.396 111.916" fill="black"/>
<path d="M227.102 90.5312L230.249 98.7793L233.396 111.916" stroke="black" stroke-width="8" stroke-linecap="round" stroke-linejoin="round"/>
<path d="M171.168 40.8088C170.472 36.8918 172.025 32.8752 174.261 29.5799C179.516 21.8329 189.107 16.9956 198.387 18.177C207.667 19.3583 215.99 26.9561 217.27 36.2451C218.549 44.6015 214.45 53.0822 213.779 54.0024C212.897 55.2086 208.598 64.8956 192.2 64.6469C176.199 64.3857 171.429 49.4263 171.168 40.8213V40.8088Z" fill="#15D7B4" stroke="black" stroke-width="8" stroke-miterlimit="10"/>
<path d="M186.621 43.7662L194.249 49.5859L203.579 32.9229" fill="#15D7B4"/>
<path d="M186.621 43.7662L194.249 49.5859L203.579 32.9229" stroke="black" stroke-width="8" stroke-linecap="round" stroke-linejoin="round"/>
</svg>
