<svg width="53" height="64" viewBox="0 0 53 64" fill="none" xmlns="http://www.w3.org/2000/svg">
<g clip-path="url(#clip0_8329_144996)">
<g clip-path="url(#clip1_8329_144996)">
<path d="M-12.9638 43.9002C-7.98475 48.4731 -2.13106 51.9716 3.64024 53.1137C10.6217 54.4977 14.6554 51.7879 18.8383 47.5716C21.4665 44.9226 26.6015 44.4692 30.4422 44.1421C37.7564 43.5245 45.9935 43.4369 50.0501 37.74C55.2081 30.4997 50.788 16.9721 43.0292 8.03611C35.8458 -0.237699 24.1929 -5.85586 17.9379 -0.777882C14.0751 2.35427 12.9192 8.96413 7.8856 10.1516C3.26742 11.2464 -2.35388 7.2355 -7.574 5.83365C-16.1943 3.51268 -23.5996 9.19832 -24.5211 17.8297C-25.4426 26.4612 -20.4231 37.0469 -12.9607 43.8979L-12.9638 43.9002Z" fill="#0059F5"/>
</g>
<path d="M8.46212 26.095C8.43715 25.9535 8.41218 25.8037 8.38721 25.6622C7.90448 22.9988 8.72014 20.7266 11.8829 20.8848C17.0598 21.1428 21.4711 20.2356 23.2855 19.5864C25.0999 18.9372 26.9726 17.3808 31.6751 19.5864C35.5287 21.3925 39.6902 21.4174 43.8018 20.7516C44.3179 20.6684 44.8589 20.5935 45.3416 20.7766C46.124 21.0762 46.5235 21.9584 46.6067 22.7908C47.3225 30.0568 44.8172 37.2646 46.0074 44.5888C46.1573 45.4961 46.332 46.4366 46.0824 47.3271C45.4831 49.4329 43.3857 49.4495 41.6711 49.1249C38.9828 48.6172 36.2112 48.4507 33.5312 49.0916C31.1674 49.6576 29.4529 51.239 26.8561 51.1391C23.452 51.0059 20.4224 48.7753 17.0266 48.4674C15.3619 48.3176 13.689 48.6422 12.0743 49.0833C11.292 49.2997 10.4763 49.5411 9.66897 49.3996C6.42297 48.8336 7.66311 41.6841 8.09591 39.4951C8.9948 34.9341 9.22784 30.6477 8.46212 26.095Z" fill="white" stroke="black" stroke-width="2" stroke-miterlimit="10"/>
<path d="M39.4082 44.7471L27.6727 44.4475L14.4307 44.7471C13.0241 44.7471 12.2084 43.2157 12.2084 41.9505L12.2584 34.7095L11.8672 26.969C11.8672 25.113 12.816 24.6719 14.4224 24.6719H39.2334C42.3795 24.6719 42.3795 25.7039 42.3795 26.969L41.955 42.4499C41.955 43.715 40.8148 44.7471 39.3999 44.7471H39.4082Z" stroke="black" stroke-width="2" stroke-miterlimit="10"/>
<path d="M14.207 20.9346L27.1411 11.4297L41.5649 20.9346" stroke="black" stroke-width="2" stroke-miterlimit="10"/>
<path d="M25.0513 11.8713C25.0576 11.6237 25.1122 11.3762 25.2213 11.1496C25.3619 10.858 25.5739 10.6021 25.8258 10.4007C25.958 10.2958 26.1008 10.2014 26.2561 10.1364C26.4429 10.0566 26.6444 10.0189 26.8459 10C27.8492 10 28.6762 10.5392 28.8273 11.3951C28.9721 12.2133 28.7056 13.0461 27.994 13.5076C27.9604 13.5307 27.9248 13.5517 27.8891 13.5706C27.4063 13.8433 26.8921 13.8769 26.3673 13.7237C26.2099 13.6776 26.0546 13.6377 25.9119 13.5538C25.8132 13.4971 25.7251 13.4237 25.6432 13.344C25.257 12.9643 25.0387 12.4146 25.0513 11.8713Z" fill="black"/>
<path d="M27.1203 32.7696C25.8219 33.81 25.3226 36.4983 27.1287 37.0893C28.1441 37.4222 29.0596 37.0893 29.6838 36.2486C30.1333 35.641 30.6743 34.6839 30.4163 33.8682C30.1583 33.0526 28.9348 32.3118 28.1191 32.3618C27.7612 32.3867 27.42 32.5365 27.1287 32.7696H27.1203Z" stroke="black" stroke-width="2" stroke-miterlimit="10"/>
<path d="M22.5 44C22.5 44 22.8564 38.438 25.9525 36.7734" stroke="black" stroke-width="2" stroke-linecap="round" stroke-linejoin="round"/>
<path d="M26.1758 32.7682C26.1758 32.7682 22.8969 26.9019 27.5345 28.183C32.1721 29.464 28.3135 32.353 28.3135 32.353" stroke="black" stroke-width="2" stroke-linecap="round" stroke-linejoin="round"/>
<path d="M26.4802 37.0964C26.4802 37.0964 24.4141 41.4753 27.6597 41.3504C30.9053 41.2255 29.0522 37.0938 29.0522 37.0938" stroke="black" stroke-width="2" stroke-linecap="round" stroke-linejoin="round"/>
<path d="M29.3398 37.2133C29.3398 37.2133 30.5661 41.9438 33.2924 39.8796C36.0187 37.8153 31.0369 35.6328 31.0369 35.6328" stroke="black" stroke-width="2" stroke-linecap="round" stroke-linejoin="round"/>
<path d="M31.0522 35.0137C31.0522 35.0137 33.8903 36.149 35.4143 34.2636C36.9382 32.3782 33.9128 31.6187 33.9128 31.6187C33.9128 31.6187 31.6385 30.5594 29.8357 33.055" stroke="black" stroke-width="2" stroke-linecap="round" stroke-linejoin="round"/>
<path d="M26.3671 33.3515C25.1122 33.076 23.6219 32.7466 22.3258 33.1719C21.5003 33.4454 21.0424 34.3216 21.2305 35.2327C21.4095 36.0966 21.9427 36.365 22.6882 36.355C23.7591 36.3518 24.8759 35.9306 25.8822 35.4729" stroke="black" stroke-width="2" stroke-linecap="round" stroke-linejoin="round"/>
</g>
<defs>
<clipPath id="clip0_8329_144996">
<rect width="53" height="64" fill="white"/>
</clipPath>
<clipPath id="clip1_8329_144996">
<rect width="67" height="66" fill="white" transform="translate(60.2305 30.7031) rotate(142.992)"/>
</clipPath>
</defs>
</svg>
