<svg width="53" height="64" viewBox="0 0 53 64" fill="none" xmlns="http://www.w3.org/2000/svg">
<g clip-path="url(#clip0_10345_4249)">
<g clip-path="url(#clip1_10345_4249)">
<path d="M18.9003 -12.7175C14.2745 -9.5866 11.3461 -4.07475 6.16347 -1.99297C0.267954 0.374895 -7.38137 -0.884695 -12.7382 3.25428C-21.4868 10.021 -21.9298 21.9149 -17.6195 31.4023C-15.2681 36.5739 -11.4737 41.0606 -6.69266 44.136C-1.72708 47.3303 4.27909 47.9654 9.7464 49.8937C15.6478 51.9748 20.4552 56.2856 26.7091 57.8187C34.9214 59.8301 43.8602 56.6232 47.5847 48.7006C50.8259 41.8158 48.937 32.8611 43.1913 27.858C40.8521 25.8199 37.8186 24.1939 36.8316 21.2535C35.2586 16.5689 39.7099 12.3014 41.9848 7.92141C45.2222 1.68217 43.6847 -6.68708 38.4355 -11.3817C33.1863 -16.0763 24.7182 -16.6563 18.8984 -12.7216L18.9003 -12.7175Z" fill="#F566C5"/>
</g>
<path d="M39.8619 33.109L33.289 39.9517L22.771 51.0265L10.4513 40.2355C13.8776 37.31 22.3735 27.4662 26.8889 22.561C27.2538 22.8584 29.0518 23.841 30.2026 22.4468C31.3534 21.0525 29.8513 19.7916 29.4864 19.4942L33.4016 15.2559C36.9663 18.8654 43.8127 23.436 46.7904 25.2701L42.6396 30.1797C42.3644 29.8146 40.7853 29.0723 39.7046 30.5195C38.7777 31.7606 39.5154 32.7737 39.8619 33.109Z" fill="white" stroke="black" stroke-width="2" stroke-linejoin="round"/>
<path d="M31.5131 24.8817C31.448 24.7693 31.4046 24.6437 31.3913 24.5125C31.3742 24.3437 31.3988 24.1712 31.4562 24.0121C31.4866 23.929 31.5245 23.8477 31.5761 23.776C31.6378 23.6892 31.7175 23.6171 31.8024 23.5535C32.2508 23.2785 32.7682 23.2929 33.0704 23.634C33.3593 23.96 33.4684 24.4054 33.2768 24.8067C33.2681 24.8262 33.2579 24.8453 33.2472 24.8635C33.1061 25.1178 32.8855 25.2737 32.609 25.349C32.5259 25.3715 32.4456 25.3963 32.3588 25.3979C32.2992 25.3996 32.2397 25.391 32.1812 25.3778C31.9045 25.3139 31.6563 25.128 31.5131 24.8817Z" fill="black"/>
<path d="M33.931 26.9164C33.866 26.804 33.8226 26.6784 33.8092 26.5472C33.7922 26.3783 33.8168 26.2058 33.8742 26.0468C33.9046 25.9637 33.9425 25.8823 33.9941 25.8107C34.0557 25.7239 34.1355 25.6518 34.2204 25.5881C34.6688 25.3132 35.1862 25.3275 35.4883 25.6687C35.7773 25.9947 35.8864 26.44 35.6948 26.8413C35.6861 26.8608 35.6759 26.88 35.6651 26.8982C35.5241 27.1524 35.3034 27.3083 35.0269 27.3837C34.9439 27.4062 34.8636 27.431 34.7768 27.4326C34.7172 27.4343 34.6576 27.4256 34.5992 27.4124C34.3225 27.3485 34.0743 27.1627 33.931 26.9164Z" fill="black"/>
<path d="M36.3529 28.951C36.2879 28.8387 36.2444 28.7131 36.2311 28.5819C36.2141 28.413 36.2387 28.2405 36.2961 28.0815C36.3264 27.9983 36.3644 27.917 36.416 27.8454C36.4776 27.7586 36.5573 27.6865 36.6422 27.6228C37.0907 27.3478 37.6081 27.3622 37.9102 27.7034C38.1992 28.0294 38.3082 28.4747 38.1167 28.876C38.108 28.8955 38.0978 28.9147 38.087 28.9329C37.946 29.1871 37.7253 29.343 37.4488 29.4184C37.3658 29.4409 37.2854 29.4656 37.1986 29.4672C37.139 29.469 37.0795 29.4603 37.0211 29.4471C36.7444 29.3832 36.4962 29.1974 36.3529 28.951Z" fill="black"/>
<path d="M30.9688 12.1742C30.9688 12.1742 33.461 9.90146 36.7982 11.8441" stroke="black" stroke-width="2" stroke-miterlimit="10" stroke-linecap="round"/>
<path d="M28.9492 9.0719C28.9492 9.0719 32.8582 5.36028 37.9089 8.19322" stroke="black" stroke-width="2" stroke-miterlimit="10" stroke-linecap="round"/>
</g>
<defs>
<clipPath id="clip0_10345_4249">
<path d="M0 8C0 3.58172 3.58172 0 8 0H53V64H8C3.58172 64 0 60.4183 0 56V8Z" fill="white"/>
</clipPath>
<clipPath id="clip1_10345_4249">
<rect width="71.8102" height="70.0775" fill="white" transform="translate(2.16797 74.0234) rotate(-114.905)"/>
</clipPath>
</defs>
</svg>
