<svg width="53" height="64" viewBox="0 0 53 64" fill="none" xmlns="http://www.w3.org/2000/svg">
<g clip-path="url(#clip0_8329_144966)">
<g clip-path="url(#clip1_8329_144966)">
<path d="M4.16093 55.5512C18.6456 55.2778 41.7512 43.0493 46.7535 31.8846C49.9434 24.7695 49.3161 15.2543 41.5856 12.8934C38.2292 11.8704 33.9568 12.341 31.5508 10.0346C27.8075 6.44946 31.3986 -0.396197 31.2493 -5.83997C31.1268 -10.3778 28.1135 -14.1352 23.9982 -15.895C19.8852 -17.6518 14.8112 -17.5691 9.97541 -16.3148C1.10427 -14.0125 -7.21397 -7.70468 -11.8167 0.215371C-16.418 8.12968 -17.195 17.4703 -13.8537 24.6799C-11.3478 30.0907 -10.057 33.2141 -10.1023 39.2628C-10.1499 45.6912 -9.50513 51.1394 -3.18529 54.2329C-1.20488 55.2018 1.30794 55.6086 4.15732 55.5539L4.16093 55.5512Z" fill="#0059F5"/>
</g>
<path d="M7.53324 31.9754C7.41698 26.3551 10.704 21.0636 15.116 17.5504C16.4143 16.5166 17.8207 15.6036 19.3526 14.9594C21.1925 14.1863 23.1802 13.8161 25.1679 13.6172C35.0597 13.603 43.2045 18.9017 44.6955 27.2935C44.9719 28.0088 45.2147 31.4945 45.0627 32.4867C44.8495 33.8816 44.7771 35.2979 44.5089 36.6826C43.3055 42.8852 38.1591 47.837 32.2357 50.1165C30.5549 50.7638 28.7824 51.2304 26.9803 51.2568C25.0445 51.2852 23.1415 50.8074 21.2649 50.3336C19.4464 49.8741 17.6015 49.4043 15.9789 48.468C15.01 47.909 14.139 47.1948 13.3394 46.4146C9.57912 42.7452 7.40882 37.5155 7.47001 32.2757L7.53324 31.9754Z" fill="white" stroke="black" stroke-width="2" stroke-miterlimit="10" stroke-linecap="round"/>
<path d="M32.558 32.0822C32.6773 29.239 30.4254 26.9298 27.2306 26.2276C26.5745 26.1501 25.9061 26.1284 25.2563 26.2493C24.7154 26.3494 24.1961 26.5467 23.7025 26.7915C22.0265 27.6218 20.5858 29.112 20.2218 30.9524L20.1797 31.0453C19.7848 32.7493 20.1118 34.6103 21.063 36.0758C21.2655 36.3877 21.4959 36.683 21.7684 36.934C22.2259 37.3553 22.7874 37.6404 23.3416 37.9203C23.9133 38.2094 24.4943 38.5007 25.1216 38.6297C25.7056 38.7495 26.3113 38.7248 26.9005 38.6339C28.9766 38.3137 30.993 37.0672 31.8249 35.1308C32.011 34.6981 32.1354 34.2416 32.3041 33.8027C32.4244 33.4898 32.5951 32.3362 32.557 32.0832L32.558 32.0822ZM27.8928 32.801C27.8475 32.9177 27.8146 33.0395 27.7653 33.1552C27.5431 33.6716 27.0064 34.0031 26.4532 34.0888C26.2959 34.1125 26.1344 34.1198 25.9791 34.0888C25.8115 34.0547 25.6573 33.9762 25.5051 33.8998C25.357 33.8254 25.2079 33.749 25.0856 33.6375C25.0126 33.5704 24.9519 33.4919 24.8974 33.4092C24.6434 33.0189 24.557 32.5232 24.6619 32.0688L24.6732 32.044C24.7699 31.5534 25.1545 31.1568 25.6007 30.9348C25.7324 30.8697 25.8701 30.8171 26.0151 30.7902C26.1879 30.7582 26.3658 30.7634 26.5406 30.784C27.392 30.9709 27.9915 31.5865 27.9596 32.3435C27.9699 32.4106 27.9246 32.7183 27.8917 32.802L27.8928 32.801Z" fill="black"/>
<path d="M31.5977 23.2656C31.5977 23.2656 35.4073 24.5127 36.4234 29.0565" stroke="black" stroke-width="2" stroke-miterlimit="10" stroke-linecap="round"/>
<path d="M32.5625 19.4062C32.5625 19.4062 38.6582 21.2776 40.2837 28.0926" stroke="black" stroke-width="2" stroke-miterlimit="10" stroke-linecap="round"/>
</g>
<defs>
<clipPath id="clip0_8329_144966">
<rect width="53" height="64" fill="white"/>
</clipPath>
<clipPath id="clip1_8329_144966">
<rect width="67" height="66" fill="white" transform="translate(58.2305 26.7031) rotate(142.992)"/>
</clipPath>
</defs>
</svg>
