<svg width="53" height="64" viewBox="0 0 53 64" fill="none" xmlns="http://www.w3.org/2000/svg">
<g clip-path="url(#clip0_8329_144978)">
<g clip-path="url(#clip1_8329_144978)">
<path d="M-0.3679 85.1333C18.7882 100.343 42.5686 79.4287 46.6738 59.9396C48.8218 49.7432 46.56 38.5234 40.5756 29.7129C34.5382 20.825 23.6644 14.3254 13.5256 16.6984C5.99585 18.4626 0.373157 24.6062 -3.74401 31.1405C-8.91614 39.3529 -12.491 48.8703 -12.4036 58.7619C-12.3162 68.6535 -8.20688 78.9109 -0.370587 85.1298L-0.3679 85.1333Z" fill="#F5D640"/>
</g>
<path d="M31.7995 28.1719L8 45.5032L16 44.8537H23.2691L28.0322 52.9943L33.813 29.4114" fill="white"/>
<path d="M31.7995 28.1719L8 45.5032L16 44.8537H23.2691L28.0322 52.9943L33.813 29.4114" stroke="#0C0016" stroke-width="2" stroke-linecap="round" stroke-linejoin="round"/>
<path d="M41.5273 13.6089L44.4069 15.7469L48.2066 11L41.5273 13.6089Z" fill="white" stroke="#0C0016" stroke-width="2" stroke-linecap="round" stroke-linejoin="round"/>
<path d="M43.9455 15.3723L42.0312 13.9922L27.8692 33.6356L29.7835 35.0157L43.9455 15.3723Z" fill="#0C0016" stroke="#0C0016" stroke-linecap="round" stroke-linejoin="round"/>
<path d="M25.5195 37.5078L27.7441 39.3048" stroke="#0C0016" stroke-width="2" stroke-linecap="round" stroke-linejoin="round"/>
<path d="M23.3672 40.5234L25.5214 42.315" stroke="#0C0016" stroke-width="2" stroke-linecap="round" stroke-linejoin="round"/>
<path d="M29.0039 22.8711V19.2188" stroke="#0C0016" stroke-width="2" stroke-miterlimit="10" stroke-linecap="round"/>
<path d="M24.4375 16.4844L25.3506 23.7891" stroke="#0C0016" stroke-width="2" stroke-miterlimit="10" stroke-linecap="round"/>
<path d="M19.8711 21.0469L21.6973 25.6123" stroke="#0C0016" stroke-width="2" stroke-miterlimit="10" stroke-linecap="round"/>
<path d="M15.3047 23.7812L18.9571 26.5205" stroke="#0C0016" stroke-width="2" stroke-miterlimit="10" stroke-linecap="round"/>
<path d="M10.7422 27.4375L17.1338 29.2637" stroke="#0C0016" stroke-width="2" stroke-miterlimit="10" stroke-linecap="round"/>
</g>
<defs>
<clipPath id="clip0_8329_144978">
<rect width="53" height="64" fill="white"/>
</clipPath>
<clipPath id="clip1_8329_144978">
<rect width="67" height="66" fill="white" transform="translate(63.2305 59.7031) rotate(142.992)"/>
</clipPath>
</defs>
</svg>
