<svg width="53" height="64" viewBox="0 0 53 64" fill="none" xmlns="http://www.w3.org/2000/svg">
<g clip-path="url(#clip0_8329_144923)">
<g clip-path="url(#clip1_8329_144923)">
<path d="M-11.2273 46.9701C-7.66018 48.9007 -3.603 50.1522 0.0316718 50.8146C12.7462 53.138 25.8692 49.2352 32.5526 37.4966C39.7965 24.7648 39.554 6.97544 30.7585 -5.10068C26.0219 -11.6061 18.954 -16.6587 11.0264 -17.8133C3.09874 -18.9679 -5.56465 -15.7311 -9.84184 -8.99089C-14.119 -2.2507 -12.9807 7.79312 -6.619 12.7095C-4.95853 13.9904 -2.85428 15.1596 -2.45231 17.2152C-1.09088 24.1888 -12.9057 21.9154 -16.1113 23.8806C-18.7281 25.4835 -20.5347 28.3399 -20.8805 31.4047C-21.697 38.7265 -17.1254 43.7694 -11.229 46.9606L-11.2273 46.9701Z" fill="#F5D640"/>
</g>
<path d="M26.0687 10.6615C26.0687 10.6615 25.8553 16.6744 24.0086 19.8581C21.1157 24.8452 18.6632 27.8597 11.4609 27.6372V10.6615L25.8243 10.3813L35.9933 10.6615H44.8107V27.6454C31.0489 28.0575 28.9529 10.4675 28.9529 10.4675" fill="white"/>
<path d="M26.0687 10.6615C26.0687 10.6615 25.8553 16.6744 24.0086 19.8581C21.1157 24.8452 18.6632 27.8597 11.4609 27.6372V10.6615L25.8243 10.3813L35.9933 10.6615H44.8107V27.6454C31.0489 28.0575 28.9529 10.4675 28.9529 10.4675" stroke="black" stroke-width="2" stroke-linecap="round" stroke-linejoin="round"/>
<path d="M16.003 31.1604C16.003 31.1604 18.1291 34.2589 17.6429 40.0521L10.5312 40.5218L11.4624 30.7979L16.003 31.1604Z" fill="white" stroke="black" stroke-width="2" stroke-linecap="round" stroke-linejoin="round"/>
<path d="M15.3672 31.0925C15.9605 31.0183 16.5703 30.4662 16.7516 30.0047C17.1389 29.0241 17.0235 27.8869 15.911 27.2771C15.1243 26.8447 14.1276 26.9418 13.195 27.0327C12.8479 27.0666 12.5097 27.0996 12.1945 27.104L15.3672 31.0925ZM11.9348 30.5657L11.9333 30.5654C11.4855 30.4959 11.1805 30.4318 10.9706 30.2904L10.8921 30.2218C10.8195 30.1582 10.7467 30.0634 10.6918 29.9372L10.6918 29.9372L10.6912 29.9358C10.4819 29.4583 10.4767 28.8367 10.5257 28.1986C10.5404 28.022 10.6031 27.9226 10.6844 27.8518C10.7782 27.77 10.9323 27.6975 11.1639 27.6535C11.4504 27.6029 11.7447 27.6034 12.0865 27.6039C12.122 27.604 12.158 27.604 12.1945 27.604V27.6041L12.2016 27.604C12.5156 27.5995 12.8452 27.5691 13.1619 27.5383C13.1885 27.5357 13.2151 27.5332 13.2416 27.5306C13.5368 27.5018 13.8229 27.474 14.1059 27.4614C14.7291 27.4337 15.2537 27.4864 15.6702 27.7153L15.6707 27.7155C16.107 27.9547 16.3232 28.2774 16.4084 28.6219C16.4972 28.9809 16.4519 29.4025 16.2865 29.821L16.2862 29.8219C16.2347 29.9529 16.0992 30.1408 15.8963 30.3076C15.6947 30.4734 15.4802 30.5743 15.3057 30.5963C14.198 30.7317 13.0262 30.7384 11.9348 30.5657Z" fill="black" stroke="black"/>
<path d="M21.9481 10.7684C21.9481 10.7684 20.4088 20.7074 15.5364 23.2467" stroke="black" stroke-width="2" stroke-linecap="round" stroke-linejoin="round"/>
<path d="M40.2731 31.1604C40.2731 31.1604 37.1829 33.8963 37.6691 39.6977L45.7449 40.5218L44.8137 30.7979L40.2731 31.1604Z" fill="white" stroke="black" stroke-width="2" stroke-linecap="round" stroke-linejoin="round"/>
<path d="M45.0363 30.409L45.0362 30.4089L45.0271 30.418C45.0165 30.4285 44.9959 30.4458 44.9469 30.4767C44.8253 30.5481 44.6545 30.5674 44.342 30.5853C44.1432 30.5938 43.9469 30.6036 43.7527 30.6132C42.7921 30.661 41.8829 30.7062 40.9698 30.5887L40.9698 30.5887L40.9656 30.5882C40.4793 30.5299 40.0995 30.0554 40.0152 29.318C39.9304 28.5753 40.1952 27.9303 40.6019 27.708L40.6019 27.708L40.6029 27.7074C41.0194 27.4785 41.5441 27.4259 42.1673 27.4536C42.4503 27.4661 42.7364 27.494 43.0315 27.5228C43.058 27.5253 43.0846 27.5279 43.1113 27.5305C43.4276 27.5612 43.7568 27.5916 44.0704 27.5961C44.3931 27.6025 44.7627 27.7364 45.0527 27.9649C45.3423 28.193 45.5033 28.4733 45.5157 28.7502L45.5156 28.7502L45.5159 28.7552C45.5295 29.0021 45.5003 29.3428 45.4127 29.6698C45.3229 30.005 45.1884 30.2645 45.0363 30.409Z" fill="black" stroke="black"/>
<path d="M33.4855 11.1627C33.4855 11.1627 35.2833 20.0029 40.3141 22.2118" stroke="black" stroke-width="2" stroke-linecap="round" stroke-linejoin="round"/>
<path d="M39.347 43.4268C39.347 42.1335 39.4311 41.0926 39.3155 39.7889C39.2419 38.9793 38.0748 38.7374 37.2862 38.5587C36.4977 38.3799 35.6775 38.4115 34.8679 38.4325C34.0163 38.4641 33.1331 38.5797 32.5022 39.137C31.8714 39.6942 31.924 39.9991 31.9134 40.8087C31.8924 41.9338 31.8609 42.2807 31.8398 43.4058" fill="white"/>
<path d="M39.347 43.4268C39.347 42.1335 39.4311 41.0926 39.3155 39.7889C39.2419 38.9793 38.0748 38.7374 37.2862 38.5587C36.4977 38.3799 35.6775 38.4115 34.8679 38.4325C34.0163 38.4641 33.1331 38.5797 32.5022 39.137C31.8714 39.6942 31.924 39.9991 31.9134 40.8087C31.8924 41.9338 31.8609 42.2807 31.8398 43.4058" stroke="black" stroke-width="2" stroke-linecap="round" stroke-linejoin="round"/>
<path d="M24.4944 43.4281C24.4733 41.8194 24.5154 42.4188 24.4944 40.7996C24.4944 40.1687 24.4944 39.4643 24.9254 38.9911C25.3986 38.4654 27.0388 38.4233 28.1533 38.4233C30.3193 38.4233 31.8123 38.7808 31.8123 39.9479C31.8123 41.9456 31.8018 41.6302 31.8123 43.4176" fill="white"/>
<path d="M24.4944 43.4281C24.4733 41.8194 24.5154 42.4188 24.4944 40.7996C24.4944 40.1687 24.4944 39.4643 24.9254 38.9911C25.3986 38.4654 27.0388 38.4233 28.1533 38.4233C30.3193 38.4233 31.8123 38.7808 31.8123 39.9479C31.8123 41.9456 31.8018 41.6302 31.8123 43.4176" stroke="black" stroke-width="2" stroke-linecap="round" stroke-linejoin="round"/>
<path d="M17.1701 43.0601C17.1491 41.4514 17.1912 42.4082 17.1701 40.7996C17.1701 40.1687 17.1701 39.4643 17.6012 38.9911C18.0744 38.4654 19.7146 38.4233 20.8291 38.4233C22.995 38.4233 24.4881 38.7808 24.4881 39.9479C24.4881 41.9456 24.4775 41.2201 24.4881 43.0076" fill="white"/>
<path d="M17.1701 43.0601C17.1491 41.4514 17.1912 42.4082 17.1701 40.7996C17.1701 40.1687 17.1701 39.4643 17.6012 38.9911C18.0744 38.4654 19.7146 38.4233 20.8291 38.4233C22.995 38.4233 24.4881 38.7808 24.4881 39.9479C24.4881 41.9456 24.4775 41.2201 24.4881 43.0076" stroke="black" stroke-width="2" stroke-linecap="round" stroke-linejoin="round"/>
<path d="M13.2991 50.9186C13.2991 49.6253 13.215 46.3028 13.3306 45.0096C13.4042 44.2 14.5713 43.9581 15.3599 43.7794C16.1484 43.6006 16.9685 43.6322 17.7781 43.6532C18.6298 43.6848 19.513 43.8004 20.1438 44.3577C20.7747 44.9149 20.7221 45.2198 20.7326 46.0294C20.7537 47.1545 20.7852 49.7725 20.8062 50.8975" fill="white"/>
<path d="M13.2991 50.9186C13.2991 49.6253 13.215 46.3028 13.3306 45.0096C13.4042 44.2 14.5713 43.9581 15.3599 43.7794C16.1484 43.6006 16.9685 43.6322 17.7781 43.6532C18.6298 43.6848 19.513 43.8004 20.1438 44.3577C20.7747 44.9149 20.7221 45.2198 20.7326 46.0294C20.7537 47.1545 20.7852 49.7725 20.8062 50.8975" stroke="black" stroke-width="2" stroke-linecap="round" stroke-linejoin="round"/>
<path d="M35.6751 50.9186C35.6751 49.6253 35.7593 46.3028 35.6436 45.0096C35.57 44.2 34.4029 43.9581 33.6144 43.7794C32.8258 43.6006 32.0057 43.6322 31.1961 43.6532C30.3444 43.6848 29.4612 43.8004 28.8304 44.3577C28.1995 44.9149 28.2521 45.2198 28.2416 46.0294C28.2205 47.1545 28.189 49.7725 28.168 50.8975" fill="white"/>
<path d="M35.6751 50.9186C35.6751 49.6253 35.7593 46.3028 35.6436 45.0096C35.57 44.2 34.4029 43.9581 33.6144 43.7794C32.8258 43.6006 32.0057 43.6322 31.1961 43.6532C30.3444 43.6848 29.4612 43.8004 28.8304 44.3577C28.1995 44.9149 28.2521 45.2198 28.2416 46.0294C28.2205 47.1545 28.189 49.7725 28.168 50.8975" stroke="black" stroke-width="2" stroke-linecap="round" stroke-linejoin="round"/>
<path d="M20.8303 50.643C20.8093 49.0343 20.8513 47.8882 20.8303 46.2795C20.8303 45.6487 20.8303 44.9442 21.2614 44.4711C21.7345 43.9454 23.3747 43.9033 24.4893 43.9033C26.6552 43.9033 28.1482 44.2608 28.1482 45.4279C28.1482 47.4256 28.1377 48.803 28.1482 50.5904" fill="white"/>
<path d="M20.8303 50.643C20.8093 49.0343 20.8513 47.8882 20.8303 46.2795C20.8303 45.6487 20.8303 44.9442 21.2614 44.4711C21.7345 43.9454 23.3747 43.9033 24.4893 43.9033C26.6552 43.9033 28.1482 44.2608 28.1482 45.4279C28.1482 47.4256 28.1377 48.803 28.1482 50.5904" stroke="black" stroke-width="2" stroke-linecap="round" stroke-linejoin="round"/>
<path d="M35.717 50.643C35.696 49.0343 35.738 47.8882 35.717 46.2795C35.717 45.6487 35.717 44.9442 36.1481 44.4711C36.6212 43.9454 38.2615 43.9033 39.376 43.9033C41.5419 43.9033 43.0349 44.2608 43.0349 45.4279C43.0349 47.4256 43.0244 48.803 43.0349 50.5904" fill="white"/>
<path d="M35.717 50.643C35.696 49.0343 35.738 47.8882 35.717 46.2795C35.717 45.6487 35.717 44.9442 36.1481 44.4711C36.6212 43.9454 38.2615 43.9033 39.376 43.9033C41.5419 43.9033 43.0349 44.2608 43.0349 45.4279C43.0349 47.4256 43.0244 48.803 43.0349 50.5904" stroke="black" stroke-width="2" stroke-linecap="round" stroke-linejoin="round"/>
<path d="M11.5781 50.9522L45.2553 50.9312" stroke="black" stroke-width="2" stroke-linecap="round" stroke-linejoin="round"/>
</g>
<defs>
<clipPath id="clip0_8329_144923">
<rect width="53" height="64" fill="white"/>
</clipPath>
<clipPath id="clip1_8329_144923">
<rect width="67" height="66" fill="white" transform="translate(53.2305 24.7041) rotate(142.992)"/>
</clipPath>
</defs>
</svg>
