<svg width="53" height="64" viewBox="0 0 53 64" fill="none" xmlns="http://www.w3.org/2000/svg">
<g clip-path="url(#clip0_8329_145015)">
<g clip-path="url(#clip1_8329_145015)">
<path d="M-11.2273 55.9691C-7.66018 57.8998 -3.603 59.1512 0.0316718 59.8136C12.7462 62.137 25.8692 58.2342 32.5526 46.4956C39.7965 33.7639 39.554 15.9745 30.7585 3.89834C26.0219 -2.60711 18.954 -7.65972 11.0264 -8.81431C3.09874 -9.9689 -5.56465 -6.73207 -9.84184 0.00812865C-14.119 6.74833 -12.9807 16.7921 -6.619 21.7085C-4.95853 22.9894 -2.85428 24.1586 -2.45231 26.2143C-1.09088 33.1878 -12.9057 30.9144 -16.1113 32.8797C-18.7281 34.4826 -20.5347 37.3389 -20.8805 40.4037C-21.697 47.7255 -17.1254 52.7685 -11.229 55.9596L-11.2273 55.9691Z" fill="#F5D640"/>
</g>
<path d="M40.2375 13.3828L45.0027 17.7788L45.5 27L46.7681 39.4474L32.207 40.0358C28.5494 45.3203 24.9956 40.6012 24.9956 40.6012L18 41.5L11.0345 43.0011L8 20.7672L11.5076 16.7173" fill="white"/>
<path d="M40.2375 13.3828L45.0027 17.7788L45.5 27L46.7681 39.4474L32.207 40.0358C28.5494 45.3203 24.9956 40.6012 24.9956 40.6012L18 41.5L11.0345 43.0011L8 20.7672L11.5076 16.7173" stroke="black" stroke-width="2" stroke-linecap="round" stroke-linejoin="round"/>
<path d="M26.392 17.2361C26.392 17.2361 27.2919 11.467 40.2492 13.3939L42.5569 34.5548C42.5569 34.5548 31.388 32.6164 28.4342 39.3315C28.4342 39.3315 24.3728 33.1471 14.2193 38.27L13 27L11.5078 16.7169C11.5078 16.7169 22.4113 10.4286 26.3804 17.2245L26.392 17.2361Z" fill="white" stroke="black" stroke-width="2" stroke-linecap="round" stroke-linejoin="round"/>
<path d="M26.4141 16.2891L28.4217 39.3191" stroke="black" stroke-width="2" stroke-linecap="round" stroke-linejoin="round"/>
<path d="M30.5469 19.9598C30.5469 19.9598 32.716 17.2022 36.8582 18.806" stroke="black" stroke-width="2" stroke-linecap="round" stroke-linejoin="round"/>
</g>
<defs>
<clipPath id="clip0_8329_145015">
<rect width="53" height="64" fill="white"/>
</clipPath>
<clipPath id="clip1_8329_145015">
<rect width="67" height="66" fill="white" transform="translate(53.2305 33.7031) rotate(142.992)"/>
</clipPath>
</defs>
</svg>
