<svg width="87" height="86" viewBox="0 0 87 86" fill="none" xmlns="http://www.w3.org/2000/svg">
<g clip-path="url(#clip0_8329_107731)">
<path d="M3 50.6326C18.167 35.1376 36.2444 18.4949 51.3705 3C54.6498 6.68927 58.544 9.88664 62.8072 12.3462C58.831 15.1336 58.0111 21.4464 61.0855 25.1766C64.1599 28.9069 70.5137 29.2348 73.998 25.8735C77.6053 28.169 84 34.8507 84 35.1786C84 35.6296 38.9909 82.3193 38.581 82.4833C36.9823 81.4995 28.9889 77.1544 25.9965 73.2601C28.456 70.8416 31.7353 64.4469 26.7753 59.7328C21.8153 55.0187 17.1832 57.6832 13.4529 60.6346C9.5997 57.6832 6.11538 54.3629 3 50.6326Z" fill="white" stroke="black" stroke-width="6" stroke-linecap="round" stroke-linejoin="round"/>
<path d="M45.9972 26.0797C45.9972 26.6867 45.5051 27.1789 44.898 27.1789C44.291 27.1789 43.7988 26.6867 43.7988 26.0797C43.7988 25.4726 44.291 24.9805 44.898 24.9805C45.5051 24.9805 45.9972 25.4726 45.9972 26.0797Z" fill="black" stroke="black" stroke-width="6"/>
<path d="M61.0382 41.1715C61.0382 41.7785 60.5461 42.2706 59.939 42.2706C59.332 42.2706 58.8398 41.7785 58.8398 41.1715C58.8398 40.5644 59.332 40.0723 59.939 40.0723C60.5461 40.0723 61.0382 40.5644 61.0382 41.1715Z" fill="black" stroke="black" stroke-width="6"/>
<path d="M53.4855 33.6119C53.4855 34.219 52.9934 34.7111 52.3863 34.7111C51.7792 34.7111 51.2871 34.219 51.2871 33.6119C51.2871 33.0048 51.7792 32.5127 52.3863 32.5127C52.9934 32.5127 53.4855 33.0048 53.4855 33.6119Z" fill="black" stroke="black" stroke-width="6"/>
<path d="M42.8235 66.8153C42.3688 64.2548 43.3839 61.6292 44.8456 59.4751C48.2808 54.4108 54.5501 51.2487 60.6164 52.021C66.6828 52.7932 72.1238 57.7599 72.9602 63.8321C73.7967 69.2946 71.1168 74.8385 70.6783 75.44C70.1017 76.2285 67.2918 82.5608 56.5722 82.3982C46.1125 82.2275 42.9941 72.4486 42.8235 66.8235V66.8153Z" fill="#15D7B4" stroke="black" stroke-width="6" stroke-miterlimit="10"/>
<path d="M52.9287 68.7397L57.915 72.544L64.0138 61.6514" stroke="black" stroke-width="6" stroke-linecap="round" stroke-linejoin="round"/>
</g>
<defs>
<clipPath id="clip0_8329_107731">
<rect width="87" height="86" fill="white"/>
</clipPath>
</defs>
</svg>
