<svg width="135" height="136" viewBox="0 0 135 136" fill="none" xmlns="http://www.w3.org/2000/svg">
<path d="M26.2805 69.7448H20.9891C19.049 69.7448 17.4968 71.2853 17.4968 73.211L17.4968 115.016C17.4968 116.942 19.049 118.482 20.9891 118.482C22.9293 118.482 24.4814 116.942 24.4814 115.016L24.4814 97.5797H26.2452C30.1255 97.5797 33.265 94.4636 33.265 90.6122V76.6772C33.265 72.8959 30.1255 69.7448 26.2805 69.7448ZM26.2805 90.6472H24.5167V76.7123H26.2805V90.6472Z" fill="#C3C3D6"/>
<path d="M91.3639 69.7448C87.025 69.7448 83.4622 73.246 83.4622 77.5876V82.1392C83.4622 84.8351 84.0971 87.5311 85.2965 89.9119L91.117 101.466C91.8578 102.902 92.2105 104.512 92.2105 106.123V110.674C92.2105 111.165 91.8225 111.55 91.3286 111.55C90.8348 111.55 90.4467 111.165 90.4467 110.674V106.333C90.4467 104.407 88.8946 102.867 86.9544 102.867C85.0143 102.867 83.4622 104.407 83.4622 106.333V110.674C83.4622 114.981 86.9897 118.517 91.3639 118.517C95.7028 118.517 99.2656 115.016 99.2656 110.674V106.123C99.2656 103.427 98.6307 100.731 97.4313 98.3499L91.6108 86.7958C90.87 85.3603 90.5173 83.7498 90.5173 82.1392V77.5876C90.5173 77.0974 90.9053 76.7123 91.3992 76.7123C91.893 76.7123 92.2811 77.0974 92.2811 77.5876V81.9291C92.2811 83.8548 93.8332 85.3953 95.7734 85.3953C97.7135 85.3953 99.2656 83.8548 99.2656 81.9291V77.5876C99.2304 73.281 95.7028 69.7448 91.3639 69.7448Z" fill="#C3C3D6"/>
<path d="M109.601 69.7448C105.263 69.7448 101.7 73.246 101.7 77.5876V82.1392C101.7 84.8351 102.335 87.5311 103.534 89.9119L109.355 101.466C110.095 102.902 110.448 104.512 110.448 106.123V110.674C110.448 111.165 110.06 111.55 109.566 111.55C109.072 111.55 108.684 111.165 108.684 110.674V106.333C108.684 104.407 107.132 102.867 105.192 102.867C103.252 102.867 101.7 104.407 101.7 106.333V110.674C101.7 114.981 105.227 118.517 109.601 118.517C113.94 118.517 117.503 115.016 117.503 110.674V106.123C117.503 103.427 116.868 100.731 115.669 98.3499L109.848 86.7958C109.108 85.3603 108.755 83.7498 108.755 82.1392V77.5876C108.755 77.0974 109.143 76.7123 109.637 76.7123C110.131 76.7123 110.519 77.0974 110.519 77.5876V81.9291C110.519 83.8548 112.071 85.3953 114.011 85.3953C115.951 85.3953 117.503 83.8548 117.503 81.9291V77.5876C117.503 73.281 113.94 69.7448 109.601 69.7448Z" fill="#C3C3D6"/>
<path d="M65.5773 59.3111H62.0498V21.0075C62.0498 19.0818 60.4976 17.5412 58.5575 17.5412C56.6173 17.5412 55.0652 19.0818 55.0652 21.0075V62.8123C55.0652 64.738 56.6173 66.2786 58.5575 66.2786H65.5773C67.5175 66.2786 69.0696 64.738 69.0696 62.8123C69.0696 60.8866 67.5175 59.3111 65.5773 59.3111Z" fill="#C3C3D6"/>
<path d="M117.503 24.4737C117.503 20.6223 114.364 17.5062 110.483 17.5062H105.227C103.287 17.5062 101.735 19.0468 101.735 20.9725V62.7773C101.735 64.703 103.287 66.2435 105.227 66.2435C107.167 66.2435 108.719 64.703 108.719 62.7773V45.3761C109.672 45.3761 110.483 46.1464 110.483 47.1268V62.8123C110.483 64.738 112.035 66.2786 113.976 66.2786C115.916 66.2786 117.468 64.738 117.468 62.8123V47.1268C117.468 45.1661 116.798 43.3454 115.704 41.9099C116.798 40.4394 117.468 38.6537 117.468 36.693V24.4737H117.503ZM110.483 36.693C110.483 37.6384 109.707 38.4437 108.719 38.4437V24.4737H110.483V36.693Z" fill="#C3C3D6"/>
<path d="M29.8785 40.2293L34.9229 21.9178C35.4167 20.0621 34.3232 18.1365 32.4536 17.6463C30.584 17.1561 28.6438 18.2415 28.15 20.0972L24.5166 33.3319V21.0075C24.5166 19.0818 22.9644 17.5412 21.0243 17.5412C19.0841 17.5412 17.532 19.0818 17.532 21.0075L17.532 62.8123C17.532 64.738 19.0841 66.2786 21.0243 66.2786C22.9644 66.2786 24.5166 64.738 24.5166 62.8123L24.5166 48.0721L28.1147 63.5826C28.5027 65.1932 29.9137 66.2786 31.5364 66.2786C31.7833 66.2786 32.0656 66.2436 32.3125 66.1735C34.1821 65.7534 35.3815 63.8627 34.9229 62.0071L29.8785 40.2293Z" fill="#C3C3D6"/>
<path d="M49.0683 17.5062C47.1281 17.5062 45.576 19.0468 45.576 20.9725V58.4008C45.576 58.8909 45.188 59.2761 44.6941 59.2761C44.2002 59.2761 43.8122 58.8909 43.8122 58.4008V21.0075C43.8122 19.0818 42.2601 17.5412 40.3199 17.5412C38.3798 17.5412 36.8276 19.0818 36.8276 21.0075V58.4358C36.8276 62.7423 40.3552 66.2786 44.7294 66.2786C49.0683 66.2786 52.6311 62.7773 52.6311 58.4358V21.0075C52.5958 19.0818 51.0084 17.5062 49.0683 17.5062Z" fill="#C3C3D6"/>
<path d="M95.738 17.5062C93.7978 17.5062 92.2457 19.0468 92.2457 20.9725V58.4008C92.2457 58.8909 91.8576 59.2761 91.3638 59.2761C90.8699 59.2761 90.4819 58.8909 90.4819 58.4008V21.0075C90.4819 19.0818 88.9298 17.5412 86.9896 17.5412C85.0494 17.5412 83.4973 19.0818 83.4973 21.0075V58.4358C83.4973 62.7423 87.0249 66.2786 91.3991 66.2786C95.738 66.2786 99.3008 62.7773 99.3008 58.4358V21.0075C99.2303 19.0818 97.6781 17.5062 95.738 17.5062Z" fill="#C3C3D6"/>
<path d="M78.9117 17.5062H68.3995C66.4594 17.5062 64.9072 19.0468 64.9072 20.9725C64.9072 22.8981 66.4594 24.4387 68.3995 24.4387H70.1633V62.7423C70.1633 64.668 71.7154 66.2085 73.6556 66.2085C75.5958 66.2085 77.1479 64.668 77.1479 62.7423V24.4737H78.9117C80.8518 24.4737 82.404 22.9332 82.404 21.0075C82.404 19.0818 80.8518 17.5062 78.9117 17.5062Z" fill="#C3C3D6"/>
<path d="M55.7005 69.7448H40.0028C38.2038 69.7448 36.5105 71.2153 36.3694 73.0009C36.2283 75.0317 37.851 76.7123 39.8617 76.7123H55.6652C60.8507 76.7123 65.5424 78.9881 68.7525 82.5593C65.1544 79.8284 60.5685 78.2528 55.6299 78.4629C45.012 78.918 36.5105 87.6361 36.3341 98.1749C36.193 109.379 45.2589 118.482 56.5118 118.482C61.7326 118.482 66.4948 116.521 70.0577 113.265L74.2555 117.432C74.8199 118.027 75.596 118.412 76.4426 118.447C78.4886 118.587 80.1818 116.977 80.1818 114.981V94.0784C80.2523 80.6687 69.2463 69.7448 55.7005 69.7448Z" fill="#C3C3D6"/>
<path d="M84.3441 92.6079C79.2997 101.081 71.0099 107.698 60.6741 110.464C56.5116 111.585 52.3138 111.97 48.2571 111.725C47.9749 111.725 47.728 111.69 47.4458 111.655C41.6606 111.2 36.1223 109.484 31.1837 106.753C30.3018 106.263 30.0196 105.142 30.5134 104.302C33.3355 99.5754 37.1453 95.4439 41.7311 92.2228C41.9428 92.0827 42.1544 91.9077 42.4013 91.7676C45.9289 89.4218 49.8798 87.6011 54.2187 86.4457C58.2754 85.3603 62.3674 84.9752 66.3535 85.1503C66.8121 85.1853 67.2707 85.2203 67.7293 85.2553C73.4086 85.7455 78.8411 87.4261 83.7091 90.157C84.591 90.6472 84.8732 91.7676 84.3441 92.6079Z" fill="#C3C3D6"/>
<path d="M54.607 81.9992L53.1254 76.3972C52.8785 75.4868 52.0671 74.8566 51.1147 74.8566C50.9383 74.8566 50.7619 74.8916 50.5855 74.9266C50.0564 75.0667 49.5978 75.4168 49.3156 75.872C49.0334 76.3622 48.9629 76.8873 49.104 77.4125L50.5855 83.0145C50.8325 83.9248 51.6438 84.52 52.5963 84.52C52.7726 84.52 52.949 84.485 53.1254 84.45C53.6545 84.31 54.1131 83.9599 54.3953 83.5047C54.6775 83.0845 54.7481 82.5243 54.607 81.9992ZM52.5963 83.8548C51.9966 83.8548 51.4674 83.4697 51.3263 82.8745L49.8448 77.2725C49.6684 76.5722 50.0917 75.872 50.7619 75.6619C50.8677 75.6269 51.0089 75.6269 51.1147 75.6269C51.7144 75.6269 52.2435 76.012 52.3846 76.6072L53.8662 82.2092C54.0426 82.9095 53.6545 83.6097 52.949 83.8198C52.8079 83.8198 52.7021 83.8548 52.5963 83.8548ZM47.9399 84.2049L44.5887 79.6533C44.2007 79.1281 43.5657 78.813 42.9307 78.813C42.5074 78.813 42.0841 78.9531 41.6961 79.1982C40.7789 79.8634 40.5673 81.1589 41.2375 82.0692L44.5887 86.6208C44.9767 87.146 45.6117 87.4611 46.2466 87.4611C46.67 87.4611 47.0933 87.321 47.4813 87.076C48.3985 86.4107 48.6101 85.1153 47.9399 84.2049ZM47.058 86.4807C46.811 86.6558 46.5641 86.7258 46.2819 86.7258C45.8939 86.7258 45.4706 86.5508 45.2236 86.2006L41.8725 81.649C41.4492 81.0538 41.5903 80.2485 42.1547 79.8284C42.4016 79.6533 42.6485 79.5833 42.9307 79.5833C43.354 79.5833 43.7421 79.7584 43.989 80.1085L47.3402 84.6601C47.7635 85.2553 47.6224 86.0606 47.058 86.4807ZM42.1899 88.7566L38.3449 85.7455C37.9921 85.4654 37.5336 85.3253 37.075 85.3253C36.44 85.3253 35.8403 85.6054 35.4523 86.0956C34.7468 86.9709 34.8879 88.2664 35.805 88.9666L39.6501 91.9777C40.0029 92.2578 40.4614 92.3978 40.92 92.3978C41.2022 92.3978 41.4844 92.3278 41.7314 92.2228C41.943 92.0827 42.1547 91.9077 42.4016 91.7676C42.4721 91.6976 42.5074 91.6626 42.5427 91.5926C43.2482 90.7523 43.0718 89.4568 42.1899 88.7566ZM40.92 91.6626C40.6378 91.6626 40.3556 91.5576 40.1087 91.3825L36.2636 88.3714C35.6992 87.9163 35.5934 87.111 36.052 86.5508C36.2989 86.2357 36.6869 86.0606 37.075 86.0606C37.3572 86.0606 37.6394 86.1656 37.8863 86.3407L41.7314 89.3518C42.2958 89.8069 42.4016 90.6122 41.943 91.1724C41.6961 91.4875 41.308 91.6626 40.92 91.6626ZM60.7097 74.5415C60.6391 74.5415 60.5333 74.5415 60.4627 74.5415C59.4045 74.5415 58.5226 75.3118 58.4167 76.3622L57.7818 81.7191C57.6407 82.8395 58.452 83.8548 59.5808 83.9949C59.6514 83.9949 59.7572 83.9949 59.8278 83.9949C60.886 83.9949 61.7679 83.2246 61.8738 82.1742L62.5087 76.8173C62.6498 75.6969 61.8385 74.6816 60.7097 74.5415ZM59.8278 83.2596C59.7925 83.2596 59.7219 83.2596 59.6867 83.2596C58.9459 83.1896 58.452 82.5243 58.5226 81.8241L59.1575 76.4672C59.2281 75.802 59.7925 75.3118 60.4627 75.3118C60.5333 75.3118 60.5686 75.3118 60.6391 75.3118C61.3446 75.3818 61.8738 76.047 61.8032 76.7473L61.1682 82.1042C61.0624 82.7694 60.498 83.2596 59.8278 83.2596ZM69.4227 77.8327C69.1758 77.7276 68.8936 77.6576 68.6467 77.6576C67.8001 77.6576 67.0593 78.1478 66.7418 78.9181L65.2602 82.4543C64.8369 83.5047 65.3308 84.6951 66.3538 85.1153C66.3538 85.1153 66.3538 85.1153 66.389 85.1153C66.636 85.2203 66.9182 85.2903 67.1651 85.2903C67.3415 85.2903 67.5531 85.2553 67.7295 85.2203C68.3292 85.0452 68.8231 84.6251 69.07 84.0299L70.5516 80.5286C70.9749 79.4783 70.481 78.2878 69.4227 77.8327ZM69.8461 80.2485L68.3645 83.7848C68.1528 84.275 67.659 84.5901 67.1651 84.5901C66.9887 84.5901 66.8123 84.5551 66.6712 84.485C66.001 84.2049 65.6835 83.4347 65.9657 82.7694L67.4473 79.2332C67.659 78.743 68.1528 78.4279 68.682 78.4279C68.8583 78.4279 69.0347 78.4629 69.1758 78.5329C69.8108 78.813 70.1283 79.5833 69.8461 80.2485ZM65.9305 118.972L64.3078 113.405C64.0608 112.53 63.2495 111.935 62.3323 111.935C62.156 111.935 61.9443 111.97 61.7679 112.005C61.2388 112.145 60.7802 112.495 60.5333 112.985C60.2864 113.475 60.2158 114.001 60.3569 114.526L61.9796 120.093C62.2265 120.968 63.0379 121.563 63.955 121.563C64.1314 121.563 64.343 121.528 64.5194 121.493C65.0486 121.353 65.5071 121.003 65.7541 120.513C66.001 120.023 66.0716 119.497 65.9305 118.972ZM63.955 120.863C63.3906 120.863 62.8615 120.478 62.6851 119.918L61.0624 114.351C60.8508 113.65 61.2741 112.95 61.9443 112.74C62.0501 112.705 62.1912 112.67 62.2971 112.67C62.8615 112.67 63.3906 113.055 63.567 113.615L65.1897 119.182C65.4013 119.883 64.978 120.618 64.3078 120.793C64.2019 120.828 64.0608 120.863 63.955 120.863ZM73.6911 114.176L70.2341 109.694C69.8461 109.169 69.2464 108.889 68.6114 108.889C68.1528 108.889 67.7295 109.029 67.3415 109.309C66.4243 110.009 66.2832 111.27 66.9534 112.18L70.4105 116.661C70.7985 117.187 71.3982 117.467 72.0331 117.467C72.4917 117.467 72.915 117.327 73.3031 117.047C73.7264 116.696 74.0086 116.241 74.0791 115.681C74.1497 115.156 74.0086 114.596 73.6911 114.176ZM72.8445 116.451C72.5976 116.626 72.3153 116.731 72.0331 116.731C71.6451 116.731 71.2571 116.556 70.9749 116.206L67.5179 111.725C67.0593 111.165 67.2004 110.324 67.7648 109.904C68.0117 109.729 68.2939 109.624 68.5761 109.624C68.9642 109.624 69.3522 109.799 69.6344 110.149L73.0914 114.631C73.5147 115.191 73.4089 116.031 72.8445 116.451ZM79.7938 108.714C79.7585 108.153 79.5116 107.663 79.1236 107.313L76.372 104.827C75.984 104.477 75.4902 104.302 74.9963 104.302C74.3966 104.302 73.8675 104.547 73.4794 104.967C73.1267 105.387 72.915 105.878 72.9503 106.438C72.9856 106.998 73.2325 107.488 73.6205 107.873L76.372 110.359C76.7601 110.709 77.2539 110.884 77.7478 110.884C78.3122 110.884 78.8766 110.639 79.2646 110.219C79.6174 109.764 79.8291 109.239 79.7938 108.714ZM77.7125 110.114C77.395 110.114 77.0776 110.009 76.8306 109.764L74.0791 107.278C73.55 106.788 73.5147 105.948 74.0086 105.422C74.2555 105.142 74.6083 105.002 74.9963 105.002C75.3138 105.002 75.6313 105.107 75.8782 105.352L78.6297 107.838C79.1588 108.329 79.1941 109.134 78.7002 109.694C78.4533 109.974 78.0653 110.114 77.7125 110.114ZM56.6882 113.44C56.3355 113.02 55.8416 112.775 55.2772 112.705C55.2067 112.705 55.1361 112.705 55.0656 112.705C54.0073 112.705 53.1254 113.51 53.0196 114.561L52.4904 119.953C52.4552 120.478 52.5963 121.038 52.949 121.458C53.3018 121.878 53.7956 122.123 54.36 122.193C54.4306 122.193 54.5011 122.193 54.5717 122.193C55.63 122.193 56.5119 121.388 56.6177 120.338L57.1115 114.946C57.2174 114.386 57.041 113.86 56.6882 113.44ZM54.5717 121.423C54.5364 121.423 54.5011 121.423 54.4306 121.423C53.7251 121.353 53.1959 120.723 53.2312 119.988L53.7251 114.631C53.7956 113.966 54.36 113.44 55.0303 113.44C55.0656 113.44 55.1008 113.44 55.1714 113.44C55.8769 113.51 56.4413 114.141 56.3708 114.876L55.8769 120.268C55.8416 120.933 55.2419 121.423 54.5717 121.423ZM49.5978 112.88C49.3862 112.39 48.9629 112.005 48.469 111.795C48.3985 111.76 48.3279 111.76 48.2574 111.725C47.9751 111.725 47.7282 111.69 47.446 111.655C46.7052 111.76 46.0703 112.25 45.7881 112.95L44.4476 116.381C44.2359 116.907 44.2712 117.432 44.4829 117.957C44.6945 118.482 45.1178 118.832 45.6117 119.042C45.8586 119.147 46.1055 119.182 46.3525 119.182C47.1991 119.182 47.9751 118.657 48.2926 117.887L49.6331 114.456C49.8095 113.93 49.8095 113.405 49.5978 112.88ZM46.3525 118.447C46.1761 118.447 46.035 118.412 45.8939 118.342C45.2236 118.097 44.8709 117.327 45.1531 116.661L46.4936 113.23C46.7052 112.705 47.1991 112.39 47.7282 112.39C47.9046 112.39 48.0457 112.425 48.2221 112.495C48.8923 112.74 49.2451 113.51 48.9629 114.176L47.6224 117.607C47.3755 118.132 46.8816 118.447 46.3525 118.447Z" fill="#C3C3D6"/>
<path d="M56.2294 98.595C58.6452 98.595 60.6036 96.6513 60.6036 94.2535C60.6036 91.8557 58.6452 89.912 56.2294 89.912C53.8136 89.912 51.8552 91.8557 51.8552 94.2535C51.8552 96.6513 53.8136 98.595 56.2294 98.595Z" fill="#F3F3F7"/>
<path d="M69.7753 90.7523C70.375 97.4046 66.0713 103.742 59.369 105.528C52.6666 107.313 45.7525 103.952 42.8952 97.8948C40.1084 99.9255 37.745 102.341 35.8401 105.142C42.9305 108.399 51.5378 109.799 59.8981 107.558C68.2937 105.317 74.9961 99.8555 79.5113 93.5182C76.4776 92.0477 73.197 91.1374 69.7753 90.7523Z" fill="#F3F3F7"/>
<path d="M52.9487 83.7848C52.8428 83.8198 52.7017 83.8198 52.5959 83.8198C51.9962 83.8198 51.4671 83.4347 51.326 82.8395L49.8444 77.2375C49.668 76.5372 50.0913 75.837 50.7616 75.6269C50.8674 75.5919 51.0085 75.5919 51.1143 75.5919C51.714 75.5919 52.2432 75.977 52.3843 76.5722L53.8658 82.1742C54.0422 82.9095 53.6542 83.6097 52.9487 83.7848ZM47.3398 84.6601L43.9887 80.1085C43.7417 79.7584 43.3184 79.5833 42.9304 79.5833C42.6482 79.5833 42.4013 79.6533 42.1543 79.8284C41.5546 80.2485 41.4488 81.0538 41.8721 81.649L45.2233 86.2006C45.4702 86.5508 45.8935 86.7258 46.2816 86.7258C46.5638 86.7258 46.8107 86.6558 47.0576 86.4807C47.622 86.0606 47.7631 85.2553 47.3398 84.6601ZM41.731 89.3518L37.886 86.3407C37.639 86.1656 37.3568 86.0606 37.0746 86.0606C36.6866 86.0606 36.2986 86.2357 36.0516 86.5508C35.593 87.111 35.6989 87.9513 36.2633 88.3714L40.1083 91.3825C40.3553 91.5575 40.6375 91.6626 40.9197 91.6626C41.3077 91.6626 41.6957 91.4875 41.9427 91.1724C42.4013 90.6122 42.2954 89.7719 41.731 89.3518ZM60.6388 75.2768C60.5682 75.2768 60.5329 75.2768 60.4624 75.2768C59.7921 75.2768 59.2277 75.7669 59.1572 76.4322L58.5222 81.7891C58.4517 82.4893 58.9455 83.1546 59.6863 83.2246C59.7216 83.2246 59.7922 83.2246 59.8274 83.2246C60.4977 83.2246 61.0621 82.7344 61.1326 82.0692L61.7676 76.7123C61.8734 76.012 61.3443 75.3818 60.6388 75.2768ZM69.1402 78.5329C68.9638 78.4629 68.7874 78.4279 68.6463 78.4279C68.1172 78.4279 67.6233 78.743 67.4117 79.2332L65.9301 82.7694C65.6479 83.4347 65.9654 84.2049 66.6356 84.485C66.812 84.5551 66.9884 84.5901 67.1295 84.5901C67.6586 84.5901 68.1172 84.275 68.3289 83.7848L69.8104 80.2485C70.1279 79.5833 69.8104 78.813 69.1402 78.5329ZM65.2246 119.182L63.6019 113.615C63.4255 113.055 62.8964 112.67 62.332 112.67C62.2262 112.67 62.0851 112.67 61.9792 112.74C61.2737 112.95 60.8857 113.65 61.0973 114.351L62.72 119.918C62.8964 120.478 63.4255 120.863 63.99 120.863C64.0958 120.863 64.2369 120.863 64.3427 120.828C65.0129 120.583 65.401 119.883 65.2246 119.182ZM73.0911 114.631L69.6341 110.149C69.3871 109.799 68.9991 109.624 68.5758 109.624C68.2936 109.624 68.0114 109.694 67.7645 109.904C67.2 110.324 67.0942 111.165 67.5175 111.725L70.9745 116.206C71.2215 116.556 71.6095 116.731 72.0328 116.731C72.315 116.731 72.5972 116.661 72.8441 116.451C73.4086 116.031 73.5144 115.191 73.0911 114.631ZM78.5941 107.838L75.8426 105.352C75.5956 105.107 75.2782 105.002 74.9607 105.002C74.6079 105.002 74.2552 105.142 73.973 105.422C73.4791 105.948 73.5144 106.788 74.0435 107.278L76.795 109.764C77.0419 109.974 77.3594 110.114 77.6769 110.114C78.0297 110.114 78.3824 109.974 78.6646 109.694C79.1938 109.134 79.1585 108.329 78.5941 107.838ZM55.2063 113.44C55.171 113.44 55.1358 113.44 55.0652 113.44C54.395 113.44 53.8306 113.93 53.76 114.631L53.2662 119.988C53.1956 120.688 53.7247 121.353 54.4655 121.423C54.5008 121.423 54.5361 121.423 54.6066 121.423C55.2769 121.423 55.8413 120.898 55.9118 120.233L56.4057 114.841C56.4762 114.141 55.9471 113.51 55.2063 113.44ZM48.1865 112.495C48.0454 112.425 47.869 112.39 47.6926 112.39C47.1635 112.39 46.6696 112.705 46.458 113.23L45.1175 116.661C44.8353 117.327 45.188 118.097 45.8583 118.342C46.0346 118.412 46.1757 118.447 46.3168 118.447C46.846 118.447 47.3398 118.132 47.5515 117.607L48.892 114.176C49.1742 113.51 48.8567 112.775 48.1865 112.495Z" fill="#F3F3F7"/>
</svg>
