<svg width="264" height="164" viewBox="0 0 264 164" fill="none" xmlns="http://www.w3.org/2000/svg">
<g clip-path="url(#clip0_20852_202395)">
<path d="M63.7213 57.3334C62.9203 63.5636 63.2871 70.097 64.011 75.2613C66.6959 94.1923 79.0072 118.056 98.5551 124.017C103.68 125.575 109.319 124.157 114.09 125.435C133.104 123.011 148.802 107.287 167.951 106.432C184.432 105.702 199.7 116.238 216.202 116.304C237.121 116.383 255.981 96.6138 254.928 75.7081C253.875 54.8023 233.126 37.0462 212.326 39.2555C197.493 40.8274 182.051 50.7513 168.825 43.8483C162.611 40.6013 158.712 34.3225 154.193 28.9715C149.666 23.618 143.254 18.6679 136.33 19.7812C124.87 21.622 120.946 38.011 109.759 41.1261C100.214 43.7927 90.6739 35.3679 80.8115 36.3773C69.5452 37.5282 65.0373 47.0324 63.7189 57.3425L63.7213 57.3334Z" fill="#F12AAE"/>
</g>
<path d="M24.7154 54.4702C26.6098 54.8979 27.9746 56.9145 27.6894 58.8089C27.4042 60.7237 25.4895 62.2311 23.5747 62.0885C21.6395 61.9255 19.9896 60.133 20.01 58.2182C20.0303 56.2831 21.7007 54.5109 23.6154 54.3887L24.7154 54.4702Z" fill="#0C0016"/>
<path d="M39.445 53.7973C41.7876 53.7158 44.0079 55.7528 44.1301 58.0953C44.2727 60.4582 42.2764 62.7193 39.9339 62.9026C37.5914 63.086 35.2896 61.1712 35.0451 58.8287C34.8007 56.4861 36.6543 54.1232 38.9969 53.8177H39.445V53.7973Z" fill="#0C0016"/>
<path d="M52.6639 55.3457C56.5545 52.3921 61.2804 57.179 58.6119 61.0289C57.2471 63.0048 54.0287 63.3307 52.2972 61.6808C50.5658 60.0104 50.7491 56.792 52.6639 55.3457Z" fill="#0C0016"/>
<path d="M172.646 127.965C172.809 132.691 172.768 138.007 169.407 141.328C166.677 144.037 162.542 144.587 158.733 144.974C117.973 149.109 76.8869 149.965 35.9841 147.52C28.3658 147.072 17.916 147.276 13.9643 145.605C7.6496 142.917 10.2366 127.11 10.3995 120.021C10.6643 109.021 10.9088 98.0417 11.1736 87.0623C11.3162 81.3995 12.1921 75.4311 12.2736 69.6257C64.9909 71.0719 117.769 70.6238 170.466 68.2812C171.2 88.1826 171.933 108.064 172.646 127.965Z" fill="#0C0016"/>
<path d="M23.6231 54.3901C21.7084 54.5123 20.038 56.2845 20.0177 58.2197C19.9973 60.1344 21.6473 61.927 23.5824 62.0899C25.4972 62.2325 27.412 60.7252 27.6971 58.8104C27.9823 56.916 26.6175 54.8994 24.7231 54.4716L23.6231 54.3901ZM44.1356 58.0974C44.0134 55.7549 41.7931 53.7179 39.4506 53.7994H39.0024C36.6599 54.1253 34.8062 56.4882 35.0507 58.8308C35.2951 61.1733 37.5969 63.0881 39.9394 62.9047C42.282 62.7214 44.2782 60.4603 44.1356 58.0974ZM15.7196 49.9698C18.0825 48.4828 21.0158 48.381 23.8065 48.3199C67.7851 47.3218 111.764 46.3033 155.742 45.3051C159.694 45.2237 164.114 45.3051 166.946 48.0551C169.675 50.7032 169.981 54.9197 170.124 58.7289C170.246 61.9066 170.348 65.1047 170.47 68.2824C117.773 70.6249 64.9944 71.0731 12.2771 69.6268C12.3382 67.3454 12.2364 65.1047 11.9308 62.9047C11.279 58.2808 11.2179 52.8216 15.7196 49.9698ZM58.6186 61.0307C61.2871 57.1808 56.5613 52.3939 52.6706 55.3475C50.7559 56.7938 50.5725 60.0122 52.304 61.6825C54.0354 63.3325 57.2539 63.0066 58.6186 61.0307Z" fill="#524A5A"/>
<path d="M12.2697 69.6268C12.3308 67.3454 12.2289 65.1047 11.9234 62.9047C11.2715 58.2808 11.2104 52.8216 15.7122 49.9698C18.0751 48.4828 21.0084 48.381 23.799 48.3199C67.7777 47.3218 111.756 46.3033 155.735 45.3051C159.687 45.2237 164.107 45.3051 166.938 48.0551C169.668 50.7032 169.973 54.9197 170.116 58.7289C170.238 61.9066 170.34 65.1047 170.462 68.2824C171.196 88.1838 171.929 108.065 172.642 127.966C172.805 132.692 172.764 138.009 169.403 141.329C166.674 144.038 162.538 144.588 158.729 144.975C117.969 149.11 76.883 149.966 35.9802 147.521C28.3619 147.073 17.9121 147.277 13.9604 145.607C7.6457 142.918 10.2327 127.111 10.3956 120.022C10.6604 109.022 10.9049 98.0428 11.1697 87.0634C11.3123 81.4006 12.1882 75.4322 12.2697 69.6268Z" stroke="#FFDBF0" stroke-width="5" stroke-linecap="round" stroke-linejoin="round"/>
<path d="M12.1504 69.6237H12.2726C64.9899 71.07 117.768 70.6218 170.465 68.2793H170.649" stroke="#FFDBF0" stroke-width="5" stroke-linecap="round" stroke-linejoin="round"/>
<path d="M23.6096 54.3887C21.6948 54.5109 20.0245 56.2831 20.0041 58.2182C19.9837 60.133 21.6337 61.9255 23.5688 62.0885C25.4836 62.2311 27.3984 60.7237 27.6835 58.8089C27.9687 56.9145 26.6039 54.8979 24.7095 54.4702L23.6096 54.3887Z" stroke="#FFDBF0" stroke-width="5" stroke-linecap="round" stroke-linejoin="round"/>
<path d="M39.445 53.7973C41.7876 53.7158 44.0079 55.7528 44.1301 58.0953C44.2727 60.4582 42.2764 62.7193 39.9339 62.9026C37.5914 63.086 35.2896 61.1712 35.0451 58.8287C34.8007 56.4861 36.6543 54.1232 38.9969 53.8177" stroke="#FFDBF0" stroke-width="5" stroke-linecap="round" stroke-linejoin="round"/>
<path d="M52.6639 55.3457C50.7491 56.792 50.5658 60.0104 52.2972 61.6808C54.0287 63.3307 57.2471 63.0048 58.6119 61.0289C61.2804 57.179 56.5545 52.3921 52.6639 55.3457Z" stroke="#FFDBF0" stroke-width="5" stroke-linecap="round" stroke-linejoin="round"/>
<path d="M3.3955 65.5516C2.84552 61.4573 2.86589 57.2611 3.47698 53.1667C3.78253 51.089 4.31215 48.8891 5.88063 47.5039" stroke="#FFDBF0" stroke-width="5" stroke-linecap="round" stroke-linejoin="round"/>
<path d="M170.139 39.559C171.076 37.6646 172.013 35.7702 172.95 33.8555" stroke="#FFDBF0" stroke-width="5" stroke-linecap="round" stroke-linejoin="round"/>
<path d="M175.805 44.672C180.755 40.7813 185.725 36.8907 190.675 33" stroke="#FFDBF0" stroke-width="5" stroke-linecap="round" stroke-linejoin="round"/>
<path d="M178.551 50.1506C179.956 49.2136 181.362 48.2562 182.767 47.2988" stroke="#FFDBF0" stroke-width="5" stroke-linecap="round" stroke-linejoin="round"/>
<path d="M157.766 93.4739C157.847 94.4109 155.525 94.7165 154.446 94.6757L107.411 95.1035C106.393 95.0831 105.313 95.0424 104.478 94.5331C103.134 93.7183 102.991 92.0684 102.971 90.6628C102.91 85.1222 102.828 79.602 102.767 74.0614C102.726 71.2096 102.339 64.9357 104.499 63.7542C106.474 62.695 110.711 63.5098 113.034 63.4283C115.783 63.3061 118.513 63.2042 121.263 63.1024L155.484 62.6339C156.483 62.5931 157.684 63.7542 157.766 64.6301V93.4739Z" fill="#00576A"/>
<path d="M102.967 90.6609C102.987 92.0664 103.13 93.7164 104.474 94.5312C105.309 95.0404 106.389 95.0812 107.408 95.1015L154.442 94.6738C155.521 94.7145 157.843 94.409 157.762 93.4719V64.6282C157.68 63.7522 156.479 62.5912 155.481 62.6319L121.259 63.1004C118.509 63.2023 115.78 63.3041 113.03 63.4263C110.707 63.5078 106.471 62.693 104.495 63.7522C102.335 64.9337 102.722 71.2076 102.763 74.0594C102.824 79.6 102.906 85.1203 102.967 90.6609Z" stroke="#FFDBF0" stroke-width="5" stroke-linecap="round" stroke-linejoin="round"/>
<path d="M147.584 82.9492H134.935C133.04 82.9492 131.492 84.5177 131.492 86.3917C131.492 88.2658 133.04 89.8342 134.935 89.8342H147.584C149.479 89.8342 151.027 88.2861 151.027 86.3917C151.027 84.4973 149.479 82.9492 147.584 82.9492Z" fill="#FFDBF0"/>
<path d="M125.377 82.9492H112.728C110.833 82.9492 109.285 84.5177 109.285 86.3917C109.285 88.2658 110.833 89.8342 112.728 89.8342H125.377C127.272 89.8342 128.82 88.2861 128.82 86.3917C128.82 84.4973 127.272 82.9492 125.377 82.9492Z" fill="#FFDBF0"/>
<path d="M112.496 71.398C118.954 71.398 125.193 69.9219 131.686 69.9219" stroke="#FFDBF0" stroke-width="5" stroke-linecap="round"/>
<path d="M113.971 77.3025C124.456 77.3025 134.943 75.8263 145.462 75.8263" stroke="#FFDBF0" stroke-width="5" stroke-linecap="round"/>
<path d="M164.384 123.147C164.302 123.966 164.384 124.813 164.575 125.741C164.439 124.867 164.384 124.021 164.384 123.147ZM144.937 138.824C144.828 129.592 144.719 120.361 144.582 111.129C144.555 109.108 144.555 107.005 145.374 105.147C146.194 103.29 148.078 101.761 150.099 102.034C151.765 102.252 153.076 103.645 153.677 105.229C154.306 106.813 154.306 108.534 154.333 110.228C154.36 113.887 154.415 117.547 154.442 121.207C154.278 122.764 154.333 124.321 154.497 125.932C154.497 124.348 154.497 122.764 154.442 121.207C154.579 119.924 154.852 118.667 155.343 117.411C155.944 115.854 156.928 114.215 158.539 113.724C160.205 113.232 162.035 114.188 163.046 115.608C164.029 117.028 164.302 118.831 164.384 120.552C164.384 121.399 164.384 122.245 164.384 123.119C164.466 122.436 164.657 121.781 165.012 121.071C165.804 119.487 167.552 118.285 169.273 118.558C170.803 118.804 172.004 120.088 172.605 121.535C173.124 122.819 173.233 124.266 173.261 125.687C173.37 123.283 176.566 121.453 178.996 121.89C181.564 122.354 183.448 124.731 184.159 127.243C184.869 129.756 184.596 132.433 184.35 135.028C184.049 137.786 183.776 140.572 183.503 143.358C183.121 147.209 182.656 151.252 180.499 154.474C177.931 158.298 173.315 160.347 168.754 160.838C164.165 161.357 159.55 160.538 155.043 159.691C150.782 158.926 146.33 158.052 143.08 155.185C140.949 153.327 139.557 150.787 138.437 148.192C135.733 142.02 134.312 135.273 134.285 128.555C134.285 126.888 134.367 125.14 135.132 123.666C135.897 122.191 137.481 121.016 139.147 121.235C141.387 121.535 142.534 124.048 143.162 126.206C144.309 130.275 144.828 134.591 144.937 138.824Z" fill="#0C0016"/>
<path d="M164.387 123.145C164.387 124.019 164.442 124.865 164.578 125.739C164.387 124.811 164.305 123.964 164.387 123.145Z" stroke="#FFDBF0" stroke-width="5" stroke-linecap="round" stroke-linejoin="round"/>
<path d="M154.435 121.205C154.462 122.762 154.462 124.346 154.49 125.93C154.326 124.319 154.271 122.762 154.435 121.205Z" stroke="#FFDBF0" stroke-width="5" stroke-linecap="round" stroke-linejoin="round"/>
<path d="M173.288 126.093C173.288 126.093 173.288 125.902 173.288 125.793V125.683C173.397 123.28 176.593 121.45 179.024 121.887C181.591 122.351 183.476 124.727 184.186 127.24C184.896 129.753 184.623 132.43 184.377 135.024C184.077 137.783 183.804 140.569 183.53 143.355C183.148 147.206 182.684 151.248 180.526 154.471C177.959 158.295 173.343 160.343 168.781 160.835C164.193 161.354 159.577 160.535 155.07 159.688C150.81 158.923 146.358 158.049 143.107 155.181C140.977 153.324 139.584 150.784 138.464 148.189C135.76 142.016 134.34 135.27 134.312 128.551C134.312 126.885 134.394 125.137 135.159 123.662C135.924 122.187 137.508 121.013 139.174 121.231C141.414 121.532 142.561 124.045 143.189 126.202C144.336 130.272 144.855 134.587 144.965 138.821C144.992 139.422 144.992 140.023 144.992 140.624" stroke="#FFDBF0" stroke-width="5" stroke-linecap="round" stroke-linejoin="round"/>
<path d="M164.381 123.118C164.463 122.435 164.654 121.779 165.009 121.069C165.801 119.485 167.549 118.283 169.27 118.557C170.799 118.802 172.001 120.086 172.602 121.534C173.121 122.817 173.23 124.265 173.258 125.685" stroke="#FFDBF0" stroke-width="5" stroke-linecap="round" stroke-linejoin="round"/>
<path d="M154.439 121.204C154.576 119.92 154.849 118.664 155.341 117.408C155.942 115.851 156.925 114.212 158.536 113.72C160.202 113.229 162.032 114.185 163.043 115.605C164.026 117.025 164.299 118.828 164.381 120.549C164.381 121.395 164.381 122.242 164.381 123.116" stroke="#FFDBF0" stroke-width="5" stroke-linecap="round" stroke-linejoin="round"/>
<path d="M144.929 138.822C144.82 129.59 144.711 120.359 144.574 111.127C144.547 109.106 144.547 107.003 145.366 105.145C146.186 103.288 148.07 101.759 150.091 102.032C151.757 102.25 153.069 103.643 153.669 105.227C154.298 106.811 154.298 108.532 154.325 110.226C154.352 113.886 154.407 117.545 154.434 121.205" stroke="#FFDBF0" stroke-width="5" stroke-linecap="round" stroke-linejoin="round"/>
<defs>
<clipPath id="clip0_20852_202395">
<rect width="191.493" height="113.611" fill="white" transform="translate(233.969 160.301) rotate(-165)"/>
</clipPath>
</defs>
</svg>
