<svg width="210" height="257" viewBox="0 0 210 257" fill="none" xmlns="http://www.w3.org/2000/svg">
<g clip-path="url(#clip0_4125_38593)">
<path d="M97.3568 45.9433C79.4475 33.6411 51.5332 40.0212 40.751 58.8946C35.0565 68.8633 34.8944 81.3633 40.5922 91.3163C43.3182 96.087 46.7373 100.519 48.5293 105.712C52.3953 116.863 43.611 124.138 39.9255 133.811C32.8227 152.487 52.0176 174.293 71.5575 168.829C80.527 166.324 87.5326 158.457 96.7455 157.109C112.459 154.811 124.325 171.852 139.845 175.152C148.568 177.004 158.174 173.998 164.286 167.496C170.389 160.996 172.782 151.244 170.372 142.67C167.9 133.902 160.837 126.328 161.1 117.219C161.467 104.85 174.589 97.3076 181.138 86.7895C188.505 74.9438 186.497 58.1304 176.548 48.365C166.598 38.5996 149.712 36.8722 137.969 44.4125C130.962 48.9177 124.945 56.5161 116.614 56.45C109.158 56.399 103.498 50.1617 97.3568 45.9433Z" fill="#10A98D"/>
</g>
<path d="M108.886 120.447C109.081 120.209 110.221 119.17 110.421 118.938C110.737 118.577 108.949 120.2 107.5 121.501C107.889 121.158 110.01 119.265 110.421 118.938C111.309 118.222 112.19 117.512 113.148 116.878C114.812 115.77 113.994 116.215 115.857 115.413C122.718 112.461 129.604 114.776 135.847 119.862C138.496 122.016 149.437 115.289 143.221 110.214C134.353 102.965 123.249 99.4196 112.43 103.393C107.406 105.241 102.706 108.765 99.1175 112.763C95.5292 116.762 104.982 124.495 108.886 120.447Z" fill="#0C0016"/>
<path d="M110.421 118.938C110.221 119.17 109.081 120.209 108.886 120.447C104.982 124.495 95.5292 116.762 99.1175 112.763C102.706 108.765 107.406 105.241 112.43 103.393C123.249 99.4196 134.353 102.965 143.221 110.214C149.437 115.289 138.496 122.016 135.847 119.862C129.604 114.776 122.718 112.461 115.857 115.413C113.994 116.215 114.812 115.77 113.148 116.878C112.19 117.512 111.309 118.222 110.421 118.938ZM110.421 118.938C110.737 118.577 108.949 120.2 107.5 121.501C107.889 121.158 110.01 119.265 110.421 118.938Z" stroke="#D4F6EC" stroke-width="7" stroke-miterlimit="10"/>
<path d="M119.384 47.5902C118.821 50.2776 110.428 76.3969 108.351 78.6906C106.273 80.9843 99.2709 77.1289 98.0767 75.0223C96.8825 72.9157 99.3068 63.8745 100.927 60.2191C102.546 56.5636 107.974 42.4317 110.35 41.8612C112.725 41.2906 119.947 44.9027 119.384 47.5902Z" fill="#0C0016" stroke="#D4F6EC" stroke-width="7" stroke-miterlimit="10"/>
<path d="M139.099 69.5767C134.687 67.5216 128.583 70.9956 128.532 75.6928C128.48 80.39 134.841 83.9129 139.047 81.4176C143.254 78.9222 142.484 71.7296 137.816 70.2128" fill="#0C0016"/>
<path d="M139.099 69.5767C134.687 67.5216 128.583 70.9956 128.532 75.6928C128.48 80.39 134.841 83.9129 139.047 81.4176C143.254 78.9222 142.484 71.7296 137.816 70.2128" stroke="#D4F6EC" stroke-width="7" stroke-linecap="round" stroke-linejoin="round"/>
<path d="M70.5708 50.4364C68.4871 49.9933 66.3872 49.9937 64.35 50.3312C60.2954 48.4219 55.458 48.1692 50.7314 49.3032C41.7079 51.4706 36.4093 57.7058 32.3305 65.58C30.318 69.4669 40.8201 75.3594 43.189 71.3785C44.0266 69.9675 44.7501 68.5592 45.6032 67.2832C44.4748 70.5397 43.9946 74.0045 44.4215 77.3932C45.3422 84.6401 50.827 91.0841 58.2647 92.0403C66.3394 93.0767 73.2686 86.7829 75.1199 79.2187C75.4553 77.8371 75.6563 76.3937 75.7288 74.9137C77.488 84.4483 73.0755 93.7224 70.5371 102.942C69.8519 105.416 79.8724 112.452 81.3956 108.741C86.8869 95.393 91.2497 80.1476 86.1007 66.1657C83.452 58.9602 78.478 52.125 70.5482 50.431L70.5708 50.4364ZM60.4707 79.836C55.8018 80.7033 56.502 73.1629 57.385 70.8858C58.1722 68.8603 59.6304 66.5474 61.4992 64.8395C61.8269 65.5917 62.1148 66.4359 62.3715 67.3859C63.1275 70.1194 65.2085 78.9553 60.4594 79.8333L60.4707 79.836Z" fill="#0C0016" stroke="#D4F6EC" stroke-width="7" stroke-linecap="round" stroke-linejoin="round"/>
<path d="M45.611 67.294C45.611 67.294 54.803 52.7109 61.5026 64.8433" stroke="#D4F6EC" stroke-width="7" stroke-miterlimit="10"/>
<path d="M64.3506 50.3349C64.3506 50.3349 75.5119 54.4636 75.752 74.9227" stroke="#D4F6EC" stroke-width="7" stroke-miterlimit="10"/>
<path d="M56.9305 125.841L35.73 227.135L103.179 144.369C103.179 144.369 76.1037 125.613 56.9305 125.841Z" fill="#0C0016" stroke="#D4F6EC" stroke-width="8" stroke-linecap="round" stroke-linejoin="round"/>
<path d="M103.182 144.369C103.182 144.369 58.318 138.965 48.8855 164.297" stroke="#D4F6EC" stroke-width="8" stroke-linecap="round" stroke-linejoin="round"/>
<path d="M56.9307 125.841C56.9307 125.841 61.0881 135.062 74.8956 145.359" stroke="#D4F6EC" stroke-width="8" stroke-linecap="round" stroke-linejoin="round"/>
<defs>
<clipPath id="clip0_4125_38593">
<rect width="149.294" height="160.353" fill="white" transform="translate(49.9229 197.178) rotate(-102.369)"/>
</clipPath>
</defs>
</svg>
