<svg width="24" height="24" viewBox="0 0 24 24" fill="none" xmlns="http://www.w3.org/2000/svg">
<path d="M2.53758 9.20475C2.53758 9.20475 2.57363 9.22814 2.59766 9.23983C8.54523 11.31 15.2498 9.41527 21.6299 9.42697C21.8582 8.01176 22.0024 6.36264 20.969 5.3451C20.0919 4.4913 18.7222 4.43282 17.4726 4.43282C14.0602 4.43282 10.6479 4.42112 7.23556 4.40942C6.19023 4.40942 5.12087 4.40942 4.1236 4.70182C3.12633 4.99422 2.83796 5.57901 2.42944 6.52638C1.88875 7.78954 2.42944 10.234 2.5496 11.6609C2.75386 14.117 2.95812 16.5849 3.16238 19.041C3.24648 20.0001 3.35462 21.0293 3.99143 21.7661C4.89258 22.7954 6.4786 22.8656 7.87237 22.8422C11.0084 22.8071 14.1564 22.772 17.2924 22.7369C18.578 22.7252 20.0198 22.6433 20.8969 21.7194C21.714 20.8539 21.738 19.5439 21.702 18.3626C21.6179 15.3568 21.702 12.4445 21.6299 9.43866" stroke="#F2F2F2" stroke-width="2" stroke-linecap="round" stroke-linejoin="round"/>
<path d="M7.32031 1.29834L7.90906 5.96501" stroke="#F2F2F2" stroke-width="2" stroke-linecap="round" stroke-linejoin="round"/>
<path d="M15.7192 1.16968L15.623 6.08196" stroke="#F2F2F2" stroke-width="2" stroke-linecap="round" stroke-linejoin="round"/>
</svg>
