<svg width="87" height="87" viewBox="0 0 87 87" fill="none" xmlns="http://www.w3.org/2000/svg">
<path d="M18.6796 13.3307C7.50977 22.3971 1.9158 37.8372 4.69919 51.9536C7.48257 66.07 18.5073 78.2371 32.2883 82.3895C46.0692 86.5419 61.9808 82.4893 72.0989 72.2533C82.217 62.0264 86.0793 46.0604 81.7727 32.3339C78.527 21.971 70.8749 13.1131 61.1739 8.22629C45.217 0.17532 24.1648 3.91975 11.9523 16.9663" fill="#FFCFBF"/>
<path d="M18.6796 13.3307C7.50977 22.3971 1.9158 37.8372 4.69919 51.9536C7.48257 66.07 18.5073 78.2371 32.2883 82.3895C46.0692 86.5419 61.9808 82.4893 72.0989 72.2533C82.217 62.0264 86.0793 46.0604 81.7727 32.3339C78.527 21.971 70.8749 13.1131 61.1739 8.22629C45.217 0.17532 24.1648 3.91975 11.9523 16.9663" stroke="#BF0000" stroke-width="6" stroke-linecap="round" stroke-linejoin="round"/>
<path d="M13.903 43.901C13.8124 56.5849 22.5796 68.8336 34.6107 72.841C46.6418 76.8483 61.003 72.306 68.5463 62.1063C76.0805 51.9066 76.2074 36.8382 68.8455 26.5207C56.5968 9.34889 30.3767 10.3009 18.9621 27.6902C15.8161 32.4864 13.9393 38.1438 13.903 43.901Z" fill="#FF9E81" stroke="#BF0000" stroke-width="6" stroke-linecap="round" stroke-linejoin="round"/>
<path d="M38.0635 44.4115C35.6156 42.3262 33.2765 40.114 31.0643 37.7839C30.1304 36.8048 29.1694 35.6987 29.0062 34.3568C28.7976 32.598 30.1123 30.8935 31.7805 30.3132C33.4487 29.733 35.3345 30.1138 36.8849 30.966C38.4352 31.8183 39.6955 33.0966 40.9013 34.3931C42.1071 35.6896 43.2676 37.0405 44.6911 38.0922C46.1689 37.4848 47.1662 36.5237 48.2451 35.3451C49.324 34.1665 50.3304 32.9062 51.5725 31.9089C52.8146 30.9116 54.3649 30.1863 55.9606 30.286C57.5563 30.3858 59.1339 31.5191 59.4058 33.0875C59.7141 34.8736 58.3813 36.4784 57.1483 37.8021C55.0358 40.0687 52.9234 42.3262 50.8018 44.5928C51.8354 46.3336 53.4855 47.3581 55.1446 48.5095C56.8038 49.6609 58.4992 50.9484 59.3515 52.7798C60.2037 54.6112 59.8773 57.1498 58.1275 58.1652C56.3686 59.1807 54.1564 58.2831 52.4156 57.2495C49.4781 55.4997 46.7763 53.351 44.41 50.8758C42.4245 53.0337 40.1216 55.0101 38.127 57.1679C37.5195 57.8207 36.894 58.5007 36.078 58.8633C34.3191 59.6612 32.0888 58.6911 31.1459 57.0138C30.2029 55.3365 30.3933 53.1787 31.2818 51.4652C32.7143 48.709 35.3255 45.8712 38.0635 44.4024V44.4115Z" fill="#BF0000"/>
</svg>
