<svg width="36" height="36" viewBox="0 0 36 36" fill="none" xmlns="http://www.w3.org/2000/svg">
<g clip-path="url(#clip0_20852_202623)">
<path d="M23.0177 6.94059C26.4777 7.48922 29.8161 9.95785 29.6226 13.9546" stroke="#F2F2F2" stroke-width="2.3" stroke-linecap="round" stroke-linejoin="round"/>
<path d="M33.1217 13.4904C33.1217 13.4904 33.4521 9.58202 30.9651 6.82539C28.4781 4.06876 23.1695 3.02482 23.1695 3.02482" stroke="#F2F2F2" stroke-width="2.3" stroke-linecap="round" stroke-linejoin="round"/>
<path d="M1.08365 20.7865C0.736727 18.8331 1.51112 16.8301 2.62624 15.1868C5.24679 11.3235 10.0294 8.91125 14.6572 9.50036C19.285 10.0895 23.4357 13.8784 24.0738 18.5106C24.7119 22.6778 22.6675 26.907 22.333 27.3659C21.8931 27.9674 19.7496 32.7981 11.572 32.6741C3.59269 32.5438 1.21375 25.0839 1.08365 20.7927V20.7865Z" fill="#0C0016" stroke="#F2F2F2" stroke-width="2.3" stroke-miterlimit="10"/>
<path d="M8.79297 22.2575L12.5968 25.1596L17.2493 16.8501" stroke="#F2F2F2" stroke-width="2.3" stroke-linecap="round" stroke-linejoin="round"/>
</g>
<defs>
<clipPath id="clip0_20852_202623">
<rect width="36" height="36" fill="white"/>
</clipPath>
</defs>
</svg>
