<svg width="16" height="16" viewBox="0 0 16 16" fill="none" xmlns="http://www.w3.org/2000/svg">
<g clip-path="url(#clip0_21983_21688)">
<path d="M14.3823 6.07795C14.5336 6.57447 14.6176 7.09127 14.666 7.60808C14.666 11.115 12.7815 14.0056 9.78971 14.5338C6.92992 15.04 4.01881 14.1083 2.40559 11.6212C2.32493 11.5038 2.2516 11.3791 2.18561 11.2544C1.23235 9.56694 1.11502 7.76948 1.65031 5.93533C1.81164 5.38509 1.95096 4.84218 2.24427 4.3433C2.44226 3.99848 2.6989 3.69034 2.97755 3.40422C4.30478 2.05429 6.22598 1.29128 8.12517 1.3353C8.76194 1.3515 9.39871 1.45908 10.0063 1.66683" stroke="#F2F2F2" stroke-width="2" stroke-miterlimit="10" stroke-linecap="round"/>
<path d="M5.33398 7.6665C5.55889 7.86308 5.89407 8.16877 6.11897 8.36535C6.78405 8.94738 7.33846 9.42069 8.00065 9.99984" stroke="#F2F2F2" stroke-width="2" stroke-linecap="round" stroke-linejoin="round"/>
<path d="M8.00126 9.99953C8.00126 9.99953 8.90812 8.94486 9.59067 7.86569C10.2732 6.78652 11.6746 5.28098 12.4739 4.03388C13.2732 2.78678 14.001 1.99984 14.001 1.99984" stroke="#F2F2F2" stroke-width="2" stroke-linecap="round" stroke-linejoin="round"/>
</g>
<defs>
<clipPath id="clip0_21983_21688">
<rect width="16" height="16" fill="white"/>
</clipPath>
</defs>
</svg>
