<svg width="24" height="24" viewBox="0 0 24 24" fill="currentColor" xmlns="http://www.w3.org/2000/svg">
<path d="M2.09766 14.0199C5.79766 10.2399 10.2077 6.1799 13.8977 2.3999C14.6977 3.2999 15.6477 4.0799 16.6877 4.6799C15.7177 5.3599 15.5177 6.8999 16.2677 7.8099C17.0177 8.7199 18.5677 8.7999 19.4177 7.9799C20.2977 8.5399 21.8577 10.1699 21.8577 10.2499C21.8577 10.3599 10.8777 21.7499 10.7777 21.7899C10.3877 21.5499 8.43766 20.4899 7.70766 19.5399C8.30766 18.9499 9.10766 17.3899 7.89766 16.2399C6.68766 15.0899 5.55766 15.7399 4.64766 16.4599C3.70766 15.7399 2.85766 14.9299 2.09766 14.0199Z" stroke="#F2F2F2" stroke-width="2" stroke-linecap="round" stroke-linejoin="round"/>
<path d="M12.8008 8.04004C12.8008 8.31618 12.5769 8.54004 12.3008 8.54004C12.0246 8.54004 11.8008 8.31618 11.8008 8.04004C11.8008 7.7639 12.0246 7.54004 12.3008 7.54004C12.5769 7.54004 12.8008 7.7639 12.8008 8.04004Z" fill="#F2F2F2" stroke="#F2F2F2"/>
<path d="M16.4727 11.72C16.4727 11.9961 16.2488 12.22 15.9727 12.22C15.6965 12.22 15.4727 11.9961 15.4727 11.72C15.4727 11.4438 15.6965 11.22 15.9727 11.22C16.2488 11.22 16.4727 11.4438 16.4727 11.72Z" fill="#F2F2F2" stroke="#F2F2F2"/>
<path d="M14.6289 9.88989C14.6289 10.166 14.405 10.3899 14.1289 10.3899C13.8528 10.3899 13.6289 10.166 13.6289 9.88989C13.6289 9.61375 13.8528 9.38989 14.1289 9.38989C14.405 9.38989 14.6289 9.61375 14.6289 9.88989Z" fill="#F2F2F2" stroke="#F2F2F2"/>
</svg>
