<svg width="24" height="24" viewBox="0 0 24 24" fill="none" xmlns="http://www.w3.org/2000/svg">
<path d="M18 18L23 23" stroke="#291F32" stroke-width="2" stroke-linecap="round" stroke-linejoin="round"/>
<path d="M23 18L18 23" stroke="#291F32" stroke-width="2" stroke-linecap="round" stroke-linejoin="round"/>
<path d="M3.28611 21.66C2.68611 20.16 3.21611 16.84 3.21611 16.84C3.73611 13.87 6.13611 11.31 9.07611 10.6C8.34611 10.28 7.85611 9.85 7.47611 9.22C7.14611 8.67 6.83611 8.09 6.73611 7.46C6.61611 6.7 6.68611 5.61 7.00611 4.91C7.86611 3.04 9.77611 2 11.8461 2C13.9161 2 16.1061 3.41 16.6861 5.39C17.2661 7.37 16.2461 9.73 14.3461 10.56C16.5761 10.6 18.5061 12.3 19.4361 14.32C20.3661 16.34 20.4761 18.64 20.4561 20.86C20.4561 21.14 20.4561 21.55 20.3461 21.8L3.28611 21.66Z" fill="#291F32"/>
<path d="M18 18L23 23" stroke="#F2F2F2" stroke-width="2" stroke-linecap="round" stroke-linejoin="round"/>
<path d="M23 18L18 23" stroke="#F2F2F2" stroke-width="2" stroke-linecap="round" stroke-linejoin="round"/>
<path d="M14.001 22C11.5113 21.86 3.43064 21.8104 3.43064 21.8104C2.83064 20.3104 3.36064 16.9904 3.36064 16.9904C3.88064 14.0204 6.28064 11.4604 9.22064 10.7504C8.49064 10.4304 8.00064 10.0004 7.62064 9.37039C7.29064 8.82039 6.98064 8.24039 6.88064 7.61039C6.76064 6.85039 6.83064 5.76039 7.15064 5.06039C8.01064 3.19039 9.92064 2.15039 11.9906 2.15039C14.0606 2.15039 16.2506 3.56039 16.8306 5.54039C17.4106 7.52039 16.3906 9.88039 14.4906 10.7104C15.4941 10.9736 18.001 12.5 19.001 14.5" stroke="#F2F2F2" stroke-width="2" stroke-linecap="round" stroke-linejoin="round"/>
</svg>
