<svg width="390" height="260" viewBox="0 0 390 260" fill="none" xmlns="http://www.w3.org/2000/svg">
<g clip-path="url(#clip0_32706_113172)">
<g clip-path="url(#clip1_32706_113172)">
<path d="M86.3985 140.224C88.5529 146.61 93.0887 152.062 100.136 155.522C109.324 160.031 119.748 160.227 127.706 167.211C134.795 173.429 138.037 182.606 140.751 191.368C144.304 202.826 151.837 214.976 160.701 223.019C177.383 238.166 205.725 242.076 222.038 226.485C232.281 216.703 236.742 200.874 249.371 194.477C258.733 189.744 270.004 191.614 280.2 189.133C296.102 185.29 308.334 169.629 308.219 153.254C308.114 136.885 295.679 121.406 279.717 117.787C268.969 115.355 257.007 117.702 247.348 112.408C227.805 101.684 233.321 70.89 219.53 53.3846C206.269 36.5539 175.045 40.6612 166.55 60.3467C163.472 67.4798 162.842 76.1009 157.206 81.4414C151.823 86.5291 143.713 86.9188 136.359 87.7804C117.66 89.961 95.0275 98.4115 87.5921 117.358C84.5175 125.18 84.0575 133.27 86.4185 140.235L86.3985 140.224Z" fill="#E9C30C"/>
</g>
<path d="M288.781 101.45C288.781 95.9343 284.221 91.4218 278.648 91.4218L248.248 92.4256L197.582 91.4218C192.008 91.4218 188 95.0472 188 100.562V118.562V138.562V158.062C188 163.578 192.008 170.641 197.582 170.641H276.114C281.688 170.641 288.781 164.624 288.781 159.109V101.45Z" fill="#0C0016" stroke="#FFF4D2" stroke-width="8" stroke-linecap="round" stroke-linejoin="round"/>
<path d="M284.56 95.6484L237.084 137.87L191.672 95.6484" fill="#0C0016"/>
<path d="M284.56 95.6484L237.084 137.87L191.672 95.6484" stroke="#FFF4D2" stroke-width="8" stroke-linecap="round" stroke-linejoin="round"/>
<path d="M297.374 65.6115C299.194 61.2303 301.725 55.7971 306.098 50.8337" stroke="#FFF4D2" stroke-width="8" stroke-linecap="round"/>
<path d="M311.617 80.4782C319.286 75.5417 331.54 67.0144 339 61.9237" stroke="#FFF4D2" stroke-width="8" stroke-linecap="round"/>
<path d="M319.559 97.6006L341.792 96.0192" stroke="#FFF4D2" stroke-width="8" stroke-linecap="round"/>
<path d="M92.0562 154.425L75.0951 150.806L55.7568 147.751C53.7127 147.375 52.9933 144.688 53.3786 142.626L55.6454 130.915L57.4272 118.285C57.9885 115.28 59.5056 114.822 61.8291 115.249L97.8872 121.878C102.458 122.719 102.146 124.387 101.763 126.436L96.4581 151.389C96.0752 153.439 94.1003 154.801 92.0562 154.425Z" fill="#0C0016" stroke="#FFF4D2" stroke-width="4" stroke-miterlimit="10"/>
<path d="M75.8575 132.173L74.0754 141.712L81.743 138.291L75.8575 132.173Z" fill="#FFF4D2" stroke="#FFF4D2" stroke-width="4" stroke-linecap="round" stroke-linejoin="round"/>
<path d="M57.4172 118.115L59.0688 109.274C59.2116 108.509 59.833 107.925 60.6021 107.816L97.8494 102.793C99.1424 102.622 100.327 103.525 100.492 104.82L101.072 109.17L95.1165 110.038L58.2178 115.376" fill="#0C0016"/>
<path d="M57.4172 118.115L59.0688 109.274C59.2116 108.509 59.833 107.925 60.6021 107.816L97.8494 102.793C99.1424 102.622 100.327 103.525 100.492 104.82L101.072 109.17L95.1165 110.038L58.2178 115.376" stroke="#FFF4D2" stroke-width="4" stroke-linecap="round" stroke-linejoin="round"/>
<path d="M65.1547 107.761L67.7942 112.877" stroke="#FFF4D2" stroke-width="4" stroke-linecap="round" stroke-linejoin="round"/>
<path d="M62.408 122.379L69.3463 116.641" stroke="#FFF4D2" stroke-width="4" stroke-linecap="round" stroke-linejoin="round"/>
<path d="M71.908 124.257L78.8486 118.506" stroke="#FFF4D2" stroke-width="4" stroke-linecap="round" stroke-linejoin="round"/>
<path d="M81.4867 126.031L88.4147 120.278" stroke="#FFF4D2" stroke-width="4" stroke-linecap="round" stroke-linejoin="round"/>
<path d="M90.0757 128.073L97.0141 122.335" stroke="#FFF4D2" stroke-width="4" stroke-linecap="round" stroke-linejoin="round"/>
<path d="M74.6694 106.772L77.3217 111.891" stroke="#FFF4D2" stroke-width="4" stroke-linecap="round" stroke-linejoin="round"/>
<path d="M83.9692 106.177L86.6215 111.296" stroke="#FFF4D2" stroke-width="4" stroke-linecap="round" stroke-linejoin="round"/>
<path d="M92.162 104.426L94.8142 109.545" stroke="#FFF4D2" stroke-width="4" stroke-linecap="round" stroke-linejoin="round"/>
<path d="M56.8239 121.334L100.903 130.647" stroke="#FFF4D2" stroke-width="4" stroke-miterlimit="10"/>
<path d="M156.983 173.33L166.573 178.414L171.53 193.144L179.174 212.772L156.202 219.957C152.751 230.086 144.949 223.959 144.949 223.959L134.191 228.409L123.753 233.823L108.87 199.092L112.639 191.028" fill="#0C0016"/>
<path d="M156.983 173.33L166.573 178.414L171.53 193.144L179.174 212.772L156.202 219.957C152.751 230.086 144.949 223.959 144.949 223.959L134.191 228.409L123.753 233.823L108.87 199.092L112.639 191.028" stroke="#FFF4D2" stroke-width="4" stroke-linecap="round" stroke-linejoin="round"/>
<path d="M136.646 185.545C136.646 185.545 135.478 175.819 157.016 173.398L170.247 206.676C170.247 206.676 151.557 208.314 149.876 220.451C149.876 220.451 140.607 212.173 126.723 224.81L119.692 207.082L112.671 191.069C112.671 191.069 127.225 176.224 136.623 185.531L136.646 185.545Z" fill="#0C0016" stroke="#FFF4D2" stroke-width="4" stroke-linecap="round" stroke-linejoin="round"/>
<path d="M136.364 184.12L149.719 220.26" stroke="#FFF4D2" stroke-width="4" stroke-linecap="round" stroke-linejoin="round"/>
<path d="M144.629 188.225C144.629 188.225 146.854 182.777 154.213 183.613" stroke="#FFF4D2" stroke-width="4" stroke-linecap="round" stroke-linejoin="round"/>
<path d="M186.069 46.584L164.106 43.0061L167.723 35.236L189.19 38.8736L186.069 46.584Z" fill="#0C0016"/>
<path d="M155.822 60.4086L167.014 35.6663L188.828 38.7955L177.64 66.7547" stroke="#FFF4D2" stroke-width="4" stroke-linecap="round" stroke-linejoin="round"/>
<path d="M152.975 61.4103L152.968 61.412L152.96 61.4137C152.798 61.4501 152.643 61.4854 152.494 61.5193C151.332 61.7843 150.561 61.96 149.716 61.8757C148.689 61.7632 147.639 61.1979 146.993 60.4291C146.25 59.5386 146.061 58.6372 146.18 57.7625C146.307 56.8357 146.801 55.8366 147.601 54.9314C147.802 54.7095 148.26 54.3825 148.877 54.1517C149.498 53.9192 150.008 53.8856 150.293 53.9459C152.894 54.5242 154.99 55.7636 156.073 57.6734C156.592 58.5948 156.484 59.7313 155.939 60.4062C155.74 60.6516 155.499 60.8094 155.06 60.9514C154.692 61.0702 154.356 61.1352 153.895 61.2241C153.637 61.2741 153.339 61.3315 152.975 61.4103Z" fill="#0C0016" stroke="#FFF4D2" stroke-width="4"/>
<path d="M171.672 71.6145C171.883 71.6495 172.095 71.6874 172.306 71.7253C173.682 71.9718 175.065 72.2195 176.503 71.6845C180.351 70.2579 181.543 66.4571 180.638 63.5271L171.672 71.6145ZM177.869 63.1617L177.883 63.1689L177.897 63.1759C178.256 63.3562 178.525 63.6542 178.663 63.9762L178.712 64.1326C179.362 66.2359 178.493 68.8419 175.821 69.8323L175.819 69.8332C174.941 70.1601 174.151 70.0239 172.737 69.78C172.52 69.7425 172.287 69.7024 172.038 69.6611L172.033 69.6604C170.753 69.4513 169.967 69.1701 169.418 68.6767C168.834 68.142 168.609 67.0157 169.363 65.8313L169.366 65.8265C170.324 64.313 170.649 63.8268 171.41 63.5408L171.41 63.5408L171.423 63.5359C172.649 63.0656 173.196 62.9612 174.521 62.8474C174.854 62.8211 175.616 62.8328 176.429 62.9142C176.824 62.9538 177.188 63.0056 177.48 63.0652C177.711 63.1124 177.829 63.151 177.865 63.1629C177.881 63.1682 177.882 63.1683 177.869 63.1617Z" fill="#0C0016" stroke="#FFF4D2" stroke-width="4"/>
<path d="M164.152 42.5729L185.303 45.7472" stroke="#FFF4D2" stroke-width="4" stroke-linecap="round" stroke-linejoin="round"/>
</g>
<defs>
<clipPath id="clip0_32706_113172">
<rect width="390" height="260" fill="white"/>
</clipPath>
<clipPath id="clip1_32706_113172">
<rect width="215.774" height="180.839" fill="white" transform="translate(248.961 272.215) rotate(-151.687)"/>
</clipPath>
</defs>
</svg>
