<svg width="36" height="36" viewBox="0 0 36 36" fill="none" xmlns="http://www.w3.org/2000/svg">
<path d="M12.8506 27.3335H7.67188V15.685L12.3535 15.1582L12.8506 27.3335Z" fill="#4C56D7" fill-opacity="0.5"/>
<path d="M7.67188 15.6855C8.09478 19.4546 8.1393 23.2459 7.80542 27.015" stroke="#F2F2F2" stroke-width="2.1" stroke-linecap="round" stroke-linejoin="round"/>
<path d="M11.4629 15.1582L11.96 27.3335" stroke="#F2F2F2" stroke-width="2.1" stroke-linecap="round" stroke-linejoin="round"/>
<path d="M20.3997 27.1186L16.831 27.549L16.0742 15.0547L19.9026 14.9434L20.3997 27.1186Z" fill="#4C56D7" fill-opacity="0.5"/>
<path d="M16.0742 15.0547L16.831 26.6601" stroke="#F2F2F2" stroke-width="2.1" stroke-linecap="round" stroke-linejoin="round"/>
<path d="M20.2129 15.0469C20.2722 19.2834 20.339 22.631 20.3984 26.8675" stroke="#F2F2F2" stroke-width="2.1" stroke-linecap="round" stroke-linejoin="round"/>
<path d="M28.9346 27.7043L24.8539 27.9194L24.7871 15.529L28.5933 15.21L28.9346 27.7043Z" fill="#4C56D7" fill-opacity="0.5"/>
<path d="M24.7871 14.6406L24.8539 27.0311" stroke="#F2F2F2" stroke-width="2.1" stroke-linecap="round" stroke-linejoin="round"/>
<path d="M28.5938 15.21L28.935 27.7043" stroke="#F2F2F2" stroke-width="2.1" stroke-linecap="round" stroke-linejoin="round"/>
<path d="M33.7409 27.334H2.60156V31.5037H33.7409V27.334Z" fill="#4C56D7" fill-opacity="0.5"/>
<path d="M34 15.003C23.3531 13.994 12.5949 14.2388 2 15.7227C7.28263 10.8556 12.8546 6.64132 19.5321 4C24.2434 7.4352 29.2887 11.5678 34 15.003Z" fill="#4C56D7" fill-opacity="0.5" stroke="#F2F2F2" stroke-width="2.1" stroke-linecap="round" stroke-linejoin="round"/>
<path d="M3.77734 27.1113C13.5528 27.411 23.3352 27.7006 33.1107 28.0002" stroke="#F2F2F2" stroke-width="2.1" stroke-linecap="round" stroke-linejoin="round"/>
<path d="M2.59375 31.5037C2.59375 31.5037 9.11111 31.0075 18.8889 31.5037C28.6667 31.9999 34 31.5037 34 31.5037" stroke="#F2F2F2" stroke-width="2.1" stroke-linecap="round" stroke-linejoin="round"/>
</svg>
