<svg width="36" height="36" viewBox="0 0 36 36" fill="none" xmlns="http://www.w3.org/2000/svg">
<path d="M17.948 27.5951C15.318 26.1151 12.718 24.0151 10.818 21.6651C9.60801 20.1651 8.55801 18.4651 8.17801 16.5751C7.78801 14.6851 8.07801 12.7151 8.66801 10.8751C8.84801 10.3251 9.04801 9.76512 9.40801 9.30512C9.92801 8.62512 10.748 8.19512 11.598 8.05512C12.448 7.91512 13.328 8.05512 14.138 8.32512C15.698 8.86512 17.068 9.96512 17.918 11.3851C19.218 10.2451 20.688 9.29512 22.268 8.58512C25.288 7.23512 27.858 10.3751 27.998 13.1451C28.128 15.7551 26.638 18.1251 25.208 20.3151C24.758 20.9951 24.308 21.6851 23.778 22.3151C23.058 23.1751 22.198 23.9151 21.348 24.6551L17.948 27.6051V27.5951Z" fill="#F12AAE" stroke="#FFDBF0" stroke-width="2" stroke-linecap="round" stroke-linejoin="round"/>
<path d="M12.7179 12.2949C12.2579 12.6349 12.0379 13.1349 11.8979 13.6749C11.7579 14.2449 11.7479 14.8449 11.8579 15.4149C12.0379 16.3449 12.5079 17.1949 13.0979 17.9249" stroke="#FFDBF0" stroke-width="2" stroke-miterlimit="10" stroke-linecap="round"/>
<g clip-path="url(#clip0_19883_250219)">
<path d="M17.9902 2.68L17.8802 1" stroke="#FFDBF0" stroke-width="2" stroke-miterlimit="10" stroke-linecap="round"/>
<path d="M13 4.42969L12 2.67969" stroke="#FFDBF0" stroke-width="2" stroke-miterlimit="10" stroke-linecap="round"/>
<path d="M22.7801 4.34977C22.9501 3.76977 23.2301 3.21977 23.6201 2.75977" stroke="#FFDBF0" stroke-width="2" stroke-miterlimit="10" stroke-linecap="round"/>
</g>
<defs>
<clipPath id="clip0_19883_250219">
<rect width="13.62" height="5.43" fill="white" transform="matrix(-1 0 0 1 24.6201 0)"/>
</clipPath>
</defs>
</svg>
