<svg width="87" height="87" viewBox="0 0 87 87" fill="none" xmlns="http://www.w3.org/2000/svg">
<path d="M48.3589 68.8315C46.8229 74.7364 44.9101 78.9104 41.2544 83.5537C32.8164 77.1118 25.8284 74.3826 17.3761 67.9324C19.0042 63.2915 21.6482 58.7451 25.0233 54.7533C26.6085 55.782 28.1998 56.8332 29.783 57.8986C35.7203 61.8184 41.7641 65.8186 48.1766 68.783L48.3589 68.8315Z" fill="#F2F2F2"/>
<path d="M60.7784 37.3527C56.4509 39.5839 51.892 40.5274 46.7514 41.4189C46.4299 41.4792 46.1083 41.5395 45.7622 41.6423C45.7213 41.5809 45.7028 41.5135 45.6619 41.452C43.3148 37.2402 41.9261 32.4277 41.4038 27.4722L42.4197 27.5668C45.6392 28.0823 48.8075 29.3819 51.5355 31.2785C54.5687 33.4081 57.223 36.3594 60.7784 37.3527Z" fill="#F2F2F2"/>
<path d="M45.7627 41.6435C50.1927 49.7633 50.7273 59.6637 48.3579 68.8333C46.8219 74.7383 44.9091 78.9123 41.2534 83.5556C32.7785 78.3032 25.8274 74.3845 17.3751 67.9343C19.0032 63.2934 21.6472 58.747 25.0223 54.7552C30.4516 48.298 37.7753 43.2941 45.7627 41.6435ZM45.7627 41.6435C45.7217 41.582 45.7033 41.5147 45.6623 41.4532C43.3152 37.2414 41.9266 32.4289 41.4043 27.4733C40.5563 19.2082 42.1291 10.5245 45.8237 3.46315C55.9472 8.87285 66.0707 14.2825 76.1861 19.7064C78.3632 20.8688 66.4007 33.6754 65.1412 34.632C63.7116 35.7175 62.2555 36.6173 60.7789 37.3539C56.4514 39.5851 51.8924 40.5286 46.7519 41.4201C46.4303 41.4804 46.1088 41.5407 45.7627 41.6435Z" stroke="#F2F2F2" stroke-width="6" stroke-linecap="round" stroke-linejoin="round"/>
<path d="M41.9548 50.3248C41.9547 50.3254 41.9543 50.3258 41.9542 50.3264C41.9541 50.3267 41.954 50.3269 41.9539 50.3271" stroke="#F2F2F2" stroke-width="5" stroke-linecap="round"/>
<path d="M35.9841 55.233C35.984 55.2336 35.9836 55.234 35.9835 55.2346C35.9834 55.2349 35.9833 55.2351 35.9832 55.2353" stroke="#F2F2F2" stroke-width="5" stroke-linecap="round"/>
<path d="M41.5824 59.9201C41.5765 60.0078 41.5282 60.0476 41.5211 60.1342C41.5178 60.1737 41.5093 60.2068 41.4969 60.2359" stroke="#F2F2F2" stroke-width="5" stroke-linecap="round"/>
</svg>
