<svg width="36" height="36" viewBox="0 0 36 36" fill="none" xmlns="http://www.w3.org/2000/svg">
<path d="M6.29867 28.7791C15.8396 27.5827 32.1433 26.0143 33.8601 24.3638C35.577 22.7133 34.1615 18.1045 33.7313 15.2489C33.5531 14.0662 33.3568 12.4691 33.1581 10.9424C32.7633 7.90847 30.6447 6.37382 27.601 6.68432C24.1865 7.03266 19.7647 7.53487 17.3011 7.96482C13.9786 8.54559 8.56336 9.17193 4.99433 9.70737C2.61879 10.0638 1.22353 11.7392 1.30692 14.1399C1.42344 17.4944 1.93385 22.2513 2.67851 26.2457C2.99288 27.932 4.59963 29.0152 6.29867 28.7791Z" fill="#0C0016" stroke="#F2F2F2" stroke-width="2.3" stroke-linejoin="round"/>
<path d="M5.76803 23.7574C5.40409 23.0945 5.54334 22.2455 5.45298 21.5248C5.5221 20.1166 6.4848 18.7896 7.80287 18.2905C7.44426 18.1832 7.19469 18.0125 6.98287 17.7462C6.79843 17.5117 6.62082 17.2617 6.53787 16.9734C6.43618 16.629 6.40712 16.1173 6.5135 15.776C6.80464 14.8553 7.62874 14.2659 8.58449 14.1431C9.54024 14.0203 10.6392 14.5501 11.0224 15.4361C11.4055 16.322 11.0702 17.4738 10.2399 17.9673C11.2731 17.8553 12.2678 18.5329 12.8172 19.4156C13.3667 20.2982 13.549 21.3558 13.6698 22.3889C13.6857 22.5157 13.7156 22.7081 13.6725 22.8306L5.76227 23.7581L5.76803 23.7574Z" stroke="#F2F2F2" stroke-width="2.3" stroke-linecap="round" stroke-linejoin="round"/>
<path d="M18.3047 21.25L24.5007 20.5785L28.2261 20.0088" fill="#0C0016"/>
<path d="M18.3047 21.25L24.5007 20.5785L28.2261 20.0088" stroke="#F2F2F2" stroke-width="2.3" stroke-linecap="round" stroke-linejoin="round"/>
<path d="M17.8828 17.5L24.0785 16.8256L27.8042 16.2588" fill="#0C0016"/>
<path d="M17.8828 17.5L24.0785 16.8256L27.8042 16.2588" stroke="#F2F2F2" stroke-width="2.3" stroke-linecap="round" stroke-linejoin="round"/>
<path d="M17.4766 13.7344L21.337 13.3089L23.6599 12.9619" fill="#0C0016"/>
<path d="M17.4766 13.7344L21.337 13.3089L23.6599 12.9619" stroke="#F2F2F2" stroke-width="2.3" stroke-linecap="round" stroke-linejoin="round"/>
</svg>
