<svg width="24" height="24" viewBox="0 0 24 24" fill="none" xmlns="http://www.w3.org/2000/svg">
<path d="M6.46621 18.5698C6.07013 17.5512 6.42 15.2968 6.42 15.2968C6.76327 13.2799 8.34758 11.5415 10.2884 11.0594C9.80647 10.8421 9.483 10.5501 9.23215 10.1223C9.01431 9.74882 8.80967 9.35497 8.74366 8.92716C8.66444 8.41107 8.71065 7.6709 8.92189 7.19555C9.4896 5.92571 10.7505 5.21948 12.1169 5.21948C13.4834 5.21948 14.9291 6.17696 15.3119 7.5215C15.6948 8.86604 15.0215 10.4686 13.7672 11.0323C15.2393 11.0594 16.5134 12.2138 17.1273 13.5855C17.7412 14.9572 17.8138 16.5191 17.8006 18.0266C17.8006 18.2167 17.8006 18.4951 17.728 18.6649L6.46621 18.5698Z" stroke="#F2F2F2" stroke-width="2" stroke-linecap="round" stroke-linejoin="round"/>
<path d="M1.46568 1.57098C2.13795 0.94673 3.30962 1.13881 4.13555 1.16762C7.09355 1.24445 10.0515 1.22524 13.0095 1.19643C15.7274 1.16762 18.5702 0.860295 21.2401 1.52296C21.5186 1.59019 21.8067 1.67662 22.0372 1.84949C23.4489 2.89632 22.9111 5.29729 22.8439 6.76668C22.719 9.53259 22.7671 15.074 22.7959 16.457C22.8151 17.4078 23.2377 21.8159 22.4693 22.5651C22.2677 22.7571 22.0084 22.8436 21.7298 22.8244C19.204 22.7091 16.6782 22.5843 14.162 22.5074C11.0311 22.4018 7.89067 22.5074 4.7502 22.5458C3.56893 22.5651 1.85944 22.834 1.40805 21.4318C1.24479 20.9228 1.2736 20.3754 1.29281 19.8472C1.55211 14.4306 1.40805 8.95636 1.0239 3.55898C0.97588 2.88671 0.956672 2.1184 1.40805 1.63821L1.46568 1.57098Z" stroke="#F2F2F2" stroke-width="2" stroke-miterlimit="10"/>
</svg>
