<svg width="25" height="25" viewBox="0 0 25 25" fill="none" xmlns="http://www.w3.org/2000/svg">
<path d="M1.46568 1.57098C2.13795 0.94673 3.30962 1.13881 4.13555 1.16762C7.09355 1.24445 10.0515 1.22524 13.0095 1.19643C15.7274 1.16762 18.5702 0.860295 21.2401 1.52296C21.5186 1.59019 21.8067 1.67662 22.0372 1.84949C23.4489 2.89632 22.9111 5.29729 22.8439 6.76668C22.719 9.53259 22.7671 15.074 22.7959 16.457C22.8151 17.4078 23.2377 21.8159 22.4693 22.5651C22.2677 22.7571 22.0084 22.8436 21.7298 22.8244C19.204 22.7091 16.6782 22.5843 14.162 22.5074C11.0311 22.4018 7.89067 22.5074 4.7502 22.5458C3.56893 22.5651 1.85944 22.834 1.40805 21.4318C1.24479 20.9228 1.2736 20.3754 1.29281 19.8472C1.55211 14.4306 1.40805 8.95636 1.0239 3.55898C0.97588 2.88671 0.956672 2.1184 1.40805 1.63821L1.46568 1.57098Z" stroke="#F2F2F2" stroke-width="2" stroke-miterlimit="10"/>
<path d="M10.0482 18.3222C4.67961 16.5935 3.9209 9.39064 8.35789 6.22136C8.81888 5.89483 9.30868 5.61631 9.82728 5.40503" stroke="#F2F2F2" stroke-width="2" stroke-miterlimit="10" stroke-linecap="round"/>
<path d="M14.0619 5.28101C16.434 5.79962 18.3836 7.91247 18.7581 10.3134C19.2575 13.598 17.0102 16.9209 14.0234 18.179" stroke="#F2F2F2" stroke-width="2" stroke-miterlimit="10" stroke-linecap="round"/>
</svg>
