<svg width="87" height="87" viewBox="0 0 87 87" fill="none" xmlns="http://www.w3.org/2000/svg">
<path d="M18.9276 13.3307C7.75782 22.3971 2.16385 37.8372 4.94723 51.9536C7.73062 66.07 18.7554 78.2371 32.5363 82.3895C46.3173 86.5419 62.2288 82.4893 72.3469 72.2533C82.465 62.0264 86.3273 46.0604 82.0208 32.3339C78.775 21.971 71.123 13.1131 61.4219 8.22629C45.465 0.17532 24.4128 3.91975 12.2004 16.9663" fill="#FFF4D2"/>
<path d="M18.9276 13.3307C7.75782 22.3971 2.16385 37.8372 4.94723 51.9536C7.73062 66.07 18.7554 78.2371 32.5363 82.3895C46.3173 86.5419 62.2288 82.4893 72.3469 72.2533C82.465 62.0264 86.3273 46.0604 82.0208 32.3339C78.775 21.971 71.123 13.1131 61.4219 8.22629C45.465 0.17532 24.4128 3.91975 12.2004 16.9663" stroke="#E9C30C" stroke-width="6" stroke-linecap="round" stroke-linejoin="round"/>
<path d="M14.1511 43.901C14.0604 56.5849 22.8276 68.8336 34.8588 72.841C46.8899 76.8483 61.2511 72.306 68.7943 62.1063C76.3285 51.9066 76.4555 36.8382 69.0935 26.5207C56.8448 9.34889 30.6248 10.3009 19.2101 27.6902C16.0641 32.4864 14.1874 38.1438 14.1511 43.901Z" fill="#0C0016" stroke="#E9C30C" stroke-width="6" stroke-linecap="round" stroke-linejoin="round"/>
<path d="M47.2581 52.36C47.2381 55.58 47.2981 58.0201 46.7981 59.23C46.2981 60.44 45.1281 61.49 43.8181 61.41C42.6381 61.34 41.6581 60.39 41.1981 59.3C40.7381 58.21 40.6981 56.99 40.6681 55.81C40.5581 51.78 40.4481 47.76 40.3481 43.73C40.3181 42.45 40.2881 41.14 40.6781 39.92C41.8581 36.22 46.1581 36.46 46.8881 40.09C47.8381 44.84 47.3081 47.51 47.2781 52.36H47.2581Z" fill="#FFF4D2"/>
<path d="M42.1381 32.39C43.5981 33.37 45.7381 33.28 46.9981 32.05C48.2581 30.82 48.3781 28.56 47.1381 27.31C43.3381 23.46 37.0881 28.97 42.1381 32.39Z" fill="#FFF4D2"/>
</svg>
