<svg width="24" height="24" viewBox="0 0 24 24" fill="none" xmlns="http://www.w3.org/2000/svg">
<path d="M21.9973 12.1887C21.9643 13.4866 21.6782 14.7845 21.1059 15.9724C20.3686 17.5013 19.2571 18.8432 17.9365 19.8992C17.2432 20.4491 16.4949 20.9441 15.6805 21.2851C14.7011 21.703 13.6446 21.901 12.5881 22C7.3278 22 2.99189 19.1732 2.19954 14.6855C1.4402 10.3959 2.83782 6.02919 6.56847 3.60937C6.74455 3.48838 6.93163 3.37838 7.11871 3.27939C9.64983 1.8495 12.346 1.67351 15.0972 2.47645C15.9226 2.71843 16.737 2.92742 17.4853 3.36738C18.0025 3.66436 18.4647 4.04933 18.8939 4.4673C20.9188 6.45815 22.0633 9.33994 21.9973 12.1887Z" stroke="#F2F2F2" stroke-width="2" stroke-miterlimit="10" stroke-linecap="round"/>
<path d="M12.9997 8.01887C12.9964 8.14866 12.9678 8.27845 12.9106 8.39724C12.8369 8.55013 12.7257 8.68432 12.5936 8.78992C12.5243 8.84491 12.4495 8.89441 12.368 8.92851C12.2701 8.9703 12.1645 8.9901 12.0588 9C11.5328 9 11.0992 8.71732 11.02 8.26855C10.944 7.83959 11.0838 7.40292 11.4568 7.16094C11.4745 7.14884 11.4932 7.13784 11.5119 7.12794C11.765 6.98495 12.0346 6.96735 12.3097 7.04764C12.3923 7.07184 12.4737 7.09274 12.5485 7.13674C12.6003 7.16644 12.6465 7.20493 12.6894 7.24673C12.8919 7.44582 13.0063 7.73399 12.9997 8.01887Z" fill="#F2F2F2"/>
<path d="M12 17L12 12" stroke="#F2F2F2" stroke-width="2" stroke-linecap="round" stroke-linejoin="round"/>
</svg>
