<svg width="24" height="24" viewBox="0 0 24 24" fill="none" xmlns="http://www.w3.org/2000/svg">
<path d="M10 4.5L20 4L19.4998 14" stroke="#F2F2F2" stroke-width="2" stroke-linecap="round" stroke-linejoin="round"/>
<path d="M10 14L14 9.5L20 4" stroke="#F2F2F2" stroke-width="2" stroke-linecap="round" stroke-linejoin="round"/>
<path d="M16.001 17.6396C16.001 18.3213 16.1295 19.7207 15.7095 20.2484C15.1496 20.9411 14.1589 20.9961 13.2866 21.0071C10.8207 21.0181 8.34391 21.029 5.87793 21.04C5.1349 21.04 4.30573 21.0181 3.75654 20.5013C3.1535 19.9296 3.11043 18.9951 3.09966 18.1485C3.09966 15.7297 3.08889 13.3109 3.07813 10.8921C3.07813 10.1225 3.07813 9.3199 3.45502 8.64923C3.76731 8.09951 5.12261 8.15064 6.50098 8.13965" stroke="#F2F2F2" stroke-width="2" stroke-linecap="round" stroke-linejoin="round"/>
</svg>
