<svg width="36" height="36" viewBox="0 0 36 36" fill="none" xmlns="http://www.w3.org/2000/svg">
<path d="M23.797 7.94059C27.257 8.48922 30.5954 10.9579 30.4019 14.9546" stroke="#F2F2F2" stroke-width="2.3" stroke-linecap="round" stroke-linejoin="round"/>
<path d="M33.902 14.4909C33.902 14.4909 34.2324 10.5825 31.7454 7.82588C29.2584 5.06925 23.9498 4.0253 23.9498 4.0253" stroke="#F2F2F2" stroke-width="2.3" stroke-linecap="round" stroke-linejoin="round"/>
<path d="M17.1479 31.1221C9.56197 25.1201 8.60331 21.1396 9.1139 17.8989C9.62449 14.6582 12.4171 11.0737 17.7522 11.0007C21.5973 10.9486 25.0672 13.7308 25.7758 17.1174C26.4427 20.3164 25.5882 23.0673 23.6188 25.3493C21.6494 27.6313 20.2948 28.8505 17.1583 31.1221" fill="#0C0016"/>
<path d="M17.1479 31.1221C9.56197 25.1201 8.60331 21.1396 9.1139 17.8989C9.62449 14.6582 12.4171 11.0737 17.7522 11.0007C21.5973 10.9486 25.0672 13.7308 25.7758 17.1174C26.4427 20.3164 25.5882 23.0673 23.6188 25.3493C21.6494 27.6313 20.2948 28.8505 17.1583 31.1221" stroke="#F2F2F2" stroke-width="2" stroke-linecap="round" stroke-linejoin="round"/>
<path d="M14.741 19.0659C14.8764 20.0245 15.5746 20.879 16.4811 21.202C17.2626 21.4833 18.1692 21.3687 18.8674 20.8998C19.6489 20.3788 20.1178 19.4306 20.0553 18.4927C19.9927 17.5549 19.3988 16.6796 18.5547 16.2628C16.6583 15.3354 14.4492 16.9922 14.741 19.0659Z" fill="#0C0016" stroke="#F2F2F2" stroke-width="2" stroke-linecap="round" stroke-linejoin="round"/>
</svg>
