<svg width="24" height="24" viewBox="0 0 24 24" fill="none" xmlns="http://www.w3.org/2000/svg">
<path d="M12.1479 22.1211C4.56197 16.1191 3.60331 12.1386 4.1139 8.89791C4.62449 5.65723 7.4171 2.07268 12.7522 1.99974C16.5973 1.94764 20.0672 4.72983 20.7758 8.11639C21.4427 11.3154 20.5882 14.0663 18.6188 16.3483C16.6494 18.6304 15.2948 19.8495 12.1583 22.1211" stroke="#F2F2F2" stroke-width="2" stroke-linecap="round" stroke-linejoin="round"/>
<path d="M9.74096 10.0654C9.87642 11.024 10.5746 11.8785 11.4811 12.2015C12.2626 12.4829 13.1692 12.3682 13.8674 11.8993C14.6489 11.3783 15.1178 10.4301 15.0553 9.49226C14.9927 8.55444 14.3988 7.67915 13.5547 7.26234C11.6583 6.33494 9.4492 7.99175 9.74096 10.0654Z" stroke="#F2F2F2" stroke-width="2" stroke-linecap="round" stroke-linejoin="round"/>
</svg>
