<svg width="24" height="24" viewBox="0 0 24 24" fill="none" xmlns="http://www.w3.org/2000/svg">
<path d="M6 20C6.73758 19.2054 8.71625 16.9935 9.45383 16.1988C9.81757 15.807 12 14 12 14" stroke="#F2F2F2" stroke-width="2" stroke-linecap="round" stroke-linejoin="round"/>
<path d="M10 22C11.2293 20.9405 14.5271 17.9913 15.7564 16.9318C16.3626 16.4093 20 14 20 14" stroke="#F2F2F2" stroke-width="2" stroke-linecap="round" stroke-linejoin="round"/>
<path d="M2 17C2.41305 16.5868 3.52111 15.4366 3.93416 15.0234C4.13786 14.8196 5.36003 13.88 5.36003 13.88" stroke="#F2F2F2" stroke-width="2" stroke-linecap="round" stroke-linejoin="round"/>
<path d="M6 9L9.07993 11.7291L12 14" stroke="#F2F2F2" stroke-width="2" stroke-linecap="round" stroke-linejoin="round"/>
<path d="M10 5L15.1332 9.91242L20 14" stroke="#F2F2F2" stroke-width="2" stroke-linecap="round" stroke-linejoin="round"/>
<path d="M2 11.0001L3.72477 12.5721L5.36003 13.8801" stroke="#F2F2F2" stroke-width="2" stroke-linecap="round" stroke-linejoin="round"/>
</svg>
