<svg width="24" height="24" viewBox="0 0 24 24" fill="none" xmlns="http://www.w3.org/2000/svg">
<path d="M9 18V5L21 3V16" stroke="#F2F2F2" stroke-width="2" stroke-linecap="round" stroke-linejoin="round"/>
<path d="M3.00081 18.9434C3.01072 18.554 3.09655 18.1646 3.26823 17.8083C3.48943 17.3496 3.82288 16.947 4.21905 16.6303C4.42704 16.4653 4.65154 16.3168 4.89585 16.2145C5.18968 16.0891 5.50662 16.0297 5.82356 16C7.40166 16 8.70243 16.848 8.94014 18.1943C9.16794 19.4812 8.74865 20.7912 7.62946 21.5172C7.57664 21.5535 7.52051 21.5865 7.46439 21.6162C6.70505 22.0452 5.89619 22.0979 5.07083 21.8571C4.82322 21.7845 4.57891 21.7218 4.35441 21.5898C4.19924 21.5007 4.06058 21.3852 3.93182 21.2598C3.32436 20.6626 2.981 19.798 3.00081 18.9434Z" stroke="#F2F2F2" stroke-width="2" stroke-miterlimit="10" stroke-linecap="round"/>
<path d="M15.0008 15.9434C15.0107 15.554 15.0966 15.1646 15.2682 14.8083C15.4894 14.3496 15.8229 13.947 16.2191 13.6303C16.427 13.4653 16.6515 13.3168 16.8959 13.2145C17.1897 13.0891 17.5066 13.0297 17.8236 13C19.4017 13 20.7024 13.848 20.9401 15.1943C21.1679 16.4812 20.7487 17.7912 19.6295 18.5172C19.5766 18.5535 19.5205 18.5865 19.4644 18.6162C18.7051 19.0452 17.8962 19.0979 17.0708 18.8571C16.8232 18.7845 16.5789 18.7218 16.3544 18.5898C16.1992 18.5007 16.0606 18.3852 15.9318 18.2598C15.3244 17.6626 14.981 16.798 15.0008 15.9434Z" stroke="#F2F2F2" stroke-width="2" stroke-miterlimit="10" stroke-linecap="round"/>
</svg>
