<svg width="87" height="87" viewBox="0 0 87 87" fill="none" xmlns="http://www.w3.org/2000/svg">
<path d="M3 51.6326C18.167 36.1376 36.2444 19.4949 51.3705 4C54.6498 7.68927 58.544 10.8866 62.8072 13.3462C58.831 16.1336 58.0111 22.4464 61.0855 26.1766C64.1599 29.9069 70.5137 30.2348 73.998 26.8735C77.6053 29.169 84 35.8507 84 36.1786C84 36.6296 38.9909 83.3193 38.581 83.4833C36.9823 82.4995 28.9889 78.1544 25.9965 74.2601C28.456 71.8416 31.7353 65.4469 26.7753 60.7328C21.8153 56.0187 17.1832 58.6832 13.4529 61.6346C9.5997 58.6832 6.11538 55.3629 3 51.6326Z" fill="#0C0016" stroke="#F2F2F2" stroke-width="6" stroke-linecap="round" stroke-linejoin="round"/>
<path d="M45.9972 27.0797C45.9972 27.6867 45.5051 28.1789 44.898 28.1789C44.291 28.1789 43.7988 27.6867 43.7988 27.0797C43.7988 26.4726 44.291 25.9805 44.898 25.9805C45.5051 25.9805 45.9972 26.4726 45.9972 27.0797Z" fill="#F2F2F2" stroke="#F2F2F2" stroke-width="6"/>
<path d="M61.0382 42.1715C61.0382 42.7785 60.5461 43.2706 59.939 43.2706C59.332 43.2706 58.8398 42.7785 58.8398 42.1715C58.8398 41.5644 59.332 41.0723 59.939 41.0723C60.5461 41.0723 61.0382 41.5644 61.0382 42.1715Z" fill="#F2F2F2" stroke="#F2F2F2" stroke-width="6"/>
<path d="M53.4855 34.6119C53.4855 35.219 52.9934 35.7111 52.3863 35.7111C51.7792 35.7111 51.2871 35.219 51.2871 34.6119C51.2871 34.0048 51.7792 33.5127 52.3863 33.5127C52.9934 33.5127 53.4855 34.0048 53.4855 34.6119Z" fill="#F2F2F2" stroke="#F2F2F2" stroke-width="6"/>
<path d="M42.8245 67.8153C42.3697 65.2548 43.3848 62.6292 44.8466 60.4751C48.2818 55.4108 54.5511 52.2487 60.6174 53.021C66.6837 53.7932 72.1248 58.7599 72.9612 64.8321C73.7977 70.2946 71.1178 75.8385 70.6792 76.44C70.1027 77.2285 67.2928 83.5608 56.5732 83.3982C46.1135 83.2275 42.995 73.4486 42.8245 67.8235V67.8153Z" fill="#00576A" stroke="#F2F2F2" stroke-width="6" stroke-miterlimit="10"/>
<path d="M52.9297 69.7397L57.9159 73.544L64.0147 62.6514" stroke="#F2F2F2" stroke-width="6" stroke-linecap="round" stroke-linejoin="round"/>
</svg>
