<svg width="53" height="64" viewBox="0 0 53 64" fill="none" xmlns="http://www.w3.org/2000/svg">
<path d="M44.5645 36.4063C42.8382 30.064 39.8356 24.1521 35.6795 20.2217C30.6532 15.465 25.9305 15.6039 20.3043 16.9049C16.7692 17.7221 12.3947 12.0407 9.06548 10.3195C-5.81207 2.61358 -22.1729 19.4026 -20.0011 33.5002C-18.3792 44.0296 -11.789 58.0838 -4.01151 57.1478C0.789575 56.5729 5.1659 51.7341 9.9224 53.3657C14.2891 54.8584 16.835 61.0713 20.403 64.9298C26.292 71.3066 35.3308 70.4669 40.562 63.8435C45.7932 57.2201 47.1495 45.9101 44.5609 36.4066L44.5645 36.4063Z" fill="#0059F5"/>
<path d="M11.2904 45.3221C18.3172 49.1503 30.9621 46.3163 30.0436 37.1554C29.5301 32.0037 26.3164 28.5502 21.4589 27.3505C17.9514 26.491 12.0645 24.6658 9.01843 27.3506C5.97238 30.0355 5.79915 38.0977 7.59055 41.6387C8.38986 43.1866 9.6995 44.4254 11.2744 45.285L11.2904 45.3221Z" fill="white" stroke="#0C0016" stroke-width="2" stroke-miterlimit="10"/>
<path d="M14.8689 39.5402L13.4286 17.71L35.2589 16.2697L36.6991 38.0999L14.8689 39.5402Z" fill="white" stroke="#0C0016" stroke-width="2" stroke-linecap="round" stroke-linejoin="round"/>
<path d="M23.3067 14.4735C21.8736 15.7586 21.3224 19.0794 23.3159 19.8094C24.4367 20.2206 25.4472 19.8094 26.1362 18.771C26.6323 18.0205 27.2294 16.8382 26.9446 15.8306C26.6599 14.8231 25.3094 13.9081 24.4091 13.9697C24.0141 14.0006 23.6375 14.1856 23.3159 14.4735H23.3067Z" fill="white" stroke="#0C0016" stroke-width="2" stroke-miterlimit="10"/>
<path d="M50.3143 33.1504L47.7917 39.6801L38.6266 35.351L27.2699 31.752L29.7925 25.2223L40.2608 29.4919L50.3143 33.1504Z" fill="white" stroke="#0C0016" stroke-width="2" stroke-linecap="round" stroke-linejoin="round"/>
<path d="M20.6021 25.4246L27.2697 31.7526L29.7923 25.2229L20.6021 25.4246Z" fill="white" stroke="black" stroke-width="2" stroke-linecap="round" stroke-linejoin="round"/>
</svg>