<svg width="100" height="84" viewBox="0 0 100 84" fill="none" xmlns="http://www.w3.org/2000/svg">
<g clip-path="url(#clip0_21982_23806)">
<path d="M70.1622 -26.9928C58.236 -24.2187 49.1799 -7.26661 51.5398 5.38389C52.7345 11.7825 56.3289 17.6447 56.5129 24.2414C56.8252 35.2073 48.7208 44.5535 55.4291 55.1622C59.4449 61.5119 67.3591 65.197 74.7617 63.8292C82.6468 62.3725 87.0338 56.0044 90.1455 49.1372C93.5156 41.6998 96.3312 37.0481 104.861 35.8085C110.501 34.9911 117.274 35.1528 119.477 28.5555C122.675 18.9539 110.733 14.0397 104.04 10.9405C98.4809 8.36723 92.7135 3.06946 91.5632 -3.29031C90.2517 -10.545 91.7968 -16.3642 85.5703 -22.0938C80.3421 -26.9017 75.0198 -28.1184 70.1668 -26.991L70.1622 -26.9928Z" fill="#F12AAE"/>
</g>
<path d="M74.2709 38.078L63.5897 39.6183L48.4539 41.4989L45.6689 25.431C50.1721 25.3206 64.4825 23.4563 71.0748 22.538C71.1728 22.9745 71.6058 23.8228 72.554 23.7243C73.5021 23.6258 73.5432 22.7282 73.4452 22.2918L79.1519 21.5065C79.668 26.289 82.1393 33.7359 83.3104 36.8615L76.5308 37.7739C76.5452 37.3411 76.3256 36.4996 75.3325 36.5966C74.3394 36.6936 74.211 37.6246 74.2709 38.078Z" fill="#F2F2F2" stroke="#291F32" stroke-width="2" stroke-linejoin="round"/>
<path d="M72.1319 26.973C72.1519 26.8447 72.1969 26.7197 72.269 26.6092C72.3617 26.4671 72.4892 26.3483 72.6338 26.2606C72.7096 26.215 72.7902 26.1755 72.8753 26.1522C72.9778 26.1233 73.0851 26.1173 73.1912 26.1211C73.7128 26.1887 74.1065 26.5248 74.1273 26.98C74.1475 27.4152 73.9527 27.8303 73.5516 28.0223C73.5326 28.032 73.5126 28.0405 73.4928 28.0479C73.2234 28.1572 72.9538 28.1399 72.6912 28.0249C72.6125 27.9903 72.5344 27.9591 72.4659 27.9059C72.4184 27.8698 72.3775 27.8256 72.3403 27.7787C72.1651 27.5552 72.0887 27.2547 72.1319 26.973Z" fill="#291F32"/>
<path d="M72.7374 30.0765C72.7573 29.9482 72.8024 29.8232 72.8744 29.7128C72.9672 29.5706 73.0947 29.4518 73.2392 29.3641C73.3151 29.3185 73.3956 29.279 73.4808 29.2557C73.5833 29.2268 73.6906 29.2208 73.7967 29.2246C74.3183 29.2922 74.7119 29.6283 74.7328 30.0836C74.7529 30.5187 74.5582 30.9338 74.1571 31.1258C74.1381 31.1355 74.1181 31.144 74.0983 31.1514C73.8289 31.2607 73.5592 31.2435 73.2967 31.1284C73.218 31.0938 73.1399 31.0626 73.0713 31.0094C73.0239 30.9733 72.983 30.9291 72.9458 30.8822C72.7706 30.6587 72.6942 30.3582 72.7374 30.0765Z" fill="#291F32"/>
<path d="M73.3428 33.18C73.3628 33.0518 73.4079 32.9267 73.4799 32.8163C73.5727 32.6741 73.7002 32.5554 73.8447 32.4676C73.9205 32.422 74.0011 32.3826 74.0863 32.3592C74.1888 32.3304 74.2961 32.3243 74.4021 32.3281C74.9238 32.3957 75.3174 32.7318 75.3383 33.1871C75.3584 33.6222 75.1636 34.0373 74.7625 34.2293C74.7435 34.239 74.7236 34.2475 74.7037 34.2549C74.4343 34.3642 74.1647 34.347 73.9022 34.232C73.8234 34.1973 73.7454 34.1661 73.6768 34.1129C73.6293 34.0768 73.5885 34.0327 73.5513 33.9857C73.3761 33.7622 73.2996 33.4617 73.3428 33.18Z" fill="#291F32"/>
<defs>
<clipPath id="clip0_21982_23806">
<rect width="88.2513" height="75.5826" fill="white" transform="translate(30.3516 49.4668) rotate(-68.84)"/>
</clipPath>
</defs>
</svg>
