<svg width="53" height="64" viewBox="0 0 53 64" fill="none" xmlns="http://www.w3.org/2000/svg">
<path d="M-9.84709 26.428C-4.74734 29.0893 1.4192 31.0361 4.35148 35.2985C7.35789 39.6609 6.25305 45.5052 9.05866 49.9589C11.5902 53.9743 17.3789 56.3629 23.3538 55.8493C36.3549 54.737 47.6931 43.2081 47.5784 33.3324C47.5041 27.0023 45.0604 20.9098 46.2065 14.5323C46.7278 11.625 47.9941 8.72585 48.0244 5.83792C48.0547 2.94998 46.4327 -0.093817 42.9998 -0.802263C39.9005 -1.43824 36.4365 -0.0170701 33.1384 0.0299774C27.5325 0.10709 23.7778 -3.61671 19.6647 -6.25956C15.5517 -8.9024 8.3149 -10.1843 4.78466 -6.41101C3.24333 -4.76652 1.55339 -4.33843 0.499998 -2.5C-3.2228 4.02171 -14.3108 7.44352 -17.3003 14.134C-19.5269 19.1154 -14.9509 23.7712 -9.85176 26.4288L-9.84709 26.428Z" fill="#F12AAE"/>
<path d="M40 23.1623L22 26.6484L22.3629 19.9529L40 16.6484V23.1623Z" fill="#F2F2F2"/>
<path d="M20.8516 42.1484L21.7603 20.6169L39.7403 16.7969L39.85 40.7169" stroke="#291F32" stroke-width="2" stroke-linecap="round" stroke-linejoin="round"/>
<path d="M18.547 44.5421L18.547 44.5421L18.5406 44.5461C18.4278 44.6176 18.3185 44.6875 18.2121 44.7556C17.412 45.2674 16.7721 45.6768 15.972 45.8811C14.9613 46.1308 13.7835 45.9818 12.8898 45.5152C11.8678 44.9775 11.3405 44.2273 11.1229 43.4147C10.898 42.5749 10.9867 41.5936 11.3502 40.627C11.4751 40.3044 11.7937 39.8588 12.2583 39.4652C12.7219 39.0724 13.224 38.8219 13.6449 38.7612C15.96 38.443 18.1927 38.7751 19.8243 40.0323C20.695 40.7065 21.054 41.796 20.7745 42.6623C20.6554 43.0281 20.4335 43.3017 20.0675 43.5841C19.79 43.798 19.5005 43.9698 19.146 44.1801C18.9655 44.2872 18.7682 44.4043 18.547 44.5421Z" fill="#F2F2F2" stroke="#291F32" stroke-width="2"/>
<path d="M37.4863 37.6434L37.4936 37.6443L37.501 37.645C38.016 37.6952 38.4755 37.9202 38.7906 38.2329L38.8954 38.3565C40.2172 39.915 40.4128 42.4083 38.374 44.1247L38.3731 44.1255C37.648 44.7375 36.7903 44.8933 35.6322 45.1036C35.4524 45.1363 35.2654 45.1703 35.0706 45.2074L35.0686 45.2078C33.9756 45.4187 33.1094 45.4642 32.3332 45.1812C31.3342 44.8103 30.7562 43.7184 30.9995 42.4712L31.0001 42.4683C31.0054 42.4406 31.0107 42.4133 31.0158 42.3863C31.2608 41.1093 31.385 40.4618 32.0557 39.8917L32.0557 39.8917L32.0608 39.8873C32.9163 39.1501 33.363 38.8875 34.4031 38.4095C34.7048 38.2731 35.3438 38.0557 36.0221 37.8823C36.3557 37.797 36.6784 37.7276 36.9543 37.6851C37.2496 37.6396 37.4218 37.6362 37.4863 37.6434Z" fill="#F2F2F2" stroke="#291F32" stroke-width="2"/>
<path d="M21.9508 26.4204L39.0524 22.88" stroke="#291F32" stroke-width="2" stroke-linecap="round" stroke-linejoin="round"/>
</svg>
