<svg width="53" height="64" viewBox="0 0 53 64" fill="none" xmlns="http://www.w3.org/2000/svg">
<path d="M39.8203 55.0766C40.8654 51.4575 41.0416 47.3556 41.3259 43.0302C41.7303 36.8653 44.0448 30.7244 47.3563 25.5331C48.9259 23.0752 50.7759 20.7529 51.821 18.0316C53.3546 14.0493 52.3335 8.63462 48.3173 6.49587C41.2819 2.74508 28.9529 5.32674 22.5141 8.32738C7.86663 15.1546 -9.804 28.4101 -5.96796 47.7307C-4.43834 55.4278 -4.13152 63.6722 3 67C9.96735 70.252 24.0517 68.8189 31.0431 65.3993C36.1965 62.8775 38.603 59.3062 39.8243 55.0766H39.8203Z" fill="#F5D640"/>
<path d="M31.7995 28.1719L8 45.5032L16 44.8537H23.2691L28.0322 52.9943L33.813 29.4114" fill="#F2F2F2"/>
<path d="M31.7995 28.1719L8 45.5032L16 44.8537H23.2691L28.0322 52.9943L33.813 29.4114" stroke="#291F32" stroke-width="2" stroke-linecap="round" stroke-linejoin="round"/>
<path d="M41.5273 13.6089L44.4069 15.7469L48.2066 11L41.5273 13.6089Z" fill="#291F32" stroke="#291F32" stroke-width="2" stroke-linecap="round" stroke-linejoin="round"/>
<path d="M43.9455 15.3723L42.0312 13.9922L27.8692 33.6356L29.7835 35.0157L43.9455 15.3723Z" fill="#291F32" stroke="#291F32" stroke-linecap="round" stroke-linejoin="round"/>
<path d="M25.5195 37.5078L27.7441 39.3048" stroke="#291F32" stroke-width="2" stroke-linecap="round" stroke-linejoin="round"/>
<path d="M23.3672 40.5234L25.5214 42.315" stroke="#291F32" stroke-width="2" stroke-linecap="round" stroke-linejoin="round"/>
<path d="M29.0039 22.8711V19.2188" stroke="#291F32" stroke-width="2" stroke-miterlimit="10" stroke-linecap="round"/>
<path d="M24.4375 16.4844L25.3506 23.7891" stroke="#291F32" stroke-width="2" stroke-miterlimit="10" stroke-linecap="round"/>
<path d="M19.8711 21.0469L21.6973 25.6123" stroke="#291F32" stroke-width="2" stroke-miterlimit="10" stroke-linecap="round"/>
<path d="M15.3047 23.7812L18.9571 26.5205" stroke="#291F32" stroke-width="2" stroke-miterlimit="10" stroke-linecap="round"/>
<path d="M10.7422 27.4375L17.1338 29.2637" stroke="#291F32" stroke-width="2" stroke-miterlimit="10" stroke-linecap="round"/>
</svg>
