<svg width="100" height="84" viewBox="0 0 100 84" fill="none" xmlns="http://www.w3.org/2000/svg">
<g clip-path="url(#clip0_21982_5349)">
<path d="M90.1068 -30.5713C84.671 -30.2475 79.1571 -28.8021 74.5423 -26.9839C58.3947 -20.6309 46.1899 -6.88684 46.8788 11.2349C47.6316 30.8864 60.5049 51.0056 79.0883 58.5518C89.0975 62.618 100.737 63.3764 110.597 59.0798C120.457 54.7832 128.047 44.9566 128.152 34.24C128.258 23.5233 119.848 12.8731 109.11 11.7702C106.309 11.4849 103.081 11.6413 101.167 9.58124C94.6765 2.5911 109.762 -3.18189 112.027 -7.69335C113.877 -11.3746 113.915 -15.9119 112.139 -19.6525C107.886 -28.5821 99.1007 -31.097 90.1156 -30.5617L90.1068 -30.5713Z" fill="#E9C30C"/>
</g>
<path d="M54.5687 19.5683C54.5687 19.5683 54.3553 25.5812 52.5086 28.7648C49.6157 33.752 47.1632 36.7664 39.9609 36.5439V19.5683L54.3243 19.2881L64.4933 19.5683H73.3107V36.5522C59.5489 36.9642 57.4529 19.3743 57.4529 19.3743" fill="#F2F2F2"/>
<path d="M54.5687 19.5683C54.5687 19.5683 54.3553 25.5812 52.5086 28.7648C49.6157 33.752 47.1632 36.7664 39.9609 36.5439V19.5683L54.3243 19.2881L64.4933 19.5683H73.3107V36.5522C59.5489 36.9642 57.4529 19.3743 57.4529 19.3743" stroke="#291F32" stroke-width="2" stroke-linecap="round" stroke-linejoin="round"/>
<path d="M44.503 40.0675C44.503 40.0675 46.6291 43.166 46.1429 48.9592L39.0312 49.4289L39.9624 39.705L44.503 40.0675Z" fill="#F2F2F2" stroke="#291F32" stroke-width="2" stroke-linecap="round" stroke-linejoin="round"/>
<path d="M43.8672 39.9992C44.4605 39.9251 45.0703 39.3729 45.2516 38.9115C45.6389 37.9308 45.5235 36.7936 44.411 36.1838C43.6243 35.7514 42.6276 35.8486 41.695 35.9395C41.3479 35.9733 41.0097 36.0063 40.6945 36.0108L43.8672 39.9992ZM40.4348 39.4724L40.4333 39.4722C39.9855 39.4027 39.6805 39.3386 39.4706 39.1971L39.3921 39.1285C39.3195 39.0649 39.2467 38.9701 39.1918 38.8439L39.1918 38.8439L39.1912 38.8426C38.9819 38.365 38.9767 37.7435 39.0257 37.1053C39.0404 36.9287 39.1031 36.8293 39.1844 36.7585C39.2782 36.6767 39.4323 36.6042 39.6639 36.5603C39.9504 36.5097 40.2447 36.5101 40.5865 36.5106C40.622 36.5107 40.658 36.5108 40.6945 36.5108V36.5108L40.7016 36.5107C41.0156 36.5063 41.3452 36.4758 41.6619 36.4451C41.6885 36.4425 41.7151 36.4399 41.7416 36.4373C42.0368 36.4086 42.3229 36.3807 42.6059 36.3681C43.2291 36.3404 43.7537 36.3931 44.1702 36.622L44.1707 36.6223C44.607 36.8614 44.8232 37.1842 44.9084 37.5286C44.9972 37.8876 44.9519 38.3092 44.7865 38.7278L44.7862 38.7286C44.7347 38.8596 44.5992 39.0476 44.3963 39.2144C44.1947 39.3802 43.9802 39.4811 43.8057 39.503C42.698 39.6384 41.5262 39.6451 40.4348 39.4724Z" fill="#291F32" stroke="#291F32"/>
<path d="M50.4481 19.6756C50.4481 19.6756 48.9088 29.6146 44.0364 32.154" stroke="#291F32" stroke-width="2" stroke-linecap="round" stroke-linejoin="round"/>
<path d="M68.7731 40.0675C68.7731 40.0675 65.6829 42.8034 66.1691 48.6048L74.2449 49.4289L73.3137 39.705L68.7731 40.0675Z" fill="#F2F2F2" stroke="#291F32" stroke-width="2" stroke-linecap="round" stroke-linejoin="round"/>
<path d="M73.5363 39.3167L73.5362 39.3166L73.5271 39.3257C73.5165 39.3362 73.4959 39.3535 73.4469 39.3844C73.3253 39.4558 73.1545 39.4751 72.842 39.493C72.6432 39.5015 72.4469 39.5113 72.2527 39.5209C71.2921 39.5687 70.3829 39.6139 69.4698 39.4965L69.4698 39.4964L69.4656 39.4959C68.9793 39.4376 68.5995 38.9631 68.5152 38.2257C68.4304 37.483 68.6952 36.838 69.1019 36.6157L69.1019 36.6157L69.1029 36.6152C69.5194 36.3863 70.0441 36.3336 70.6673 36.3613C70.9503 36.3739 71.2364 36.4017 71.5315 36.4305C71.558 36.4331 71.5846 36.4357 71.6113 36.4382C71.9276 36.4689 72.2568 36.4993 72.5704 36.5039C72.8931 36.5102 73.2627 36.6442 73.5527 36.8726C73.8423 37.1007 74.0033 37.381 74.0157 37.6579L74.0156 37.6579L74.0159 37.6629C74.0295 37.9098 74.0003 38.2505 73.9127 38.5775C73.8229 38.9127 73.6884 39.1722 73.5363 39.3167Z" fill="#291F32" stroke="#291F32"/>
<path d="M61.9855 20.0702C61.9855 20.0702 63.7833 28.9104 68.8141 31.1192" stroke="#291F32" stroke-width="2" stroke-linecap="round" stroke-linejoin="round"/>
<rect x="46" y="49" width="22" height="8" fill="#F2F2F2"/>
<path d="M67.847 52.334C67.847 51.0408 67.9311 49.9998 67.8155 48.6961C67.7419 47.8865 66.5748 47.6447 65.7862 47.4659C64.9977 47.2872 64.1775 47.3187 63.3679 47.3397C62.5163 47.3713 61.6331 47.4869 61.0022 48.0442C60.3714 48.6015 60.424 48.9064 60.4134 49.716C60.3924 50.841 60.3609 51.188 60.3398 52.313" fill="#F2F2F2"/>
<path d="M67.847 52.334C67.847 51.0408 67.9311 49.9998 67.8155 48.6961C67.7419 47.8865 66.5748 47.6447 65.7862 47.4659C64.9977 47.2872 64.1775 47.3187 63.3679 47.3397C62.5163 47.3713 61.6331 47.4869 61.0022 48.0442C60.3714 48.6015 60.424 48.9064 60.4134 49.716C60.3924 50.841 60.3609 51.188 60.3398 52.313" stroke="#291F32" stroke-width="2" stroke-linecap="round" stroke-linejoin="round"/>
<path d="M52.9944 52.3358C52.9733 50.7272 53.0154 51.3265 52.9944 49.7073C52.9944 49.0764 52.9944 48.372 53.4254 47.8988C53.8986 47.3731 55.5388 47.3311 56.6533 47.3311C58.8193 47.3311 60.3123 47.6885 60.3123 48.8556C60.3123 50.8533 60.3018 50.5379 60.3123 52.3253" fill="#F2F2F2"/>
<path d="M52.9944 52.3358C52.9733 50.7272 53.0154 51.3265 52.9944 49.7073C52.9944 49.0764 52.9944 48.372 53.4254 47.8988C53.8986 47.3731 55.5388 47.3311 56.6533 47.3311C58.8193 47.3311 60.3123 47.6885 60.3123 48.8556C60.3123 50.8533 60.3018 50.5379 60.3123 52.3253" stroke="#291F32" stroke-width="2" stroke-linecap="round" stroke-linejoin="round"/>
<path d="M45.6701 51.9678C45.6491 50.3592 45.6912 51.316 45.6701 49.7073C45.6701 49.0764 45.6701 48.372 46.1012 47.8988C46.5744 47.3731 48.2146 47.3311 49.3291 47.3311C51.495 47.3311 52.9881 47.6885 52.9881 48.8556C52.9881 50.8533 52.9775 50.1278 52.9881 51.9153" fill="#F2F2F2"/>
<path d="M45.6701 51.9678C45.6491 50.3592 45.6912 51.316 45.6701 49.7073C45.6701 49.0764 45.6701 48.372 46.1012 47.8988C46.5744 47.3731 48.2146 47.3311 49.3291 47.3311C51.495 47.3311 52.9881 47.6885 52.9881 48.8556C52.9881 50.8533 52.9775 50.1278 52.9881 51.9153" stroke="#291F32" stroke-width="2" stroke-linecap="round" stroke-linejoin="round"/>
<path d="M41.7991 59.8258C41.7991 58.5325 41.715 55.21 41.8306 53.9168C41.9042 53.1072 43.0713 52.8654 43.8599 52.6866C44.6484 52.5079 45.4685 52.5394 46.2781 52.5604C47.1298 52.592 48.013 52.7076 48.6438 53.2649C49.2747 53.8222 49.2221 54.1271 49.2326 54.9367C49.2537 56.0617 49.2852 58.6797 49.3062 59.8048" fill="#F2F2F2"/>
<path d="M41.7991 59.8258C41.7991 58.5325 41.715 55.21 41.8306 53.9168C41.9042 53.1072 43.0713 52.8654 43.8599 52.6866C44.6484 52.5079 45.4685 52.5394 46.2781 52.5604C47.1298 52.592 48.013 52.7076 48.6438 53.2649C49.2747 53.8222 49.2221 54.1271 49.2326 54.9367C49.2537 56.0617 49.2852 58.6797 49.3062 59.8048" stroke="#291F32" stroke-width="2" stroke-linecap="round" stroke-linejoin="round"/>
<path d="M64.1751 59.8258C64.1751 58.5325 64.2593 55.21 64.1436 53.9168C64.07 53.1072 62.9029 52.8654 62.1144 52.6866C61.3258 52.5079 60.5057 52.5394 59.6961 52.5604C58.8444 52.592 57.9612 52.7076 57.3304 53.2649C56.6995 53.8222 56.7521 54.1271 56.7416 54.9367C56.7205 56.0617 56.689 58.6797 56.668 59.8048" fill="#F2F2F2"/>
<path d="M64.1751 59.8258C64.1751 58.5325 64.2593 55.21 64.1436 53.9168C64.07 53.1072 62.9029 52.8654 62.1144 52.6866C61.3258 52.5079 60.5057 52.5394 59.6961 52.5604C58.8444 52.592 57.9612 52.7076 57.3304 53.2649C56.6995 53.8222 56.7521 54.1271 56.7416 54.9367C56.7205 56.0617 56.689 58.6797 56.668 59.8048" stroke="#291F32" stroke-width="2" stroke-linecap="round" stroke-linejoin="round"/>
<path d="M49.3303 59.5502C49.3093 57.9415 49.3513 56.7955 49.3303 55.1868C49.3303 54.5559 49.3303 53.8515 49.7614 53.3783C50.2345 52.8526 51.8747 52.8105 52.9893 52.8105C55.1552 52.8105 56.6482 53.168 56.6482 54.3351C56.6482 56.3328 56.6377 57.7102 56.6482 59.4976" fill="#F2F2F2"/>
<path d="M49.3303 59.5502C49.3093 57.9415 49.3513 56.7955 49.3303 55.1868C49.3303 54.5559 49.3303 53.8515 49.7614 53.3783C50.2345 52.8526 51.8747 52.8105 52.9893 52.8105C55.1552 52.8105 56.6482 53.168 56.6482 54.3351C56.6482 56.3328 56.6377 57.7102 56.6482 59.4976" stroke="#291F32" stroke-width="2" stroke-linecap="round" stroke-linejoin="round"/>
<path d="M64.217 59.5502C64.196 57.9415 64.238 56.7955 64.217 55.1868C64.217 54.5559 64.217 53.8515 64.6481 53.3783C65.1212 52.8526 66.7615 52.8105 67.876 52.8105C70.0419 52.8105 71.5349 53.168 71.5349 54.3351C71.5349 56.3328 71.5244 57.7102 71.5349 59.4976" fill="#F2F2F2"/>
<path d="M64.217 59.5502C64.196 57.9415 64.238 56.7955 64.217 55.1868C64.217 54.5559 64.217 53.8515 64.6481 53.3783C65.1212 52.8526 66.7615 52.8105 67.876 52.8105C70.0419 52.8105 71.5349 53.168 71.5349 54.3351C71.5349 56.3328 71.5244 57.7102 71.5349 59.4976" stroke="#291F32" stroke-width="2" stroke-linecap="round" stroke-linejoin="round"/>
<path d="M40.0781 59.8589L73.7553 59.8379" stroke="#291F32" stroke-width="2" stroke-linecap="round" stroke-linejoin="round"/>
<defs>
<clipPath id="clip0_21982_5349">
<rect width="89.9503" height="88.6077" fill="white" transform="translate(32.3516 40.4678) rotate(-68.84)"/>
</clipPath>
</defs>
</svg>
