<svg width="100" height="84" viewBox="0 0 100 84" fill="none" xmlns="http://www.w3.org/2000/svg">
<g clip-path="url(#clip0_21982_10634)">
<path d="M74.7383 -12.3999C48.1037 -15.2346 37.5983 19.13 44.7857 40.1781C48.5459 51.1903 57.0328 60.496 67.6544 65.2455C78.3697 70.0365 92.2789 69.6142 100.467 61.1922C106.548 54.9357 108.352 45.6695 108.52 36.9464C108.728 25.9847 106.694 14.7516 101.005 5.38839C95.3153 -3.97482 85.6367 -11.2415 74.7429 -12.3982L74.7383 -12.3999Z" fill="#E9C30C"/>
</g>
<path d="M67.7995 28.1719L44 45.5032L52 44.8537H59.2691L64.0322 52.9943L69.813 29.4114" fill="#F2F2F2"/>
<path d="M67.7995 28.1719L44 45.5032L52 44.8537H59.2691L64.0322 52.9943L69.813 29.4114" stroke="#291F32" stroke-width="2" stroke-linecap="round" stroke-linejoin="round"/>
<path d="M77.5273 13.6089L80.4069 15.7469L84.2066 11L77.5273 13.6089Z" fill="#F2F2F2" stroke="#291F32" stroke-width="2" stroke-linecap="round" stroke-linejoin="round"/>
<path d="M79.9455 15.3723L78.0312 13.9922L63.8692 33.6356L65.7835 35.0157L79.9455 15.3723Z" fill="#291F32" stroke="#291F32" stroke-linecap="round" stroke-linejoin="round"/>
<path d="M61.5195 37.5078L63.7441 39.3048" stroke="#291F32" stroke-width="2" stroke-linecap="round" stroke-linejoin="round"/>
<path d="M59.3672 40.5234L61.5214 42.315" stroke="#291F32" stroke-width="2" stroke-linecap="round" stroke-linejoin="round"/>
<path d="M65.0039 22.8711V19.2188" stroke="#291F32" stroke-width="2" stroke-miterlimit="10" stroke-linecap="round"/>
<path d="M60.4375 16.4844L61.3506 23.7891" stroke="#291F32" stroke-width="2" stroke-miterlimit="10" stroke-linecap="round"/>
<path d="M55.8711 21.0469L57.6973 25.6123" stroke="#291F32" stroke-width="2" stroke-miterlimit="10" stroke-linecap="round"/>
<path d="M51.3047 23.7812L54.9571 26.5205" stroke="#291F32" stroke-width="2" stroke-miterlimit="10" stroke-linecap="round"/>
<path d="M46.7422 27.4375L53.1338 29.2637" stroke="#291F32" stroke-width="2" stroke-miterlimit="10" stroke-linecap="round"/>
<defs>
<clipPath id="clip0_21982_10634">
<rect width="76.0406" height="72.0931" fill="white" transform="translate(29.3516 50.4668) rotate(-68.84)"/>
</clipPath>
</defs>
</svg>
