<svg width="100" height="91" viewBox="0 0 100 91" fill="none" xmlns="http://www.w3.org/2000/svg">
<g clip-path="url(#clip0_21982_18338)">
<path d="M74.8247 -17.8998C72.0022 -16.9049 69.3651 -15.2441 67.0637 -12.7761C61.2517 -6.54816 60.6024 2.22774 63.4393 9.95463C64.819 13.7032 68.5921 18.9111 64.4642 22.2766C61.2355 24.9076 56.6944 24.9042 52.66 25.9241C42.2463 28.5554 34.6464 39.5598 35.8616 50.2455C37.0786 60.9263 46.9533 69.9061 57.6873 70.0969C66.298 70.2488 74.48 65.4545 83.0784 65.8958C89.9716 66.2488 96.4871 69.9533 103.379 69.5509C114.284 68.914 122.512 55.9432 118.452 45.7942C115.592 38.6415 107.929 32.8937 108.954 25.2514C109.366 22.1687 111.204 19.4823 112.259 16.5543C116.395 5.12514 108.174 -7.81156 98.7507 -13.8074C92.1273 -18.0201 82.472 -20.597 74.8247 -17.8998Z" fill="#F12AAE"/>
</g>
<path d="M75 22.1623L57 25.6484L57.3629 18.9529L75 15.6484V22.1623Z" fill="#F2F2F2"/>
<path d="M55.8516 41.1484L56.7603 19.6169L74.7403 15.7969L74.85 39.7169" stroke="#291F32" stroke-width="2" stroke-linecap="round" stroke-linejoin="round"/>
<path d="M53.547 43.5421L53.547 43.5421L53.5406 43.5461C53.4278 43.6176 53.3185 43.6875 53.2121 43.7556C52.412 44.2674 51.7721 44.6768 50.972 44.8811C49.9613 45.1308 48.7835 44.9818 47.8898 44.5151C46.8678 43.9775 46.3405 43.2273 46.1229 42.4147C45.898 41.5749 45.9867 40.5936 46.3502 39.627C46.4751 39.3044 46.7937 38.8588 47.2583 38.4652C47.7219 38.0724 48.224 37.8219 48.6449 37.7612C50.9601 37.443 53.1928 37.7751 54.8244 39.0323C55.695 39.7066 56.054 40.796 55.7745 41.6623C55.6554 42.0281 55.4335 42.3018 55.0675 42.5841C54.79 42.7981 54.5005 42.9698 54.146 43.1801C53.9655 43.2872 53.7682 43.4043 53.547 43.5421Z" fill="#F2F2F2" stroke="#291F32" stroke-width="2"/>
<path d="M67.0608 38.8873C67.9163 38.1501 68.363 37.8875 69.4031 37.4095C69.7048 37.2731 70.3438 37.0557 71.0221 36.8823C71.3557 36.797 71.6784 36.7276 71.9543 36.6851C72.2496 36.6396 72.4218 36.6362 72.4863 36.6434L72.4936 36.6443L72.501 36.645C73.016 36.6952 73.4755 36.9202 73.7906 37.2329L73.8954 37.3565C75.2172 38.915 75.4128 41.4083 73.374 43.1247L73.3731 43.1255C72.648 43.7375 71.7903 43.8933 70.6322 44.1036C70.4524 44.1363 70.2654 44.1703 70.0706 44.2074L70.0686 44.2078C68.9756 44.4188 68.1094 44.4642 67.3332 44.1812C66.3342 43.8103 65.7562 42.7184 65.9995 41.4712L66.0001 41.4683C66.0054 41.4406 66.0107 41.4133 66.0158 41.3863C66.2608 40.1093 66.385 39.4618 67.0557 38.8917L67.0557 38.8917L67.0608 38.8873Z" fill="#F2F2F2" stroke="#291F32" stroke-width="2"/>
<path d="M56.9508 25.4204L74.0524 21.88" stroke="#291F32" stroke-width="2" stroke-linecap="round" stroke-linejoin="round"/>
<defs>
<clipPath id="clip0_21982_18338">
<rect width="94.9598" height="81.9607" fill="white" transform="translate(29.3516 60.4668) rotate(-68.84)"/>
</clipPath>
</defs>
</svg>
