<svg width="100" height="86" viewBox="0 0 100 86" fill="none" xmlns="http://www.w3.org/2000/svg">
<g clip-path="url(#clip0_21982_10538)">
<path d="M129.374 21.9242C125.075 5.81733 105.123 -14.1093 91.3471 -14.2585C82.5674 -14.3559 72.1758 -8.99969 71.6871 0.822386C71.4771 5.08585 73.1783 9.64607 71.2813 13.4715C68.3334 19.4216 59.7421 18.7428 53.7391 21.5721C48.7346 23.9285 45.394 29.1444 44.5754 34.619C43.7595 40.0896 45.2511 45.7383 47.9778 50.5469C52.9813 59.3676 62.2795 65.6097 72.3428 66.8974C82.3994 68.1865 92.9845 64.4902 100.067 57.2184C105.384 51.7629 108.495 48.7883 115.224 45.8813C122.374 42.7912 128.246 39.4041 129.937 30.8055C130.466 28.1113 130.225 25.0949 129.378 21.9269L129.374 21.9242Z" fill="#0059F5"/>
</g>
<path d="M43.5293 30.9753C43.4131 25.355 46.7001 20.0634 51.1121 16.5503C52.4104 15.5165 53.8168 14.6035 55.3487 13.9593C57.1886 13.1862 59.1763 12.8159 61.164 12.6171C71.0558 12.6029 79.2006 17.9016 80.6916 26.2934C80.968 27.0086 81.2108 30.4944 81.0588 31.4866C80.8456 32.8815 80.7732 34.2977 80.505 35.6825C79.3015 41.8851 74.1552 46.8368 68.2318 49.1164C66.551 49.7636 64.7785 50.2303 62.9764 50.2567C61.0406 50.2851 59.1375 49.8073 57.261 49.3335C55.4425 48.8739 53.5976 48.4042 51.9749 47.4678C51.0061 46.9089 50.1351 46.1947 49.3355 45.4145C45.5752 41.7451 43.4049 36.5154 43.4661 31.2756L43.5293 30.9753Z" fill="#F2F2F2" stroke="#291F32" stroke-width="2" stroke-miterlimit="10" stroke-linecap="round"/>
<path d="M68.5541 31.0821C68.6734 28.2389 66.4215 25.9297 63.2266 25.2275C62.5706 25.15 61.9022 25.1283 61.2524 25.2491C60.7115 25.3493 60.1922 25.5466 59.6986 25.7913C58.0225 26.6217 56.5819 28.1119 56.2179 29.9522L56.1758 30.0452C55.7809 31.7492 56.1079 33.6102 57.0591 35.0757C57.2616 35.3875 57.492 35.6829 57.7645 35.9339C58.222 36.3552 58.7835 36.6403 59.3377 36.9201C59.9094 37.2093 60.4904 37.5005 61.1177 37.6296C61.7017 37.7494 62.3074 37.7246 62.8966 37.6338C64.9727 37.3136 66.9891 36.0671 67.821 34.1307C68.0071 33.698 68.1315 33.2415 68.3002 32.8026C68.4205 32.4897 68.5912 31.3361 68.5531 31.0831L68.5541 31.0821ZM63.8889 31.8008C63.8436 31.9175 63.8107 32.0394 63.7613 32.1551C63.5392 32.6714 63.0025 33.0029 62.4493 33.0887C62.2919 33.1124 62.1305 33.1196 61.9752 33.0887C61.8076 33.0546 61.6534 32.9761 61.5012 32.8997C61.3531 32.8253 61.204 32.7489 61.0817 32.6374C61.0087 32.5702 60.948 32.4917 60.8935 32.4091C60.6395 32.0187 60.5531 31.523 60.658 31.0686L60.6693 31.0438C60.766 30.5533 61.1506 30.1567 61.5968 29.9347C61.7284 29.8696 61.8662 29.8169 62.0112 29.7901C62.184 29.7581 62.3619 29.7632 62.5367 29.7839C63.3881 29.9708 63.9876 30.5863 63.9557 31.3433C63.966 31.4105 63.9207 31.7182 63.8878 31.8019L63.8889 31.8008Z" fill="#291F32"/>
<path d="M67.5938 22.2655C67.5938 22.2655 71.4034 23.5126 72.4195 28.0564" stroke="#291F32" stroke-width="2" stroke-miterlimit="10" stroke-linecap="round"/>
<path d="M68.5586 18.4061C68.5586 18.4061 74.6543 20.2775 76.2798 27.0925" stroke="#291F32" stroke-width="2" stroke-miterlimit="10" stroke-linecap="round"/>
<defs>
<clipPath id="clip0_21982_10538">
<rect width="71.8757" height="84.8877" fill="white" transform="translate(82.4297 -24.5908) rotate(34.0727)"/>
</clipPath>
</defs>
</svg>
