<svg width="100" height="84" viewBox="0 0 100 84" fill="none" xmlns="http://www.w3.org/2000/svg">
<g clip-path="url(#clip0_21982_24920)">
<path d="M70.1622 -26.9928C58.236 -24.2187 49.1799 -7.26661 51.5398 5.38389C52.7345 11.7825 56.3289 17.6447 56.5129 24.2414C56.8252 35.2073 48.7208 44.5535 55.4291 55.1622C59.4449 61.5119 67.3591 65.197 74.7617 63.8292C82.6468 62.3725 87.0338 56.0044 90.1455 49.1372C93.5156 41.6998 96.3312 37.0481 104.861 35.8085C110.501 34.9911 117.274 35.1528 119.477 28.5555C122.675 18.9539 110.733 14.0397 104.04 10.9405C98.4809 8.36723 92.7135 3.06946 91.5632 -3.29031C90.2517 -10.545 91.7968 -16.3642 85.5703 -22.0938C80.3421 -26.9017 75.0198 -28.1184 70.1668 -26.991L70.1622 -26.9928Z" fill="#F12AAE"/>
</g>
<path d="M72.51 51.1394L59.08 50.7594L43.92 51.1394C42.31 51.1394 41.38 49.1994 41.38 47.5794L41.44 38.3694L41 28.5294C41 26.1694 42.09 25.6094 43.92 25.6094H72.32C75.92 25.6094 75.92 26.9194 75.92 28.5294L75.43 48.2194C75.43 49.8294 74.12 51.1394 72.51 51.1394Z" fill="#F2F2F2" stroke="#291F32" stroke-width="2" stroke-miterlimit="10"/>
<path d="M57 36.5V44L62.3571 40.3284L57 36.5Z" fill="#291F32" stroke="#291F32" stroke-width="2" stroke-linecap="round" stroke-linejoin="round"/>
<path d="M41 28.3596V21.4196C41 20.8196 41.39 20.2896 41.96 20.0996L69.6 11.0896C70.56 10.7796 71.59 11.2996 71.9 12.2596L72.96 15.4796L68.55 16.9696L41.22 26.1696" fill="#F2F2F2"/>
<path d="M41 28.3596V21.4196C41 20.8196 41.39 20.2896 41.96 20.0996L69.6 11.0896C70.56 10.7796 71.59 11.2996 71.9 12.2596L72.96 15.4796L68.55 16.9696L41.22 26.1696" stroke="#291F32" stroke-width="2" stroke-linecap="round" stroke-linejoin="round"/>
<path d="M45.4219 19.4375L48.1619 22.9575" stroke="#291F32" stroke-width="2" stroke-linecap="round" stroke-linejoin="round"/>
<path d="M45.3984 30.9394L49.8684 25.6094" stroke="#291F32" stroke-width="2" stroke-linecap="round" stroke-linejoin="round"/>
<path d="M52.8906 31.0275L57.3606 25.6875" stroke="#291F32" stroke-width="2" stroke-linecap="round" stroke-linejoin="round"/>
<path d="M60.4297 31.0275L64.8897 25.6875" stroke="#291F32" stroke-width="2" stroke-linecap="round" stroke-linejoin="round"/>
<path d="M67.25 31.3691L71.72 26.0391" stroke="#291F32" stroke-width="2" stroke-linecap="round" stroke-linejoin="round"/>
<path d="M52.5195 17.3438L55.2695 20.8637" stroke="#291F32" stroke-width="2" stroke-linecap="round" stroke-linejoin="round"/>
<path d="M59.5117 15.5781L62.2617 19.0981" stroke="#291F32" stroke-width="2" stroke-linecap="round" stroke-linejoin="round"/>
<path d="M65.5 13.0938L68.25 16.6138" stroke="#291F32" stroke-width="2" stroke-linecap="round" stroke-linejoin="round"/>
<path d="M41 30.9375L75.85 31.8075" stroke="#291F32" stroke-width="2" stroke-miterlimit="10"/>
<defs>
<clipPath id="clip0_21982_24920">
<rect width="88.2513" height="75.5826" fill="white" transform="translate(30.3516 49.4668) rotate(-68.84)"/>
</clipPath>
</defs>
</svg>
