<svg width="24" height="24" viewBox="0 0 24 24" fill="none" xmlns="http://www.w3.org/2000/svg">
<path d="M4.49927 12.5L4.15234 4.14453" stroke="#F2F2F2" stroke-width="2" stroke-linecap="round" stroke-linejoin="round"/>
<path d="M19.4993 12.3555L19.1523 4" stroke="#F2F2F2" stroke-width="2" stroke-linecap="round" stroke-linejoin="round"/>
<path d="M4.50024 17.5L4.43359 20.1975" stroke="#F2F2F2" stroke-width="2" stroke-linecap="round" stroke-linejoin="round"/>
<path d="M19.5002 17.3555L19.4336 20.053" stroke="#F2F2F2" stroke-width="2" stroke-linecap="round" stroke-linejoin="round"/>
<path d="M4.5 12.9997C3.36657 12.7646 2.46978 13.5602 2.10928 14.4774C1.71698 15.4659 2.42736 16.7092 3.49824 16.9538C4.56912 17.1984 5.76723 16.4341 5.96868 15.3844C6.17014 14.3347 5.58148 13.2239 4.5 12.9997Z" fill="#291F32" stroke="#F2F2F2" stroke-width="2" stroke-linecap="round" stroke-linejoin="round"/>
<path d="M20 12.8552C18.8666 12.62 17.9698 13.4156 17.6093 14.3328C17.217 15.3214 17.9274 16.5647 18.9982 16.8093C20.0691 17.0539 21.2672 16.2895 21.4687 15.2399C21.6701 14.1902 21.0815 13.0794 20 12.8552Z" fill="#291F32" stroke="#F2F2F2" stroke-width="2" stroke-linecap="round" stroke-linejoin="round"/>
<path d="M11.2773 3.85352L11.4612 7.43985" stroke="#F2F2F2" stroke-width="2" stroke-linecap="round" stroke-linejoin="round"/>
<path d="M10.5786 11.4491C11.3304 12.1909 12.6815 12.18 13.4334 11.4381C14.1852 10.6963 14.1852 9.33266 13.4552 8.57992C12.7251 7.82719 11.3631 7.80537 10.6004 8.52538C9.83764 9.24539 9.79405 10.609 10.5132 11.3836" fill="#291F32"/>
<path d="M10.5786 11.4491C11.3304 12.1909 12.6815 12.18 13.4334 11.4381C14.1852 10.6963 14.1852 9.33266 13.4552 8.57992C12.7251 7.82719 11.3631 7.80537 10.6004 8.52538C9.83764 9.24539 9.79405 10.609 10.5132 11.3836" stroke="#F2F2F2" stroke-width="2" stroke-linecap="round" stroke-linejoin="round"/>
<path d="M11.5586 19.9152C11.9525 17.2254 12.2281 14.7068 12.0005 12" stroke="#F2F2F2" stroke-width="2" stroke-linecap="round" stroke-linejoin="round"/>
</svg>
