<svg width="16" height="16" viewBox="0 0 16 16" fill="none" xmlns="http://www.w3.org/2000/svg">
<g clip-path="url(#clip0_21983_21588)">
<path d="M1.33579 7.87386C1.3578 7.00859 1.54855 6.14332 1.93005 5.35138C2.4216 4.33212 3.1626 3.43752 4.04299 2.73357C4.50519 2.36693 5.00408 2.03696 5.54699 1.80964C6.19994 1.53099 6.90425 1.399 7.60856 1.33301C11.1154 1.33301 14.0061 3.21753 14.5343 6.20931C15.0405 9.0691 14.1088 11.9802 11.6217 13.5934C11.5043 13.6741 11.3796 13.7474 11.2548 13.8134C9.56743 14.7667 7.76997 14.884 5.93582 14.3487C5.38558 14.1874 4.84267 14.0481 4.34379 13.7548C3.99897 13.5568 3.69083 13.3001 3.4047 13.0215C2.05477 11.6942 1.29177 9.77305 1.33579 7.87386Z" stroke="#ABA8FC" stroke-width="2" stroke-miterlimit="10" stroke-linecap="round"/>
<path d="M8 4.22852C7.9987 4.54773 8.07357 4.95628 8.07227 5.27549C8.07283 6.21563 8.00162 7.06204 8 8" stroke="#ABA8FC" stroke-width="2" stroke-linecap="round" stroke-linejoin="round"/>
<path d="M8 8C8 8 8.35528 8.30845 8.71097 8.52922C9.06667 8.75 9.57724 9.2316 9.98862 9.4908C10.4 9.75 10.6667 10 10.6667 10" stroke="#ABA8FC" stroke-width="2" stroke-linecap="round" stroke-linejoin="round"/>
</g>
<defs>
<clipPath id="clip0_21983_21588">
<rect width="16" height="16" fill="white"/>
</clipPath>
</defs>
</svg>
