<svg width="24" height="24" viewBox="0 0 24 24" fill="none" xmlns="http://www.w3.org/2000/svg">
<path d="M3.43064 21.8104C2.83064 20.3104 3.36064 16.9904 3.36064 16.9904C3.88064 14.0204 6.28064 11.4604 9.22064 10.7504C8.49064 10.4304 8.00064 10.0004 7.62064 9.37039C7.29064 8.82039 6.98064 8.24039 6.88064 7.61039C6.76064 6.85039 6.83064 5.76039 7.15064 5.06039C8.01064 3.19039 9.92064 2.15039 11.9906 2.15039C14.0606 2.15039 16.2506 3.56039 16.8306 5.54039C17.4106 7.52039 16.3906 9.88039 14.4906 10.7104C16.7206 10.7504 18.6506 12.4504 19.5806 14.4704C20.5106 16.4904 20.6206 18.7904 20.6006 21.0104C20.6006 21.2904 20.6006 21.7004 20.4906 21.9504L3.43064 21.8104Z" fill="#291F32" stroke="#F2F2F2" stroke-width="2" stroke-linecap="round" stroke-linejoin="round"/>
</svg>
