<svg width="225" height="99" viewBox="0 0 225 99" fill="none" xmlns="http://www.w3.org/2000/svg">
<path d="M90.2308 39.3823C89.2736 33.9929 91.4102 28.4666 94.4869 23.9327C101.717 13.2736 114.913 6.6181 127.681 8.24348C140.449 9.86886 151.901 20.3226 153.662 33.1032C155.422 44.6007 149.782 56.2692 148.859 57.5352C147.645 59.1948 141.731 72.523 119.169 72.1808C97.1533 71.8215 90.5898 51.2391 90.2308 39.3995V39.3823Z" fill="#10A98D" stroke="#F2F2F2" stroke-width="8" stroke-miterlimit="10"/>
<path d="M111.494 43.4512L121.989 51.4583L134.826 28.5319" fill="#10A98D"/>
<path d="M111.494 43.4512L121.989 51.4583L134.826 28.5319" stroke="#F2F2F2" stroke-width="8" stroke-linecap="round" stroke-linejoin="round"/>
<path d="M30.9031 79.1331L39.6597 83.9426C39.9573 84.0835 40.1923 84.3342 40.3332 84.6162L45.1423 93.3735C45.5809 94.2037 46.5991 94.5171 47.4294 94.0784C47.727 93.9218 47.9776 93.6711 48.1343 93.3735L52.9434 84.6162C53.0843 84.3185 53.3193 84.0835 53.6169 83.9426L62.3735 79.1331C63.2038 78.6945 63.517 77.6762 63.0784 76.8616C62.9218 76.5639 62.6712 76.3132 62.3735 76.1566L53.6169 71.3471C53.3193 71.2062 53.0843 70.9712 52.9434 70.6735L48.1343 61.8693C47.6643 61.039 46.6148 60.757 45.7846 61.2269C45.5183 61.3836 45.299 61.6029 45.1423 61.8693L40.3332 70.6735C40.1923 70.9712 39.9573 71.2062 39.6597 71.3471L30.9031 76.1566C30.0728 76.5952 29.7595 77.6135 30.1982 78.4281C30.3548 78.7258 30.6054 78.9765 30.9031 79.1331Z" fill="#0C0016" stroke="#F2F2F2" stroke-width="8" stroke-miterlimit="10"/>
<path d="M187.903 22.1331L196.66 26.9426C196.957 27.0835 197.192 27.3342 197.333 27.6162L202.142 36.3735C202.581 37.2037 203.599 37.5171 204.429 37.0784C204.727 36.9218 204.978 36.6711 205.134 36.3735L209.943 27.6162C210.084 27.3185 210.319 27.0835 210.617 26.9426L219.374 22.1331C220.204 21.6945 220.517 20.6762 220.078 19.8616C219.922 19.5639 219.671 19.3132 219.374 19.1566L210.617 14.3471C210.319 14.2062 210.084 13.9712 209.943 13.6735L205.134 4.86925C204.664 4.03896 203.615 3.75697 202.785 4.22695C202.518 4.38361 202.299 4.60293 202.142 4.86925L197.333 13.6735C197.192 13.9712 196.957 14.2062 196.66 14.3471L187.903 19.1566C187.073 19.5952 186.76 20.6135 187.198 21.4281C187.355 21.7258 187.605 21.9765 187.903 22.1331Z" fill="#0C0016" stroke="#F2F2F2" stroke-width="8" stroke-miterlimit="10"/>
<path d="M5.69059 17.8665L12.3868 21.5443C12.6144 21.6521 12.7941 21.8438 12.9019 22.0594L16.5794 28.7562C16.9148 29.3911 17.6935 29.6307 18.3283 29.2953C18.5559 29.1755 18.7476 28.9838 18.8674 28.7562L22.5449 22.0594C22.6527 21.8318 22.8324 21.6521 23.06 21.5443L29.7562 17.8665C30.3911 17.5311 30.6307 16.7524 30.2953 16.1294C30.1755 15.9018 29.9838 15.7101 29.7562 15.5903L23.06 11.9125C22.8324 11.8047 22.6527 11.625 22.5449 11.3974L18.8674 4.66472C18.508 4.02979 17.7054 3.81415 17.0706 4.17355C16.8669 4.29335 16.6992 4.46107 16.5794 4.66472L12.9019 11.3974C12.7941 11.625 12.6144 11.8047 12.3868 11.9125L5.69059 15.5903C5.0557 15.9258 4.81613 16.7045 5.15154 17.3274C5.27132 17.555 5.46299 17.7467 5.69059 17.8665Z" fill="#0C0016" stroke="#F2F2F2" stroke-width="8" stroke-miterlimit="10"/>
</svg>
