<svg width="40" height="36" viewBox="0 0 40 36" fill="none" xmlns="http://www.w3.org/2000/svg">
<path d="M9.07812 19.6669C12.7781 15.8869 17.1881 11.8269 20.8781 8.04688C21.6781 8.94687 22.6281 9.72688 23.6681 10.3269C22.6981 11.0069 22.4981 12.5469 23.2481 13.4569C23.9981 14.3669 25.5481 14.4469 26.3981 13.6269C27.2781 14.1869 28.8381 15.8169 28.8381 15.8969C28.8381 16.0069 17.8581 27.3969 17.7581 27.4369C17.3681 27.1969 15.4181 26.1369 14.6881 25.1869C15.2881 24.5969 16.0881 23.0369 14.8781 21.8869C13.6681 20.7369 12.5381 21.3869 11.6281 22.1069C10.6881 21.3869 9.83812 20.5769 9.07812 19.6669Z" fill="#F2F2F2" stroke="#F2F2F2" stroke-width="2.3" stroke-linecap="round" stroke-linejoin="round"/>
<path d="M8.98828 12.2906C9.88828 9.18063 11.8483 8.27062 13.7783 7.64062" stroke="#F2F2F2" stroke-width="2.3" stroke-miterlimit="10" stroke-linecap="round"/>
<path d="M5.59766 10.4938C6.03766 7.29375 8.69766 5.46375 11.5477 4.59375" stroke="#F2F2F2" stroke-width="2.3" stroke-miterlimit="10" stroke-linecap="round"/>
<path d="M29.2392 23.1875C28.3392 26.2975 26.3792 27.2075 24.4492 27.8375" stroke="#F2F2F2" stroke-width="2.3" stroke-miterlimit="10" stroke-linecap="round"/>
<path d="M32.6258 24.9922C32.2258 27.9222 29.5158 30.3822 26.6758 30.8822" stroke="#F2F2F2" stroke-width="2.3" stroke-miterlimit="10" stroke-linecap="round"/>
<path d="M19.066 14.4016C19.7011 14.4016 20.216 13.8867 20.216 13.2516C20.216 12.6164 19.7011 12.1016 19.066 12.1016C18.4309 12.1016 17.916 12.6164 17.916 13.2516C17.916 13.8867 18.4309 14.4016 19.066 14.4016Z" fill="#291F32"/>
<path d="M23.5973 18.925C24.2324 18.925 24.7473 18.4101 24.7473 17.775C24.7473 17.1399 24.2324 16.625 23.5973 16.625C22.9621 16.625 22.4473 17.1399 22.4473 17.775C22.4473 18.4101 22.9621 18.925 23.5973 18.925Z" fill="#291F32"/>
<path d="M21.3277 16.6594C21.9629 16.6594 22.4777 16.1445 22.4777 15.5094C22.4777 14.8742 21.9629 14.3594 21.3277 14.3594C20.6926 14.3594 20.1777 14.8742 20.1777 15.5094C20.1777 16.1445 20.6926 16.6594 21.3277 16.6594Z" fill="#291F32"/>
</svg>
