<svg width="40" height="36" viewBox="0 0 40 36" fill="none" xmlns="http://www.w3.org/2000/svg">
<path d="M9.09766 19.7167C12.7977 15.9367 17.2077 11.8767 20.8977 8.09668C21.6977 8.99668 22.6477 9.77668 23.6877 10.3767C22.7177 11.0567 22.5177 12.5967 23.2677 13.5067C24.0177 14.4167 25.5677 14.4967 26.4177 13.6767C27.2977 14.2367 28.8577 15.8667 28.8577 15.9467C28.8577 16.0567 17.8777 27.4467 17.7777 27.4867C17.3877 27.2467 15.4377 26.1867 14.7077 25.2367C15.3077 24.6467 16.1077 23.0867 14.8977 21.9367C13.6877 20.7867 12.5577 21.4367 11.6477 22.1567C10.7077 21.4367 9.85766 20.6267 9.09766 19.7167Z" stroke="#F2F2F2" stroke-width="2.3" stroke-linecap="round" stroke-linejoin="round"/>
<path d="M19.8008 13.7437C19.8008 14.0198 19.5769 14.2437 19.3008 14.2437C19.0246 14.2437 18.8008 14.0198 18.8008 13.7437C18.8008 13.4675 19.0246 13.2437 19.3008 13.2437C19.5769 13.2437 19.8008 13.4675 19.8008 13.7437Z" fill="#F2F2F2" stroke="#F2F2F2"/>
<path d="M23.4727 17.4233C23.4727 17.6995 23.2488 17.9233 22.9727 17.9233C22.6965 17.9233 22.4727 17.6995 22.4727 17.4233C22.4727 17.1472 22.6965 16.9233 22.9727 16.9233C23.2488 16.9233 23.4727 17.1472 23.4727 17.4233Z" fill="#F2F2F2" stroke="#F2F2F2"/>
<path d="M21.6289 15.5874C21.6289 15.8635 21.405 16.0874 21.1289 16.0874C20.8528 16.0874 20.6289 15.8635 20.6289 15.5874C20.6289 15.3113 20.8528 15.0874 21.1289 15.0874C21.405 15.0874 21.6289 15.3113 21.6289 15.5874Z" fill="#F2F2F2" stroke="#F2F2F2"/>
</svg>
