<svg width="40" height="36" viewBox="0 0 40 36" fill="none" xmlns="http://www.w3.org/2000/svg">
<g clip-path="url(#clip0_20852_203197)">
<g clip-path="url(#clip1_20852_203197)">
<path d="M10.0025 16.92C10.0325 15.74 10.2925 14.56 10.8125 13.48C11.4825 12.09 12.4925 10.87 13.6925 9.91C14.3225 9.41 15.0025 8.96 15.7425 8.65C16.6325 8.27 17.5925 8.09 18.5525 8C23.3325 8 27.2725 10.57 27.9925 14.65C28.6825 18.55 27.4125 22.52 24.0225 24.72C23.8625 24.83 23.6925 24.93 23.5225 25.02C21.2225 26.32 18.7725 26.48 16.2725 25.75C15.5225 25.53 14.7825 25.34 14.1025 24.94C13.6325 24.67 13.2125 24.32 12.8225 23.94C10.9825 22.13 9.94246 19.51 10.0025 16.92Z" stroke="#F2F2F2" stroke-width="2.3" stroke-miterlimit="10" stroke-linecap="round"/>
<path d="M14.1133 18.0303C14.1933 18.3703 14.2833 18.7203 14.3933 19.0503C14.9733 20.9103 17.2933 22.0703 19.0933 22.3203" stroke="#F2F2F2" stroke-width="2.3" stroke-miterlimit="10" stroke-linecap="round"/>
<path d="M25.9023 23.8604C25.9023 23.8604 26.9423 25.0204 27.2123 25.2504C28.3023 26.1904 28.5623 26.4704 29.7523 27.9904" stroke="#F2F2F2" stroke-width="2.3" stroke-miterlimit="10" stroke-linecap="round"/>
<path d="M19.293 11.8203C20.873 11.9503 22.393 12.7803 23.343 14.0503C24.003 14.9303 24.403 16.0503 24.273 17.1503" stroke="#F2F2F2" stroke-width="2.3" stroke-miterlimit="10" stroke-linecap="round"/>
</g>
</g>
<defs>
<clipPath id="clip0_20852_203197">
<rect width="24" height="24" fill="white" transform="translate(8 6)"/>
</clipPath>
<clipPath id="clip1_20852_203197">
<rect width="24" height="24" fill="white" transform="translate(8 6)"/>
</clipPath>
</defs>
</svg>
