<svg width="24" height="24" viewBox="0 0 24 24" fill="none" xmlns="http://www.w3.org/2000/svg">
<path d="M2.20266 10.92C2.23266 9.74 2.49266 8.56 3.01266 7.48C3.68266 6.09 4.69266 4.87 5.89266 3.91C6.52266 3.41 7.20266 2.96 7.94266 2.65C8.83266 2.27 9.79266 2.09 10.7527 2C15.5327 2 19.4727 4.57 20.1927 8.65C20.8827 12.55 19.6127 16.52 16.2227 18.72C16.0627 18.83 15.8927 18.93 15.7227 19.02C13.4227 20.32 10.9727 20.48 8.47266 19.75C7.72266 19.53 6.98266 19.34 6.30266 18.94C5.83266 18.67 5.41266 18.32 5.02266 17.94C3.18266 16.13 2.14266 13.51 2.20266 10.92Z" stroke="#F2F2F2" stroke-width="2" stroke-miterlimit="10" stroke-linecap="round"/>
<path d="M18.1025 17.8604C18.1025 17.8604 19.1425 19.0204 19.4125 19.2504C20.5025 20.1904 20.7625 20.4704 21.9525 21.9904" stroke="#F2F2F2" stroke-width="2" stroke-miterlimit="10" stroke-linecap="round"/>
</svg>
