<svg width="24" height="24" viewBox="0 0 24 24" fill="none" xmlns="http://www.w3.org/2000/svg">
<path d="M4.05146 8C4.03559 11.1985 4.06729 14.0584 4.05142 17.2569C4.05142 17.8337 4.05075 20.9596 4.05075 20.9596C4.05075 20.9596 14.7604 21.0388 19.9878 20.9596L19.8015 15.5L19.9878 8.45742" stroke="#F7F9FA" stroke-width="2" stroke-linecap="round" stroke-linejoin="round"/>
<path d="M23 7.99987C15.6667 7.96863 8.33333 7.9452 1 7.91396C1.78254 6.01602 2.87165 3.92283 3.66227 2.01709L11 2.4L19.9586 2.00146C20.8863 4.00874 22.0722 5.99259 23 7.99206V7.99987Z" stroke="#F7F9FA" stroke-width="2" stroke-linecap="round" stroke-linejoin="round"/>
<path d="M16 17H8L8.27677 11.183L15.9407 11L16 17Z" stroke="#F7F9FA" stroke-width="2" stroke-linecap="round" stroke-linejoin="round"/>
</svg>
