<svg width="359" height="657" viewBox="0 0 359 657" fill="none" xmlns="http://www.w3.org/2000/svg">
<rect x="324.5" y="318" width="31" height="32" rx="4" fill="#392F41"/>
<rect x="138.5" y="222" width="172" height="23" rx="4" fill="#392F41"/>
<rect x="138.5" y="253" width="103" height="19" rx="4" fill="#392F41"/>
<rect x="138.5" y="280" width="138" height="19" rx="4" fill="#392F41"/>
<rect x="138.5" y="307" width="69" height="19" rx="4" fill="#392F41"/>
<rect x="0.5" y="222" width="128" height="128" rx="4" fill="#392F41"/>
<rect x="324.5" y="466" width="31" height="32" rx="4" fill="#392F41"/>
<rect x="138.5" y="370" width="172" height="23" rx="4" fill="#392F41"/>
<rect x="138.5" y="401" width="103" height="19" rx="4" fill="#392F41"/>
<rect x="138.5" y="428" width="138" height="19" rx="4" fill="#392F41"/>
<rect x="138.5" y="455" width="69" height="19" rx="4" fill="#392F41"/>
<rect x="0.5" y="370" width="128" height="128" rx="4" fill="#392F41"/>
<rect x="324.5" y="614" width="31" height="32" rx="4" fill="#392F41"/>
<rect x="138.5" y="518" width="172" height="23" rx="4" fill="#392F41"/>
<rect x="138.5" y="549" width="103" height="19" rx="4" fill="#392F41"/>
<rect x="138.5" y="576" width="138" height="19" rx="4" fill="#392F41"/>
<rect x="138.5" y="603" width="69" height="19" rx="4" fill="#392F41"/>
<rect x="0.5" y="518" width="128" height="128" rx="4" fill="#392F41"/>
<rect y="165" width="138" height="32" rx="4" fill="#392F41"/>
<rect x="146" y="165" width="138" height="32" rx="4" fill="#392F41"/>
<path d="M7.325 143.168C6.947 143.168 6.639 143.077 6.401 142.895C6.177 142.713 5.995 142.426 5.855 142.034L1.466 129.623C1.312 129.175 1.34 128.797 1.55 128.489C1.774 128.181 2.145 128.027 2.663 128.027C3.041 128.027 3.335 128.118 3.545 128.3C3.755 128.468 3.923 128.741 4.049 129.119L7.829 140.333H6.989L10.937 129.14C11.077 128.762 11.252 128.482 11.462 128.3C11.672 128.118 11.945 128.027 12.281 128.027C12.617 128.027 12.883 128.118 13.079 128.3C13.275 128.482 13.443 128.769 13.583 129.161L17.405 140.333H16.67L20.513 129.119C20.639 128.755 20.807 128.482 21.017 128.3C21.227 128.118 21.514 128.027 21.878 128.027C22.326 128.027 22.655 128.181 22.865 128.489C23.075 128.797 23.103 129.175 22.949 129.623L18.518 142.055C18.378 142.433 18.196 142.713 17.972 142.895C17.748 143.077 17.447 143.168 17.069 143.168C16.691 143.168 16.39 143.077 16.166 142.895C15.942 142.713 15.76 142.426 15.62 142.034L11.966 131.618H12.449L8.753 142.055C8.613 142.433 8.431 142.713 8.207 142.895C7.997 143.077 7.703 143.168 7.325 143.168ZM27.3739 143.21C26.6319 143.21 25.9669 143.07 25.3789 142.79C24.8049 142.496 24.3499 142.104 24.0139 141.614C23.6919 141.124 23.5309 140.571 23.5309 139.955C23.5309 139.199 23.7269 138.604 24.1189 138.17C24.5109 137.722 25.1479 137.4 26.0299 137.204C26.9119 137.008 28.0949 136.91 29.5789 136.91H30.6289V138.422H29.5999C28.7319 138.422 28.0389 138.464 27.5209 138.548C27.0029 138.632 26.6319 138.779 26.4079 138.989C26.1979 139.185 26.0929 139.465 26.0929 139.829C26.0929 140.291 26.2539 140.669 26.5759 140.963C26.8979 141.257 27.3459 141.404 27.9199 141.404C28.3819 141.404 28.7879 141.299 29.1379 141.089C29.5019 140.865 29.7889 140.564 29.9989 140.186C30.2089 139.808 30.3139 139.374 30.3139 138.884V136.469C30.3139 135.769 30.1599 135.265 29.8519 134.957C29.5439 134.649 29.0259 134.495 28.2979 134.495C27.8919 134.495 27.4509 134.544 26.9749 134.642C26.5129 134.74 26.0229 134.908 25.5049 135.146C25.2389 135.272 25.0009 135.307 24.7909 135.251C24.5949 135.195 24.4409 135.083 24.3289 134.915C24.2169 134.733 24.1609 134.537 24.1609 134.327C24.1609 134.117 24.2169 133.914 24.3289 133.718C24.4409 133.508 24.6299 133.354 24.8959 133.256C25.5399 132.99 26.1559 132.801 26.7439 132.689C27.3459 132.577 27.8919 132.521 28.3819 132.521C29.3899 132.521 30.2159 132.675 30.8599 132.983C31.5179 133.291 32.0079 133.76 32.3299 134.39C32.6519 135.006 32.8129 135.804 32.8129 136.784V141.824C32.8129 142.258 32.7079 142.594 32.4979 142.832C32.2879 143.056 31.9869 143.168 31.5949 143.168C31.2029 143.168 30.8949 143.056 30.6709 142.832C30.4609 142.594 30.3559 142.258 30.3559 141.824V140.816H30.5239C30.4259 141.306 30.2299 141.733 29.9359 142.097C29.6559 142.447 29.2989 142.72 28.8649 142.916C28.4309 143.112 27.9339 143.21 27.3739 143.21ZM39.2363 143.21C38.6343 143.21 37.9973 143.147 37.3253 143.021C36.6533 142.895 36.0513 142.678 35.5193 142.37C35.2953 142.23 35.1343 142.069 35.0363 141.887C34.9523 141.691 34.9173 141.502 34.9313 141.32C34.9593 141.124 35.0293 140.956 35.1413 140.816C35.2673 140.676 35.4213 140.585 35.6033 140.543C35.7993 140.501 36.0093 140.536 36.2333 140.648C36.7933 140.914 37.3183 141.103 37.8083 141.215C38.2983 141.313 38.7813 141.362 39.2573 141.362C39.9293 141.362 40.4263 141.25 40.7483 141.026C41.0843 140.788 41.2523 140.48 41.2523 140.102C41.2523 139.78 41.1403 139.535 40.9163 139.367C40.7063 139.185 40.3843 139.052 39.9503 138.968L37.8503 138.569C36.9823 138.401 36.3173 138.086 35.8553 137.624C35.4073 137.148 35.1833 136.539 35.1833 135.797C35.1833 135.125 35.3653 134.544 35.7293 134.054C36.1073 133.564 36.6253 133.186 37.2833 132.92C37.9413 132.654 38.6973 132.521 39.5513 132.521C40.1673 132.521 40.7413 132.591 41.2733 132.731C41.8193 132.857 42.3443 133.06 42.8483 133.34C43.0583 133.452 43.1983 133.599 43.2683 133.781C43.3523 133.963 43.3733 134.152 43.3313 134.348C43.2893 134.53 43.2053 134.698 43.0793 134.852C42.9533 134.992 42.7923 135.083 42.5963 135.125C42.4143 135.153 42.2043 135.111 41.9663 134.999C41.5323 134.775 41.1123 134.614 40.7063 134.516C40.3143 134.418 39.9363 134.369 39.5723 134.369C38.8863 134.369 38.3753 134.488 38.0393 134.726C37.7173 134.964 37.5563 135.279 37.5563 135.671C37.5563 135.965 37.6543 136.21 37.8503 136.406C38.0463 136.602 38.3473 136.735 38.7533 136.805L40.8533 137.204C41.7633 137.372 42.4493 137.68 42.9113 138.128C43.3873 138.576 43.6253 139.178 43.6253 139.934C43.6253 140.956 43.2263 141.761 42.4283 142.349C41.6303 142.923 40.5663 143.21 39.2363 143.21ZM52.7764 143.168C52.3564 143.168 52.0344 143.056 51.8104 142.832C51.5864 142.594 51.4744 142.258 51.4744 141.824V133.886C51.4744 133.452 51.5864 133.123 51.8104 132.899C52.0344 132.675 52.3494 132.563 52.7554 132.563C53.1614 132.563 53.4764 132.675 53.7004 132.899C53.9244 133.123 54.0364 133.452 54.0364 133.886V135.419L53.8054 134.789C54.0854 134.089 54.5194 133.536 55.1074 133.13C55.6954 132.724 56.3954 132.521 57.2074 132.521C58.0334 132.521 58.7124 132.717 59.2444 133.109C59.7764 133.501 60.1474 134.103 60.3574 134.915H60.0634C60.3434 134.173 60.8054 133.592 61.4494 133.172C62.0934 132.738 62.8354 132.521 63.6754 132.521C64.4594 132.521 65.1034 132.675 65.6074 132.983C66.1254 133.291 66.5104 133.76 66.7624 134.39C67.0144 135.006 67.1404 135.79 67.1404 136.742V141.824C67.1404 142.258 67.0214 142.594 66.7834 142.832C66.5594 143.056 66.2374 143.168 65.8174 143.168C65.3974 143.168 65.0754 143.056 64.8514 142.832C64.6274 142.594 64.5154 142.258 64.5154 141.824V136.847C64.5154 136.063 64.3824 135.489 64.1164 135.125C63.8644 134.761 63.4304 134.579 62.8144 134.579C62.1284 134.579 61.5894 134.824 61.1974 135.314C60.8054 135.79 60.6094 136.455 60.6094 137.309V141.824C60.6094 142.258 60.4974 142.594 60.2734 142.832C60.0494 143.056 59.7274 143.168 59.3074 143.168C58.8874 143.168 58.5584 143.056 58.3204 142.832C58.0964 142.594 57.9844 142.258 57.9844 141.824V136.847C57.9844 136.063 57.8514 135.489 57.5854 135.125C57.3334 134.761 56.9064 134.579 56.3044 134.579C55.6184 134.579 55.0794 134.824 54.6874 135.314C54.2954 135.79 54.0994 136.455 54.0994 137.309V141.824C54.0994 142.72 53.6584 143.168 52.7764 143.168ZM74.5314 143.21C73.4674 143.21 72.5434 142.993 71.7594 142.559C70.9754 142.125 70.3664 141.509 69.9324 140.711C69.4984 139.899 69.2814 138.947 69.2814 137.855C69.2814 137.029 69.4004 136.294 69.6384 135.65C69.8904 134.992 70.2474 134.432 70.7094 133.97C71.1714 133.494 71.7244 133.137 72.3684 132.899C73.0124 132.647 73.7334 132.521 74.5314 132.521C75.5954 132.521 76.5194 132.738 77.3034 133.172C78.0874 133.606 78.6964 134.222 79.1304 135.02C79.5644 135.818 79.7814 136.763 79.7814 137.855C79.7814 138.681 79.6554 139.423 79.4034 140.081C79.1654 140.739 78.8154 141.306 78.3534 141.782C77.8914 142.244 77.3384 142.601 76.6944 142.853C76.0504 143.091 75.3294 143.21 74.5314 143.21ZM74.5314 141.215C75.0494 141.215 75.5044 141.089 75.8964 140.837C76.2884 140.585 76.5894 140.214 76.7994 139.724C77.0234 139.22 77.1354 138.597 77.1354 137.855C77.1354 136.735 76.8974 135.902 76.4214 135.356C75.9454 134.796 75.3154 134.516 74.5314 134.516C74.0134 134.516 73.5584 134.642 73.1664 134.894C72.7744 135.132 72.4664 135.503 72.2424 136.007C72.0324 136.497 71.9274 137.113 71.9274 137.855C71.9274 138.961 72.1654 139.801 72.6414 140.375C73.1174 140.935 73.7474 141.215 74.5314 141.215ZM76.5264 130.547C76.1064 130.547 75.7844 130.435 75.5604 130.211C75.3364 129.987 75.2244 129.665 75.2244 129.245C75.2244 128.839 75.3364 128.524 75.5604 128.3C75.7844 128.076 76.1064 127.964 76.5264 127.964C76.9324 127.964 77.2474 128.076 77.4714 128.3C77.6954 128.524 77.8074 128.839 77.8074 129.245C77.8074 129.665 77.6954 129.987 77.4714 130.211C77.2614 130.435 76.9464 130.547 76.5264 130.547ZM72.5574 130.547C72.1514 130.547 71.8294 130.435 71.5914 130.211C71.3674 129.987 71.2554 129.665 71.2554 129.245C71.2554 128.839 71.3674 128.524 71.5914 128.3C71.8294 128.076 72.1514 127.964 72.5574 127.964C72.9774 127.964 73.2994 128.076 73.5234 128.3C73.7474 128.524 73.8594 128.839 73.8594 129.245C73.8594 129.665 73.7474 129.987 73.5234 130.211C73.2994 130.435 72.9774 130.547 72.5574 130.547ZM86.694 143.21C85.616 143.21 84.678 142.993 83.88 142.559C83.082 142.111 82.466 141.481 82.032 140.669C81.598 139.857 81.381 138.905 81.381 137.813C81.381 136.987 81.5 136.252 81.738 135.608C81.99 134.95 82.347 134.397 82.809 133.949C83.271 133.487 83.831 133.137 84.489 132.899C85.147 132.647 85.882 132.521 86.694 132.521C87.156 132.521 87.653 132.584 88.185 132.71C88.731 132.836 89.242 133.046 89.718 133.34C89.942 133.48 90.089 133.648 90.159 133.844C90.229 134.04 90.243 134.243 90.201 134.453C90.159 134.649 90.068 134.824 89.928 134.978C89.802 135.118 89.641 135.209 89.445 135.251C89.249 135.279 89.032 135.23 88.794 135.104C88.486 134.922 88.171 134.789 87.849 134.705C87.527 134.607 87.219 134.558 86.925 134.558C86.463 134.558 86.057 134.635 85.707 134.789C85.357 134.929 85.056 135.139 84.804 135.419C84.566 135.685 84.384 136.021 84.258 136.427C84.132 136.833 84.069 137.302 84.069 137.834C84.069 138.87 84.314 139.689 84.804 140.291C85.308 140.879 86.015 141.173 86.925 141.173C87.219 141.173 87.52 141.131 87.828 141.047C88.15 140.963 88.472 140.83 88.794 140.648C89.032 140.522 89.242 140.48 89.424 140.522C89.62 140.564 89.781 140.662 89.907 140.816C90.033 140.956 90.11 141.131 90.138 141.341C90.166 141.537 90.138 141.733 90.054 141.929C89.984 142.125 89.844 142.286 89.634 142.412C89.172 142.692 88.682 142.895 88.164 143.021C87.646 143.147 87.156 143.21 86.694 143.21ZM93.1553 143.168C92.7353 143.168 92.4133 143.056 92.1893 142.832C91.9653 142.594 91.8533 142.258 91.8533 141.824V129.35C91.8533 128.916 91.9653 128.587 92.1893 128.363C92.4133 128.139 92.7353 128.027 93.1553 128.027C93.5753 128.027 93.8973 128.139 94.1213 128.363C94.3593 128.587 94.4783 128.916 94.4783 129.35V134.789H94.1843C94.4923 134.047 94.9683 133.487 95.6123 133.109C96.2703 132.717 97.0123 132.521 97.8383 132.521C98.6643 132.521 99.3433 132.675 99.8753 132.983C100.407 133.291 100.806 133.76 101.072 134.39C101.338 135.006 101.471 135.79 101.471 136.742V141.824C101.471 142.258 101.359 142.594 101.135 142.832C100.911 143.056 100.589 143.168 100.169 143.168C99.7493 143.168 99.4203 143.056 99.1823 142.832C98.9583 142.594 98.8463 142.258 98.8463 141.824V136.868C98.8463 136.07 98.6923 135.489 98.3843 135.125C98.0903 134.761 97.6283 134.579 96.9983 134.579C96.2283 134.579 95.6123 134.824 95.1503 135.314C94.7023 135.79 94.4783 136.427 94.4783 137.225V141.824C94.4783 142.72 94.0373 143.168 93.1553 143.168ZM108.841 143.21C107.931 143.21 107.168 143.056 106.552 142.748C105.95 142.44 105.502 141.992 105.208 141.404C104.914 140.802 104.767 140.06 104.767 139.178V134.705H103.675C103.339 134.705 103.08 134.621 102.898 134.453C102.716 134.271 102.625 134.026 102.625 133.718C102.625 133.396 102.716 133.151 102.898 132.983C103.08 132.815 103.339 132.731 103.675 132.731H104.767V130.82C104.767 130.386 104.879 130.057 105.103 129.833C105.341 129.609 105.67 129.497 106.09 129.497C106.51 129.497 106.832 129.609 107.056 129.833C107.28 130.057 107.392 130.386 107.392 130.82V132.731H109.618C109.954 132.731 110.213 132.815 110.395 132.983C110.577 133.151 110.668 133.396 110.668 133.718C110.668 134.026 110.577 134.271 110.395 134.453C110.213 134.621 109.954 134.705 109.618 134.705H107.392V139.031C107.392 139.703 107.539 140.207 107.833 140.543C108.127 140.879 108.603 141.047 109.261 141.047C109.499 141.047 109.709 141.026 109.891 140.984C110.073 140.942 110.234 140.914 110.374 140.9C110.542 140.886 110.682 140.942 110.794 141.068C110.906 141.18 110.962 141.418 110.962 141.782C110.962 142.062 110.913 142.314 110.815 142.538C110.731 142.748 110.57 142.895 110.332 142.979C110.15 143.035 109.912 143.084 109.618 143.126C109.324 143.182 109.065 143.21 108.841 143.21ZM117.155 143.21C115.993 143.21 114.992 142.993 114.152 142.559C113.312 142.125 112.661 141.509 112.199 140.711C111.751 139.913 111.527 138.968 111.527 137.876C111.527 136.812 111.744 135.881 112.178 135.083C112.626 134.285 113.235 133.662 114.005 133.214C114.789 132.752 115.678 132.521 116.672 132.521C117.4 132.521 118.051 132.64 118.625 132.878C119.213 133.116 119.71 133.459 120.116 133.907C120.536 134.355 120.851 134.901 121.061 135.545C121.285 136.175 121.397 136.889 121.397 137.687C121.397 137.939 121.306 138.135 121.124 138.275C120.956 138.401 120.711 138.464 120.389 138.464H113.648V136.952H119.549L119.213 137.267C119.213 136.623 119.115 136.084 118.919 135.65C118.737 135.216 118.464 134.887 118.1 134.663C117.75 134.425 117.309 134.306 116.777 134.306C116.189 134.306 115.685 134.446 115.265 134.726C114.859 134.992 114.544 135.377 114.32 135.881C114.11 136.371 114.005 136.959 114.005 137.645V137.792C114.005 138.94 114.271 139.801 114.803 140.375C115.349 140.935 116.147 141.215 117.197 141.215C117.561 141.215 117.967 141.173 118.415 141.089C118.877 140.991 119.311 140.83 119.717 140.606C120.011 140.438 120.27 140.368 120.494 140.396C120.718 140.41 120.893 140.487 121.019 140.627C121.159 140.767 121.243 140.942 121.271 141.152C121.299 141.348 121.257 141.551 121.145 141.761C121.047 141.971 120.872 142.153 120.62 142.307C120.13 142.615 119.563 142.846 118.919 143C118.289 143.14 117.701 143.21 117.155 143.21ZM127.235 143.21C126.633 143.21 125.996 143.147 125.324 143.021C124.652 142.895 124.05 142.678 123.518 142.37C123.294 142.23 123.133 142.069 123.035 141.887C122.951 141.691 122.916 141.502 122.93 141.32C122.958 141.124 123.028 140.956 123.14 140.816C123.266 140.676 123.42 140.585 123.602 140.543C123.798 140.501 124.008 140.536 124.232 140.648C124.792 140.914 125.317 141.103 125.807 141.215C126.297 141.313 126.78 141.362 127.256 141.362C127.928 141.362 128.425 141.25 128.747 141.026C129.083 140.788 129.251 140.48 129.251 140.102C129.251 139.78 129.139 139.535 128.915 139.367C128.705 139.185 128.383 139.052 127.949 138.968L125.849 138.569C124.981 138.401 124.316 138.086 123.854 137.624C123.406 137.148 123.182 136.539 123.182 135.797C123.182 135.125 123.364 134.544 123.728 134.054C124.106 133.564 124.624 133.186 125.282 132.92C125.94 132.654 126.696 132.521 127.55 132.521C128.166 132.521 128.74 132.591 129.272 132.731C129.818 132.857 130.343 133.06 130.847 133.34C131.057 133.452 131.197 133.599 131.267 133.781C131.351 133.963 131.372 134.152 131.33 134.348C131.288 134.53 131.204 134.698 131.078 134.852C130.952 134.992 130.791 135.083 130.595 135.125C130.413 135.153 130.203 135.111 129.965 134.999C129.531 134.775 129.111 134.614 128.705 134.516C128.313 134.418 127.935 134.369 127.571 134.369C126.885 134.369 126.374 134.488 126.038 134.726C125.716 134.964 125.555 135.279 125.555 135.671C125.555 135.965 125.653 136.21 125.849 136.406C126.045 136.602 126.346 136.735 126.752 136.805L128.852 137.204C129.762 137.372 130.448 137.68 130.91 138.128C131.386 138.576 131.624 139.178 131.624 139.934C131.624 140.956 131.225 141.761 130.427 142.349C129.629 142.923 128.565 143.21 127.235 143.21ZM138.332 143.21C137.422 143.21 136.659 143.056 136.043 142.748C135.441 142.44 134.993 141.992 134.699 141.404C134.405 140.802 134.258 140.06 134.258 139.178V134.705H133.166C132.83 134.705 132.571 134.621 132.389 134.453C132.207 134.271 132.116 134.026 132.116 133.718C132.116 133.396 132.207 133.151 132.389 132.983C132.571 132.815 132.83 132.731 133.166 132.731H134.258V130.82C134.258 130.386 134.37 130.057 134.594 129.833C134.832 129.609 135.161 129.497 135.581 129.497C136.001 129.497 136.323 129.609 136.547 129.833C136.771 130.057 136.883 130.386 136.883 130.82V132.731H139.109C139.445 132.731 139.704 132.815 139.886 132.983C140.068 133.151 140.159 133.396 140.159 133.718C140.159 134.026 140.068 134.271 139.886 134.453C139.704 134.621 139.445 134.705 139.109 134.705H136.883V139.031C136.883 139.703 137.03 140.207 137.324 140.543C137.618 140.879 138.094 141.047 138.752 141.047C138.99 141.047 139.2 141.026 139.382 140.984C139.564 140.942 139.725 140.914 139.865 140.9C140.033 140.886 140.173 140.942 140.285 141.068C140.397 141.18 140.453 141.418 140.453 141.782C140.453 142.062 140.404 142.314 140.306 142.538C140.222 142.748 140.061 142.895 139.823 142.979C139.641 143.035 139.403 143.084 139.109 143.126C138.815 143.182 138.556 143.21 138.332 143.21ZM151.336 143.21C150.44 143.21 149.649 142.993 148.963 142.559C148.291 142.125 147.766 141.509 147.388 140.711C147.01 139.899 146.821 138.947 146.821 137.855C146.821 136.749 147.01 135.804 147.388 135.02C147.766 134.222 148.291 133.606 148.963 133.172C149.649 132.738 150.44 132.521 151.336 132.521C152.19 132.521 152.932 132.731 153.562 133.151C154.206 133.571 154.64 134.124 154.864 134.81H154.633V129.35C154.633 128.916 154.745 128.587 154.969 128.363C155.193 128.139 155.515 128.027 155.935 128.027C156.355 128.027 156.677 128.139 156.901 128.363C157.139 128.587 157.258 128.916 157.258 129.35V141.824C157.258 142.258 157.146 142.594 156.922 142.832C156.698 143.056 156.376 143.168 155.956 143.168C155.536 143.168 155.214 143.056 154.99 142.832C154.766 142.594 154.654 142.258 154.654 141.824V140.186L154.885 140.816C154.675 141.544 154.248 142.125 153.604 142.559C152.96 142.993 152.204 143.21 151.336 143.21ZM152.071 141.215C152.589 141.215 153.044 141.089 153.436 140.837C153.828 140.585 154.129 140.214 154.339 139.724C154.563 139.22 154.675 138.597 154.675 137.855C154.675 136.735 154.437 135.902 153.961 135.356C153.485 134.796 152.855 134.516 152.071 134.516C151.553 134.516 151.098 134.642 150.706 134.894C150.314 135.132 150.006 135.503 149.782 136.007C149.572 136.497 149.467 137.113 149.467 137.855C149.467 138.961 149.705 139.801 150.181 140.375C150.657 140.935 151.287 141.215 152.071 141.215ZM163.697 143.21C162.843 143.21 162.136 143.056 161.576 142.748C161.016 142.426 160.596 141.95 160.316 141.32C160.05 140.69 159.917 139.906 159.917 138.968V133.886C159.917 133.438 160.029 133.109 160.253 132.899C160.477 132.675 160.799 132.563 161.219 132.563C161.639 132.563 161.961 132.675 162.185 132.899C162.423 133.109 162.542 133.438 162.542 133.886V139.01C162.542 139.738 162.689 140.277 162.983 140.627C163.277 140.977 163.746 141.152 164.39 141.152C165.09 141.152 165.664 140.914 166.112 140.438C166.56 139.948 166.784 139.304 166.784 138.506V133.886C166.784 133.438 166.896 133.109 167.12 132.899C167.344 132.675 167.666 132.563 168.086 132.563C168.506 132.563 168.828 132.675 169.052 132.899C169.29 133.109 169.409 133.438 169.409 133.886V141.824C169.409 142.72 168.982 143.168 168.128 143.168C167.722 143.168 167.407 143.056 167.183 142.832C166.959 142.594 166.847 142.258 166.847 141.824V140.228L167.141 140.858C166.847 141.614 166.399 142.195 165.797 142.601C165.209 143.007 164.509 143.21 163.697 143.21ZM182.904 143.21C181.742 143.21 180.741 142.993 179.901 142.559C179.061 142.125 178.41 141.509 177.948 140.711C177.5 139.913 177.276 138.968 177.276 137.876C177.276 136.812 177.493 135.881 177.927 135.083C178.375 134.285 178.984 133.662 179.754 133.214C180.538 132.752 181.427 132.521 182.421 132.521C183.149 132.521 183.8 132.64 184.374 132.878C184.962 133.116 185.459 133.459 185.865 133.907C186.285 134.355 186.6 134.901 186.81 135.545C187.034 136.175 187.146 136.889 187.146 137.687C187.146 137.939 187.055 138.135 186.873 138.275C186.705 138.401 186.46 138.464 186.138 138.464H179.397V136.952H185.298L184.962 137.267C184.962 136.623 184.864 136.084 184.668 135.65C184.486 135.216 184.213 134.887 183.849 134.663C183.499 134.425 183.058 134.306 182.526 134.306C181.938 134.306 181.434 134.446 181.014 134.726C180.608 134.992 180.293 135.377 180.069 135.881C179.859 136.371 179.754 136.959 179.754 137.645V137.792C179.754 138.94 180.02 139.801 180.552 140.375C181.098 140.935 181.896 141.215 182.946 141.215C183.31 141.215 183.716 141.173 184.164 141.089C184.626 140.991 185.06 140.83 185.466 140.606C185.76 140.438 186.019 140.368 186.243 140.396C186.467 140.41 186.642 140.487 186.768 140.627C186.908 140.767 186.992 140.942 187.02 141.152C187.048 141.348 187.006 141.551 186.894 141.761C186.796 141.971 186.621 142.153 186.369 142.307C185.879 142.615 185.312 142.846 184.668 143C184.038 143.14 183.45 143.21 182.904 143.21ZM190.526 143.168C190.106 143.168 189.784 143.056 189.56 142.832C189.336 142.594 189.224 142.258 189.224 141.824V133.886C189.224 133.452 189.336 133.123 189.56 132.899C189.784 132.675 190.099 132.563 190.505 132.563C190.911 132.563 191.226 132.675 191.45 132.899C191.674 133.123 191.786 133.452 191.786 133.886V135.314L191.555 134.789C191.863 134.047 192.339 133.487 192.983 133.109C193.641 132.717 194.383 132.521 195.209 132.521C196.035 132.521 196.714 132.675 197.246 132.983C197.778 133.291 198.177 133.76 198.443 134.39C198.709 135.006 198.842 135.79 198.842 136.742V141.824C198.842 142.258 198.73 142.594 198.506 142.832C198.282 143.056 197.96 143.168 197.54 143.168C197.12 143.168 196.791 143.056 196.553 142.832C196.329 142.594 196.217 142.258 196.217 141.824V136.868C196.217 136.07 196.063 135.489 195.755 135.125C195.461 134.761 194.999 134.579 194.369 134.579C193.599 134.579 192.983 134.824 192.521 135.314C192.073 135.79 191.849 136.427 191.849 137.225V141.824C191.849 142.72 191.408 143.168 190.526 143.168ZM206.213 143.21C205.303 143.21 204.54 143.056 203.924 142.748C203.322 142.44 202.874 141.992 202.58 141.404C202.286 140.802 202.139 140.06 202.139 139.178V134.705H201.047C200.711 134.705 200.452 134.621 200.27 134.453C200.088 134.271 199.997 134.026 199.997 133.718C199.997 133.396 200.088 133.151 200.27 132.983C200.452 132.815 200.711 132.731 201.047 132.731H202.139V130.82C202.139 130.386 202.251 130.057 202.475 129.833C202.713 129.609 203.042 129.497 203.462 129.497C203.882 129.497 204.204 129.609 204.428 129.833C204.652 130.057 204.764 130.386 204.764 130.82V132.731H206.99C207.326 132.731 207.585 132.815 207.767 132.983C207.949 133.151 208.04 133.396 208.04 133.718C208.04 134.026 207.949 134.271 207.767 134.453C207.585 134.621 207.326 134.705 206.99 134.705H204.764V139.031C204.764 139.703 204.911 140.207 205.205 140.543C205.499 140.879 205.975 141.047 206.633 141.047C206.871 141.047 207.081 141.026 207.263 140.984C207.445 140.942 207.606 140.914 207.746 140.9C207.914 140.886 208.054 140.942 208.166 141.068C208.278 141.18 208.334 141.418 208.334 141.782C208.334 142.062 208.285 142.314 208.187 142.538C208.103 142.748 207.942 142.895 207.704 142.979C207.522 143.035 207.284 143.084 206.99 143.126C206.696 143.182 206.437 143.21 206.213 143.21ZM213.414 143.21C212.518 143.21 211.727 142.993 211.041 142.559C210.369 142.125 209.844 141.509 209.466 140.711C209.088 139.899 208.899 138.947 208.899 137.855C208.899 136.749 209.088 135.804 209.466 135.02C209.844 134.222 210.369 133.606 211.041 133.172C211.727 132.738 212.518 132.521 213.414 132.521C214.268 132.521 215.01 132.731 215.64 133.151C216.284 133.571 216.718 134.124 216.942 134.81H216.711V129.35C216.711 128.916 216.823 128.587 217.047 128.363C217.271 128.139 217.593 128.027 218.013 128.027C218.433 128.027 218.755 128.139 218.979 128.363C219.217 128.587 219.336 128.916 219.336 129.35V141.824C219.336 142.258 219.224 142.594 219 142.832C218.776 143.056 218.454 143.168 218.034 143.168C217.614 143.168 217.292 143.056 217.068 142.832C216.844 142.594 216.732 142.258 216.732 141.824V140.186L216.963 140.816C216.753 141.544 216.326 142.125 215.682 142.559C215.038 142.993 214.282 143.21 213.414 143.21ZM214.149 141.215C214.667 141.215 215.122 141.089 215.514 140.837C215.906 140.585 216.207 140.214 216.417 139.724C216.641 139.22 216.753 138.597 216.753 137.855C216.753 136.735 216.515 135.902 216.039 135.356C215.563 134.796 214.933 134.516 214.149 134.516C213.631 134.516 213.176 134.642 212.784 134.894C212.392 135.132 212.084 135.503 211.86 136.007C211.65 136.497 211.545 137.113 211.545 137.855C211.545 138.961 211.783 139.801 212.259 140.375C212.735 140.935 213.365 141.215 214.149 141.215ZM227.118 143.21C225.956 143.21 224.955 142.993 224.115 142.559C223.275 142.125 222.624 141.509 222.162 140.711C221.714 139.913 221.49 138.968 221.49 137.876C221.49 136.812 221.707 135.881 222.141 135.083C222.589 134.285 223.198 133.662 223.968 133.214C224.752 132.752 225.641 132.521 226.635 132.521C227.363 132.521 228.014 132.64 228.588 132.878C229.176 133.116 229.673 133.459 230.079 133.907C230.499 134.355 230.814 134.901 231.024 135.545C231.248 136.175 231.36 136.889 231.36 137.687C231.36 137.939 231.269 138.135 231.087 138.275C230.919 138.401 230.674 138.464 230.352 138.464H223.611V136.952H229.512L229.176 137.267C229.176 136.623 229.078 136.084 228.882 135.65C228.7 135.216 228.427 134.887 228.063 134.663C227.713 134.425 227.272 134.306 226.74 134.306C226.152 134.306 225.648 134.446 225.228 134.726C224.822 134.992 224.507 135.377 224.283 135.881C224.073 136.371 223.968 136.959 223.968 137.645V137.792C223.968 138.94 224.234 139.801 224.766 140.375C225.312 140.935 226.11 141.215 227.16 141.215C227.524 141.215 227.93 141.173 228.378 141.089C228.84 140.991 229.274 140.83 229.68 140.606C229.974 140.438 230.233 140.368 230.457 140.396C230.681 140.41 230.856 140.487 230.982 140.627C231.122 140.767 231.206 140.942 231.234 141.152C231.262 141.348 231.22 141.551 231.108 141.761C231.01 141.971 230.835 142.153 230.583 142.307C230.093 142.615 229.526 142.846 228.882 143C228.252 143.14 227.664 143.21 227.118 143.21ZM238.185 143.21C237.107 143.21 236.169 142.993 235.371 142.559C234.573 142.111 233.957 141.481 233.523 140.669C233.089 139.857 232.872 138.905 232.872 137.813C232.872 136.987 232.991 136.252 233.229 135.608C233.481 134.95 233.838 134.397 234.3 133.949C234.762 133.487 235.322 133.137 235.98 132.899C236.638 132.647 237.373 132.521 238.185 132.521C238.647 132.521 239.144 132.584 239.676 132.71C240.222 132.836 240.733 133.046 241.209 133.34C241.433 133.48 241.58 133.648 241.65 133.844C241.72 134.04 241.734 134.243 241.692 134.453C241.65 134.649 241.559 134.824 241.419 134.978C241.293 135.118 241.132 135.209 240.936 135.251C240.74 135.279 240.523 135.23 240.285 135.104C239.977 134.922 239.662 134.789 239.34 134.705C239.018 134.607 238.71 134.558 238.416 134.558C237.954 134.558 237.548 134.635 237.198 134.789C236.848 134.929 236.547 135.139 236.295 135.419C236.057 135.685 235.875 136.021 235.749 136.427C235.623 136.833 235.56 137.302 235.56 137.834C235.56 138.87 235.805 139.689 236.295 140.291C236.799 140.879 237.506 141.173 238.416 141.173C238.71 141.173 239.011 141.131 239.319 141.047C239.641 140.963 239.963 140.83 240.285 140.648C240.523 140.522 240.733 140.48 240.915 140.522C241.111 140.564 241.272 140.662 241.398 140.816C241.524 140.956 241.601 141.131 241.629 141.341C241.657 141.537 241.629 141.733 241.545 141.929C241.475 142.125 241.335 142.286 241.125 142.412C240.663 142.692 240.173 142.895 239.655 143.021C239.137 143.147 238.647 143.21 238.185 143.21ZM244.646 143.168C244.226 143.168 243.904 143.056 243.68 142.832C243.456 142.594 243.344 142.258 243.344 141.824V129.35C243.344 128.916 243.456 128.587 243.68 128.363C243.904 128.139 244.226 128.027 244.646 128.027C245.066 128.027 245.388 128.139 245.612 128.363C245.85 128.587 245.969 128.916 245.969 129.35V137.099H246.011L249.476 133.445C249.756 133.165 250.001 132.948 250.211 132.794C250.421 132.64 250.708 132.563 251.072 132.563C251.436 132.563 251.709 132.661 251.891 132.857C252.087 133.039 252.185 133.263 252.185 133.529C252.185 133.795 252.059 134.061 251.807 134.327L248.153 138.191V137.099L252.164 141.425C252.416 141.691 252.528 141.964 252.5 142.244C252.486 142.51 252.374 142.734 252.164 142.916C251.954 143.084 251.688 143.168 251.366 143.168C250.974 143.168 250.659 143.091 250.421 142.937C250.197 142.783 249.945 142.552 249.665 142.244L246.011 138.422H245.969V141.824C245.969 142.72 245.528 143.168 244.646 143.168ZM259.459 143.21C258.297 143.21 257.296 142.993 256.456 142.559C255.616 142.125 254.965 141.509 254.503 140.711C254.055 139.913 253.831 138.968 253.831 137.876C253.831 136.812 254.048 135.881 254.482 135.083C254.93 134.285 255.539 133.662 256.309 133.214C257.093 132.752 257.982 132.521 258.976 132.521C259.704 132.521 260.355 132.64 260.929 132.878C261.517 133.116 262.014 133.459 262.42 133.907C262.84 134.355 263.155 134.901 263.365 135.545C263.589 136.175 263.701 136.889 263.701 137.687C263.701 137.939 263.61 138.135 263.428 138.275C263.26 138.401 263.015 138.464 262.693 138.464H255.952V136.952H261.853L261.517 137.267C261.517 136.623 261.419 136.084 261.223 135.65C261.041 135.216 260.768 134.887 260.404 134.663C260.054 134.425 259.613 134.306 259.081 134.306C258.493 134.306 257.989 134.446 257.569 134.726C257.163 134.992 256.848 135.377 256.624 135.881C256.414 136.371 256.309 136.959 256.309 137.645V137.792C256.309 138.94 256.575 139.801 257.107 140.375C257.653 140.935 258.451 141.215 259.501 141.215C259.865 141.215 260.271 141.173 260.719 141.089C261.181 140.991 261.615 140.83 262.021 140.606C262.315 140.438 262.574 140.368 262.798 140.396C263.022 140.41 263.197 140.487 263.323 140.627C263.463 140.767 263.547 140.942 263.575 141.152C263.603 141.348 263.561 141.551 263.449 141.761C263.351 141.971 263.176 142.153 262.924 142.307C262.434 142.615 261.867 142.846 261.223 143C260.593 143.14 260.005 143.21 259.459 143.21ZM267.082 143.168C266.662 143.168 266.34 143.056 266.116 142.832C265.892 142.594 265.78 142.258 265.78 141.824V133.886C265.78 133.452 265.892 133.123 266.116 132.899C266.34 132.675 266.655 132.563 267.061 132.563C267.467 132.563 267.782 132.675 268.006 132.899C268.23 133.123 268.342 133.452 268.342 133.886V135.314L268.111 134.789C268.419 134.047 268.895 133.487 269.539 133.109C270.197 132.717 270.939 132.521 271.765 132.521C272.591 132.521 273.27 132.675 273.802 132.983C274.334 133.291 274.733 133.76 274.999 134.39C275.265 135.006 275.398 135.79 275.398 136.742V141.824C275.398 142.258 275.286 142.594 275.062 142.832C274.838 143.056 274.516 143.168 274.096 143.168C273.676 143.168 273.347 143.056 273.109 142.832C272.885 142.594 272.773 142.258 272.773 141.824V136.868C272.773 136.07 272.619 135.489 272.311 135.125C272.017 134.761 271.555 134.579 270.925 134.579C270.155 134.579 269.539 134.824 269.077 135.314C268.629 135.79 268.405 136.427 268.405 137.225V141.824C268.405 142.72 267.964 143.168 267.082 143.168ZM281.116 138.716C280.85 138.716 280.64 138.632 280.486 138.464C280.346 138.282 280.276 138.044 280.276 137.75C280.276 137.316 280.325 136.91 280.423 136.532C280.535 136.14 280.71 135.748 280.948 135.356C281.186 134.964 281.501 134.551 281.893 134.117C282.187 133.781 282.418 133.487 282.586 133.235C282.768 132.969 282.894 132.717 282.964 132.479C283.048 132.241 283.09 131.996 283.09 131.744C283.09 131.282 282.922 130.918 282.586 130.652C282.25 130.386 281.774 130.253 281.158 130.253C280.598 130.253 280.087 130.33 279.625 130.484C279.177 130.624 278.722 130.827 278.26 131.093C277.952 131.275 277.672 131.359 277.42 131.345C277.182 131.317 276.986 131.226 276.832 131.072C276.678 130.918 276.58 130.729 276.538 130.505C276.496 130.281 276.531 130.05 276.643 129.812C276.755 129.574 276.958 129.357 277.252 129.161C277.826 128.783 278.484 128.496 279.226 128.3C279.968 128.09 280.668 127.985 281.326 127.985C282.208 127.985 282.978 128.132 283.636 128.426C284.308 128.72 284.826 129.126 285.19 129.644C285.568 130.162 285.757 130.771 285.757 131.471C285.757 131.905 285.694 132.318 285.568 132.71C285.442 133.088 285.239 133.473 284.959 133.865C284.679 134.243 284.294 134.656 283.804 135.104C283.37 135.496 283.02 135.853 282.754 136.175C282.502 136.497 282.313 136.805 282.187 137.099C282.075 137.393 281.998 137.708 281.956 138.044C281.942 138.24 281.858 138.401 281.704 138.527C281.564 138.653 281.368 138.716 281.116 138.716ZM281.074 143.105C280.598 143.105 280.213 142.958 279.919 142.664C279.639 142.37 279.499 141.992 279.499 141.53C279.499 141.082 279.639 140.718 279.919 140.438C280.213 140.144 280.598 139.997 281.074 139.997C281.564 139.997 281.942 140.144 282.208 140.438C282.488 140.718 282.628 141.082 282.628 141.53C282.628 141.992 282.488 142.37 282.208 142.664C281.942 142.958 281.564 143.105 281.074 143.105Z" fill="#090A0A"/>
<rect width="358" height="104" rx="4" fill="#392F41"/>
<rect y="126" width="293" height="23" rx="4" fill="#392F41"/>
</svg>
